<?xml version="1.0" encoding="UTF-8"?><svg id="Layer_1" xmlns="http://www.w3.org/2000/svg" viewBox="0 0 360.54 75.55"><defs><style>.cls-1{stroke-width:0px;}</style></defs><path class="cls-1" d="m199.17,56.14c-.48-.18-1.05-.29-1.49-.59-.73-.5-1.38-1.11-2.06-1.69-.16-.13-.33-.29-.4-.47-.2-.49-.5-1-.49-1.49.02-.64.46-1.1,1.15-1.26.16-.04.3-.18.45-.28-.12-.15-.22-.32-.36-.44-.26-.22-.55-.4-.95-.7-.2.7-.43,1.36-.57,2.03-.21.99-.35,2-.53,3-.27,1.55-.53,3.1-.84,4.64-.14.72-.39,1.42-.59,2.14-.2.7-.39,1.4-.6,2.15.61.56,1.31,1.15,1.95,1.81.22.23.42.62.4.93-.08,1.25-.76,2.26-1.37,3.32-.43.75-.65,1.67-.77,2.53-.07.48-.09.73-.62.79-.21.02-.42.2-.61.32-.96.64-1.85,1.4-2.88,1.89-1.5.72-3.02.24-4.23-.68-.72-.55-1.22-1.36-1.26-2.57-.08-2.32,1.25-3.8,2.43-5.44.42-.57.92-1.03.24-1.76-.16-.17-.15-.61-.06-.87.93-2.86,1.74-5.73,2.1-8.73.16-1.33.64-2.62.9-3.94.33-1.67.59-3.34.86-5.02.43-2.67.86-5.34,1.28-8.02.17-1.09.31-2.18.47-3.31-1,.25-1.26,1.16-1.79,1.79-.35.43-.56.96-.86,1.44-.43.68-.97,1.08-1.86.92-.86-.16-1.78-.09-2.48-.72-.39-.35-.72-.76-1.04-1.18-.54-.71-1.07-1.43-1.56-2.17-.29-.44-.42-.92-.01-1.39.07-.09.12-.28.07-.37-.48-.89.02-1.79-.05-2.68-.01-.16.26-.37.43-.53,1.04-1.02,2.09-2.04,3.12-3.07.05-.05.03-.15-.14-.16-.13-.32-.18-.71-.4-.94-.26-.28-.65-.57-1.01-.61-.43-.05-.88.21-1.33.23-.62.03-1.24-.04-1.85-.09-.77-.06-1.54-.1-2.3-.21-.24-.03-.51-.2-.69-.38-.72-.74-1.54-1.16-2.6-1.22-1.48-.08-2.95-.34-4.43-.38-1-.03-1.92-.28-2.84-.61-.07-.03-.18.05-.34.1.29.34.52.66.8.92.88.79.74,1.69.4,2.67-.22.64-.3,1.33-.44,1.99-.14.69-.3,1.39-.4,2.09-.19,1.32-.47,2.64-.5,3.96-.03,1.44.17,2.89.29,4.34.14,1.83.26,3.66.45,5.48.1.97.4,1.92.52,2.88.1.83.11,1.68.11,2.53,0,.86-.25,1.7.58,2.43.28.25.12,1.03.1,1.57,0,.22-.17.44-.29.72.19.08.35.16.52.21,1.53.43,2.05,1.37,2.27,2.97.3,2.19.27,4.46,1.34,6.51.21.4.62.64.66,1.23.06.88-.22,1.53-.8,2.05-.73.65-1.5,1.29-2.34,1.76-.44.25-1.12.29-1.62.16-1.2-.31-2.36-.76-3.52-1.21-.38-.15-.8-.42-1.01-.75-.4-.62-.98-.75-1.61-.98-1.5-.55-2.96-1.24-4.43-1.88-.09-.04-.22-.15-.22-.22.05-.78-.59-1.43-.24-2.33.33-.84.72-1.72.59-2.72-.06-.47.17-.99-.1-1.47-.05-.09-.04-.32.03-.38.87-.66.63-1.75,1.03-2.59.36-.75.54-1.59.76-2.4.37-1.38.72-2.76,1.06-4.14.12-.49.16-1,.34-1.47.16-.42.48-.77.7-1.17.17-.3.45-.64.43-.94-.11-1.83-.31-3.66-.45-5.49-.1-1.35-.18-2.71-.22-4.07-.04-1.52-.07-3.05,0-4.56.05-.97.3-1.92.44-2.88.19-1.26.35-2.54.58-3.8.11-.64.34-1.26.58-2.13-2.4.25-4.69.48-6.97.73-1,.11-2,.26-2.99.43-.85.14-1.26.58-1.26,1.43,0,.89.06,1.77-.64,2.47-.03.03-.05.1-.05.15.15,1.53-.93,2.04-2.08,2.52-1.43.6-2.73.32-3.51-1.24-.31-.63-.95-1.15-1.53-1.59-.63-.48-1.33-.8-1.76-1.55-.37-.66-.98-1.17-1.45-1.78-.23-.29-.92-.39-.47-1.01,0,0-.13-.15-.23-.2-.78-.38-.85-1.16-1.08-1.86-.1-.32-.24-.63-.3-.77.09-.38.26-.69.2-.96-.25-1.17-.2-2.25.48-3.29.14-.22.02-.61.02-.75.62-1.02,1.22-1.93,1.76-2.89.41-.73,1.67-1.51,2.44-1.36.28.06.52.32.8.52.86-.12,1.93-.32,3.01-.41.32-.03.78.14.98.38,1.13,1.41,2.57,1.69,4.28,1.42,2.21-.34,4.44-.57,6.66-.79.94-.09,1.89-.04,2.83-.05.64,0,1.29-.08,1.93,0,2.21.27,4.42.62,6.63.88,1.05.12,2.12.19,3.16.11.78-.07,1.54-.43,2.31-.66-.07-.09-.13-.18-.2-.27.21-.32.35-.78.65-.92.64-.31,1.13-1.19,2.04-.69.87.48,1.73.97,2.58,1.48.05.03-.04.31-.06.41.31.18.59.35.87.52.21.12.52.4.6.35.31-.22.54-.54.79-.83.01-.02-.12-.16-.08-.1.23-.26.51-.45.63-.72.57-1.28,2.4-1.72,3.42-.81.75.68,1.51,1.35,2.26,2.04.08.08.13.22.15.34.14.68.22,1.37.44,2.02.12.36.75.8.67.93-.48.83.11,1.66-.1,2.47-.06.23.11.51.19.86-.75.95-.62,1.37.87,2.08.55.26,1.05.62,1.66.99,2.18-.98,4.64-1.8,7.24-2.11,1.83-.22,3.67-.44,5.51-.51.85-.03,1.73.21,2.56.47,1,.31,1.93.81,2.93,1.13,1.22.4,2.3,1.55,3.1,2.55.7.87.87,1.95,1.58,2.79.3.36.15,1.08.25,1.63.05.28.1.7.28.79,1.43.74,2.2,1.95,2.55,3.46.11.49.31.97,0,1.56-.19.37.14,1.01.23,1.53.03.18.15.47.1.51-.93.61-.06,1.7-.66,2.39.49,1.13-.43,2.12-.34,3.22.01.14-.07.3-.14.43-.17.29-.48.55-.53.86-.21,1.25-1.08,2.06-1.86,2.94-.14.15-.33.28-.51.37-.96.49-1.92.97-2.89,1.43-.43.2-.92.3-1.35.5-1.91.9-3.52,2.38-5.63,2.87-.1.02-.19.08-.29.12.03.09.05.18.08.28.7.11,1.41.24,2.11.34,1.02.14,2.04.35,3.06.35.83,0,1.59-.05,2.37.38.43.23,1.05.08,1.56.2,1.31.29,2.62.61,3.92.96.66.18,1.28.48,1.93.66.2.06.58-.03.68-.18.81-1.23,1.57-2.49,2.34-3.74.58-.92,1.17-1.84,1.73-2.76.25-.41.45-.84.78-1.47-2.42-.04-3.78-1.31-4.44-3.37.07-.02.14-.03.21-.05.25-.33.49-.67.75-1,.17-.22.34-.48.57-.61,1.15-.67,2.45-.85,3.72-1.12.74-.16,1.5-.28,2.25-.43.75-.14,1.22-.52,1.6-1.25.95-1.84,2.06-3.58,3.08-5.39.97-1.71,1.88-3.46,2.85-5.17.48-.84,1.03-1.63,1.54-2.46.33-.54.65-1.08.97-1.63.36-.63.67-1.3,1.09-1.88.44-.61.99-1.14,1.38-1.59-.26-.63-.44-1.04-.69-1.63-.03-.02-.27-.14-.63-.34.22-.68.37-1.42.71-2.06.25-.48.76-.82,1.14-1.23.31-.34.59-.7.73-1.15.22-.08.45-.14.66-.23,1.17-.55,2.22-1.38,3.58-1.53.62-.07,1.23-.27,1.85-.38.25-.05.54-.06.79.01,1.19.35,2.37.73,3.55,1.11.11.04.3.16.29.23-.08.73.52,1,.94,1.36.43.38.55.7.17.91.11.79.27,1.46.28,2.13,0,.28-.33.55-.46.85-.67,1.57-.25,3.48.89,4.75.28.31.3.88.35,1.34.07.72-.04,1.48.12,2.17.19.79.24,1.45-.38,2.06-.06.06,0,.24.02.38.74,0,1.43-.05,2.11.01.79.08,1.96,1.17,2,2.02.02.52.34.58.58.65.7.2,1.43.3,2.46.49.34.4.74,1.14,1.09,2.02.35.88.04,1.78.48,2.57.07.12.05.32,0,.46-.2.52-.48,1.01-.65,1.54-.16.48-.21.99-.32,1.48-.01.07-.03.17-.07.2-.39.31-1.04.31-1.13.98,0,.03-.34.02-.51.03.15.58.02,1.07-.63,1.33-.19.08-.41.15-.54.3-.12.15-.23.41-.18.57.03.12.32.2.51.23,1.51.29,2.8.96,3.26,2.5.24.81.14,1.73.17,2.6.04,1.16-.1,2.35.15,3.46.15.66.18,1.51,1.05,2.01.37.21.48,1.14.43,1.73-.07.9.22,1.45.96,1.91.45.28.76.86,1.22,1.02.61.2,1.31.12,1.97.13,1.12,0,2.24-.02,3.35-.02.08,0,.19-.01.23.03.62.63,1.31,1.21,1.81,1.93.33.47.38,1.13.55,1.7.26.85-.36,1.65-.85,2.36-.84,1.23-2.22,1.49-3.3,2.26-.56.4-1.2.87-2.1.87-.81,0-1.61.61-2.42.91-.4.15-.83.23-1.25.3-1.15.19-2.34.61-3.45.45-1.16-.17-2.44.03-3.52-.77-.69-.51-1.56-.78-2.36-1.11-.45-.19-.66-.45-.8-.94-.23-.76-.63-1.47-1.02-2.17-.12-.21-.45-.34-.7-.43-1.14-.42-1.7-1.35-1.97-2.41-.09-.35.26-.89.54-1.24.58-.72,1.27-1.35,2.27-1.41,1.24-.07,1.67-1.16,2.19-1.94.26-.39-.02-1.21.24-1.83.12-.3.21-.64.21-.96-.01-.89-.05-1.77-.13-2.65-.07-.73-.18-1.46-.35-2.17-.16-.68-.25-1.47-.67-1.97-.63-.74-.31-1.41-.16-2.09.12-.51.51-1.09-.18-1.35-.57-.21-1.27-.35-1.82.21-.03.03-.1.03-.2.05-.03-.13-.07-.26-.1-.38-.45-.05-.98.48-1.33-.22,0-.02-.05-.03-.07-.03-1.4.03-2.68-.66-4.17-.41-1.86.31-3.8.17-5.7.23-.55.02-1.1.1-1.66.14-1.19.1-2.38.15-3.56.29-1.01.12-2.03.26-3,.55-.36.1-.63.61-.87.99-.41.64-.76,1.32-1.12,1.99-.78,1.44-1.53,2.9-2.34,4.33-.76,1.32-1.56,2.62-2.38,3.9-.23.36-.3.55.17.69.41.12.81.26,1.21.4.81.29,1.6.62,2.42.86.35.1.75,0,1.12.03.24.02.49.07.72.16.34.14.64.41.99.49.54.12.89.25.8.92-.02.2.28.53.51.64.57.26.69.69.64,1.24-.05.5,0,1.02-.17,1.48-.16.45-.3.96-.98,1.08-.84.15-1.59.57-2.49.67-.81.09-1.42-.21-2.08-.37-.7-.17-1.33-.64-2.01-.95-1.23-.56-2.46-1.11-3.72-1.6-.18-.07-.63.16-.74.36-.71,1.35-1.37,2.72-2.02,4.09-.55,1.17-1.39,1.83-2.71,2.01-.91.13-1.66-.21-2.47-.4-.65-.16-1.31-.33-1.93-.56-.62-.23-.71-.68-.43-1.28.28-.6.45-1.25.71-1.87.22-.52.47-1.02.75-1.51.42-.73.91-1.42,1.3-2.16.48-.92.34-1.27-.62-1.14-.91.12-1.54-.4-2.32-.53-.71-.11-1.41-.26-2.12-.39-.74-.13-1.53-.12-2.2-.4-1.14-.48-2.3-.5-3.5-.55-1.29-.06-2.57-.25-3.85-.38-.88-.09-1.77-.22-2.65-.26-.42-.02-.86.13-1.35.21Zm7.54-23.98s.07.03.1.05c-.05-.26-.11-.53-.16-.79-.13-.78.04-1.49.26-2.25.2-.69.56-1.08,1.06-1.48.16-.13.33-.34.35-.53.1-.93-.38-1.4-1.27-1.14-1.45.41-2.87.89-4.3,1.38-.83.29-1.63.65-2.45.97-1.36.52-2.63,1.1-2.62,2.88,0,.36-.13.72-.2,1.09-.32,1.71-.65,3.43-.94,5.14-.2,1.17-.36,2.35-.51,3.53-.02.18.06.42.18.55.47.5,1.08.69,1.75.52,1.73-.44,3.46-.89,5.19-1.36.65-.18,1.03-1.12.75-1.73.28-.31.71-.59.77-.92.06-.4-.25-.85-.3-1.28-.04-.32-.03-.73.14-.98.4-.6.93-1.11,1.35-1.69.25-.34.41-.74.58-1.13.12-.26.17-.55.25-.83Zm48.05-3.76c-.51.12-.89.12-1.15.29-.84.54-1.65.42-2.46,0-.33-.17-.6-.47-.9-.7-.79-.62-1.64-1.17-2.34-1.87-.48-.49-.8-1.16-1.1-1.8-.23-.49-.33-1.04-.53-1.71-.32.39-.62.58-.68.84-.32,1.28-1.29,2.19-1.87,3.32-.5.97-1.02,1.93-1.52,2.91-.22.45-.36.94-.6,1.37-.37.66-.85,1.25-1.21,1.91-.51.92-.94,1.88-1.43,2.8-.27.51-.6.99-.9,1.5.12.08.18.16.25.16,1.16-.04,2.32-.08,3.48-.14,1.01-.06,2.01-.16,3.02-.22.66-.04,1.32-.02,1.98-.04.11,0,.28-.11.3-.2.23-1.15.88-2.03,1.74-2.76.66-.56,1.22-1.28,2.24-1.32.35-.01,1.07-.08.67-.87.79-.17,1.55-.33,2.44-.52-.98-1.16.06-1.87.57-2.93Zm3.66,14.87c.44-.2.8-.36,1.28-.57-.61-.04-1.11-.08-1.64-.12.14.26.26.48.36.69Z"/><path class="cls-1" d="m81.56,40.19c.12.21.27.42.25.44-.58.47-.1.87.02,1.34.18.74.81,1.4.25,2.31-.26.42-.04,1.14-.03,1.73.03,1.67.05,3.34.09,5.01.04,1.43.08,2.86.19,4.29.02.3.27.65.52.87,1.06.93.66,2.99-.02,4.24-.77,1.43-2.18,1.65-3.36,2.24-1.74.86-4.94-.86-5.31-2.76-.19-.97-.08-2.01-.16-3.01-.13-1.73-.43-3.45-.42-5.18.02-1.6-.51-3.05-.76-4.57-.04-.25-.12-.54-.28-.72-.5-.57-.35-.88.3-1.01-.23-.46-.46-.86-.64-1.29-.5-1.22-1.26-1.75-2.57-1.72-1.37.03-2.71-.01-4.04-.48-1.2-.42-1.55-.87-1.26-2.1.36-1.48,1.37-2.33,2.74-2.78,1.32-.43,2.62-.93,4.04-1.1.88-.1,1.72-.68,2.54-1.13.21-.11.4-.53.36-.78-.14-1.17-.37-2.33-.56-3.49-.12-.74-.25-1.49-.37-2.23-.28-1.75-.54-3.5-.83-5.24-.04-.25-.19-.49-.32-.73-.58-1.07-.22-2.25.94-2.53.79-.19,1.69-.13,2.51,0,1.3.21,1.58,1.36,1.68,2.4.09.95-.17,1.92-.2,2.88-.03.83-.08,1.7.11,2.5.34,1.43.89,2.8,1.27,4.22.13.49.38.61.78.55.6-.09,1.19-.28,1.8-.33.36-.03.81,0,1.08.21.9.67,1.8.83,2.85.39,2.62-1.1,5.44-1.73,7.91-3.21,1.91-1.15,3.84-2.29,5.7-3.52.53-.35.9-.98,1.25-1.53.11-.16.01-.64-.15-.76-1.64-1.25-3.42-2.24-5.43-2.78-.38-.1-.75-.27-1.1-.46-1.45-.8-3-1.19-4.63-1.41-.8-.11-1.56-.53-2.36-.67-1.4-.23-2.82-.44-4.24-.5-1.27-.05-2.54.19-3.81.16-2.84-.07-5.25,1.13-7.62,2.47-1.41.8-2.88,1.38-4.49,1.57-.49.06-1.01-.03-1.5-.14-.85-.19-1.32-.87-1.3-1.75,0-.24,0-.48,0-.72.03-1.45.49-1.92,1.92-2.36,1.14-.35,2.22-.92,3.35-1.32,1.5-.54,2.98-1.2,4.53-1.48,2.75-.49,5.53-.8,8.31-1.02,1.23-.1,2.5.14,3.72.37,1.51.28,3,.71,4.5,1.08,1.8.45,3.63.83,5.38,1.42,1.56.53,3.09,1.2,4.53,2,1.65.91,3.23,1.96,4.75,3.08,1.35.99,1.94,2.3,1.32,3.73-.93,2.15-2.32,3.96-4.25,5.43-2.3,1.75-4.85,2.98-7.39,4.27-.11.06-.25.23-.23.32.02.12.19.21.3.3.04.03.1.03.16.03,1.78-.17,3.31.7,4.87,1.3,2.46.95,4.84,2.21,6.62,4.17,1.57,1.72,2.76,3.78,2.74,6.26-.01,1.61-.08,3.22-.16,4.83-.01.24-.22.47-.33.71-.36.79-.59,1.67-1.08,2.37-1.06,1.51-2.13,2.99-3.48,4.32-1.35,1.32-3.06,1.98-4.46,3.14-.75.62-1.55,1.24-2.42,1.66-3.74,1.8-7.49,3.59-11.29,5.26-1.17.51-2.51.78-3.79.88-2.33.18-4.69.35-7,.15-1.62-.14-3.18-.97-4.79-1.39-1.27-.33-1.95-1.44-3.02-2.03-.43-.24-.77-.64-1.17-.93-.75-.55-.74-1.43-.98-2.19-.21-.67.41-1.32,1.17-1.38,1.73-.14,3.36.12,4.92.95.68.36,1.52.42,2.27.67.72.24,1.4.62,2.12.83.83.24,1.69.5,2.54.52,1.51.04,3.02-.06,4.48-.62,1.61-.62,3.31-.99,4.87-1.7,2.04-.93,4-2.05,5.96-3.14,1.4-.78,2.8-1.57,4.1-2.48,1.64-1.16,3.14-2.52,4.05-4.35.59-1.17.9-2.44,1.06-3.79.14-1.17.03-2.28-.17-3.37-.27-1.43-1.19-2.57-2.38-3.37-1.16-.79-2.41-1.49-3.69-2.05-1.58-.69-3.21-1.35-4.89-1.73-1.64-.37-3.37-.41-5.06-.51-.39-.02-.8.34-1.19.53-.07.03-.1.13-.17.17-.83.43-1.67.86-2.57,1.32Z"/><path class="cls-1" d="m131.64,1.94c.23.19.46.38.69.57.71.59,1.68.83,2,1.9.39,1.29,1.01,2.5,1.42,3.79.15.48.13,1.07,0,1.57-.35,1.45-.79,2.87-1.19,4.3-.16.59-.3,1.18-.5,1.76-.38,1.12-1.3,1.65-2.31,2.11-.52.24-1,.57-1.51.83-1.15.57-2.29.54-3.42-.09-.53-.3-1.23-.4-1.65-.8-.76-.73-1.56-1.43-2.11-2.37-.77-1.34-2.95-1.28-3.74.05-.3.49-.82.84-1.12,1.33-.93,1.52-1.87,3.03-2.66,4.62-.56,1.12-.89,2.36-1.34,3.54-.07.18-.17.41-.33.5-.55.3-.58.81-.39,1.24.14.32.54.63.89.74,2.2.74,4.41.38,6.62-.03,1.82-.34,3.66-.57,5.5-.84,1.16-.17,1.18-.2,1.1-1.35-.06-.78.86-2.73,1.39-2.79,1.16-.12,2.33-.22,3.21.87.53.66,1.2,1.2,1.79,1.8.14.14.24.33.34.51.3.55.46,1.3.92,1.63.99.72,1.3,1.81,1.71,2.8.53,1.26.76,2.64.56,4.04-.11.81-.22,1.61-.29,2.42-.02.19,0,.49.13.58.57.41,1.12.8,1.34,1.53.09.3.34.55.5.83.37.65,1.38.94.98,2.07-.11.32.59.92.9,1.4.36.56.66,1.14.5,1.85-.04.18.12.39.15.6.05.34.22.78.08,1.02-.32.52-.28.83.39,1.07-.32.8-.97,1.61-.83,2.25.23,1.06-.54,1.38-.91,2.01-.62,1.08-1.12,2.22-1.78,3.27-.35.56-.85,1.19-1.42,1.42-.61.24-1.4.1-2.1.02-.38-.05-.71-.36-1.09-.49-.69-.23-1.15-.02-1.57.65-.66,1.04-1.47,1.99-2.25,2.95-.93,1.13-1.9,2.22-2.84,3.34-.85,1.02-1.96,1.6-3.17,2.07-.58.23-1.21.45-1.69.83-1.96,1.58-3.92,3.18-5.8,4.86-1.6,1.43-3.32,2.67-5.22,3.64-.9.46-1.85.84-2.81,1.12-1.19.34-3.18-.62-3.76-1.76-.29-.57-.6-1.19-.66-1.81-.11-1.06.6-1.95,1.84-2.17,1.82-.32,3.3-1.29,4.67-2.35,2.94-2.28,5.75-4.74,8.62-7.11.41-.34.51-.67.36-1.18-.16-.52-.12-1.11-.32-1.61-.5-1.29.45-2.32.58-3.49.03-.28.3-.56.52-.78,1-1.01,2.02-1.99,3.01-3.02.15-.16.17-.48.2-.73.2-1.79.12-3.6.78-5.37.28-.74.39-1.64.61-2.46.22-.85.98-1.16,1.38-1.8.05-.08.29-.06.43-.05.62.04,1.23.09,1.67-.47.05-.06.13-.1.21-.12.3-.06.78,0,.89-.17.58-.96,1.07-1.98,1.58-2.98.04-.08.02-.24-.04-.31-.67-.83-1.34-1.65-2.04-2.46-.53-.62-1.16-.47-1.87-.31-3.51.82-7.08.95-10.66.76-.88-.05-1.75-.38-2.62-.6-.13-.03-.24-.13-.37-.16-2.2-.43-3.22-2.16-4.15-3.89-1.02-1.9-.94-4-.39-5.99.52-1.87,1.29-3.68,2.11-5.45.74-1.61,1.62-3.18,2.57-4.68.6-.95,1.47-1.74,2.18-2.64.62-.78,1.17-1.61,1.75-2.43.08-.11.09-.29.19-.35,1.54-.87,2.21-2.76,3.93-3.42,1.41-.54,2.25-1.73,3.11-2.82.76-.96,3.43-1.87,4.64-.91.65.52,1.35.97,2.03,1.45l-.07.08Z"/><path class="cls-1" d="m306.38,47.55c-.59.31-.98.55-.27.95.14.08.2.38.19.58-.02.37-.12.74-.2,1.24-.5.22-.29.85-.32,1.38,0,.21.01.44.1.62.31.69-.02,1.23-.35,1.78-.04.07-.12.17-.1.21.55.92-.22,1.73-.2,2.6,0,.08.02.16,0,.23-.25.62-2.52,2.06-3.2,1.98-1.12-.14-2.27-.24-3.14-1.09-.06-.05-.13-.1-.21-.12-1.81-.34-2.64-1.92-3.87-3-.13-.12-.43-.25-.51-.19-.59.43-1.14.92-1.72,1.36-.64.48-1.31.92-1.94,1.4-.21.15-.41.35-.53.57-.42.77-1.86,1.42-2.76,1.16-.76-.22-1.5-.51-2.26-.75-.21-.07-.48-.13-.67-.06-1.38.48-2.57-.05-3.77-.62-.09-.05-.21-.1-.26-.18-.76-1.47-2.2-1.2-3.48-1.43-1.41-.25-2.77-.68-3.9-1.66-.64-.55-1.37-.97-2.02-1.51-1.6-1.31-2.42-3.17-3.33-4.93-.33-.65-.31-1.48-.4-2.24-.09-.72-.09-1.45-.19-2.16-.05-.38-.23-.74-.25-1.07.09-.8.3-1.6.24-2.39-.13-1.52.21-2.96.47-4.42.19-1.09.46-2.17.59-3.26.24-1.96,1.18-3.54,2.32-5.12,1.78-2.49,4-4.52,6.19-6.6.84-.8,1.81-1.47,2.7-2.22.19-.16.43-.42.42-.61-.09-.93.49-1.43,1.11-1.93.04-.03.1-.06.12-.1.45-1.18,1.63-1.63,2.48-2.37.73-.64,1.8-.91,2.74-1.29.5-.21,1.05-.31,1.58-.45.65-.17,1.06-.07,1.6.55.67.76,1.36,1.62,2.64,1.79,1.72.23,3.56.24,5.1,1.28.14.1.35.14.53.13,1.64-.08,2.3,1.21,2.83,2.31.31.64-.05,1.62-.18,2.44-.06.4-.25.79-.42,1.17-.06.13-.18.26-.31.32-1.35.67-2.7,1.33-4.05,2.01-.16.08-.43.25-.42.33.15.75-.56.76-.87,1.12-.31.35-.46.82-.7,1.23-.1.17-.22.35-.37.48-.35.31-.71.62-1.1.89-.53.36-1.1.68-1.64,1.01,0,0,.09.11.12.15-.71.26-1.4.55-2.11.77-.49.16-1.15-.17-1.48.49,0,0-.05,0-.08,0-.99-.16-1.98-.31-2.97-.5-.15-.03-.26-.28-.44-.22-.31,0-.65.07-.93-.01-.83-.25-1.72-.32-2.17-1.34-.19-.43-.86-.67-1.35-.93-.13-.07-.47.07-.6.21-1.37,1.58-2.76,3.14-4.05,4.79-.39.5-.49,1.24-.72,1.87-.15.42-.29.83-.42,1.25-.07.23-.17.45-.19.68-.11,1.49-.22,2.98-.3,4.47-.08,1.54-.22,3.1-.12,4.63.07,1.02.38,2.09.86,2.99.31.58,1.08,1.07,1.75,1.26,1.17.33,2.42.4,3.77.61-.1-.48-.15-.72-.21-.97.53-.42,1.02-.88,1.58-1.22.31-.19.78-.08,1.12-.25,1.56-.77,3.1-1.6,4.65-2.4.52-.27,1.04-.68,1.59-.72,1.13-.09,1.83-1.18,2.98-1.13.05,0,.11-.02.14-.06.99-.96,2.26-1.11,3.54-1.2.52-.04,1.05.04,1.57.06.68.02.88-.49.85-.98-.08-1.27.8-2.13,1.31-3.11.47-.91,1.58-1.22,2.64-1.16.52.03,1.03.23,1.54.38.14.04.28.17.36.3.59.97,1.21,1.92,1.74,2.93.19.37.12.86.22,1.28.09.37.25.73.4,1.09.04.09.18.16.19.24.1.75.2,1.5.28,2.25.06.57.1,1.14.16,1.8.15.08.37.19.75.38Z"/><path class="cls-1" d="m336.55,15.38c-1.17.2-2.34.39-3.51.59-1.41.24-2.83.44-4.22.74-2.22.48-4.43,1.05-6.64,1.57-1.21.28-2.41.62-3.66.2-.24-.08-.52-.07-.82-.11-.35,1.12-.7,2.19-1.02,3.27-.08.29-.03.62-.1.92-.11.47-.26.93-.42,1.39-.06.16-.14.34-.25.46-.3.32-.6.66-.95.91-.46.32-1.02.48-1.45.83-.66.54-1.42.58-2.17.59-1.01.02-2.02-.05-3.03-.1-.34-.02-.68-.1-1.02-.16-.66-.12-1.33-.27-1.99-.38-.85-.14-1.7-1.51-1.54-2.66.21-1.52.47-3.03.74-4.55.12-.7.3-1.39.45-2.09.02-.1.04-.22,0-.31-.72-1.77.08-2.93,1.44-3.99.5-.39.78-1.08,1.11-1.66.42-.74,1.15-.84,1.84-.89.7-.06,1.42.09,2.19.15-.02.21-.04.43-.07.69.14,0,.25.03.34,0,.55-.23,1.11-.72,1.63-.67.97.08,2.01.07,2.86.72.19.14.41.33.62.34,1.28.03,1.78.99,2.16,1.93.31.76.75.7,1.31.53,1.17-.35,2.32-.79,3.51-1.05,1.49-.33,3.06-.37,4.51-.8,2.01-.61,4.1-.23,6.1-.76,1.6-.42,3.23-.71,4.86-1.04.36-.07.74-.08,1.11-.07,1.16.02,1.76-.83,2.34-1.59,1.01-1.32,2.35-1.91,3.91-2.18.23-.04.45-.24.65-.4.67-.54,1.39-.76,2.27-.75.68,0,1.4-.23,2.03-.53.62-.29,1.19-.44,1.84-.23.05.02.1.05.15.04,1.9-.27,3.08,1.21,4.61,1.85.54.22,1.08.46,1.65.56.71.13.7.62.58,1.08-.24.96-.54,1.91-.87,2.85-.44,1.24-.9,2.47-1.42,3.68-.51,1.17-1.11,2.29-1.66,3.44-.48,1.01-.89,2.06-1.45,3.03-.56.98-1.34,1.78-2.42,2.23-.12.05-.24.09-.37.1-1.61.1-3.21.24-4.82.28-.58.01-1.17-.18-1.74-.32-1.06-.26-1.77.6-2.67.83-1.36.34-2.73.63-4.08-.08-.28-.15-.59-.24-.9-.32-.79-.19-1.46-.36-2.04-1.15-1.11-1.51-1.38-2.57-.56-4.46.06-.14.08-.32.05-.46-.11-.51.17-.76.55-1.03.27-.19.43-.53.64-.81l-.18-.17Z"/><path class="cls-1" d="m29.52,37.84c1.28-.21,2.57-.4,3.85-.63.97-.17,1.92-.42,2.89-.6,1.39-.25,2.79-.43,4.17-.72.43-.09.81-.43,1.21-.65.27-.15.52-.39.81-.42.91-.12,1.34-.85.9-1.68-.26-.5-.53-.99-.84-1.45-.52-.77-.51-1.58.06-2.22.66-.74.52-1.54.31-2.28-.39-1.43-.95-2.81-1.41-4.22-.1-.3-.04-.68-.19-.93-.76-1.25-1.73-1.34-2.88-.4-.94.76-1.97,1.43-2.95,2.15-.62.45-1.21.95-1.83,1.39-.96.69-1.98,1.31-2.91,2.03-.9.7-1.69,1.53-2.56,2.27-1.11.94-2.24,1.85-3.37,2.77-.37.3-.78.56-1.13.88-1.94,1.75-3.91,3.49-5.81,5.29-1.81,1.72-3.53,3.53-5.3,5.29-1.19,1.18-2.4,2.33-3.58,3.52-1.17,1.18-2.31,2.4-3.47,3.6-.66.69-1.29,1.42-1.99,2.06-.97.89-2.27.53-3.11-.81-.72-1.15-.46-1.66.94-2.79,1.42-1.15,2.71-2.47,4.06-3.72.45-.42.9-.82,1.34-1.25,1.2-1.16,2.37-2.35,3.61-3.48,1.64-1.5,3.33-2.94,4.98-4.43,1.09-.98,2.12-2.02,3.22-2.99,1.76-1.56,3.57-3.08,5.33-4.63,1.6-1.4,3.12-2.9,4.77-4.23,2.53-2.04,5.14-3.97,7.71-5.95.63-.48,1.25-.97,1.83-1.52.14-.13.18-.58.07-.75-.68-.96-.58-2.52.68-3.09.65-.3,1.13-.97,1.75-1.36.48-.3,1.06-.44,1.6-.64.14-.05.39,0,.44-.09.68-1.13,1.84-.7,2.81-.86,1.04-.18,2.01-.03,3.04.33,1.03.37,1.57.88,1.91,1.91.27.82.93,1.5,1.38,2.26.65,1.07.69,2.01-.29,3.21-.46.57-.48,1.78-.26,2.58.5,1.8,1.36,3.5,1.89,5.3.29.99.89,1.77,1.28,2.65.47,1.07,1.24,1.8,1.89,2.67.88,1.17,1.15,2.48.6,3.9-.11.29-.14.62-.19.93-.23,1.21-.97,2.02-1.85,2.86-.87.83-1.83,1.44-2.87,1.96-.5.25-1.13.39-1.69.35-1.41-.1-2.79-.28-4.16-.86-2.06-.87-4.26-1.01-6.49-.37-3.13.9-6.26,1.85-9.54,2.12-2.41.2-4.75.08-6.94-1.04-.81-.41-.67-1.28-.62-1.99.02-.25.48-.56.8-.68,1.96-.75,4.03-.68,6.1-.55Z"/><path class="cls-1" d="m327.21,52.91c3.3-1.45,5.87-3.99,9.36-4.5.06.09.12.17.19.26-.32.38-.65.76-1.02,1.19h1.55c.02.24-.05.52.06.61.75.63.18,1.02-.2,1.5-.67.84-1.3,1.71-1.93,2.58-.99,1.37-1.94,2.78-3.37,3.76-.19.13-.35.33-.5.51-.62.76-.62.77.19,1.28.07.04.21.08.2.11-.08.92.87,1.56.71,2.48-.29,1.63-.95,3.12-2.09,4.32-1,1.06-2.3,1.58-3.78,1.51-1.75-.08-3.5-.14-5.24-.29-1.05-.09-2.06-.36-2.78-1.28-.25-.32-.67-.5-1.03-.72-1.13-.71-1.53-2-1.87-3.07-.4-1.26-.63-2.82.88-3.91.75-.54,1.25-1.39,2.18-1.8.39-.17.64-.83.81-1.31.21-.61.27-1.27.4-1.9.29-1.33.59-2.67.87-4,.33-1.63.65-3.26.97-4.89.52-2.75,1.04-5.49,1.55-8.24.14-.77.22-1.56.33-2.34.22-1.6.43-3.2.67-4.8.19-1.3.44-2.6.61-3.91.06-.49-.09-1.01-.04-1.51.13-1.18.31-2.36.48-3.53.27-1.87,2.6-2.47,3.85-1.95.07.03.14.08.21.11.53.28,1.25.43,1.54.87.8,1.18,1.15,2.51.95,3.99-.18,1.38-.19,2.79-.3,4.18-.04.51-.2,1.01-.28,1.51-.21,1.49-.38,2.98-.62,4.46-.5,3.05-1.04,6.08-1.54,9.13-.19,1.13-.28,2.27-.5,3.39-.18.91-.53,1.79-.74,2.7-.17.73-.23,1.49-.36,2.24-.06.35-.19.69-.36,1.26Z"/><path class="cls-1" d="m57.61,43.34c1.04,1.18.77,2.43.16,3.71-.47.98-.29,1.77.56,2.47.49.4.77.83.93,1.49.18.72.74,1.33,1.12,2,.11.19.22.45.18.65-.18.95-.18,1.81.23,2.77.33.77.1,1.77.13,2.67.02.76-.21,1.37-.83,1.88-.36.29-.57.76-.87,1.12-.8.96-1.86,1.45-3.09,1.52-.96.06-1.92.12-2.87.05-2.06-.13-3.77-.96-4.5-3.01-.35-.99-.71-2.03-.46-3.16.09-.43-.1-.96-.28-1.4-.32-.82-.47-1.74-1.21-2.36-.57-.48-.48-1.18.1-1.6.6-.44,1.17-.93,1.69-1.45.16-.15.16-.49.19-.74.07-.65.12-1.31.18-1.96.02-.26.13-.58.02-.78-.34-.62,0-1.09.17-1.65.31-1,1.01-1.49,1.92-1.85.49-.19.92-.53,1.4-.72.35-.13.75-.15,1.13-.17.32-.02.64-.02.95.02.67.08,1.33.19,2,.3.36.06.71.14,1.04.21Z"/></svg>