<?xml version="1.0" encoding="UTF-8"?><svg id="Layer_1" xmlns="http://www.w3.org/2000/svg" viewBox="0 0 901.08 245.84"><defs><style>.cls-1{stroke-width:0px;}</style></defs><path class="cls-1" d="m671.17,51.09c.44.62.88,1.25,1.38,1.96-.11.47-.23.99-.36,1.55-1.3.83-2.11,2.06-2.94,3.35-.83,1.3-2,2.38-3.05,3.53-.65.71-1.37,1.37-2.05,2.05-1.95,1.96-3.96,3.87-5.84,5.89-1.18,1.26-2.19,2.68-3.27,4.05-.85,1.08-1.7,2.17-2.52,3.28-.49.66-.92,1.37-1.34,2,.39.73.84.54,1.31.37,2.15-.78,4.32-1.53,6.45-2.35.88-.34,1.75-.4,2.66-.27.9.12,1.8.2,2.87.31.27.24.67.6,1.15,1.03v2.91c-.14.17-.22.25-.28.35-1.2,1.86-2.97,2.89-5.01,3.64-1.29.47-2.48,1.2-3.69,1.87-1.55.86-3.22,1.4-4.95,1.62-.91.12-1.91-.18-2.69-.84-.53-.45-1.07-.8-1.96-.33-.3,1.42-1.44,2.77-.67,4.54.18.42-.28,1.08-.14,1.55.44,1.56.9,3.12,2.06,4.37,1.08,1.17,2.32,1.81,3.96,1.8,2.51-.02,4.6-.76,6.08-2.9.44-.64,1.05-1.17,1.64-1.69.47-.41,1.03-.7,1.69-1.15.32-1.76,1.51-2.96,3.28-3.77.79-.36,1.39-1.11,2.1-1.71,3.26-.63,6.9.12,8.66,1.49.94-2.13,2.33-3.85,4.48-4.88.38-.18.78-.35,1.11-.6.38-.28.88-.59,1.03-.99,1.23-3.47,3.29-6.53,4.92-9.81,1.1-2.21,2.29-4.37,3.47-6.53.25-.46.63-.84,1.02-1.35-.02-.32-.05-.79-.09-1.41-.81-1.1-2.3-1.93-2.59-3.83.07-.37.17-.97.28-1.6.9-.99,2.19-1.4,3.37-1.96.34-.16.83-.15,1.21-.05.81.21,1.58.53,2.44.83,1.04-.31,1.34-1.34,1.95-2.15,1.31-1.76,2.93-3.26,5.32-3.09,1.01.07,1.98.71,2.95,1.09.1.51.1.89.25,1.2.8,1.65,0,2.89-.99,4.11-1.36,1.68-2.71,3.38-4.06,5.08-.63.79-.75,1.61-.68,2.67.16,2.5,1.1,4.81,1.45,7.23.55,3.82,1.93,7.42,2.72,11.17.17.79.48,1.56.74,2.39,1.23.43,2.44,1.02,3.23,2.29.41.66,1,1.21,1.54,1.77.68.71,1.47,1.18,2.51,1.27,1.04.09,2.18.06,2.75,1.19.73-.38.82-.95.93-1.57.14-.82.42-1.62.56-2.43.18-1.06.27-2.14.44-3.2.09-.59.23-1.18.43-1.73.66-1.76.85-3.6,1.1-5.44.06-.46.22-.92.36-1.37.59-1.95,1.17-3.9,1.77-5.85.6-1.95,1.23-3.89,1.85-5.83.37-1.17.76-2.33,1.15-3.5.4-1.18.84-2.36,1.23-3.55.11-.33.21-.7.18-1.04-.17-2.04,1.11-3.18,2.55-4.25,1.65-1.21,3.16-.32,4.7.28.16.06.31.19.45.3.19.15.37.3.52.44.05,1.31-.13,2.47-.64,3.7-.99,2.4-1.19,5-.97,7.6.04.46.31.9.5,1.41-.36,1.7-.46,3.43-.03,5.25.74,3.17,1.69,6.28,2.49,9.43.42,1.66.45,3.43.67,5.14.1.8.24,1.6.39,2.4.21,1.13.45,2.25.7,3.5,1.72-.79,3.39-1.55,5.07-2.32.6-.28.86-.78,1.01-1.41.35-1.52.74-3.03,1.12-4.55.13-.52.27-1.03.39-1.55.13-.58.25-1.16.34-1.75.06-.41-.05-.9.13-1.24.43-.83.51-1.7.61-2.6.13-1.16.19-2.36.83-3.43.17-.28.12-.69.15-1.05.09-.98.19-1.93.64-2.85.17-.36,0-.88,0-1.25-1.6-.36-2.99-.68-3.92-.89-1.08-1.17-1.84-1.99-2.75-2.98-.39-2.01-1.78-4.07-1.48-6.55.75-1.25,2.01-1.86,3.32-2.32,1.18-.42,2.37-.77,3.65-.92,1.29-.15,2.53-.76,3.77-1.22,1.81-.67,3.6-1.41,5.42-2.05.54-.19,1.17-.2,1.75-.17.59.03,1.17.22,1.94.37,1.29,1.08,2.7,2.28,4.05,3.41.47,1.33.9,2.57,1.36,3.86-.04.12-.09.29-.16.45-.64,1.62-1.86,2.5-3.51,3.04-.99.32-1.85,1.08-2.45,1.46-.53,1.49-.93,2.62-1.33,3.74-.16.45-.44.9-.46,1.36-.11,3.07-1.59,5.84-1.89,8.9-.25,2.6-1.03,5.14-1.57,7.71-.1.47-.15.94-.2,1.42-.04.36.1.8-.07,1.07-.84,1.41-.39,3.1-1.03,4.37.79,1.19,1.51,2.27,2.04,3.07.21,2.37-1.5,3.67-1.98,5.61-1.54.91-2.84,2.36-3.99,3.9-1.11,1.49-2.61,2.01-4.32,2.24-.47.06-.94.19-1.4.31-1.17.29-2.33.63-3.56.37-.27-.06-.58.03-.87.08-2.23.37-3.72-.52-4.48-2.62-.65-1.8-1.47-3.56-2.01-5.39-.52-1.74-.9-3.54-1.13-5.34-.29-2.27-.62-4.51-1.17-6.73-.28-1.12-.4-2.29-.44-3.48-.05-1.37-.53-2.73-.84-4.17-.35-.15-.72-.3-1.16-.48-.29.73-.66,1.35-.77,2.01-.45,2.48-.72,5-1.24,7.47-.36,1.71-.52,3.41-.72,5.13-.17,1.45-.62,2.91-.76,4.4-.1,1.07-.18,2.14-.32,3.2-.14,1.05-.19,2.16-.56,3.13-.63,1.62-2.24,1.85-3.72,2.15-.51.1-1.08-.03-1.65-.05-.68-.86-1.35-1.7-1.91-2.39,0-1.15.05-2.16-.01-3.17-.07-.98.77-1.93.05-3.09-.72.38-1.39.74-2.01,1.08-.17,1.86-1.58,2.85-2.55,4.18-.46.15-.96.34-1.47.48-1.41.37-2.48,1.2-3.3,2.39-1.04,1.5-2.43,2.29-4.29,2.13-.12-.01-.24-.02-.36,0-3.14.3-4.64-1.65-5.77-4.15-.44-.98-.4-1.86.13-2.75.15-.26.32-.51.49-.76,1.16-1.67,1.81-3.57,2.25-5.52.2-.86.29-1.85.06-2.68-.29-1.02-.07-1.91.2-2.81.27-.9.3-1.73.04-2.65-.49-1.76-.54-3.62-1.39-5.31-.36-.71-.23-1.65-.42-2.46-.43-1.79-.66-3.65-1.93-5.35-1.29,2.5-2.81,4.83-3.5,7.41,1.06.81,1.86,1.43,2.46,1.89.64,1.61-.03,2.72-.59,3.8-1.98.75-3.94,1.46-5.86,2.26-.39.16-.72.62-.93,1.02-.56,1.06-.99,2.2-1.57,3.25-.55,1-1.21,1.93-1.82,2.88-.29.45-.79.86-.87,1.34-.4,2.32-2.08,3.9-3.18,5.81-.12.21-.33.37-.42.59-.82,2.03-2.56,2.54-4.51,2.76-.65-.44-1.29-.88-1.92-1.31-.47-1.18-.19-2.4-.18-3.71-1.56.83-3.05.62-4.48.37-1.22-.22-2.15.02-3.21.67-1.47.9-3.02,1.72-4.85,1.83-1.13.07-2.23.44-3.35.57-1.44.17-2.85.09-4.3-.24-2.45-.56-4.68-1.5-6.77-2.84-1.33-.85-3.73-3.69-4.34-5.19-.81-1.99-1.46-4.04-1.93-6.14-.18-.79-.1-1.63-.18-2.45-.02-.27-.16-.53-.26-.87-1.18,1.51-1.32,2.39-.92,5.47-1.34,1.23-1.2,2.93-1.05,4.65-.96,1.18-1.82,2.41-1.97,4.11-.93.29-1.89.59-2.9.9-.55,1.5-.84,3.24-2.7,3.93-.61-.81-.86-1.42-.34-2.26.29-.46.28-1.11.43-1.75-1.1-.33-1.81.25-2.48.63-.66.37-1.15,1.05-1.68,1.56h-2.14c-.73-.57-.91-1.27-.4-2.27.73-1.43,1.37-2.93,1.26-4.8-.08-.14-.27-.48-.46-.82.73-1.4,2.86-1.19,3.07-3.02-.1-1.52.41-2.9,1.5-4.06-.6-.65-.26-1.23-.04-1.79.47-1.22,1.13-2.4,1.42-3.66.33-1.46,1.35-2.79.86-4.55-.15-.06-.41-.17-.75-.31-.02-.37,0-.83-.1-1.25-.08-.32-.33-.6-.59-1.04-.38.38-.65.66-.94.95.19.23.34.39.5.58-.22.34-.45.69-.74,1.14-.61-.32-1.17-.61-1.81-.94-1.5.42-2.44,1.61-3.27,2.97-.4.66-.98,1.22-1.52,1.87.49,1.69-.46,3.03-1.33,4.78-.32-.99-.31-1.64-.04-2.29.23-.55,0-.92-.56-1.28-1.21.64-2.36.18-3.47-.49-1.54-.92-3.31-4.98-1.84-7.11.47-.69.85-1.45,1.24-2.19.08-.15.04-.36.06-.66-.97-.95-1.14-2.7-2.96-3.24-.25.63-.44,1.23-.71,1.79-.48.97-1.2,1.87-1.46,2.9-.37,1.46-1.25,2.62-1.87,3.93-.64,1.36-1.3,2.71-1.95,4.06-.65,1.36-1.39,2.68-1.92,4.09-.62,1.67-1.06,3.42-1.56,5.14-.07.23.02.57-.11.7-1.06,1.04-1.1,2.5-1.53,3.78-.3.9-.75,1.6-1.51,2.13-.83.11-1.66.22-2.63.35-.46-.25-1.08-.52-1.61-.9-.57-.42-1.26-.86-1.55-1.45-.54-1.13-1.08-2.36-1.16-3.58-.13-2.09-.22-4.24.4-6.29.33-1.07.89-2.07,1.38-3.08.66-1.35,1.37-2.68,2.03-4.02,1.61-3.28,3.2-6.58,4.83-9.85.46-.92,1.02-1.78,1.51-2.68,1.22-2.21,2.45-4.42,3.64-6.64.39-.72.67-1.5.99-2.26.24-.59.24-1.17-.13-1.72-.37-.55-.71-1.11-1.02-1.59-.44-2.24-1.04-4.39-1.25-6.58-.2-2.13,0-4.3.03-6.57.89.06,1.59.1,2.03.13,1.46,2.08,2.79,3.98,4.25,6.06-.29.64-.1,1.46.35,2.3.74,1.38,1.3,2.86,2.48,3.96.29.27.49.7.61,1.09.18.62.47,1.08,1.07,1.36.25.12.48.37.61.62.64,1.31,1.64,2.26,3.05,3.01-.19.64-.39,1.31-.56,1.88,1.1,1.65,2.22,3.33,3.43,5.15,1.13-.75,2.39-1.29,3.25-2.21.92-.98,1.47-2.32,2.34-3.76,1.19-.43,1.52-1.62,1.41-3.07-.08-1.07-.12-2.14-.19-3.44.05-.04.32-.28.59-.52.57.66,1.35.45,2.32.46.38-.5.93-1.06,1.28-1.73.93-1.79,2.16-3.35,3.65-4.68.69-.61,1.6-.97,2.56-1.54-.03-.22-.07-.61-.12-1,.68-1.34,2.24-1.57,3.27-2.68.65.18,1.34.36,1.96.53,1.15,1.53,1.09,3.23.87,4.9-.18,1.32-.24,2.59.25,3.86.06.17.07.35.1.53.3,1.79-.13,3.22-1.9,3.9-.54,1.23-.98,2.37-.96,3.69,0,.65-.36,1.34-.54,1.99-.55,1.92-.44,3.95-1.12,5.81-.6,1.63-.28,3.06.55,4.5-.19,1.06-.33,2.13-.59,3.17-.24.97-1.19,1.69-1.07,3.01.23-.2.4-.3.51-.44.15-.19.25-.41.36-.62,2.79-5.35,6.08-10.36,10.11-14.88,1.64-1.84,3.09-3.85,4.79-5.64,1.49-1.57,3.18-2.96,4.83-4.37,1.55-1.33,3.14-2.62,4.77-3.84,1.18-.89,2.6-1.17,4.06-1.13.6.02,1.19.18,2.04.32Zm-38.8,21.34c-.7-.17-1.17-.29-1.61-.39-.23,1.51-.41,2.86-.67,4.2-.12.63-.48,1.22-.6,1.85-.13.63-.5,1.43.59,1.81,1.95-2.07,1.3-4.87,2.29-7.46Z"/><path class="cls-1" d="m469.68,85.59c-1.02.39-1.8,1.4-2.56,2.37-1.18,1.5-2.38,2.95-3.79,4.25-1.42,1.3-2.81,2.63-4.19,3.98-.29.28-.47.67-.83,1.2,1.32-.13,2.43-.34,3.54-.3,1.05.04,2.09.35,3.17.54.43,1.21.89,2.42,1.29,3.64.09.27.06.61-.02.89-.97,3.61-1.89,4.88-5.16,7.31-1.01.75-1.78,1.82-3.05,2.2-.86,1.84-2.93,2.18-4.31,3.42-1.45,1.3-3.4,1.95-5.51,1.9-1.84-.05-3.3-.8-4.35-2.19-.75-.99-1.58-1.55-2.79-1.73-.89-.13-1.74-.44-2.29-1.28-.18-.28-.57-.43-.88-.6-1.75-.98-2.31-2.7-2.75-4.47-.19-.74-.25-1.54-.23-2.3.05-2.03,1.54-2.97,3.07-3.85.67-.39,1.33-.8,1.96-1.25.72-.5.84-1.13.65-2.03-.32-1.51-.4-3.07-.58-4.61-.01-.12-.1-.25-.07-.35.87-3.16.9-6.48,1.86-9.62.09-.28.27-.58.24-.85-.09-1,.26-1.85.69-2.73.81-1.68.93-3.55,1.38-5.34.57-2.3,1-4.64,1.51-7.05-4.48.57-8.32,2.54-12.62,4.14-.75-.25-1.8-.61-2.83-.96-.07.13-.19.25-.17.32.52,1.66.54,3.43,1.04,5.07.44,1.44.49,2.82.18,4.44.5.8.8,1.8.37,2.92-.12.32-.14.74-.06,1.08.37,1.56-.05,3.1-.08,4.65-.02,1.06-.3,2.12-.45,3.13.31.37.49.73.78.9,1.94,1.12,2.54,3.12,3.34,5,.11.26.17.59.11.85-.44,2.04-1.22,3.87-3.54,4.29-1.55.28-2.67,1.31-3.93,2.06-1.65.97-3.18,2.13-4.77,3.2-.39.26-.81.49-.96.58h-3.38c-.81-.58-1.92-1.38-3.24-2.33-.35-1.22-.77-2.65-1.15-4.09-.09-.34-.14-.72-.08-1.06.25-1.37-.43-2.29-1.41-3.08-1.47-1.18-2.79-3.11-3.37-4.87-.15-.44-.34-.89-.61-1.27-.62-.86-.91-1.75-.9-2.83.01-1-.23-2.01-.45-3-.37-1.75-.82-3.49-1.21-5.25-.12-.53-.12-1.08-.24-1.61-.06-.27-.23-.51-.49-1.04-.09.66-.21,1-.18,1.34.18,2.1-.35,4.18-.11,6.31.19,1.7-.21,3.47-.25,5.21-.04,1.84-.18,3.69.77,5.42.32.58.29,1.36.4,1.99-.91.56-1.66,1.02-2.5,1.54-1.91-.02-2.36-.21-5-2.22-.89.67-1.78,1.35-2.81,2.13.13,1.13.26,2.3.4,3.54-1.2,1.39-2.52,2.67-4.49,2.99-1.6.26-3.17.34-4.71-.38-1.24-.58-2.53-1.12-3.86-1.44-2.01-.48-3.17-1.76-3.99-3.52-.43-.91-.95-1.77-1.65-2.57v-1.59c.59-.89,1.19-1.78,1.79-2.69-.15-.67-.3-1.3-.46-2.02.41-.56.77-1.19,1.26-1.7,1.45-1.5,2.05-3.2,1.39-5.25-.07-.22-.04-.48-.06-.72-.15-1.79-.3-3.58-.45-5.37-.03-.3,0-.61-.08-.9-.54-2.06-.82-4.16-1-6.28-.11-1.3-.66-2.53-.76-3.86-.09-1.16-.58-2.29-.9-3.46-.66-.33-.97.16-1.3.59-1.18,1.52-2.31,3.07-3.53,4.56-1.47,1.81-3.01,3.57-4.51,5.36-.19.23-.32.5-.51.8,1.18.79,2.31-.24,3.5.06,1.05.27,2.23.02,3.53,0,.17.54.4,1.25.6,1.87-3.11,3.59-7.33,4.94-11.37,6.58-.72.29-1.48.51-2.24.71-1.31.33-2.19,1.2-2.94,2.26-.21.3-.4.61-.55.93-.84,1.76-2.2,3.14-3.37,4.66-.8,1.04-1.31,2.34-2.22,3.26-1.63,1.66-2.42,3.97-4.44,5.33-.94.63-1.78,1.34-2.85,1.79-1.37.58-2.43.35-3.38-.72-.12-.14-.24-.28-.43-.51.03-2.21.37-4.37,1.83-6.29,2.22-2.92,4.36-5.9,6.53-8.86.13-.18.22-.39.36-.62-.19-.15-.33-.35-.45-.35-2.28.09-4.38-.79-6.54-1.25-.92-.19-1.73-.99-2.53-1.61-.52-.4-.9-.96-1.38-1.48.15-.71.23-1.44.46-2.12.36-1.04.91-1.86,2.07-2.31,1.25-.49,2.5-.8,3.38-.86,1.17.22,1.92.35,2.66.52.4.09.8.23,1.16.42,1.92,1.06,4.04,1.13,6.13,1.23,1.33.07,2.18-.8,2.96-1.79,1.64-2.07,3.35-4.09,4.98-6.17.38-.48.56-1.11.92-1.83-.62-.11-.99-.18-1.47-.27-.09.65-.17,1.17-.24,1.7-1.17-.04-.56-1.15-.8-1.41-1-.38-1.75-.67-2.85-1.09,1.43-.24,2.46-.42,3.83-.65-.67-.49-1.08-.8-1.62-1.2.43-.37.8-.7,1.24-1.08-.08-.36-.16-.75-.26-1.21.41-.34.81-.67,1.21-1.01.14.15.27.45.44.47,1.42.15,2.86.42,4.28.32,1.26-.08,2.05-1.12,2.83-2.08,1.25-1.54,2.57-3.03,3.87-4.53,1.76-2.03,3.8-3.81,5.38-6.01.35-.48.85-.85,1.29-1.27,1.41-1.31,2.85-2.6,4.24-3.94,1.24-1.19,2.63-1.88,4.46-1.57.72.76.82,1.81,1.01,2.79.19.98-.38,1.8-1,2.42-.84.83-1.37,1.82-1.95,2.81-.23.39-.63.69-.94,1.03-1,1.12-2,2.24-2.95,3.3.74,1.85,1.47,3.68,2.19,5.5.11.28.2.57.25.86.4,2.34.8,4.67,1.16,7.01.26,1.71.53,3.42.64,5.14.17,2.51.98,4.35,3.13,6.48-.15,1.25-.31,2.54-.44,3.67.37,1.49.72,2.88,1.08,4.3,1.32,1,2.98.4,4.64.89,0-.67.04-1.27,0-1.85-.26-2.94.31-5.83.44-8.75.06-1.37.62-2.62.67-4,.05-1.35.59-2.67.89-4.01.09-.41.12-.83.19-1.25.21-1.23.13-2.53.84-3.65.09-.15.16-.35.14-.52-.18-1.91.73-3.48,1.58-5.07.16-.31.27-.65.4-.97q-.9-.35-1.98-.19c-.23-.65-.47-1.34-1.2-1.7.84.1,1.76-.15,2.27.9,1.2-.81,2.04-.17,2.71.67.75.07,1.4.12,2.05.18q.44-.77.04-1.54c-.25.05-.52.1-.8.15,0-.1,0-.21.03-.3.33-.94,1.29-.89,1.92-1.34.63.65,0,.9-.14,1.09v2.67c.9,1.1,1.81,2.29,2.79,3.41.83.95,1.1,2.1,1.38,3.27.85,3.55,1.51,7.14,2.96,10.53.91,2.15,1.14,4.51,1.7,6.76.03.11.09.22.19.44,1.76.19,3.58.19,5.54.13.3-1.42.6-2.69.83-3.98.33-1.83.62-3.66.91-5.5.1-.65.16-1.31.23-1.97.03-.36-.08-.79.08-1.06.74-1.23.51-2.56.56-3.88.05-1.23.31-2.46.51-3.9-.53.16-1,.3-1.53.46-1.02-.26-1.58-1.13-2.26-2.08.25-1.27.34-2.69.85-3.95.5-1.25.67-2.54,1.01-3.8.35-1.3.51-2.65.74-3.91,1.36-.5,2.52-.93,3.35-1.24,1.25.36,2.2.64,3.15.91,2.21,1.08,3.09,2.97,2.82,5.41-.06.52-.29,1.04-.51,1.52-.39.88-.77,1.76-1.26,2.58-.33.55-.82,1.03-1.3,1.48-.73.7-1.5,1.36-2.25,2.02v2.28c.53-.73.89-1.11,1.12-1.55.82-1.57,2.11-2.67,3.72-3.29,2.83-1.1,5.66-2.2,8.73-2.57,1.45-.17,2.89-.9,4.31-.85,2.45.08,4.89-.96,7.34-.07.16.06.36.05.54.04,2.26-.18,4.41.41,6.59.89,1.88.41,3.73.83,5.48,1.67,3.35,1.61,6.42,3.52,8.04,7.09,1.1,2.42,1.42,4.83.69,7.5-.75,2.69-1.87,5.1-3.51,7.33-.58.79-.84,1.81-1.31,2.88Zm-13.32-19.31c-.14.92-.34,1.86-.42,2.8-.16,1.9-.34,3.78-1.16,5.55-.2.43-.24.93-.38,1.38-.54,1.81-.13,3.86-1.4,5.48-.07.09-.07.23-.08.35-.3,2.25-.8,4.44-1.67,6.55-.11.26.06.64.13,1.17,1.23-.99,2.34-1.8,3.35-2.72,2.51-2.31,5.18-4.43,7.48-6.98,2.44-2.7,4.23-5.62,4.55-9.23-.27-.46-.42-.87-.7-1.17-.49-.5-.99-1.14-1.61-1.35-2.6-.87-5.23-1.64-8.07-1.82Z"/><path class="cls-1" d="m147.73,45.85c.22-.79.41-1.45.66-2.32.57-.32,1.35-.75,2.14-1.19,1.93-.25,3.29.66,4.55,2.02,1.46,1.58,2.44,3.38,3.05,5.43.1.33.38.6.6.89.82,1.12,1.11,2.36.86,3.74-.06.35,0,.72,0,1.22.31.14.69.48,1.03.44,1.32-.14,2.6.22,3.94.12,2.26-.17,4.55.11,6.82.18,1.81.05,3.64.2,5.44.07,1.05-.08,2.07-.59,3.08-.96.25-.09.46-.38.63-.62,1.13-1.55,2.23-3.12,3.36-4.67.17-.23.4-.44.64-.6,1.8-1.18,3.89-1.67,5.94-2.1,1.34-.28,2.7.36,3.76,1.36.51.49,1,1.02,1.54,1.48,1.33,1.1,2.15,2.41,1.96,4.22-.06.54.07,1.09,0,1.63-.06.52-.21,1.04-.4,1.53-.36.95-.77,1.88-1.17,2.81-.12.27-.23.59-.44.78-1.26,1.17-2,2.68-2.86,4.12-.46.77-1.01,1.5-1.57,2.21-1.18,1.46-2.25,2.97-2.84,4.78-.16.49-.53.92-.89,1.53.62.24,1.19.46,1.7.66,1.61-.8,3.12-1.55,4.64-2.29,3.61-1.77,7.35-2,11.21-.99.86.22,1.8.16,2.61.47.82.31,1.52.92,2.33,1.44.31-.27.63-.46.83-.74,1.09-1.51,2.12-3.06,3.24-4.55.9-1.2,1.79-2.45,2.9-3.44.76-.67,1.89-.94,2.87-1.35.18-.07.49,0,.66.11.97.69,1.92,1.42,2.69,1.99.07.84.12,1.4.16,1.9,2.96.55,5.28,1.75,6.94,4.45.03.22.02.79.21,1.28,1.19,3.03.9,6.1-.22,8.98-1,2.59-2.15,5.21-4,7.36-1.21,1.41-2.64,2.64-3.97,3.96-1.89,1.87-4.28,3.02-6.73,3.75-2.63.78-5.44,1.02-8.04-.43-.9-.5-1.82-.96-2.66-1.55-.45-.32-.74-.86-1.19-1.4-1.34.8-2.05,2.23-3.1,3.34-.57.61-1.14,1.22-1.71,1.83-.65.7-1.25,1.45-1.96,2.07-.91.78-1.89,1.48-2.88,2.17-1.23.86-2.5,1.66-3.75,2.49-1.8,1.19-3.9,1.54-5.92,2.14-.63.19-1.27.36-2.01.57-1.95-.37-4-.81-5.88-1.86-2.14-1.19-3.27-3.09-3.8-5.39-.13-.58-.23-1.17-.3-1.77-.1-.95-.18-1.9.2-2.84.2-.49.35-1.03.41-1.56.26-2.16.8-4.26,1.61-6.25,1.01-2.5,2.11-4.97,3.57-7.25.81-1.26,1.72-2.46,2.57-3.7.4-.58.77-1.18,1.16-1.77-1.66-2.11-3.77-3.74-4.07-6.64-.39-.12-.83-.37-1.28-.37-3.67-.03-7.35-.02-10.99-.02-.09,2.07-.15,3.95-.25,5.83-.17,3.31-.37,6.61-.54,9.92-.04.77,0,1.54-.04,2.31-.16,2.28-.34,4.56-.54,6.84-.07.77-.23,1.54-.36,2.3-.04.24-.22.48-.18.69.3,1.83-.43,3.48-.8,5.22-.45,2.11-.5,4.29-.77,6.44-.19,1.55-.44,3.09-.65,4.64-.09.65-.11,1.31-.18,2.06-.71.25-1.45.49-2.17.76-1.6.6-2.84-.04-3.84-1.22-.91-1.06-1.58-2.26-1.49-3.75.02-.34-.18-.7-.22-1.05-.06-.6-.26-1.25-.09-1.79.81-2.59.92-5.29,1.33-7.94.1-.65.25-1.3.39-1.95.13-.64.29-1.28.41-1.92.17-.89.31-1.78.47-2.66.06-.35.16-.7.2-1.06.22-1.97.5-3.94.63-5.92.12-1.68.06-3.38.1-5.07.03-1.14.1-2.29.14-3.43.02-.47,0-.94,0-1.42,0-1.02-.04-2.05-.03-3.07.01-1.11.05-2.22.08-3.28-1-.21-1.8-.38-2.45-.52-1.36.62-2.61,1.19-3.87,1.76-.53.24-1.03.22-1.53-.14-1.34-.93-2.7-1.83-4.04-2.74-.25-.17-.62-.31-.7-.55-.57-1.76-1.88-3.33-1.26-5.39.22-.72.22-1.5.34-2.32q-1.22.24-2.02,1.4c-1.47.2-2.92.35-4.42-.17-.88-.31-1.9-.25-2.86-.29-.22,0-.46.29-.88.59.82.72,1.52,1.34,2.22,1.96.28.85.62,1.69.84,2.56.15.62.28,1.31.18,1.93-.25,1.4-.61,2.79-.99,4.16-.47,1.67-1.2,3.25-1.31,5.05-.05.95-.75,1.84-1.08,2.79-.99,2.83-1.86,5.7-2.93,8.49-.5,1.29-.86,2.61-1.21,3.93-.32,1.22-.58,2.45-.93,3.66-.43,1.5-1.03,2.95-1.37,4.46-.28,1.26-1.12,2.4-.85,3.77-.85.9-.54,2.15-.97,3.18-.24.6-.29,1.27-.42,1.91-.17.82-.32,1.63-.49,2.45-.07.35-.22.71-.21,1.05.06,1.15-.51,1.95-1.35,2.59-1.12.33-2.03-.06-2.88-.71-.82-.62-1.69-1.17-2.48-1.82-1.1-.91-1.66-2.11-1.72-3.55,0-.12.05-.26,0-.36-.76-1.63.16-2.88.91-4.17.73-.28,1.45-.57,2.14-.84.19-1.75.53-3.41.51-5.07-.02-1.94.41-3.76.79-5.63.47-2.29.63-4.65.85-6.99.05-.55.08-1.02.37-1.52.32-.56.48-1.22.64-1.86.7-2.61,1.48-5.21,2.02-7.85.36-1.73,1.13-3.33,1.27-5.12.13-1.72.35-3.46.79-5.12.3-1.12.85-2.16.74-3.49-5.08.14-10.07.99-15.48,2.25-.74.43-1.35,1.58-1.74,2.77-.4,1.23-1.13,2.1-2.17,2.92-1.15.06-2.38.13-3.3.17-.94-.84-1.62-1.53-2.38-2.11-1.08-.84-1.44-2.11-1.74-3.28-.45-1.74-.48-3.57-.1-5.36.09-.4.25-.84.52-1.14,1.45-1.57,1.82-3.45,1.71-5.5-.01-.18.03-.36.04-.46,1.05-1.9,2.89-2.69,4.68-3.3,1.39-.47,3.07-.26,4.18.88.78.8,1.62,1,2.58.99,1.8-.03,3.6-.18,5.41-.25.78-.03,1.56.05,2.33.02,2.83-.11,5.65-.26,8.48-.36,1.26-.04,2.52.1,3.78.02,1.12-.06,2.27-.18,3.34-.49,1.38-.39,2.75-.9,4.03-1.54,2.13-1.05,4.32-1.86,6.93-2.11Zm56.96,32.26c-.31-1.62-1.28-2.21-2.61-2.27-1.81-.09-3.66-.08-5.33.65-3.41,1.47-7.02,2.66-9.44,5.77-.07.09-.19.15-.28.23-1.73,1.63-3.04,3.57-3.8,5.8-.95,2.76-2.18,5.43-2.7,8.34-.08.46-.37.88-.54,1.33-.17.44-.32.89-.48,1.35,1.05,1.12,2.29,1.45,3.66,1.12,3.16-.77,5.95-2.27,8.33-4.5.75-.7,1.6-1.3,2.28-2.05,1.67-1.84,3.25-3.77,4.92-5.62,2.7-2.99,4.76-6.33,6-10.14Zm13.62-8.11c-.51.76-.95,1.39-1.37,2.03-.65,1.01-1.3,2.02-1.94,3.04-.54.86-1.17,1.68-1.56,2.61-1.05,2.48-2.05,4.98-2.97,7.51-.32.88-.42,1.87-.47,2.82-.05.93.3,1.21,1.19,1.52,1.07.37,2.01.04,2.97-.34,3.7-1.47,6.11-4.48,8.66-7.31.36-.4.6-.93.09-1.43-.07,0-.17-.02-.19,0-.2.28-.38.56-.57.84-1.53.14-1.54.13-2.58-.96h2.2c-.52-.49-.83-.78-1.27-1.2.91-.71,1.76-1.37,2.61-2.03-.5-.06-.87.11-1.25.24-.12.04-.29-.04-.46-.07.28-.54.52-1.02.73-1.43-.2-.59-.37-1.08-.54-1.6.7-.62,1.19-1.44,2.4-.83-.74.59-1.38,1.12-.38,2.1.52.03,1.21.06,1.89.1.43-1.02-.34-1.59-.53-2.3-.29-1.07-1.07-1.8-2.06-2.13-1.41-.47-2.89-.74-4.6-1.17Z"/><path class="cls-1" d="m558.69,158.35c.55-1.77,1.54-2.93,3.24-3.71,3.58-1.65,7.29-2.8,11.14-3.54.12-.02.25,0,.36-.05,1.71-.82,3.58-.89,5.4-1.18,2.06-.32,4.15-.48,6.22-.75,1.49-.19,2.97-.46,4.45-.69.29-.05.58-.16.87-.15,1.81.09,3.61.26,5.41.29,2.65.05,5.29.13,7.85.96.39.13.83.08,1.33.13.22-.35.42-.71.67-1.03.8-1.05,1.52-2.14,2.72-2.83.84-.48,1.45-1.21,1.96-2.07.95-1.61,1.98-3.18,3.07-4.7.52-.72,1.25-1.29,1.84-1.88.54-.05,1-.09,1.46-.13,2.1-.21,4.06.14,5.86,1.29.74.47,1.24,1.07,1.65,1.85.62,1.18.64,2.32.04,3.46-.78,1.49-1.61,2.97-2.45,4.43-.72,1.24-1.68,2.32-1.83,3.86-.06.6-.63,1.15-.95,1.72-.28.5-.55,1.02-.6,1.79.7-.38,1.49-.66,2.09-1.15.95-.78,2.04-1.26,3.14-1.76.53-.24,1.01-.62,1.53-.95,1.26.13,2.58.26,4.03.4.57.38,1.27.85,2,1.34v1.91c-1.5,1.56-2.92,2.92-4.21,4.41-.98,1.14-1.93,2.35-2.65,3.66-1.02,1.87-2.02,3.8-2.67,5.83-.75,2.36-1.26,4.81-1.38,7.33-.09,1.82.5,3.39,1.15,5.17.4-.08.81-.08,1.15-.23,1.21-.53,2.4-1.13,3.61-1.66.99-.43,1.97-.77,3.12-.37.65.23,1.43.1,2.36.15.52-.61,1.12-1.27,1.67-1.96,1.23-1.55,2.4-3.14,3.67-4.66.75-.89,1.7-1.5,3.01-1.14.73-.39,1.2-.94,1.14-1.85-.01-.23.03-.49.14-.7.98-1.85,2.01-3.68,2.95-5.56.35-.71.46-1.53.77-2.27.29-.7.75-1.34,1.02-2.05.13-.36-.06-.82,0-1.22.09-.56.1-1.36.45-1.61,1.52-1.06,2.68-2.63,4.51-3.25.46-.15.9-.35,1.36-.49,1.16-.35,2.25-.24,3.23.55.47.38.97.71,1.46,1.07.66.48.99,1.07,1.09,1.94.34,3.04-.07,5.89-1.57,8.61-.72,1.3-1.11,2.77-1.72,4.14-.39.87-.93,1.68-1.37,2.53-1.15,2.25-2,4.61-2.62,7.06-.23.92-.61,1.79-.92,2.68,1.54,1.81,2.99,3.5,4.41,5.16.05,4.46-1.81,6.32-5.85,7.69-.3.5-.63,1.06-1.04,1.73-4.75,2.66-9.6,2.65-14.59-.16-.59-1.3-1.25-2.74-1.87-4.1-2.56-.21-5.01-.54-7.46-.56-1.83-.01-3.36-.85-5.04-1.27-.64-.16-1.37-.41-1.71-1.16-.09-.2-.34-.36-.55-.46-1.47-.66-2.11-1.98-2.91-3.27-1.4-2.24-2.16-4.66-2.57-7.22-.04-.24-.15-.48-.13-.7.31-2.69.56-5.38,1.01-8.05.2-1.22.8-2.38,1.21-3.57.17-.49.31-.99.54-1.7-.7.1-1.21.18-1.73.25-1.93.25-3.87.48-5.55-.83-.7-.55-1.33-1.2-1.89-1.89-.74-.92-1.57-1.62-2.76-1.9-.52-.12-1.06-.36-1.46-.69-1.9-1.57-4.07-.95-6.36-.95.33.72.56,1.26.82,1.78,1.17,2.3.14,4.5-1.65,5.66-2.48,1.6-3.51,3.91-3.92,6.7-.2,1.35-.72,2.64-1.12,3.96-.22.75-.48,1.48-.71,2.23-.08.27-.06.61-.22.81-.65.83-.68,1.78-.64,2.77-.55.96-1.38,1.82-1.22,3.09.02.17-.23.38-.35.58-.44.73-.78,1.47-.73,2.37.03.52-.17,1.05-.28,1.57-.16.76-.34,1.51-.55,2.39-1.67,1.54-3.43,3.16-5.16,4.75-.92-.12-1.81-.24-2.69-.33-.64-.07-1.13-.32-1.51-.87-.59-.84-1.24-1.63-1.99-2.62.35-.87.75-1.86,1.13-2.85.28-.73.56-1.46.78-2.21.95-3.22,1.88-6.45,2.82-9.67.5-1.72.92-3.47,1.54-5.15.5-1.36.17-2.48-.57-3.57-.41-.59-.91-1.12-1.39-1.71.09-.93.18-1.87.3-3.18.66-.79,1.53-1.86,2.43-2.9.41-.48.69-.97.45-1.76-2.18.4-4.3,1.01-6.36,1.8-1.9.73-3.88,1.2-5.85,1.66-.98.23-1.93.48-3,.27-1.66-.33-2.85-1.21-3.77-2.56-.51-.74-1.01-1.5-1.58-2.35Z"/><path class="cls-1" d="m536.65,63.75c.69-.83,1.43-1.55,1.98-2.4,1.41-2.17,3.26-3.93,5.37-5.32,1.99-1.31,4.24-2.18,6.78-1.86,1.65.2,3.01.96,4.16,2.02,1.02.95,1.24,2.27.91,3.66-.25,1.04-.46,2.1-.7,3.25.73.58,1.4,1.1,2.01,1.58-.06,1.34-.11,2.45-.17,3.7.72-.17,1.32-.64,1.87-1.11,2.79-2.4,5.56-4.83,8.34-7.24.18-.15.37-.31.58-.4,1.72-.72,3.44-1.42,5.13-2.11,1.78.7,3.44,1.37,4.56,2.9-.12,1.01-.24,1.96-.38,3.14-.25.23-.59.69-1.05.94-4.13,2.26-7.74,5.24-11.34,8.23-.09.08-.16.2-.27.24-2.3.83-3.96,2.69-6.11,3.76-.74.37-1.41.91-2.07,1.42-.77.58-1.51,1.2-2.24,1.83-1.57,1.36-2.74,3.04-3.63,4.99.85.25,1.64.09,2.47-.12,2.69-.68,5.46-.72,8.21-.8,1.07-.03,2.2.05,3.22.37.88.27,1.67.89,2.42,1.46.42.31.69.83,1.08,1.3.81.03,1.6.13,2.33.67.57.42,1.3.63,1.97.9,1.93.75,2.51,2.41,2.86,4.22.09.46.01.95.01,1.34-.78.81-1.48,1.54-2.13,2.22.96,1.62.69,3.77-.49,4.92-.97.94-2.12,1.42-3.43,1.84-1.96.63-3.91.38-5.86.51-.92.06-1.87-.32-2.8-.54-.58-.14-1.15-.35-1.82-.55-1.09,1.01-2.3,1.85-3.18,3.13-.85,1.23-1.93,2.3-2.96,3.4-1.01,1.09-1.17,2.49-1.35,3.84-.13,1-.03,2.04-.03,3.05.37.32.67.59,1.13.99-.46.59-.9,1.17-1.36,1.77,1.19.62,2.26,0,3.49-.24-.33.34-.67.67-1.14,1.15-.76.13-1.9-.32-2.71.84.87,1.07,1.25,2.35.75,3.99-1.02,1.49-2.54,2.8-4.24,3.97-1.72,1.18-3.31,2.54-5.04,3.9-4.86.78-9.2-2-8.52-7.65,1.06-1.38,2.05-2.57,2.94-3.84,1.34-1.9,2.3-4.12,4.86-5.08-.47-.52-.77-.85-1.11-1.23,0-1.18.11-2.43-.04-3.66-.09-.74.09-1.24.45-1.83.84-1.38,1.57-2.82,2.39-4.21.2-.34.58-.59.88-.88,1.63-1.6,3.74-2.7,4.93-4.75.06-.1.13-.22.23-.27,2.7-1.44,4.49-3.94,6.82-5.8.41-.33.8-.68,1.1-1.27-.85.12-1.7.22-2.55.37-1.97.35-3.9.24-5.9,0-1.92-.23-3.39-1.23-4.96-2.01-1.85-.93-2.6-3.36-2.29-5.45.21-1.39.82-2.47,1.8-3.42,1.03-1,2.03-2.04,3.07-3.09-2.49-1.44-5.38-1.89-7.51-3.94.1-.77.4-1.62-.37-2.4-.51.17-1.06.36-1.69.57-.83-.48-1.81-.5-2.71-.08-1.01.46-1.99.15-2.96.07-.88-.07-1.75-.38-2.33-.52-1.4.72-2.52,1.47-3.75,1.89-1.34.45-2.29,1.29-3.11,2.34-.62.79-1.08,1.66-1.93,2.3-.59.44-.81,1.34-1.34,1.89-.48.5-1.15.84-1.77,1.19-.68.39-1.4.71-2.1,1.06-.59,0-1.18-.02-1.76,0-1.35.06-2.56-.06-3.57-1.19-.49-.55-1.34-.77-2.2-1.23-1.21,1.94-1.73,4.16-2.76,6.24.49.63.95,1.25,1.47,1.92.19,2.92-.92,5.69-1.39,8.51.57.62,1.19.32,1.76.24,1.24-.17,2.41-.75,3.71-.55,1.19.18,2.38.32,3.64.48.61,1.27.62,2.45-.26,3.67-1.65,2.3-3.96,3.66-6.47,4.74-1.86.8-3.73,1.67-5.68,2.19-2.75.74-5.55,1.58-8.44.45-.32-.13-.71-.08-1.04-.11-.73-.57-1.43-1.13-2.04-1.61-.43-.76-.8-1.43-1.24-2.21.05-.49.16-1.14.19-1.79.08-1.73.51-2.31,2.22-2.71.81-.19,1.66-.24,2.07-1.27-.21-.27-.45-.59-.67-.89-.13-1.43.05-2.79.73-4.05.09-.16.2-.32.24-.49.59-3.13,1.9-6.04,2.91-9.03.4-1.19.98-2.31,1.38-3.5.31-.89.47-1.83.59-2.78.55-.95,1.28-1.83,1.43-3.03-.5-.37-.98-.72-1.49-1.09-.32.09-.65.18-1.25.35.4-.54.65-.88.94-1.27.63.24,1.18.45,1.79.69.7-.33.86-1.06,1.11-1.72.21-.55.4-1.11.64-1.64,1.07-2.37,3.74-2.55,5.53-1.56.35.19.74.31,1.36.57.29.86.67,1.98,1.1,3.22.61-.35,1.01-.61,1.14-1.32.36-1.85,1.08-3.55,2.37-4.96.33-.35.66-.72,1.06-.98,1.6-1.06,3.24-2.07,4.85-3.13.66-.43,1.27-.91,1.89-1.36,1.08.1,2.15.2,3.46.33,1.01.87,2.18,1.87,3.7,3.17,2.77-.11,6-.24,9.29-.37Z"/><path class="cls-1" d="m81.05,38.43c.82.76,1.6,1.49,2.39,2.2.4.35.81.7,1.26.99,1.15.73,2.46.87,3.65,1.12,1.09-1.77,2.09-3.4,3.09-5.04.55-.9,1.3-1.56,2.24-2.04,1.86-.96,4.26-.17,5.14,1.74.45.98.95,1.95,1.28,2.97.28.85.23,1.8.51,2.64.87,2.6-.17,4.82-1.26,7.04-.16.32-.41.61-.53.94-.39,1.03-1.05,1.83-1.87,2.58-1.55,1.42-2.29,3.15-1.66,5.31.2.69.24,1.43.26,2.15.01.5-.19.96-.4,1.45-.54,1.27-1.17,2.47-1.91,3.63-1.29,2-4.13,2.27-5.69.51-.52-.58-1.01-1.2-1.47-1.83-.42-.58-.78-1.2-1.19-1.85.08-2.06.16-4.2.25-6.5-1.01.13-1.91.43-2.74.3-.75-.13-1.43-.73-2.09-1.1-2.63,1.87-5.65,2.97-7.83,5.55.18.45.42,1.04.69,1.7-1.2,1.78-2.67,3.19-5.04,3.45.11.46.11.84.28,1.11.62,1.01.54,2.07.32,3.16-.44,2.12-1.18,4.14-1.94,6.15-1.1,2.91-2.23,5.8-3.36,8.7-.74,1.89-1.3,3.83-1.93,5.75-.56,1.71-1.35,3.35-1.87,5.08-.88,2.93-1.7,5.89-2.39,8.86-.21.92-.44,1.85-.64,2.77-.5,2.28-.87,4.6-1.14,6.92-.28,2.5-1.51,4.29-3.72,5.34-.54.26-1.49.07-2.06-.26-1.19-.67-2.25-1.56-3.27-2.29-.11-1.2.12-2.11.61-2.96.17-.3.28-.66.32-1,.07-.66.14-1.33.1-1.99-.17-2.86.26-5.69.87-8.43.82-3.67,1.31-7.45,2.87-10.96.54-1.22,1.01-2.57.95-4.01-.02-.55.33-1.14.59-1.68.73-1.53,1.35-3.09,1.59-4.79.05-.35.25-.67.38-1.01.85-2.17,1.79-4.31,2.54-6.51.74-2.16,1.26-4.38,1.93-6.56.23-.74.56-1.47.97-2.12.23-.37.71-.75,1.12-.8,1.54-.19,2.22-1.22,2.43-2.52.24-1.51,1.05-2.5,2.34-3.38-.4-.9-1.08-1.6-1.78-2.2-.4-.35-1.09-.46-1.66-.52-1.25-.12-2.52-.14-3.78-.2-.35-.36-.67-.71-.98-1.03-.17.06-.32.07-.38.15-.76,1.08-1.63,2.1-2.23,3.26-.96,1.85-2.54,3.09-4.18,4.16-1.3.85-2.94,1.03-4.61.8-.4-.44-.83-.92-1.29-1.43-.36.26-.63.51-.94.66-1.38.65-2.23,1.68-2.73,3.15-.36,1.07-1,2.06-1.57,3.05-.72,1.25-1.46,2.43-1.7,3.94-.2,1.26-1.27,2.2-2.34,2.86-1.01.62-2.14,1.16-3.33.73-1.18-1.2-2.32-2.33-3.41-3.5-.94-1.02-1.38-2.22-1.27-3.64.05-.64-.14-1.3-.21-1.95-.03-.36-.05-.72-.04-1.07.02-.99.07-1.98-.07-2.97.25-.7.5-1.41.73-2.04-.5-.54-.86-.93-1.27-1.36.2-.47.45-.89.55-1.34.15-.69.35-1.44.23-2.1-.33-1.75-.25-3.34.37-5.01.36-.95.51-1.99,1.47-2.86.51,0,1.19-.12,1.82.02,3.51.76,6.93.02,10.36-.56,1.88-.32,3.62-1.24,5.56-1.26.34,0,.71-.16,1.03-.31,1.72-.81,1.86-.2,3.12.82.28.22.45.57.71.81.22.2.5.32.72.46.64,1.77.95,3.67,2.69,4.71.76.04,1.31-.26,1.23-1.01-.36-3.21,2.06-4.37,4.2-5.68,1.41-.86,3.06-1.07,4.69-1.18.4-.03.93,0,1.19.22.61.56,1.16.4,1.83.19,2.63-.81,4.95-2.24,7.15-3.81,1.12-.8,2.41-1.36,3.3-2.5.36-.46,1.14-.58,1.88-.93Z"/><path class="cls-1" d="m544.43,150.78c.78.19,1.61.36,2.41.6,3.16.94,4.68,3.68,3.99,6.84-.61,2.83-1.98,5.29-3.57,7.63-1.23,1.8-1.93,3.83-2.82,5.77-.12.27-.21.55-.36.81-1.05,1.89-2.13,3.76-3.17,5.65-.09.17-.01.44-.01.79,1.72-.31,3.36-.61,4.66-.85,1.55.47,2.79.85,4.35,1.32.86,1.22,2.28,1.39,3.88.62,2.25-1.09,4.67-1.43,7.11-1.63,1.73-.14,2.95.84,3.86,2.21.4.59.67,1.27,1,1.9-.47,1.76-1.41,3.11-3,4.09-2.14,1.31-4.18,2.75-6.5,3.78-1.03.46-1.99,1.03-3.13,1.17-.47.06-.96.15-1.43.11-1.75-.12-1.75-.14-3.21.75-1.9-.22-3.4-1.35-4.87-2.42-.78.34-1.48.69-2.21.96-1.12.41-1.76,1.18-2,2.33-.07.34-.15.71-.34.99-.69.98-1.46,1.91-2.14,2.9-.83,1.21-1.93,2.14-3.04,3.06-1.02.85-2.41.96-3.56.84-3.91-.41-6.37-3.35-6.48-7.36-.01-.54-.06-1.08-.09-1.69,1.12-1.27,2.26-2.57,3.62-4.12v-2.43c-.58.52-1.02.86-1.39,1.28-.91,1.02-2,1.44-3.38,1.3-1.06-.11-2.15-.02-3.17-.02-2.65-1.41-4.27-3.67-5.38-6.47-.77.39-1.55.71-2.24,1.16-1.45.95-3.11,1.24-4.72,1.72-.61.18-1.21.38-2.07.65-.49-.05-1.27-.21-2.05-.21-.77,0-1.55.15-2.44.25-1.04-.41-2.2-.87-3.35-1.33-1.77-.71-3.3-1.72-4.33-3.39-.25-.41-.64-.73-.91-1.12-.3-.44-.76-.91-.77-1.38-.03-1.23-.8-2.34-.44-3.61.1-.33.11-.76-.01-1.08-.59-1.52-.06-2.96.27-4.41.2-.88.4-1.75.56-2.64.5-2.93,1.41-5.71,3.07-8.18.73-1.09,1.81-1.94,2.52-3.03,1.39-2.15,3.62-1.99,5.33-2.39,1.43.96,2.56,1.72,3.76,2.52.14.76.29,1.63.48,2.67-.49.44-1.04.98-1.64,1.47-1.08.89-2.02,1.84-2.45,3.25-.28.91-.88,1.72-1.24,2.61-1.07,2.65-1.18,5.5-1.53,8.28-.1.79.27,1.63.43,2.47.9.62,1.83.46,2.76.2,2.86-.77,5.56-1.92,8.05-3.52,2.23-1.43,4.41-2.93,6.18-4.94.83-.95,1.65-1.91,2.36-2.72.33-1.82.68-3.46.91-5.12.22-1.56.32-3.13.49-4.91,1.46-1.26,3.04-2.63,4.49-3.88.7.08,1.18.22,1.65.18,3.51-.31,6.63,1.47,7.85,4.72-.19.79-.37,1.67-.63,2.53-.12.39-.3.84-.59,1.09-1.08.93-1.95,2.11-3.41,2.61-1.01.34-1.97.9-2.89,1.46-.36.22-.68.68-.78,1.09-.25,1.03-.13,2.04.61,2.89.27.32.52.67.74.96.14.89.42,1.73.36,2.54-.06.8-.42,1.59-.74,2.35-.4.94-.35,1.84-.1,2.81.14.54.15,1.26-.1,1.73-.58,1.08-.52,2.04.02,3.08.35.68.64,1.39,1.08,2.38.29-.57.48-.83.57-1.13.45-1.48.84-2.98,1.32-4.46.27-.85.65-1.67,1.02-2.49,1.01-2.23,1.91-4.51,2.87-6.76.66-1.54,1.52-2.97,2.12-4.5.88-2.24,2.16-4.27,3.09-6.47.21-.5.37-1.03.43-1.57.23-1.82,1.27-3.05,2.76-4,.56-.35,1.09-.74,1.68-1.13Z"/><path class="cls-1" d="m179.75,200.16c-.53-.32-1.18-.75-1.87-1.12-.88-.48-1.2-1.34-1.47-2.2-.2-.62.15-1.15.47-1.68,1.72-2.84,3.17-5.83,5.22-8.46.29-.37.47-.81.78-1.36-2.74.58-4.96-.34-7.02-1.57-.47-.78-1-1.45-1.32-2.21-.6-1.38-.49-2.82-.16-4.26.17-.75.35-1.51.59-2.24.27-.86.62-1.69.91-2.54,1.45-4.25,3.52-8.24,5.29-12.36,1.03-2.4,3.39-3.42,5.99-3.01,1.53.24,2.97.35,3.88,1.78,1.57.59,2.03,1.94,2.34,3.4.05.23.15.45.25.73-.9,1.55-1.83,3.09-2.7,4.67-.92,1.67-1.76,3.38-2.41,5.19-.52,1.45-1.51,2.73-2.2,4.13-.72,1.45-1.19,2.98-1.36,5.01.61-.74,1.02-1.16,1.34-1.63,3.08-4.54,6.04-9.16,9.25-13.6,1.61-2.23,3.04-4.63,5.1-6.53.6-.56.98-1.36,1.48-2.04.86-1.16,1.71-2.32,2.64-3.43.29-.35.79-.52,1.09-.7,1.73.24,3.33.46,5.14.71.7.98,1.5,2.09,2.35,3.27-1.33,2.77-2.86,5.48-2.65,8.83,2.31,2.98,4.1,6.45,5.24,10.13.78.28,1.17-.01,1.47-.54.71-1.24,1.73-2.32,1.87-3.87.05-.51.45-.98.63-1.49.74-2.1.65-4.03-1.2-5.58-.19-.16-.38-.3-.47-.36q-.11-1.42.52-2.38c.65.13,1.34.27,2.14.43.65-.28.89-.83.92-1.65.03-1.27.42-2.48,1.12-3.57.52-.81.94-1.69,1.44-2.51,1.56-2.55,3.11-3.8,5.86-4.74.27-.09.59-.13.88-.1,1.81.2,3.47.9,5.08,1.71.25.13.53.42.57.68.3,1.84,1.15,3.59.25,5.58-1.47,3.2-2.6,6.56-4.41,9.6-.15.26-.35.52-.4.8-.33,1.59-.82,3.12-1.92,4.87-.74.62-1.84,1.54-2.92,2.44-.16.62-.39,1.25-.47,1.9-.08.64.09,1.31-.01,1.94-.28,1.73-.9,3.33-1.89,4.83-.69,1.05-1.24,2.22-1.63,3.42-.35,1.09-.9,1.98-1.77,2.65-.7.54-1.2,1.21-1.31,2.05-.1.78-.61,1.25-1.15,1.52-1.87.93-3.77,1.45-5.87.41-1.92-.95-3.6-2.18-5.21-3.63.07-1.99-1.87-3.08-2.38-5.25.09-1.95,2.12-2.59,3.67-3.69-.81-1.04-1.58-2.03-2.22-2.86-.69-2.28-1.31-4.39-1.97-6.5-.25-.8-.56-1.59-.88-2.37-.18-.44-.36-.92-1-.91-1.1,1.61-2.26,3.19-3.3,4.85-2.34,3.73-4.62,7.49-6.91,11.25-2.34,3.85-4.64,7.74-7.01,11.57-.49.8-1.19,1.48-2.19,1.76-1.25.35-2.34,1.34-4.09.83Z"/><path class="cls-1" d="m274.35,104.39c.36.92.79,2.03,1.25,3.21-1.78,3.19-.82,2.86-5.36,3.92-.75-.41-1.54-.84-2.33-1.28-.88-.49-1.84-.7-2.79-.4-1.71.54-3.34.58-4.82-.48-.84-.75-1.68-1.49-2.55-2.26-.07-.45-.04-.96-.23-1.38-.34-.73-.19-1.38.01-2.09.19-.66.25-1.36.39-2.17.3-.57.68-1.29,1.17-2.22,1.08-1.02,2.35-2.22,3.82-3.61-.22-1.9-.47-4.02-.71-5.98-.75-1.04-1.46-1.94-2.07-2.9-1.06-1.67-1.56-3.38-.28-5.21.53-.76.51-1.52-.23-2.27-.4-.4-.61-1.04-.78-1.6-.42-1.37-.77-2.76-1.15-4.15.37-.53.73-1.06,1.11-1.6-.23-.6-.44-1.15-.67-1.76-.69.31-.77.95-1.05,1.46-.6,1.11-1.15,2.25-2.42,2.82-.33.15-.62.58-.77.94-.4,1-.7,2.04-1.06,3.05-.37,1.05-.13,2.18-.58,3.27-.4.96-.3,2.12-.49,3.18-.2,1.12-.51,2.22-.71,3.35-.3,1.64-.48,3.31-.84,4.93-.27,1.21-.76,2.36-1.17,3.54-.62,1.81-1.5,3.53-1.84,5.43-.05.29-.26.54-.39.81-.39.85-.77,1.71-1.29,2.87-.45.39-1.19,1.02-1.97,1.69-1.16.29-1.73-.75-2.54-1.12-.22-1.48-.08-2.75.34-4.03.76-2.34,1.26-4.77,2.15-7.05,1.27-3.24,2.21-6.59,3.37-9.86.32-.9.51-1.85.78-2.77.12-.4.26-.8.42-1.19,1.07-2.54,2.14-5.08,3.26-7.71-1.06-2.86-.24-5.67.77-8.64-1.58-1.09-3.5-1.75-4.9-3.52.05-.5.05-1.26.19-1.99.42-2.21,1.75-3.58,3.9-4.27,1.37-.45,2.65-1.2,4.04-1.59,2.02-.57,4.13-.69,6.23-.54.38.03.78.32,1.1.58.91.69,1.78,1.43,2.73,2.19.24,1.68-.05,3.29-.58,4.89-.07.23-.21.44-.25.67-.19,1.31-.49,2.62-.49,3.93,0,2.07-.4,4.03-1.08,5.98,1.09.92,2.13,1.82,3.13,2.66.61,2.11,1.29,4.08,2.32,5.94.57,1.03.72,2.28,1.09,3.43.13.41.35.8.88,1.18.5-1.58,1.14-3.13,1.44-4.75.18-.94.38-1.84.71-2.73.25-.68.56-1.38.59-2.08.04-1.04.51-1.83,1.13-2.64-.39-.98-.82-1.95-1.18-2.95-.45-1.26-.41-2.47.64-3.46.48-.45.97-.9,1.48-1.32.78-.63,1.13-1.29.7-2.35-.42-1.04-.81-2.19-.81-3.29,0-1.53.32-3.08.63-4.6.28-1.34.7-2.66,1.15-3.96.16-.47.49-1.01.9-1.24,1.55-.89,3.19-1.62,4.76-2.5.8-.45,1.52-.71,2.35-.16.19.13.44.21.68.24,2.25.26,3.25,1.97,3.96,3.74.3.75-.11,1.85-.35,2.75-.16.63-.61,1.18-.88,1.78-.27.59-.49,1.2-.8,1.96.6.55,1.16,1.06,1.88,1.71.16,1.26,1.2,2.2,2.2,3.17,1.31,1.28,1.79,2.87,1.47,4.61-.16.85-.72,1.63-1.13,2.51-1.07.24-1.8.89-2.48,1.83-.68.95-1.76,1.61-2.68,2.37-.56.46-1.18.84-1.75,1.3-.72.58-1.5.97-2.45,1.07-.64.07-1.27.29-1.88.44-.54.79-.64,1.63-.58,2.47.19,2.8-.6,5.48-1.02,8.2-.47,3.03-1.69,5.85-2.36,8.81-.18.8-.6,1.56-.91,2.33-.54,1.35-.9,2.72-.91,4.21,0,.67-.36,1.34-.62,2.21Z"/><path class="cls-1" d="m662.65,146.81c.69-.71,1.28-1.31,1.98-2.04.21.01.68.12,1.13.05,2.06-.33,3.64-.08,5.43.87,2.13,1.13,4.34,2.03,6.75,2.47,2.12.39,4.22.94,6.16,1.94.21.11.43.21.66.26,2.14.5,4.05,1.52,5.96,2.56,1.03.55,2.22.82,3.54,1.29,1.67,1.03,3.56,2.17,5.43,3.36,1.16.74,2.27,1.56,3.34,2.3-.11,1.26-.09,2.4-.33,3.48-.39,1.71-1.6,2.98-3,3.88-1.12.72-2.55.64-3.85.2-.97-.33-1.92-.77-3.16-.24-.22.25-.58.66-.99,1.13-.87.16-1.82.32-2.76.49-2.3.41-4.6.81-6.9,1.23-.23.04-.48.19-.69.15-2.12-.42-4.32.08-6.43-.61-1.02-.34-1.17-.17-1.62.85.45.25.9.54,1.38.74,3.13,1.29,5.87,3.29,8.87,4.83,2.09,1.07,4.17,2.16,6.26,3.23.37.19.79.32,1.12.57,1.43,1.08,3.02,1.31,4.76,1.1,2.46-.3,4.3.69,5.51,2.87.52.93,1.23,1.74,1.41,2.88.16.99.27,1.89-.53,2.68-.29.29-.48.7-.66,1.07-.47.97-1.26,1.56-2.21,2.02-1.63.78-3.23,1.63-4.86,2.42-.41.2-.89.32-1.35.36-1.32.12-2.64.18-4.13.28-2.21-1.43-4.9-2.57-6.18-5.54.22-.82.44-1.65.74-2.78-.16-.14-.48-.59-.92-.82-2.67-1.4-5.36-2.76-8.05-4.12-.62-.32-1.28-.57-1.98-.88-.8,1.33-.65,2.71-1.03,3.94-.38,1.25-.62,2.54-1.03,4.28-.81,1.78-1.85,4.02-2.84,6.27-.61,1.39-1.56,2.44-2.98,3-.83.33-1.7.58-2.6.09-.63-.34-1.33-.56-1.99-.84-1.32-.56-2.38-1.4-3.02-2.72-.12-.26-.39-.44-.53-.6.51-2.49,1.78-4.73,1.85-7.4-1.13-1.01-2.16-2.17-1.99-4.02.31-.41.64-.9,1.02-1.36.77-.93,1.38-1.87,1.6-3.14.2-1.14.84-2.22,1.32-3.31.65-1.48,1.33-2.94,1.99-4.4.1-.22.23-.43.27-.66.72-3.93,2.29-7.56,3.97-11.13.53-1.13.55-2.45,1.42-3.45.51-.58.9-1.26,1.4-1.97.04-.45-.14-.84-.7-1.01-.17-.05-.34-.15-.52-.17-2-.22-3.25-1.62-4.6-2.87-.7-.65-.93-1.51-.84-2.46.03-.28,0-.56,0-.59Zm28.87,13.89c-.05-.64-.44-.86-.94-1.01-.91-.27-1.88-.46-2.71-.89-2.51-1.3-5.2-1.99-8.07-2.61-.87,1.65-1.74,3.29-2.6,4.92-.11.2-.16.43-.24.63.16.1.26.22.36.22,2.99-.02,5.99-.11,8.98-.08,1.13.01,2.26-.2,3.4-.26.79-.04,1.34-.43,1.82-.93Z"/><path class="cls-1" d="m320.21,62.18c-.07.71-.2,1.25-.16,1.77.15,1.81-.93,2.76-2.36,3.46-.54.26-1.13.41-1.66.6-1.08-.89-2.14-1.76-3.18-2.62-1.56.68-2.65,1.71-3.72,2.75-1.39,1.34-2.79,2.68-4.06,4.12-2.66,3.03-5.39,5.98-7.68,9.33-2.3,3.35-4,6.99-5.77,10.6-.44.89-.6,1.91-.89,2.88.48.36.85.64,1.43,1.07-.71.13-1.19.21-1.83.33.04.37.08.71.12,1.12q1.44-.68,2.02.35c-.96.23-1.89.45-2.91.69-.75,1.06-.25,2.29-.38,3.44,1.14,1.75,2.85,2.42,4.76,2.59,2.81.26,5.5-.32,8.09-1.43,2.71-1.16,5.44-2.3,8.13-3.5,1.72-.76,3.16-1.95,4.51-3.01v-6.27c-.52.07-1.01.01-1.38.2-2.25,1.13-4.64,1.09-7.03.88-1.05-.09-2.11-.46-2.9-1.29-.46-.48-.91-.96-1.39-1.46-.11-.89-.2-1.69.22-2.61.72-1.57,2.1-1.98,3.49-2.15,2.51-.3,4.77-.83,7.15-2.09-.24-.31-.46-.61-.71-.94.49-.59,1.08-.11,1.71-.16-.07-.33-.13-.66-.21-1.08.32-.17.66-.36,1.06-.57-.01-.95-.12-2.01,1.21-2.44.48,1.03-1.17,1.01-.85,1.97.39.2.78.41,1.27.67.13-.56.23-1.01.35-1.52h1.45c-.23.44-.41.77-.65,1.23.87-.05,1.61-.09,2.63-.15,1.24-.61,2.42-1.87,4.12-2.31.99-.25,1.85-.18,2.82.02,2.26.45,3.59,1.78,4.15,4.04.06,1.79-.88,2.82-2.7,3.34-1.1.31-2.09,1.02-3.2,1.59.16.77.2,1.4-.15,2.11-1.43,2.89-1.78,5.94-1.1,9.12.22,1.03.24,2.1.12,3.19.29.39.57.77.83,1.13-.09.36-.17.69-.25,1.02.61.18,1.11.34,1.65.5-.11,2.16.32,4.17,1.03,6.24,1.9-.25,3.11,1.15,4.84,1.64.28,1.64.56,3.26.85,4.99-1.07,1.57-2.46,2.69-4.41,3.28-1.71.52-3.31,1.44-4.93,2.25-.39.2-.7.63-.96,1.01-.38.54-.73,1.11-1.01,1.72-.37.82-.97,1.32-1.77,1.69-.65.3-1.22.77-1.83,1.17-1.97.42-3.75-.47-5.61-.93-1.43-2.27-2.41-4.63-1.64-7.46-.19-.22-.38-.54-.65-.75-1.43-1.12-1.58-2.76-1.78-4.36-.13-1.03.57-1.78,1.05-2.59.88-1.52,2.37-2.49,3.48-3.81.71-.85,1.45-1.67,2.22-2.56v-2.92c-1.25.68-2.35,1.29-3.12,2.26-2.35,2.96-5.62,4.45-9,5.77-1.22.48-2.43,1-3.87,1.6-.6-.18-1.45-.13-2.35.18-1.63.56-3.3.51-4.97.05-1.44-.39-2.9-.75-4.37-1.03-2.28-.45-3.74-2.06-5.04-3.72-.6-.77-.9-1.91-.94-3.03-.13-3.18.62-6.21,1.42-9.25.39-1.5,1.47-2.77,1.44-4.4,1.52-2.3,2.22-5.06,4.14-7.13.24-.26.47-.56.63-.88,1.06-2.06,2.6-3.77,4.15-5.45,1.38-1.5,2.92-2.86,4.35-4.31.8-.81,1.51-1.72,2.3-2.54,1-1.05,2.03-2.06,3.05-3.09.3-.3.65-.56.89-.9,2.18-3.15,5.45-4.71,8.9-5.83,1.8-.58,3.8-.78,5.37.94.59.65,1.37,1.13,1.98,1.61Z"/><path class="cls-1" d="m825.55,89.22c.36.68.79,1.48,1.26,2.36-.06,1.1-.35,2.24-.96,3.31-.23.4-.38.9-.39,1.36-.03,1.16-.54,2.1-1.31,2.89-1.64,1.68-3.17,3.54-5.05,4.9-2.25,1.63-4.68,2.96-7.83,2.21-2.56-.61-4.99-1.25-7.06-2.96-.72-.59-1.26-1.24-1.64-2.1-.41-.92-1-1.75-1.58-2.75.2-.84.45-1.89.69-2.92.09-.11.16-.23.25-.28,1.77-.99,2.1-2.4,1.56-4.3-.36-1.25-.34-2.61-.48-3.93-.02-.18.06-.39-.01-.54-.91-2.06-.94-4.31-1.46-6.45-.24-.99-.61-1.95-.96-2.91-.1-.27-.32-.5-.57-.89-.38.48-.63.71-.78.99-1.46,2.83-2.91,5.67-4.35,8.52-.82,1.61-1.6,3.24-2.44,4.84-.7,1.33-1.44,2.64-2.19,3.95-1.35,2.35-2.68,4.72-4.09,7.03-.48.79-.98,1.61-2,1.97-2.73.96-3.77.42-5.4-1.44-.51-.58-.87-1.28-1.33-1.96.33-.53.64-.96.89-1.43.66-1.21,1.32-2.42,1.92-3.66.41-.86.85-1.7,1.28-2.54,1.65-3.2,3.57-6.26,5.17-9.48.67-1.35,1.46-2.64,2.12-3.99,2.1-4.26,4.17-8.53,6.25-12.79.63-1.3,1.18-2.66,1.93-3.89.74-1.2,1.17-2.48,1.66-3.77.7-1.85,1.57-3.63,2.4-5.43.12-.25.38-.52.64-.6,1.7-.56,3.35-1.4,5.35-.97.48.62.98,1.3,1.52,1.94.67.8.65,1.64.24,2.53-1.05,2.24-2.11,4.47-3.14,6.72-.49,1.08-.92,2.2-1.38,3.33.32.37.52.67.8.89,1.18.92,1.85,1.91,2.01,3.59.2,2.17.83,4.42,2.05,6.31.86,1.33.95,2.82,1.36,4.24.4,1.37.59,2.8.88,4.26,1.48-.49,2.87-.95,4.08-1.36.16-.88.26-1.5.38-2.12.07-.35.19-.69.23-1.04.15-1.55.27-3.1.43-4.65.03-.29.16-.57.27-.84.31-.77.69-1.52.95-2.31.75-2.26,1.46-4.53,2.19-6.79.61-1.89,1.39-3.74,1.8-5.67.25-1.17.49-2.32.87-3.46.22-.66.41-1.32.64-2.06.48-.25,1.01-.53,1.54-.8,3.02-1.5,5.93-.37,7.22,2.74.45,1.08.38,2.08,0,3.14-.5,1.4-.96,2.83-1.36,4.26-.63,2.23-1.37,4.45-1.72,6.73-.23,1.51-1.04,2.78-1.25,4.27-.2,1.42-.76,2.79-.98,4.21-.37,2.37-.6,4.76-.88,7.14-.08.72-.14,1.43-.24,2.47Z"/><path class="cls-1" d="m853,57.88c1.45.26,2.38-1.09,3.77-1.3v-2.82c.68-.56,1.32-1.09,1.95-1.6,1.23-.11,2.41-.29,3.6-.31.89-.02,1.81.08,2.68.27.43.09.84.45,1.17.78.76.77,1.47,1.6,2.2,2.4.83.92.61,2,.55,2.96-1.7,2.02-3.65,3.08-6.21,2.27-1.03.63-.45,1.57-.58,2.34-1.32,2.56-1.57,2.83-3.82,4.05-.67-.55-1.38-1.14-2.1-1.74-3.69,3.31-6.99,6.83-9.14,11.22-1.9,3.88-2.93,8-2.68,12.38.09,1.6.47,3.11,1.19,4.72.6-.1,1.23-.07,1.73-.31,3.44-1.63,6.86-3.28,10.26-4.99.62-.31,1.09-.91,1.72-1.47-.99-.11-1.81-.08-2.55-.3-.86-.26-1.51-.82-1.68-1.85-.08-.48-.51-.9-.8-1.37v-2.45c1.34-.92,2.72-1.88,4.12-2.81,1.34-.9,2.69-1.78,4.05-2.64.81-.52,1.67-.96,2.47-1.5,1.69-1.14,3.44-2.22,4.99-3.53,1.73-1.46,3.64-2.06,5.84-1.97.24.01.48,0,.74,0,2.7,2.45,2.49,5.86,3.1,9.08-.54,1.14-1,2.34-1.22,3.67-.3,1.8-1.12,3.5-1.65,5.27-.29.97-.48,1.98-.67,2.97-.15.81-.25,1.63-.41,2.77.12.29.37.89.65,1.58.91.37,1.83.84,2.8,1.11,2.64.73,4.15,2.31,4.18,5.13,0,.17.1.35.09.33-.88,1.51-1.77,2.86-2.47,4.31-.93,1.95-2.52,3.18-4.28,4.26-.46.28-.93.52-1.53.86-.39-.05-.92-.12-1.53-.2-.38.3-.79.63-1.17.94-1.16-.22-2.27-.43-3.38-.65-1.16-.23-2.07-.84-2.76-1.8-.81-1.12-1.65-2.21-2.4-3.21.1-1.16.19-2.17.3-3.44.9-.65,1.96-1.42,3.12-2.26-.9-.9-1.84-1.67-2.55-2.61-.7-.93-1.16-2.03-1.74-3.09-1.92,1.2-3.83,2.2-5.52,3.5-1.37,1.05-2.86,1.76-4.41,2.41-2.01.85-4.17,1.08-6.24,1.68-1.82-.53-3.85.06-5.56-1.21-1.08-.8-1.97-1.7-2.66-2.84-.31-.51-.64-1.01-1.03-1.63.09-1.04-.33-2.07-.77-3.14-.41-1.01-.62-2.16-.63-3.26-.02-2.45.04-4.89.4-7.33.39-2.72,1.37-5.19,2.68-7.58.43-.78.52-1.74.95-2.51.64-1.15,1.39-2.24,2.19-3.29,1.78-2.36,3.75-4.55,5.87-6.62,1.4-1.37,3.04-2.34,4.79-3.64Z"/><path class="cls-1" d="m417.28,161.78c-.37,3.38-1.29,6.5-3.91,8.87.45,1.19.88,2.31,1.25,3.26-.17,3.49-1.68,6.47-2.75,9.71,1.46.64,2.93,1.27,4.39,1.94,1.17.53,2.16,1.25,2.67,2.52.19.48.62.86.89,1.31.41.7,1.04,1.35.63,2.29-.08.2-.06.47-.01.69.44,1.98-.7,3.23-2.14,4.19-.82.54-1.87.74-2.82,1.08-.22.08-.51.06-.67.2-1.18,1-2.65.94-4.05,1.05-1.12.09-2.09.36-3.01,1.05-1.88,1.42-4.88,2.29-6.85,2.11-1.44-.89-2.89-1.77-4.43-2.72-.56-2.38-1.14-4.8-1.74-7.34.84-.86,1.63-1.66,2.41-2.47.43-.45.98-.58,1.57-.75,2.36-.7,4.44-2.04,6.87-2.99-.31-.39-.46-.57-.59-.75-1.19-1.58-1.6-3.85-1.05-5.76.17-.58.09-1.15.09-1.73.02-1.42.26-2.86.63-4.24.36-1.32,1-2.56,1.53-3.82.3-.71.31-.7,0-1.65.63-.88.71-1.56.52-4.34-1.38.33-2.73.67-4.09.99-1.38.32-2.79.53-4.19,1.16.08.59.15,1.1.23,1.67-.5,1.59-1.71,2.48-3.61,2.92-.83-.36-1.89-.91-3.01-1.28-.61-.2-.9-.59-1.15-1.06-.6-1.1-1.17-2.22-1.7-3.36-.38-.82-.6-1.63-.26-2.6.33-.94.01-1.91-.59-2.86.37-.91.76-1.87,1.16-2.82.67-.03,1.21-.06,1.83-.08.49-.87.98-1.75,1.48-2.63.5-.89.99-1.78,1.49-2.66.87.21,1.78.32,2.61.65.88.35,1.9.72,2.49,1.4,1.47,1.69,3.24,1.57,5.12,1.27.53-.09,1.07-.12,1.6-.18,3.02-.31,6.08-.13,9.05-.87.26-.06.55.05.83.05.93.02,1.91.29,2.85-.46-.12-.34-.14-.74-.35-.95-1.67-1.67-1.72-3.81-1.92-5.98.69-.64,1.33-1.28,2.01-1.87,1.89-1.65,3.96-2.13,6.27-.86,1.32.72,2.63,1.47,3.96,2.17.81.43,1.2,1.17,1.52,1.95.39.94.72,1.91,1.14,3-.2.48-.46,1.08-.68,1.62.79.66,1.54,1.29,2.16,1.8.08,1.67-.06,3.03-.9,4.22-.27.38-.57.77-.93,1.05-.84.67-1.08.63-1.98-.11-.72-.6-1.24-.73-1.72-.17-.94,1.1-2.19,1.41-3.48,1.7-2.16.48-4.32.95-6.69,1.47Z"/><path class="cls-1" d="m304.79,180.01c-.94-1.31-1.72-2.39-2.49-3.47-.93.12-1.25.87-1.4,1.5-.44,1.8-1.65,3.2-2.42,4.82-.78,1.61-1.85,3.09-2.8,4.62-.59.95-1.28,1.59-2.55,1.71-1.29.12-2.49.94-3.79.6-1.1-.74-2.14-1.44-3.04-2.05-1.02-1.48-.42-2.88-.26-3.99.67-1.03,1.26-1.79,1.71-2.63.82-1.54,1.51-3.14,2.32-4.68.64-1.22,1.41-2.38,2.07-3.59.78-1.41,1.48-2.87,2.27-4.27.38-.68.86-1.31,1.34-1.93,1.14-1.46,2.31-2.9,3.45-4.36.25-.32.49-.67.65-1.05.79-1.87,2.22-2.84,4.13-3.47,1.68-.55,3.16-.43,4.7.24,1.55.68,2.27,1.89,2.36,3.53.01.24-.01.48-.05.72-.36,2.21-.06,4.37.17,6.57.11,1.08.24,2.24.16,3.37-.09,1.19.28,2.32.63,3.72.39-.41.75-.62.8-.88.35-1.94,1.5-3.63,1.66-5.66.1-1.27.8-2.49,1.21-3.75.24-.74.43-1.5.65-2.24.59-1.95,1.2-3.89,1.78-5.83.19-.63.23-1.32.5-1.92.49-1.08.91-2.29,1.7-3.12,1.26-1.32,2.98-1.39,4.7-.94.46.12.92.24,1.45.38,1.4,1.2,1.5,1.34,2.5,3.58-.05.51-.2,1.06-.14,1.58.32,2.67-.75,5.07-1.43,7.53-.56,2-1.1,4.01-1.85,5.96-.4,1.05-.33,2.26-1.01,3.27-.18.26-.03.82.1,1.19.22.61.56,1.19.87,1.81-.11.56-.23,1.15-.34,1.74-.15.89-.53,1.6-1.26,2.19-.79.64-1.45,1.44-2.21,2.2.07.33.09.63.21.88,1.02,2.16.48,4.38-.09,6.45-.36,1.3-1.16,2.63-2.41,3.48-.59.4-1.17.83-1.74,1.23-.64-.05-1.31-.21-1.96-.14-2.11.25-3.56-.77-4.78-2.3-.79-.98-1.59-1.95-2.34-2.96-.27-.36-.36-.85-.54-1.29-.63-.47-1.31-.96-1.95-1.48-.61-.49-1.18-1.02-1.82-1.57-.1-1.14-.19-2.32-.31-3.74.22-.41.57-1.03.86-1.56Z"/><path class="cls-1" d="m717.88,178.66c.64.09,1.3.3,1.93.25,2.33-.19,4.67-.43,6.99-.71,1.19-.14,2.37-.38,3.55-.58,2.54-.44,5.1-.86,7.68-.97,1.49-.06,2.98.27,4.35.81v2.62c-1.05,1.87-3.28,2.94-5.1,4.61.03.41,0,.9.12,1.35.8,3.03-1.58,5.81-4.84,6.01-.57.03-1.24-.09-1.71-.39-1.22-.79-2.43-.78-3.8-.48-1.7.37-3.49.79-5.18.62-3.4-.35-6.85-.59-10.02-2.14-1.01-.5-1.49-1.38-2.09-2.19-.75-1.02-1.31-2.15-1.23-3.53-2.54-1.66-3.98-4.15-4.84-6.96-.44-1.43-.42-2.92.26-4.4,1.23-2.69,3.44-4.45,5.65-6.21,1.08-.86,2.19-1.66,3.44-2.3,1.09-.56,1.88-1.67,3.13-2.08,2.34-.79,4.46-2.13,6.91-2.64.76-.16,1.25-.69,1.66-1.48,1.1-2.1,2.6-3.83,4.71-5.11,1.39-.85,2.75-1.72,4.25-2.35.17-.07.38-.1.49-.22.95-1.03,2.19-1.47,3.51-1.69,2-.34,3.94-.14,5.7.61,1.41,1.04,1.68,2.55,2.18,3.87-.47,1.53-1.11,2.84-2.31,3.86-.78.66-1.29,1.55-1.59,2.58-.48,1.69-1.92,2.55-3.3,3.42-.46.29-.97.49-1.45.75-1.37.76-2.8,1.12-4.29.53-.39.16-.76.25-1.04.45-1.73,1.22-3.66,1.8-5.76,1.78-.7,0-1.29.19-1.86.56-.9.59-1.81,1.15-2.85,1.8.89.84,1.9.43,2.78.6.88.18,1.76.35,2.81.55,1.07.7.18,1.88.42,2.86-.3.36-.65.64-.81,1-.74,1.65-2.15,2.38-3.76,2.87-.98.3-1.97.58-2.93.92-.62.22-1.2.52-1.8.79.01.12.02.25.03.37Z"/><path class="cls-1" d="m462.05,190.25c.34-1.24.63-2.41-.24-3.5-1.52-.42-3.27-.58-4.67-1.37-1.54-.87-3.31-1.74-3.79-3.82-.25-1.09-.36-2.28-1.38-3.23-1.02-.22-2.3.16-3.35-.61-.46-.34-1.93-2.58-2.53-3.9.44-1.91,2.06-2.74,3.52-3.63,1.42-.87,3.05-1.21,4.75-1.11.08-.06.22-.12.26-.22.99-2.25,2.54-4.15,3.83-6.21,1.13-1.82,2.47-3.32,4.06-4.69.45-.38.74-.94,1.13-1.39,1.38-1.65,3.09-2.95,4.64-4.41,1.65-1.55,3.55-2.68,5.33-3.99,1.15-.85,2.5-1.6,4.05-1.77.88-.1,1.73-.47,2.31-.64,1.17.08,2.06.14,2.95.21,2.01.16,3.88.64,5.17,2.38.21.29.48.53.7.77v4.02c-.77.83-1.37,1.58-2.08,2.21-1.5,1.32-2.66,3.11-4.8,3.56-.35.07-.71.08-1.15.12-.49-.6-.98-1.19-1.48-1.8.14-.93.28-1.81.43-2.81-.34,0-.74-.13-.95.02-1.72,1.21-3.49,2.36-5.07,3.73-4.54,3.92-8.25,8.55-11.31,13.75.09.41.19.82.27,1.23.32,1.58.09,2.95-1.24,4.07-.75.63-.68.74.17,1.85,1.39-.86,2.79-1.73,4.16-2.58,1.06.21,2.06.8,2.93-.24.13-.16.58-.13.86-.07,1.46.28,2.66-.28,3.83-1.04,1.4-.92,2.97-1.31,4.62-1.26,1.32.04,2.63.2,4.06.31.11-.11.32-.3.53-.5,1.66.1,2.64,1.76,4.26,2.06.34.88.74,1.91,1.3,3.39.08,1.62-1.04,3.11-2.47,4.48-1.69,1.61-3.56,3.03-5.05,4.84-.72.88-1.37,1.83-2.02,2.77-1.07,1.54-2.37,2.85-3.9,3.9-.62.43-1.42.74-2.17.81-3.37.32-6.32-.54-8.48-3.36-.59-.76-1.26-1.46-2-2.32Z"/><path class="cls-1" d="m107.56,115.74c-.95.62-2.21.41-3.46.49-1.23.07-2.33-.25-3.75-.67-.51-.98-1.15-2.2-1.78-3.43-.49-.97-.5-1.95-.04-2.94.52-1.12.58-2.19-.21-3.23-.18-.24-.27-.54-.43-.8-.88-1.36-.93-2.62.17-3.94.52-.63.73-1.51,1.17-2.22.53-.87.55-1.7.06-2.55-.69-1.19-1.38-2.38-2.08-3.57-.24-.41-.5-.81-.74-1.23-.17-.31-.24-.74-.49-.93-1.24-.93-1.57-2.36-2.15-3.67-.67-1.53-1.11-3.2-2.54-4.37.13-.49.24-.94.38-1.5-.15-.21-.35-.49-.68-.94-2.76,2.76-5.25,5.61-7.74,8.71.47.18.79.42,1.09.4,1.36-.12,2.71-.29,4.06-.48.97-.14,1.85-.19,2.78.37.5.31,1.29.15,1.95.2,1.37.75,1.75,2.22,2.51,3.35-1.03,2.45-3.24,2.98-5.38,3.58-1.7.47-3.41.89-5.11,1.38-2.53.72-5.1,1.44-7.79.8-.34-.08-.72-.01-1.3-.01-.66.79-1.45,1.68-2.2,2.62-1.09,1.36-2.14,2.75-3.22,4.13-1.29,1.65-3.11,2.13-5.08,2.18-.58.01-1.17-.09-1.95-.15-.41-.55-.96-1.19-1.39-1.89-.42-.68-.36-1.52.19-2.01,1.72-1.52,2.52-3.75,4.26-5.28.87-.76,1.37-1.93,2.05-2.9.24-.34.52-.64.8-.95.33-.35.75-.64,1-1.04,1.36-2.14,3.5-3.62,4.91-5.72.26-.39.75-.61,1.08-.96.44-.47.81-1,1.46-1.81.04-.03.5-.21.83-.53,2.07-2.01,4.1-4.05,6.16-6.07,1.24-1.22,2.44-2.5,3.79-3.6,1.25-1.03,2.7-1.81,4-2.78,2.09-1.57,2.07-1.6,4.82-2.31.76.51,1.64,1.09,2.43,1.62.05,2.1-2.02,2.29-2.78,3.66.24.31.48.63.72.95,1.19,1.54,2.14,3.19,2.5,5.13.06.35.19.69.35,1.01,1.22,2.47,2.58,4.85,4.26,7.04.17.23.26.52.4.78.68,1.34,1.37,2.68,2.04,4.02.27.54.59,1.06.76,1.63.37,1.26,1.32,1.76,2.47,2.08.62.18,1.23.42,1.77.61.1.31.15.48.21.65.72,2.03.48,3.87-.97,5.55-.52.6-.55,1.39-.3,2.22.43,1.41.39,2.85-.19,4.24-.11.28-.22.57-.26.86-.15,1.02-.74,1.74-1.49,2.39-.57.5-1.1,1.05-1.91,1.83Z"/><path class="cls-1" d="m348.81,183.3c-1.3,1.56-2.87,2.42-5.01,2.64-2.09.21-3.7-.43-5.26-1.59-1.71.17-3.39.31-5.03-.29-.22-.08-.51-.06-.68-.2-1.2-1-2.37-2.02-3.35-2.87-.2-1.12-.35-1.99-.46-2.56.73-1.57,1.32-2.93,2.01-4.25.46-.89.86-1.85,1.96-2.23.44-.15.8-.5,1.31-.84-.09-1.01-.18-2.01-.27-3.02-.03-.3-.06-.6-.03-.89.33-3.28.66-6.55,1.01-9.83.19-1.79.95-3.36,2.39-4.42.67-.49,1.66-.65,2.53-.72,1.37-.12,2.78-.17,4.39.57.55.87,1.24,1.98,2.01,3.2-.34.8-.76,1.59-1.01,2.42-.33,1.14-.67,2.31-.75,3.48-.14,1.97-.07,3.95-.13,5.92-.01.47-.16.94-.27,1.41-.28,1.21-.24,2.12.2,3.29,1.27-1.25,1.44-2.99,2.29-4.35.88-1.42,1.45-3.03,2.13-4.49,1.77-.77,2.6-2.06,2.89-3.88.23-1.46.78-2.86,1.21-4.37,1.47-1.19,2.97-2.4,4.44-3.6,1.03.18,1.97.34,2.91.73,1.24.51,2.14,1.37,2.91,2.34,1,1.24.99,2.79.73,4.28-.31,1.81-1.13,3.54-1,5.43,0,.12,0,.25-.05.35-1.08,2.27-1.06,4.73-1.32,7.15-.04.41-.16.82-.33,1.2-.85,1.86-1.17,3.72-.54,5.74.33,1.07.36,2.23.51,3.27-1.49,1.66-3.02,3-4.96,3.92-3.59.01-4.55-.36-7.4-2.94Z"/><path class="cls-1" d="m283.53,178.03c-.42.13-.81.25-1.25.38-.51,1-1.18,1.94-1.05,2.8-.74,1.31-1.38,2.32-1.89,3.38-.82,1.7-1.27,3.54-1.89,5.31-.58,1.68-1.58,3.28-3.78,3.31.39,1.29,1.69,1.63,2.34,2.61.23.61.49,1.28.76,2-.1.4-.21.87-.35,1.4-1.24,1.14-2.42,2.44-4.2,2.92-2.15.57-4.22,1.23-6.16,2.45-1.66,1.04-3.63,1.59-5.44,2.39-1.8.8-3.68,1.41-5.41,2.41-.92.53-2.15.58-3.25.75-.65.1-1.33.02-1.78.02-2.68-1.06-4.06-3.22-5.55-5.24-.48-.64-.67-1.5-.87-1.97,1.03-.91,1.83-1.62,2.64-2.33-.13-.14-.26-.29-.4-.43,3.16-.61,5.62-2.66,8.43-3.99.81-.38,1.62-.78,2.62-1.26.22.38.42.74.56.98,1.68.03,2.82-.85,4.09-1.33,1.35-.51,2.87-.8,4-1.62,1.16-.84,2.82-.28,3.72-1.65-.79-1.37-1.55-2.81-1.19-4.49.19-.87.47-1.72.79-2.55.67-1.73,1.4-3.45,2.1-5.17.02-.05,0-.13.04-.18,2.41-3.25,3.38-7.21,5.32-10.69.81-1.46,1.43-3.03,2.24-4.78-1.1-.06-2.03-.08-2.96-.16-.96-.08-1.91-.22-3.15-.37-.2-.36-.69-.88-.78-1.46-.14-.92-.35-1.92.32-2.79.33-.43.54-.96.9-1.35.35-.37.81-.69,1.28-.88.83-.34,1.7-.58,2.56-.85,1.37-.44,2.81-.74,4.1-1.34,1.76-.83,3.58-1.25,5.5-1.42,1.18-.1,2.36-.29,3.16-.4,1.37.82,2.39,1.43,3.48,2.09.69,1.6-.04,2.86-1.18,4.09-1.15,1.24-2.76.94-4.13,1.42-.28.88.28,1.53.63,2.2.41.78.36,1.45.02,2.23-.31.7-.5,1.46-.69,2.21-.3,1.16-.77,2.22-1.35,3.28-1.21,2.24-2.62,4.46-2.65,7.16,0,.29-.15.57-.23.9Z"/><path class="cls-1" d="m761.14,100.18c1.55-.65,2.36-2.01,2.91-3.48.68-1.83,1.27-3.7,1.59-5.66.17-1.04.7-2.02.99-3.05.51-1.78.8-3.65,1.48-5.35.69-1.71,1.22-3.49,1.85-5.22.64-1.74,1.46-3.54,1.5-5.6-1.73-.78-3.45-1.51-4.43-3.24-.72-1.26-1.47-2.48-1.76-4.11,1.08-.94,2.11-2.09,3.37-2.84,1.1-.67,2.08-1.44,2.99-2.31,1.72-1.65,3.66-2.93,5.8-3.96,1.02-.49,1.92-.52,2.9.09.76.47,1.53.99,2.49.71.99.94,1.95,1.85,2.88,2.73.06.33.09.56.14.79.23,1.05.71,2.12.64,3.16-.06.95-.71,1.85-1.09,2.76-1.48,1.12-3.24,1.8-4.63,2.99.51,1.27,1.05,2.34,1.37,3.48.31,1.08.41,2.22.63,3.51-1.64,1.86-2.09,4.5-3.25,6.8-.35.7-.56,1.47-.95,2.14-1.17,2-1.73,4.22-2.47,6.38-.19.56-.42,1.1-.65,1.65-.12.28-.3.53-.38.82-.59,2.14-1.28,4.26-1.7,6.44-.18.94.22,1.99.37,2.99.22,1.41.46,2.83.67,4.11-.47.73-.82,1.28-1.3,2.01-1.43.38-2.99.8-4.56,1.19-1.85.46-3.44-.18-4.81-1.35-1.54-1.31-2.68-2.95-3.37-4.86-.31-.85-.36-1.76.21-2.59.2-.29.32-.64.56-1.15Z"/><path class="cls-1" d="m227.55,95.52c.64-2.4,1.26-4.65,1.85-6.91.53-2.03,1.17-4.03,1.39-6.14.09-.91.73-1.75.96-2.66.75-2.97,1.48-5.95,2.12-8.94.15-.72-.07-1.52-.12-2.24,2.41-4.35,7.77-5.54,10.65-1.17.09,1.45.12,2.9-.46,4.48-.81,2.23-1.1,4.65-1.64,6.98-.15.64-.42,1.24-.58,1.88-.3,1.22-.53,2.46-.83,3.68-.44,1.74-.94,3.47-1.37,5.21-.26,1.04-.43,2.1-.73,3.62-1.11,1.3-.97,3.54-1.72,5.48-.16.41.11,1.05.32,1.52.91,2.1.59,4.16-1,5.8-.5.52-1.11.93-1.64,1.42-.75.69-1.61,1.31-2.18,2.13-1.11,1.62-2.61,2.39-4.49,2.67-.68.1-1.37.4-1.98.73-1.93,1.06-3.76.8-5.34-.79-.5-.5-1.11-.91-1.51-1.23h-3.08c.2-.49.35-.85.44-1.06-.25-.21-.56-.48-.98-.83.55-.53.86-.84,1.18-1.15.79.76.35,2.23,1.83,2.47.02-.91-.13-1.65-.59-2.4-1.22-2.02-1.25-4.11.12-6.07.39-.55,1.07-.91,1.65-1.31.34-.23.82-.29,1.12-.56,1.32-1.2,2.99-1.8,4.48-2.68.85-.5,1.49-1.35,2.11-1.93Z"/><path class="cls-1" d="m378.8,153.4c.24.17.49.34.7.48.6-.11,1.17-.22,1.86-.35.03,1.18.67,1.86,1.34,2.58.56.6.99,1.34,1.4,2.06.53.91.98,1.87,1.58,3.03-.48,1.01-1.26,2.25-1.03,3.85-1.36.61-1.45,2.07-2.04,3.21-.89,1.73-1.76,3.5-2.39,5.34-.67,1.96-1.56,3.88-1.55,6.03,0,.29.02.68-.15.85-1.03,1.05-.87,2.39-.69,3.59.15.97.14,1.87-.01,2.8-.17,1.03-.36,2.06-.04,3.06-3.41,1.98-4.91,3-8.81-.54-.53-1.65-1.09-3.16-1.49-4.71-.26-1.01-.42-2.09-.41-3.13,0-.67.46-1.33.59-2.01.17-.87.19-1.77.35-2.64.21-1.17.4-2.37.78-3.49.34-1,.49-2.09.94-2.98.47-.93.59-1.89.92-2.82.48-1.35,1.15-2.62,1.74-3.93.83-1.86,1.63-3.72,2.5-5.57.87-1.86,1.88-3.64,3.92-4.73Z"/><path class="cls-1" d="m795.13,35.37c.41,1.04.82,2.07,1.34,3.39,0-.14,0,.03,0,.21.08,1.61-.55,2.8-1.82,3.88-1.46,1.24-2.66,2.77-3.99,4.17-.33.35-.73.64-1.04,1-1.15,1.35-2.78,1.56-4.37,1.8-.88.13-1.77.06-2.54-.62-.67-.59-1.48-1.02-2.3-1.56-.42.22-.83.45-1.26.65-2.17.98-5.03-.16-5.99-2.38-.05-.11-.07-.23-.13-.33-1.26-1.97-1.5-4.15-1.18-6.64.85-1.48,2.39-2.55,3.99-3.48,1.45-.84,3-1.53,4.54-2.2,1.72-.74,3.52-1.18,5.42-1.19.65,0,1.29-.17,1.94-.24,2.74-.3,4.88.97,6.85,2.66.27.23.48.54.71.81-.06.03-.12.06-.18.08Z"/><path class="cls-1" d="m525.6,93.46c1.83,1.18,3.25,2.67,4.04,4.56.65,1.54.49,3.11-.72,4.55-.95,1.14-1.56,2.57-2.36,3.84-1.18,1.89-3.8,2.94-5.96,2.47-1.38-.3-2.59-.91-3.73-1.91.2-1.26.4-2.55.64-4.07-.22-.17-.55-.42-.89-.69,0-.16-.03-.35,0-.52.08-.35.31-.71.27-1.04-.17-1.37.5-2.42,1.15-3.51.9-1.5,1.75-3.02,2.4-4.13.21-1.49.28-2.57.53-3.61.36-1.55,1.09-3.05,1.22-4.61.16-1.93,1.1-3.62,1.34-5.52.13-1,.63-1.98.73-3.08.08-.87.68-1.66,1.65-1.97,1.9-.6,3.67-.43,5.19.95.62.57,1.17,1.22,1.61,1.69.14.84.3,1.47.35,2.12.03.4-.02.83-.16,1.21-1.15,3.17-2.46,6.25-4.46,9-.35.47-.85.84-1.3,1.23-.49.44-1.01.85-1.54,1.29v1.72Z"/><path class="cls-1" d="m290.46,128.39c1.52-.41,2.92-.73,3.95-2.02.41.36.75.66,1.17,1.05,1.08-.43,2.18,0,3.07.64,1,.73,1.88,1.65,2.01,3.08.06.7.07,1.26-.39,1.83-1.28,1.59-2.06,3.52-3.53,5-.7.71-1.15,1.66-1.82,2.41-1.29,1.43-2.69,2.74-3.98,4.17-2,2.22-4.42,2.89-7.3,2.19-2.63-.64-4.02-2.77-3.41-5.36.33-1.37.77-2.66,2.33-3.16.88-.28,1.28-1.06,1.59-1.85,1.11-2.81,3.04-4.98,5.35-6.84.14-.11.3-.21.41-.35.19-.23.34-.49.53-.78Z"/><path class="cls-1" d="m509.39,62.99c-.89.1-1.57.2-2.27.24-.66.04-1.33,0-2.01,0-.29-.21-.61-.4-.87-.63-1.14-1.05-1.95-2.2-1.84-3.9.27-4.11,1.63-7.69,4.75-10.49.26-.23.58-.42.9-.53,1.24-.45,2.47-.97,3.75-1.27.73-.17,1.66-.17,2.3.15,1.35.68,2.96.49,4.22,1.45.32.24.93.09,1.42.11.35.53.68,1.08,1.05,1.6.95,1.35.99,2.77.04,4.15-.57.84-1.21,1.62-1.81,2.45-1.44,2-3.55,2.89-5.84,3.25-1.35.21-2.21.79-2.86,1.88-.33.56-.69,1.11-.95,1.52Z"/><path class="cls-1" d="m187.42,145.7c-.09-.79-.15-1.43-.23-2.15.18-.31.38-.68.56-1-.05-.87-.09-1.71-.13-2.43,1.05-1.32,2.22-2.22,3.69-2.74.39-.14.8-.33,1.12-.59,1.45-1.19,3.14-1.44,4.94-1.34.54.03,1.09.1,1.63.07,1.78-.07,2.84,1.11,3.87,2.26.47.53.75,1.22,1.12,1.84.15.26.31.51.41.69-.8,2.78-3.36,3.86-5.24,5.58-.48.44-1.11.74-1.56,1.21-1.46,1.5-3.2,1.77-5.15,1.36-1.53-.32-3.81-1.55-5.02-2.77Z"/><path class="cls-1" d="m238.75,50.99c.23-3.24,1.72-5.59,4.17-7.41.77-.57,1.54-1.14,2.28-1.74,1.12-.9,2.43-1.16,3.82-1.44,1.55-.31,2.74.18,3.83,1.05.73.58,1.27,1.4,1.7,1.89.16,2.44-.97,3.98-2.19,5.57-1,1.29-1.91,2.6-3.28,3.57-1.93,1.38-3.99,2.14-6.39,1.82-.36-.05-.72-.05-.98-.06-1.59-.59-1.95-2.15-2.97-3.24Z"/><path class="cls-1" d="m386.39,142.18c-.3-.23-.58-.46-.86-.67-1.35-.99-2.89-1.72-3.98-3.07-.31-.38-.91-.52-1.26-.72-.09-1.27-.2-2.42-.26-3.57-.1-1.81-.12-3.59,1.29-5.03,1.17-1.19,2.48-2.17,3.97-2.91.25-.13.65-.19.88-.08,1.01.5,2.11.93,2.93,1.66,1.59,1.41,2.7,3.18,3.16,5.31.18.8.46,1.59.75,2.57-.44,1.25-.91,2.7-1.47,4.13-.14.36-.48.71-.82.92-1.07.66-2.14,1.36-3.5,1.26-.28-.02-.57.13-.82.2Z"/><path class="cls-1" d="m576.87,67.12c-.3.71-.52,1.24-.75,1.79-.57-.08-1.07-.15-1.57-.21-.45-.05-.9-.09-1.58-.16.47-.97.85-1.72,1.31-2.66.24.47.43.85.63,1.24h1.96Z"/></svg>