<?xml version="1.0" encoding="UTF-8"?><svg id="Layer_1" xmlns="http://www.w3.org/2000/svg" viewBox="0 0 901.08 245.84"><defs><style>.cls-1{stroke-width:0px;}</style></defs><path class="cls-1" d="m211.07,169.49c-1.09,2.76-2.73,5.35-2.91,8.48-.04.76-.3,1.5-.45,2.25-.16.79.1,1.38,1.03,1.87,4.79-.27,9.22-1.99,13.19-5.01,3.01-.24,6.04,2.6,5.68,5.95-1.83,1.45-3.73,2.96-5.64,4.46-.16.13-.36.24-.55.31-3.03,1.07-5.92,2.44-9.13,3.1-3.62.75-6.37-.84-9.05-2.54-1.83-1.16-2.77-3.31-3.49-5.42-.26-.78-.62-1.52-1-2.44-2.06,1.34-3.92,2.56-5.84,3.82.76,2.06,0,3.58-1.26,5-.86.45-1.79.94-2.8,1.46-4.35.31-7.51-1.91-10.28-5.4-.02-.08-.13-.41-.18-.76-.06-.35-.07-.7-.13-1.24.73-1.03,1.53-2.17,2.46-3.48.07-1.47.14-3.14.21-4.8.57-.52,1.23-1.03,1.79-1.65.51-.57.91-1.25,1.45-2.01-.58-1.4,1.43-2.41.82-4.12-1.77-.52-3.17.81-4.78,1-1.59.19-3.19.35-4.94.54-.56,1.21-1.17,2.38-1.67,3.61-1.17,2.87-2.29,5.75-3.4,8.64-.26.68-.28,1.48-.64,2.09-.66,1.14-1.49,2.19-2.21,3.23h-4.6c-.63-.53-1.37-1.16-1.99-1.69-.06-.34-.1-.47-.11-.61-.16-4.13,2.08-7.48,3.58-11.08.29-.7.65-1.37,1.05-2.2-1.73-.66-3.12.27-4.56.46-1.46.19-2.9.53-4.34.8-1.51.28-3.02.56-4.86.9-.81-.17-1.98-.4-3.42-.7-.43-.42-1.02-1.01-1.47-1.45-.47-2.13.11-3.71,1.3-5.12,2.21-.67,4.42-1.35,6.64-2.01.6-.18,1.24-.25,1.85-.39,1.56-.36,3.25-.11,4.69-1.05.21-.14.55-.12.82-.09,2.58.29,4.94-.61,7.42-1.27.81-2.03,1.83-3.97,1.88-5.62,1.3-3.6,2.42-6.68,3.51-9.76.08-.22-.08-.52-.17-.99-1.51.64-2.9,1.22-4.12,1.73-.63,2.28-1.2,4.36-1.84,6.66-1.53,1.3-3.5,2.04-5.71,2.36-1.06-.93-2.07-1.8-3.15-2.75-.52-1.49-1.07-3.06-1.72-4.89-2.05.3-4.29.63-6.51.96.22,1.67.41,3.18.61,4.74-1.48,1.19-2.7,2.74-4.95,2.89-.7,3.58-2.85,6.59-3.91,10.04-.92,3.01-1.94,5.98-2.91,8.97-.06.2-.01.48-.13.6-1.27,1.22-.49,2.34.22,3.38.59.86,1.34,1.62,2.08,2.5-.82,1.42-1.34,2.98-3.05,3.58-.2.07-.38.28-.56.27-1.95-.11-3.67.76-5.38,1.34-1.15-.51-2.17-.97-3.18-1.42-.83-1.41-1.24-2.84-.89-4.31-.36-.79-.66-1.47-1.05-2.33,1.02-.68,1.93-1.3,3.03-2.04.59-1.54,1.25-3.32,1.95-5.09,1.68-4.25,3.29-8.52,5.09-12.72.9-2.1,1.72-4.27,3.19-6.09.16-.2.02-.63.02-1.09-.66,0-1.21.01-1.76,0-1.71-.04-2.99,1-4.47,1.61-1.45.61-2.74,1.18-3.85,2.36-1.61,1.7-2.88,3.58-3.88,5.68-.54,1.14-1.15,2.25-2.45,2.83h-2.65c-.88-.41-1.76-.82-2.69-1.26-1.57-1.68-1.95-3.87-1.89-6.04.05-1.97.89-3.95,2.22-5.35,1.26-1.32,2.14-2.8,2.86-4.37.72-1.57,1.1-3.3,1.73-5.29,1.74-1.86,1.77-1.86,2.07-5.52.16-2.03.99-3.81,2.04-5.46,1.23-1.93,3.31-2.44,6.23-1.84.79,1.6,1.59,3.21,2.51,5.07.23,1.1.52,2.52.8,3.89,1.29.45,2.31.04,3.34-.32,2.13-.39,4.24-.85,6.38-1.16,3.2-.47,6.41-.84,9.62-1.24,1.04-.13,2.07-.25,2.95-.35,1.25-1.44,2.38-2.75,3.46-4.01.63-.22,1.15-.45,1.69-.57,1.87-.43,3.45.01,4.73,1.53.57.68,1.28,1.23,1.96,1.82,1.96,1.69,2.66,3.88,2.52,6.39-.03.6-.47,1.24.34,1.82,1.09-1.09,1.91-2.27,1.58-3.93,1.71-1.14,2.04-3.56,4.28-4.29.97.11,2.08.24,3.33.38.43,1.03.88,2.1,1.29,3.08-.39,1.65-.73,3.29-1.17,4.9-.37,1.35-.83,2.67-1.32,3.99-.81,2.17-1.57,4.35-1.69,6.56-1.09,2.4-2.05,4.72-2.53,7.44,1.24.06,2.29.22,3.32.15,1.59-.1,3.1-.08,4.36,1.61.57-2.35.99-4.32,1.54-6.26.38-1.34,1.12-2.6,1.38-3.95.36-1.84.54-3.74.56-5.62,0-1.22.32-2.12,1.13-3.03,1.14-1.29,2.59-2.42,2.7-4.1,1.88-1.97,3.62-3.76,5.32-5.59,1.2-1.29,2.28-2.71,3.97-3.4.56-.23,1.27-.51,1.78-.35,2.3.73,4.25,1.99,5.01,4.43.21.69.16,1.62-.14,2.26-.67,1.41-1.06,2.87-1.51,4.34-.63,2.04-1.81,3.81-3.54,5-1.32.26-2.54.49-3.61.7-.21.31-.35.43-.35.55-.01,2.33-.98,4.48-1.24,6.77-.14,1.21-.75,2.37-1.08,3.57-.82,2.95-1.59,5.91-2.41,8.85-.24.88-.45,1.8-.87,2.59-.49.94-.51,1.87-.46,2.95,1.29.72,2.56,1.43,3.86,2.15,1.6-.84,1.04-2.52,1.6-3.72.59-1.27,1.17-2.54,1.8-3.93-1-2.4-1.22-4.84.45-7.13.84-.35,1.67-.7,2.64-1.11.4.05.95.11,1.32.15,2.77-2.75,5.42-5.38,8.06-8.02,2.59-2.6,5.77-4.42,8.78-6.24-.92-2.11-1.73-3.94-2.56-5.85.47-.77.97-1.59,1.63-2.67,1.69-.09,3.62-.19,5.56-.31.48-.03.96-.15,1.45-.19.83-.07,1.73-.31,2.49-.11,2.21.6,4.47,1.16,6.36,2.55.15.58.25,1.13.43,1.66.92,2.62.62,3.41-1.5,4.58-1.8.13-3.3.23-5.05.35.43.84.74,1.44,1.07,2.08v2.16c-.47.64-.89,1.2-1.36,1.85-3.51.17-6.13,2.11-8.73,4.67,1.97.58,3.72-.88,5.78.48.57,1.32,1.31,3.03,2.01,4.64-1.11,1.2-2.06,2.21-2.9,3.12-5.71,2.18-11.34,4.33-17.27,6.59Z"/><path class="cls-1" d="m230.58,63.61c1.42-1.56,2.65-3.02,3.99-4.36,1.64-1.64,3.45-3.12,5.07-4.78,1.97-2.01,4.19-3.73,6-5.94,1.2-1.47,2.99-2.53,4.66-3.54,2.02-1.22,3.57-.8,5.68,1.22.48,2.02-.23,3.64-1.77,5.04-.98.89-1.87,1.9-2.78,2.84,0,.19-.04.34,0,.46,1.31,3.55,2.85,7.02,3.87,10.65.81,2.89,2.26,5.57,2.58,8.61.14,1.36.62,2.69.99,4.24,1.68.48,3.43-.53,5.32-.59.16-.37.38-.66.43-.98.32-1.94.63-3.88.89-5.82.14-1.08.18-2.16.14-3.27-.05-1.5.12-3.2,1.09-4.6,1.51-2.19,2.37-4.63,2.29-7.29-.04-1.55.12-2.93,1.1-4.16.1-.13.01-.41.01-.73-1.25-1.8-3.2-1.56-5.28-1.45-1.22-.94-2.55-1.96-3.74-2.87v-3.67c1.33-.85,2.56-1.79,3.92-2.45.78-.37,1.78-.34,2.69-.37,1.62-.05,3.24-.01,4.94-.01,2.15,2.89,5.4,4.35,8.28,6.3.09,2-.65,3.61-1.99,4.98.18,1.29.34,2.55.55,3.79.18,1.11.9,1.85,1.77,2.5,1.36,1.01,2.62,3.35,2.98,5.01.21.95.61,1.87,1.03,2.74,1.88,3.85,3.8,7.67,5.7,11.48.97-.06,1.36-.59,1.64-1.27.32-.78.62-1.56.99-2.32.65-1.33.9-2.63.18-4.03-.21-.41-.23-.95-.21-1.43.12-2.78.28-5.55.45-8.67-.11-.24-.37-.81-.61-1.35.35-2.02-.35-4.14-2.38-4.9-.1-2.86,1.57-4.82,3.56-6.51,1.27-1.08,2.83-1.81,4.19-2.8,1.55-1.14,3.32-1.53,5.15-1.57.99-.02,2,.43,2.91.65.5.9.9,1.63,1.26,2.29.1,1.6.19,3.12.3,4.9,2.17-1.5,4.04-3.01,6.57-3.34,1.13-2.04,2.95-2.66,5.28-2.58,2.03.07,4.07-.42,6.1-.39,4.03.06,8,.43,11.55,2.7,1.88,1.2,3.39,2.76,4.72,4.47,1.09,1.42,1.23,3.25,1.51,4.98.06.34.05.7.09,1.31,1.29.86,2.68,1.78,3.92,2.6.21.59.34,1.06.55,1.48,1,1.96,1.21,4.08.91,6.18-.15,1.05-.71,2.19-1.43,2.96-1.31,1.42-2.31,3.01-3.19,4.69-.5.96-1.15,1.7-1.99,2.4-1.46,1.21-2.76,2.6-4.41,4.19-.06.02-.52.19-.84.3-1.46,1.98-2.82,3.86-4.21,5.72-.71.95-1.33,2.04-2.75,2.03-3.33,2.46-7.35,2.5-11.19,3.19-1.56.28-3.07.39-4.72.21-3.2-.36-6.46-.16-9.61.88-2.51.83-4.88.36-5.98-3.16-.21-.66-.52-1.28-.84-2.05-1.86.24-3.7.64-5.21-.69-2.26.43-4.25.04-5.98-1.59-.19-1.99-.33-4.06-.62-6.1-.14-.95-.49-1.91-.92-2.78-1.12-2.27-2.32-4.5-3.53-6.72-.36-.67-.86-1.26-1.28-1.9-.93-1.44-1.85-2.9-2.89-4.53-.27.43-.52.72-.66,1.05-.85,2.08-1.73,4.15-3.49,5.84.1,1.85-.5,3.7-.25,5.73.21,1.65-.5,3.46-2.25,4.58h-2.17c-.61,1.18-1.22,2.25-1.74,3.38-.62,1.35-1.67,2.23-2.94,2.89-.88.45-1.8.82-2.67,1.27-1.05.55-2.07,1.14-3.1,1.74-1.62.94-3.3,1.57-5.23,1.13-1.95-.45-3.91-.85-5.66-1.23-.63-1.35-1.2-2.45-1.65-3.61-.18-.47-.3-1.13-.12-1.56.77-1.78,1.68-3.51,2.54-5.28-.09-1.32-.18-2.72-.28-4.09.46-.48.84-.88,1.22-1.29.61-1.72-.51-3.08-.82-4.48-3.16.63-6.26,1.17-9.31,1.91-1.56.38-2.89-.08-4.51-.62-.96,1.28-1.95,2.62-2.96,3.94-.63.83-1.28,1.65-1.95,2.45-.8.97-1.56,2-2.46,2.87-.95.92-2.01,1.75-3.1,2.51-1.53,1.08-2.93,2.44-5.02,2.58-.61-.33-1.29-.7-1.93-1.04-.83-1.54-1.29-3.08-.2-4.57,1.14-1.57,2.43-3.03,3.65-4.54.71-.87,1.43-1.73,2.1-2.63.15-.2.12-.54.21-1.03-1.97-.13-3.89-.26-5.74-.39-.55-.58-.98-1.04-1.44-1.53-.01-1.16-.5-2.36.34-3.31,4.63-1.49,9.18-2.85,14.05-3.12Zm95.82-11.65c.04,4.48-2.02,8.34-3.02,12.47-.71,2.92-1.62,5.77-1.61,8.82,0,1.59-.28,3.18-.5,5.49.44,1.62,1.07,3.96,1.75,6.45.54-.15,1.06-.3,1.58-.44,2.8-.79,4.87-2.93,7.51-4.03.11-.05.17-.21.42-.54-.24-.62-.53-1.35-.84-2.16-.07-1.92,1.59-2.53,2.83-3.36.39-1.55-.24-2.69-1.32-3.78.2-.57.33-1.18.62-1.69.57-1,1.02-1.93.49-3.16-.25-.58-.04-1.36-.04-2.01,2.27-1.01,3-3.09,3.88-5.12-.05-.94-.15-1.92-.16-2.9,0-1.87-.96-3.05-2.67-3.6-1.26-.41-2.57-.63-3.84-1.01-1.71-.51-3.31-.33-5.08.58Zm-27.99,34.86c.49-.33.92-.67,1.39-.93.79-.44,1.57-.98,2.43-1.21,2.92-.78,5.71-1.78,8.37-3.28,1.99-1.12,2.7-2.71,2.78-4.8.02-.63.04-1.26.15-1.88.36-2.13.84-4.23,1.14-6.37.56-4,1.43-7.91,2.7-11.74.26-.79.7-1.51.13-2.44-1.71.43-3.38,1.14-5.08,1.2-1.75.07-3.53-.48-5.43-.78-.87,2.68-1.83,5.36-2.6,8.1-.71,2.56.11,5.1.38,7.86-1.15,2.7-2.38,5.58-3.68,8.65-2.55,1.87-3.56,4.53-2.66,7.6Zm-53.04-26.37c-1.52.98-2.87,1.98-3.77,3.92,1.37-.07,2.47-.12,3.81-.19.36.14.96.39,1.77.71.09-1.94-1.12-3.03-1.81-4.45Z"/><path class="cls-1" d="m722.25,167.42c2.29.64,4.29.02,6.29-.23,1.87-.24,3.72-.72,5.57-1.1,3.04-.63,5.95-1.63,8.79-2.91,1.57-.71,3.31-1.08,5.01-1.47.65-.15,1.5-.13,2.07.17,2.96,1.62,6.8,1.7,8.76,5.1.88,1.96.71,4,.11,6.17-.56,2-1.29,3.84-2.49,5.52-.28.4-.57.8-.91,1.15-1.37,1.42-2.75,2.82-4.14,4.22-.78.79-1.59,1.55-2.21,2.15-5.01-.3-8.19-2.7-9.65-7.16-.66,0-1.16-.07-1.63.01-4.09.71-8.17,1.47-12.26,2.18-1.08.19-1.95.6-2.67,1.49-2.39,2.95-4.85,5.84-7.25,8.77-.97,1.18-1.99,2.35-2.76,3.66-.74,1.27-1.74,1.73-3.11,1.72-1.12-.01-2.24,0-3.32,0-1.48-1.26-2.96-2.53-4.4-3.75-.26-2.51-.51-4.94-.74-7.1.91-1.51,1.96-2.74,2.44-4.17,1.06-3.15,3.11-5.75,4.6-8.77-.16-.49-.34-1-.52-1.54-.3.04-.53.02-.68.11-.3.18-.63.37-.83.64-1.31,1.76-3.25,2.65-5.1,3.63-.91.48-1.96.87-2.98.93-2.03.12-4.1.11-6.12-.12-.9-.1-1.81-.77-2.55-1.37-1.03-.83-1.99-1.79-2.84-2.81-.39-.47-.56-1.19-.63-1.83-.21-1.98-.33-3.97-.5-6.27-.65.52-1.16.86-1.59,1.28-2.15,2.12-4.16,4.4-6.45,6.37-4.17,3.59-9.08,5.34-14.49,3.84-5.45-1.5-8.07-5.05-7.62-10.34.04-.48.17-.98.38-1.41.98-2.1,1.7-4.35,3.43-6.02,1.67-1.62,2.43-3.99,4.4-5.34,3.6-2.47,7.24-4.89,11.69-5.56,1.52-.23,3.07-.5,4.6-.48,3.85.05,6.95,1.61,8.93,5.03.44.76.68,1.63,1.08,2.6,1.21-.08,2.26-.91,3.39-1.54.67-.38,1.32-.81,1.99-1.21.89-.54,1.77-.54,2.82-.37,1.65.27,3.37.31,5.04.21,1.88-.11,3.45.42,4.84,1.63.21.18.4.42.64.53,2.78,1.21,3.68,3.64,4.22,6.34.11.56.55,1.05.93,1.75.62-.77,1.15-1.26,1.46-1.85,3.44-6.52,6.84-13.06,10.24-19.57-1.39-1.44-2.64-2.74-3.88-4.02-.2-1.87-.39-3.69-.59-5.55.38-.57.65-1.29,1.17-1.71.67-.55,1.5-1.1,2.33-1.23,2.22-.34,4.47-.46,6.62-.65.82-.92,1.52-1.7,2.26-2.52.98.11,1.94.23,2.88.33,1.5,2.12,2.95,4.18,4.42,6.27-.33,1.98.81,4.23-.95,6.13-.9.38-1.78.79-2.69,1.13-1.05.38-1.77.99-2.19,2.09-.91,2.42-1.92,4.82-2.95,7.19-.47,1.09-1.1,2.1-1.69,3.14-.35.61-.81,1.17-1.1,1.8-1.9,4.08-3.76,8.19-5.64,12.28-.35.76-.76,1.49-1.23,2.43Zm-38.51-13.99c-1.07-1.01-2.17-.92-3.21-.97-3.37-.15-6.31,1.24-9.15,2.8-.98.54-1.97,1.18-2.71,2-1.91,2.13-3.69,4.39-5.67,6.78v2.83c.55.81.98,1.45,1.28,1.89,3.43-.05,7.61-1.4,9.95-3.39,2.57-2.19,5.1-4.46,7.43-6.89,1.27-1.32,2.35-2.98,2.08-5.04Zm21.63,6.32c-.48-1.04-1.13-1.19-1.88-1.14-.7.05-1.45-.05-2.1.16-1.84.59-3.83.83-5.34,2.25-1.81,1.7-1.87,3.98-2.14,6.17-.04.36.45.79.8,1.35,4.81-1.54,8.11-4.67,10.66-8.8Z"/><path class="cls-1" d="m531.54,78.95c1.09.7,2.38,1.52,3.54,2.26,1.65.14,3.23.27,4.83.41.56.95,1.05,1.79,1.55,2.62-.12,1.8.08,3.59-.97,5.16-.11.17-.1.48-.25.57-1.75,1.07-2.62,2.86-3.74,4.45-.28.39-.69.72-1.1.97-1.5.91-3.06,1.72-4.53,2.68-2.13,1.4-4.44,1.58-6.88,1.32-1.04-.11-2.11-.23-3.14-.11-1.82.2-3.49-.3-5.14-.87-1.46-.51-2.24-1.7-2.29-3.23-.04-1.04.12-2.09.21-3.4-1.82-.86-3.7-1.8-4.66-4.02-.91-2.11-.71-4.23-.64-6.44-1.05-.07-1.65.48-2.15.99-1.58,1.61-3.18,3.18-5.17,4.31-.25.14-.48.3-.75.46.26.64.43,1.08.61,1.51-.97,3.64-3.62,5.5-6.98,6.63-1.26.42-2.5.91-3.78,1.28-4.31,1.24-8.64,2.45-13.11,3.02-.68.09-1.38.24-1.99.53-2.17,1.03-4.58.97-6.82,1.1-2.74.16-5.59.73-8.36-.34-1.62-.63-3.49-.57-4.95-1.69-.28-1-.56-2-.87-3.08,1.41-1.81,3.48-2.2,5.66-2.58,1.37-1.65,3.33-2,5.56-2.04v2.16c.69-.29,1.24-.53,1.86-.79.09-.68.17-1.3.25-1.97-1.39-1.27-1.2-2.69-.49-4.22,1.56-3.38,3.16-6.75,4.57-10.2,1.03-2.51,1.68-5.18,2.7-7.7,1.04-2.56,1.57-5.24,2.26-7.89.27-1.03.35-2.05-.02-3.23-1.79,1.04-3.4,1.13-4.88-.65-.15-1.09-.32-2.34-.47-3.42.5-.77.83-1.4,1.28-1.93.39-.46.86-.94,1.39-1.18,2.09-.96,4.23-1.84,6.35-2.75.06-.03.13-.06.2-.07,2.67-.14,5.33-.33,8-.38,1.33-.03,2.66.22,4,.29,3.12.16,6.05,1.2,9.06,1.89,3.85.88,7.06,2.97,10.25,5.11.61.41.94,1.21,1.48,1.93.42.03.93.07,1.65.13-.38.65-.65,1.11-.97,1.67.3.42.61.87.99,1.39-.36,1.48-.54,3.12-1.18,4.57-.58,1.33-1.65,2.46-2.32,4,1.87-.5,3.82-.83,5.58-1.57,1.02-.43,1.8-1.51,2.61-2.36,4.63-4.85,9.44-9.46,15.4-12.68.56-.3,1.14-.55,1.72-.81.65-.3,1.05-.68,1.34-1.43.42-1.06,1.05-2,2.28-2.59,2.32-1.12,4.09-.16,5.74,1.3.63.56.58.62.5,2.41-1.56,1.49-3.16,3.02-4.95,4.73-.22-.01-.77-.04-1.19-.06-3.83,1.93-7.24,4.27-10.19,7.23-.16.16-.14.51-.21.76,1.83.75,3.84,1.02,5.06,2.86v2.4c-1.04,1.2-2.16,2.34-4.11,2.34-.86,0-1.72.56-2.57.87-2.24.83-4.43,1.82-6.72,2.44-1.99.54-3.39,1.62-4.34,3.34-.71,1.26-1.36,2.57-1.9,3.91-.3.73-.75,1.56.02,2.6,1.39-.29,2.88-.6,4.31-.9,2.62-2.72,5.85-3.62,9.41-3.72.77-.02,1.54-.14,2.57-.24Zm-45.5-18.5c-.28.93-.53,1.58-.67,2.26-1,4.88-2.4,9.64-4.15,14.3-.69,1.83-1.41,3.64-2.11,5.46.08.03.16.06.24.1-.41.56-.82,1.13-1.21,1.68.11,1.01-.31,2.02.42,3.11.82-.2,1.67-.47,2.54-.62,3.1-.53,5.53-2.35,7.98-4.12.27-.2.34-.66.5-1-2.88-1.6-3.5-2.17-4.46-4.15.25-1.48.93-2.87,2.47-3.04,1.55-.17,2.76-.91,3.99-1.61,4.54-2.58,8.95-5.35,12.52-9.25.93-1.02,1.66-2.09,1.58-3.82-.77-.63-1.58-1.52-2.58-2.06-1.36-.72-2.84-1.24-4.31-1.72-3.65-1.21-7.48-1.12-11.28-1.65-.46.49-.88.94-1.15,1.23-.12,1.89-.23,3.56-.32,4.92Zm25.19,13.98c-.88-.64-1.45-.23-1.76.29-.82,1.39-1.53,2.85-1.17,4.78.47-.54.86-.85,1.07-1.26.64-1.22,1.21-2.47,1.86-3.81Z"/><path class="cls-1" d="m739.42,70.86c.45,1.52.91,3.13,1.43,4.73.17.52.47,1.02.8,1.47.9,1.24,1.85,2.44,2.79,3.68-.6,3.47-3.13,5.9-4.11,8.92-1.64.73-3.11,1.39-4.57,2.05-1.76.03-3.25-1.62-5.49-.57-.77,1.1-1.76,2.53-2.79,4.01-.73.04-1.43.04-2.12.13-2.18.3-5.15-3.08-5.14-5.04,0-1.16.4-2.33.62-3.49.06-.34.13-.69.23-1.2-1.47-1.59-2.99-3.24-4.5-4.88-.28-.31-.66-.58-.83-.95-1.72-3.8-4.9-6.3-7.94-8.91-.71-.61-1.5-1.3-2.84-.85.67,3.46,1.27,6.88,2.01,10.28.32,1.47.41,2.92.23,4.39-.23,1.81-.47,3.62-.78,5.94-.87,1.3-2.58,2.39-4.4,3.32-.87.45-1.8.79-2.73,1.12-1.86.64-5.03-.34-6.16-1.88-.16-.22-.28-.5-.34-.76-.06-.27-.01-.56-.01-.94.61-.86,1.86-1.39,1.99-2.89h-2.19c-1.46-1.27-2.75-2.46-4.11-3.56-1.35-1.09-1.72-2.72-2.34-4.18-.67-1.57-1.29-3.08-2.69-4.2-.98-.77-1.08-1.93-.71-3.08.22-.67.53-1.3.8-1.95.65-1.58-.05-2.79-.94-4.1-1.8.66-3.44,1.25-5.07,1.87-2.76,1.05-5.49,2.21-8.28,3.16-1.43.49-2.98.63-4.5.84-1.32.4-1.91,1.55-2.51,2.66-2.11,3.9-4.24,7.8-6.26,11.75-.81,1.58-1.94,2.77-3.49,3.54-1.81.91-3.63.97-5.4-.25-.47-1.66-.27-3.19.56-4.68,2.39-4.31,4.66-8.68,7.13-12.94,1.44-2.49,3.19-4.81,4.79-7.21,1.75-2.63,3.49-5.27,5.22-7.92,1.88-2.88,3.7-5.79,5.63-8.63,1.19-1.75,2.84-2.67,5.07-2.22,1.09.22,1.97.69,2.59,1.64,1.69,2.61,3.82,4.87,6.13,6.91,1.41,1.24,2.25,2.83,3.29,4.29.85,1.19,1.44,2.58,2.05,3.92.41.89.81,1.82.95,2.77.18,1.25.73,2.15,1.89,2.56,1.59.56,2.63,1.72,3.66,2.95.45.54.79,1.45,1.98.94-.42-1.62.17-3.42-.96-4.98-.22-.3-.15-.81-.23-1.22-.55-2.88-1.16-5.75-1.62-8.65-.27-1.64-.3-3.32-.44-5.04,1.28-.85,2.44-1.62,3.59-2.39.47,0,.99.12,1.41-.02,1.49-.5,2.76-.02,4.02.72,2.3,1.34,4.66,2.59,6.91,4.02,1.89,1.19,3.27,2.79,3.51,5.2.07.67.59,1.46,1.15,1.9,1.92,1.54,3.94,2.96,5.93,4.4.9.65,1.84,1.25,2.76,1.88,1.31-.88,1.5-1.3,1.11-2.95-.37-1.57-.83-3.13-1.26-4.69-.53-1.89-1.07-3.77-2.42-5.31-.58-.67-.93-1.53-1.39-2.31.24-.4.41-.69.59-.98,1.97-3.08,4.11-3.82,7.67-2.76.62.18,1.39.14,2.02-.05,2.93-.87,5.28.89,5.95,3.97.22,1.01.55,2.05,1.07,2.93.79,1.35.73,2.7.37,4.08-.3,1.15-.65,2.31-1.16,3.38-.56,1.17-.43,2.18.31,3.15.77,1,1.58,1.97,2.55,3.16Zm-61.03-9.88c-.97-1.57-2.8-2.96-4.27-3.27-1.15,1.91-2.84,3.53-3.5,6,.59-.12,1.01-.14,1.36-.3,1.72-.76,3.41-1.59,5.36-1.65.36-.01.7-.52,1.03-.78Z"/><path class="cls-1" d="m12.85,47.46c-4.16.52-7.4-3.6-5.95-7.58,1.69-1.67,3.66-2.8,6.07-3.1.41-.05.8-.27,1.19-.43,3.89-1.64,7.92-2.81,12.03-3.74,2.94-.66,5.89-1.33,8.86-1.85,1.3-.23,2.66-.07,3.98-.18,5.77-.46,11.53-.39,17.25.44,2.7.4,5.35,1.18,8.03,1.78,3.89.87,7.44,2.53,10.84,4.58.87-.08,1.73-.05,2.55-.25,2.67-.66,4.65.83,6.57,2.2,1.4,1,1.29,2.33.3,3.89-.88,1.39-2,2.45-3.33,3.43-1.33.99-2.53,2.28-3.46,3.66-1.42,2.1-3.25,3.62-5.4,4.88-1.01.59-1.88,1.44-2.82,2.16-.44.34-.87.7-1.35.97-.8.44-1.63.81-2.53,1.25-1.75-.35-3.45-.91-4.75-2.66-5.07,4.2-11.02,6.92-16.36,10.63-4.77.53-5.08.47-8.46-1.68-.3.28-.77.54-.94.93-1.19,2.78-2.45,5.54-3.44,8.39-.8,2.29-2.04,4.47-1.99,7.04.02.82-.48,1.65-.72,2.38,1.35.98,2.48,1.81,3.45,2.51.87,1.58.74,3.05.62,4.36-1.28,3.17-4.13,3.8-6.83,4.57-.67.19-1.54-.04-2.24-.28-2.3-.8-4.62-1.22-6.93-.64-2.43-.72-4.17-2.21-5.71-4.26v-4.49c.47-1.2,1.48-1.93,2.58-2.57.96-.56,1.97-.78,3.01-.28.88.43,1.74.38,2.77.18-.15-.97-.29-1.85-.35-2.24,1.08-3.08,1.96-5.74,2.93-8.37.95-2.58,1.98-5.12,2.97-7.68,1.35-3.47,2.59-6.98,4.09-10.38,1.25-2.83,2.06-5.81,3.13-8.69.61-1.64,1.18-3.26,1.31-5-1.11-.36-3.59.05-6.75,1.02-2.28.7-4.62,1.23-6.86,2.03-2.18.77-4.27,1.78-7.34,3.09Zm55.37-4.42c-1.89-1.06-3.8-1.73-5.81-2.05-3.19-.49-6.39-.89-9.58-1.37-2.94-.44-5.86-.29-8.78.08-.33.04-.61.46-.98.75,1.26,1.98,1.06,3.94.26,5.91-.23.56-.62,1.15.03,1.8.44-.09.96-.09,1.38-.29,1.8-.84,3.74-.61,5.61-.69,3.08-.13,6.17.14,9.26.12,5.13-.03,3.92.17,7.4-2.62.33-.26.67-.52.95-.82.12-.13.12-.38.26-.84Z"/><path class="cls-1" d="m132.16,92.45c.8.62,1.41,1.09,1.65,1.28,1.42,3.37-.11,5.75-1.38,8.38-1.9.57-3.77,1.47-5.49,2.71-1.39,1-3.04.98-4.85.78-.61-.57-1.33-1.24-2.1-1.97-.29-2.56-1.31-5.15-.05-7.77.49-.69.97-1.37,1.5-2.12,2.15-1.17,4.52-1.64,7.07-1.69.91-.92.91-2.21.85-3.32-.1-1.9.38-3.6,1.07-5.3,1.73-4.31,3.56-8.58,6.27-12.4,1.7-2.4,3.58-4.66,5.3-7.04,1.15-1.59,2.19-3.25,3.22-4.91,1.19-1.91,2.32-3.86,3.48-5.79,1.46-2.44,2.4-5.07,2.9-7.86.21-1.16.88-2.04,1.65-2.84.73-.76,1.53-1.45,2.43-2.3h4.25c.87,1.16,1.82,2.43,2.78,3.71-1.19,2.89-3.13,5.42-4.25,8.39,3.44,3.3,3.84,7.64,4.6,11.85-.16.76-.57,1.6-.43,2.35.14.76.78,1.45,1.25,2.13.44.63.96,1.21,1.54,1.92-.13,2.15.76,4.02,2.34,5.99.68-.82,1.19-1.45,1.84-2.24.77-.37,1.72-.83,2.58-1.25.12-.11.19-.15.22-.2.76-1.34,1.34-2.85,2.34-3.98.94-1.07,2.32-1.76,3.52-2.62-.36-1.78-1.8-3.13-1.62-4.98.61-.4,1.18-.78,1.61-1.06.54-1.1-.03-1.83-.5-2.46-1.28-1.72-.77-3.21.26-4.83,1.43-2.27,3.23-4.23,5.11-6.34,1.01-.41,2.19-.86,3.35-1.36,3.38-1.44,6.01-.1,6.72,3.45.03.14.06.28.1.45-.67,1.03-1.42,2.05-2.03,3.15-.39.72-.68,1.53-.83,2.34-.46,2.37-1.36,4.38-3.83,5.28-.39.14-.73.39-1.2.65.26.77.49,1.47.78,2.34-.56.46-1.16.94-1.99,1.62-.58.23-1.48.58-2.62,1.02,1.32,1.31,3.21,1.67,3.68,3.43.6,2.54-.44,4.66-1.72,6.74-.44.72-.75,1.53-1.21,2.23-1.2,1.82-1.38,3.87-1.1,5.89.18,1.26,0,2.31-.51,3.39-.2.44-.34.91-.55,1.47.46.68.92,1.36,1.43,2.11v4.08c-1.07,1.78-2.62,3.18-4.42,3.96-4.12-1.07-6.87-3.54-8.92-6.87-2.15.98-4.12,1.87-5.93,2.69-1.1-.41-1.95-.73-2.91-1.09-1.52-1.7-1.53-3.7-.88-5.87.72-.65,1.45-1.31,2.31-2.08v-2.13c-2-1.16-3.94-2.29-6.21-3.62-.47-1.27-1.04-2.83-1.76-4.8-.9-.6-2.18-1.44-3.51-2.33-1.1-.3-1.41.87-2.04,1.25-1.13.16-2.15.3-3.27.45-1.45,1.53-2.24,3.52-3.03,5.43-.81,1.97-1.83,3.73-3.05,5.47-1.31,1.86-2.75,3.54-4.36,5.12-.49.48-.82,1.11-1.4,1.91Z"/><path class="cls-1" d="m875.48,86.67c-1.03.32-1.28,1.22-1.7,1.9-1.63,2.65-3.59,5.02-5.65,7.32-2.52,2.81-5.71,4.5-9.21,5.66-1.33.44-2.72.71-4.08,1.07-1.62.43-3.22.26-4.79-.24-1.07-.34-2.13-.69-3.17-1.1-2.44-.96-4.18-2.8-5.83-4.73-.76-.89-.55-2.02-.39-3.06.59-3.87,1.81-7.57,3.39-11.13,2.08-4.67,4.12-9.37,6.45-13.91,1.36-2.66,3.22-5.07,4.93-7.53,1.2-1.72,2.53-3.35,3.81-5.02.26-1.28-.8-2.03-1.29-3.11.38-.82.78-1.68,1.31-2.83.73-.44,1.8-1.09,2.87-1.73v-3.48c2.19-1.92,4.66-3.26,7.3-4.25.75-.28,1.66-.18,2.5-.13.77.04,1.53.23,2.18.34.99.72,1.89,1.37,2.74,1.99,2.69-.02,5.35-.62,7.87,1.27.23.34.65.89,1,1.49.93,1.6,1.69,3.25.98,5.17-.09.25-.09.56-.07.84.15,1.66-.29,3.2-1.1,4.97-1.65.82-3.54,1.76-5.1,2.54h-3.82c-1.13-.41-2.54-1.09-4.02-1.43-1.61-.36-2.18-2.19-3.87-2.53-.85,1.38-2.09,2.2-3.52,2.88-.77.36-1.32,1.21-1.92,1.88-3.74,4.16-6.48,9-9.04,13.92-2.85,5.48-5.46,11.1-7.07,17.1-.29,1.06-.26,2.21-.39,3.42,2.95,1.76,5.85,2.13,9.03.67,2.73-1.25,5.09-2.93,7.09-5.14,1.35-1.5,2.93-2.79,3.96-4.57.63-1.08,1.43-2.08,1.39-3.55-1.53-.64-2.34.82-3.63,1.14-3.64.37-7.34.45-9.98-3.24-.62-2.43.27-4.49,2.38-6.34.57,0,1.27-.07,1.96.01,3.09.37,5.8-.73,8.49-2.02,1.07-.51,2.22-.86,3.32-1.31,1.88-.78,3.73-1.64,5.64-2.35,1-.37,2.08-.58,3.15-.7,1.04-.12,2.11-.03,3.03-.03,1.96,1.1,2.73,2.92,3.57,4.83-.61,4.06-1.23,8.27-1.85,12.41,2.79,1.71,5.85,1.4,8.87,2.11,1.32,1.93,2.87,3.92,2.94,6.42-.82,1.1-1.5,1.99-1.95,2.59-1.29.68-2.41,1.04-3.23,1.75-1.57,1.36-3.37,2.31-5.18,3.25-3.38,1.76-6.71.97-8.89-2.14-.64-.91-1.1-1.95-1.74-3.1.83-2.61,1.53-5.38.34-8.25Z"/><path class="cls-1" d="m427.9,37.74c.43.24.88.46,1.3.72,2.66,1.64,2.74,4.3.06,5.82-1.81,1.03-3.79,1.76-5.92,2.73-.28.99-.59,2.11-.9,3.22-1.36.68-2.7,1.35-4.19,2.09.31.54.49.88.7,1.21,1.17,1.82,1.71,3.7.57,5.75-.2.37-.41.76-.48,1.17-.68,3.97-2.97,7.25-4.59,10.82-.82,1.81-.97,3.58-.67,5.51.32,2.04.38,4.13.54,6.04-.96,1.53-2.14,2.5-3.59,3.16-.38.18-.75.4-1.14.56-2.13.85-4,2.06-5.46,3.84-.61.75-1.43,1.08-2.31,1.37-1.12.38-2.32.64-3.32,1.23-1.73,1.03-3.5,1.27-5.2.36-1.95-1.05-3.85-.48-5.72-.17-2.16.36-4.16.01-6.2-.53-1.07-.28-2.15-.51-3.71-.88-.51-.45-1.42-1.23-2.29-2.05-.24-.23-.46-.55-.53-.87-.49-2.38-1.83-4.47-2.12-6.95-.2-1.7-.95-3.34-1.56-5.38.37-3.18,1.26-6.61,2.95-9.82,1.6-3.05,2.95-6.2,3.75-9.65-.93-.69-2.01-.53-3.01-.64-.93-.74-1.86-1.48-2.91-2.32-.04-.09-.15-.35-.28-.6-1.74-3.37-.84-6.01,2.53-7.87,2.01-1.1,3.9-2.41,5.93-3.67h3.8c.73.38,1.33.75,1.97,1.01,1.33.54,1.98,1.58,2.06,2.92.09,1.53.6,2.68,2.04,3.41.86.44,1.33,1.25,1.22,2.29-1.5,2.24-1.59,4.83-2.02,7.73-1.75,4.74-3,10.1-5.83,14.61,1.79,1.43,2.86,3.12,3.04,5.06.17,1.83-.27,3.71-.46,5.66.31.2.64.59,1,.61.98.06,1.97.06,2.94-.09,2.34-.35,4.79-.48,6.62-2.33.48-.98.97-1.98,1.41-2.89,2.19-.65,3.88-1.73,5.14-3.48.69-.96,1.51-1.84,2.23-2.79.4-.53.71-1.14,1.03-1.66-1.24-1.35-2.32-2.54-3.37-3.7-.46-1.61.38-2.93.77-4.32.32-1.14.64-2.28.93-3.43.43-1.72.89-3.43,2.61-4.38.31-.17.61-.34,1.27-.71-1.49-.87-2.49-1.45-3.69-2.16-.37-.83-.82-1.85-1.17-2.63.89-1.61,1.71-2.92,2.35-4.31.69-1.5,2.02-2.13,3.37-2.7,3.93-1.67,7.9-3.27,11.86-4.86.77-.31,1.62-.49,2.44-.62,1.32-.2,2.66-.31,4.2-.48Z"/><path class="cls-1" d="m393.48,184.71c.73-2.12,1.31-4.15,3.24-5.64-1.09-2.31-2.26-4.54-3.2-6.87-.94-2.32-1.64-4.74-2.47-7.22-.87.13-1.08.87-1.25,1.6-.62,2.8-1.61,5.49-2.39,8.23-.75,2.61-2.24,4.81-3.02,7.28-2.69,2.28-4.55,2.1-6.96-.1-.2-2.35,1.05-4.43,1.43-6.69.84-.45.21-1.37.66-2.03.36-.53.41-1.33.42-2.01.01-.91,1.14-1.51.64-2.52,1.18-1.42.97-3.29,1.55-4.91.71-1.97,1.1-4.05,1.62-6.09.76-2.96.67-6.08,1.9-8.96.51-1.19.67-2.56.9-3.86.26-1.44,1.1-2.38,2.33-3.07.36-.2.66-.51,1.05-.82.66,0,1.36-.02,2.06,0,2.18.06,4.02,1.58,4.34,3.75.24,1.65.24,3.34.45,5.01.27,2.21.65,4.41.96,6.62.16,1.18.23,2.38.42,3.56.68,4.11,2.14,7.99,3.78,11.8.08.18.27.3.54.6,1.45-1.09,2.88-2.17,4.34-3.27-.56-2.81.11-5.42.84-8.05.7-2.49,1.24-5.03,1.92-7.52.62-2.29,1.34-4.56,2.02-6.84.34-1.13.63-2.28,1.01-3.4.33-.97.75-1.9,1.25-3.17-.54-.68-1.27-1.59-2.04-2.55.44-1.43.91-2.95,1.43-4.67.7-.55,1.57-1.24,2.67-2.1,1.01.13,2.23.29,3.79.49.45-.71,1.08-1.7,1.85-2.9,1.26-.2,2.68-.43,3.75-.6,1.93,1.12,3.51,2.04,5.1,2.97.95,1.43,1.5,2.98,1.05,4.89-.51.4-1.1.88-1.76,1.4-.85-.06-1.75-.06-2.63-.21-.85-.14-1.37-1.29-2.55-.84-.47,1.01.79,2.16-.12,3.15.81,1.17.03,2.45.23,3.68.15.93.01,1.96-.23,2.89-.35,1.34-.82,2.66-1.41,3.92-1.01,2.16-1.76,4.4-2.36,6.71-.57,2.16-1.27,4.29-1.89,6.44-.64,2.21-1.24,4.43-1.84,6.56,1.18.56,2.31.95,3.26,1.6.96.66,1.75,1.59,2.5,2.3.5,2.07.96,3.97,1.47,6.08-.05.73-.12,1.71-.2,2.99-.95.7-2.06,1.51-2.98,2.19-2.38-.33-4.03-2.43-6.32-1.57-.67-.41-1.26-.77-2.02-1.24-1.96,1.2-3.96,2.35-5.87,3.63-.54.36-.87,1.06-1.23,1.65-.8,1.31-1.55,2.64-2.21,3.79-2.61.37-4.78-.07-7.1-1.01-.82-1.51-1.75-3.24-2.72-5.04Z"/><path class="cls-1" d="m435.47,89.58c-.16,1.64-.34,3.52-.51,5.25-1.26,2.2-3.32,2.95-5.39,3.17-3.92.41-7.88.63-11.81.57-1.51-.02-3.02-.99-4.51-1.58-.23-.09-.46-.38-.55-.63-.56-1.69-1.66-3.26-1.28-5.42.71-.33,1.49-.88,2.34-1.06,1.74-.37,2.67-1.53,3.68-2.86,1.2-1.57,1.42-3.44,2.14-5.15.72-1.71,1.04-3.49,1.14-5.34.05-.89.66-1.77.64-2.65-.05-2.44,1.03-4.64,1.27-7,.06-.61.41-1.19.61-1.78.36-1.04.72-2.07,1.25-3.62.7-.82,2.18-1.24,3.72-1.5.34-1.19.66-2.32,1.01-3.57-.27-.55-.57-1.16-.87-1.77.35-2.73,2.1-4.25,4.48-5.12.67-.25,1.5-.15,2.24-.05,1.03.13,2.04.4,3.3.66.69.72,1.92,1.36,1.64,2.87,4.13,4.24,6.16,9.75,9.29,14.18.21.99.36,1.7.51,2.41l.39.04c.23-.55.52-1.07.67-1.64.53-1.97.96-3.97,2.12-5.71.22-.33.3-.78.38-1.19.21-1.01.65-1.84,1.67-2.41.53.05,1.14.11,1.73.17,1.5-1.04,1.13-2.85,1.88-4.17.2-.35-.15-1.02-.24-1.48-2.07-.27-3.94-.52-5.69-.75-1.02-.89-1.92-1.68-2.8-2.45-.26-.76-.52-1.48-.8-2.3.31-.55.64-1.15,1.04-1.86,1.52-.73,3.1-1.5,4.68-2.27,1.51-.73,3.21-1.16,3.98-2.55,2.22-1.25,4.34-1.94,6.78-1.72,1.94.94,3.83,2.17,3.91,4.79.06,2.31-.95,4.19-2.59,5.65-.06.23-.15.38-.12.5.53,2.14-.09,4.17-.58,6.2-.28,1.15-.55,2.31-.89,3.44-1.23,4.17-2.27,8.4-4.15,12.35-.44.93-.67,1.99-.85,3.01-.38,2.14-.68,4.3-.97,6.45-.11.83-.11,1.68-.18,2.73-.77,1.04-1.68,2.27-2.58,3.49-1.72.45-3.34.88-5.11,1.35-1.28-.87-2.63-1.64-3.79-2.63-.58-.5-1.17-1.4-1.14-2.11.07-2.16-.96-3.94-1.67-5.83-1.03-2.76-2.18-5.47-3.34-8.18-1.22-2.84-2.88-5.43-4.64-7.96-.98.37-1.04,1.03-1.17,1.75-.59,3.46-1.37,6.87-2.64,10.16-.95,2.47-2.14,4.76-4.25,6.26-.42,1.42-.8,2.68-1.23,4.11,1.06.46,2.06.89,3.06,1.33.4-.07.81-.14,1.24-.22,1.03,1.17,2.69,1.6,3.54,3.59Z"/><path class="cls-1" d="m630.31,123.99c2.05.17,4,.33,6.08.51.66,2.14,3.29,2.69,3.77,5.3-.37.91-.84,2.07-1.38,3.41.47,0,.88.09,1.24-.01,1.82-.52,3.6-1.19,5.44-1.62,2.05-.49,4.14-.79,6.21-1.16.34-.06.73,0,1.04-.14,3.28-1.43,6.87-2,10.06-3.72,1.66-.9,3.51-1.42,5.26-2.15,2.99-1.26,5.88-1.03,8.75.39.62.31,1.32.45,2.44.81.68.69,1.66,1.69,2.55,2.59.22,1.19.4,2.22.6,3.33-.15.31-.26.75-.53,1.05-2.34,2.7-4.68,5.42-7.1,8.05-.69.75-1.61,1.37-2.53,1.84-1.71.88-2.99.62-4.41-.72-1.12-1.06-2.21-2.14-3.37-3.26-.81.27-1.55.48-2.26.76-1.11.45-2.12.89-3.44.61-.85-.18-1.86.38-2.75.6-.82,1.24.43,2.19.28,3.3-.13,1.03-.03,2.1-.03,3.27-1.33,2.66-2.79,5.42-3.57,8.52-.84,3.34-1.84,6.65-2.96,9.9-1.42,4.11-3.05,8.14-4.58,12.21-.12.33-.25.67-.28,1.01-.2,2.28-.38,4.57-.56,6.79-1.08,1.51-2.34,2.34-4.25,2.43-1.95.09-3.02-1.14-4.48-2.22-.15-1.1-.35-2.32-.49-3.55-.2-1.81.68-3.41,1.16-5.07.88-3.01,1.97-5.97,3.06-8.92.84-2.31,1.88-4.54,2.69-6.86.99-2.83,1.82-5.72,2.75-8.58,1.06-3.27,2.11-6.54,3.96-9.48.39-.62.64-1.33,1.18-2.46-2.54.95-4.67,1.62-6.68,2.55-.81.38-1.49,1.27-1.97,2.08-1.08,1.81-2.05,3.7-2.97,5.6-.9,1.86-2.26,2.79-4.36,2.59-.41-.04-.84.03-1.33.06-.34.32-.67.7-1.06.99-2.93,2.15-6.6,1.36-8.54-2.1-.67-1.2-1.22-2.49-1.69-3.79-.13-.37.07-.97.31-1.34.95-1.48,1.99-2.89,2.95-4.36.33-.5.75-1.09.74-1.63-.02-1.1.48-2.01.68-3.02.44-2.12.88-4.26,1.06-6.42.16-1.99.65-3.88,1.38-5.69.32-.8,1.14-1.4,1.9-2.27Z"/><path class="cls-1" d="m446.95,187.4c-.36-1.94.2-3.55.97-5.03,2.19-4.25,4.47-8.44,6.72-12.66.1-.18.11-.4.24-.87-2.13.06-4.02,1.01-6.29.96-1.03-.89-2.24-1.95-3.21-2.79-.55-1.33-.98-2.37-1.44-3.47.4-1.05.81-2.16,1.31-3.48,5.27-1.01,10.6-2.03,15.9-3.05,1.71-3.04,3.38-5.97,5.03-8.91,1.78-3.19,3.87-6.16,6.21-8.96.53-.63.89-1.41,1.34-2.15-.32-.71-.6-1.34-.94-2.1.34-.87.73-1.84,1.14-2.88,1.93-.66,3.81-1.3,6.14-2.1,1.11.1,2.73.08,4.08.95.26.79.49,1.51.77,2.37-.71,1.38-1.47,2.84-2.58,5-.05,2.44,1.13,5.33,2.27,8.25.37,1.19.75,2.38,1.11,3.57.28.92.52,1.86.95,2.66.6.72,1.23,1.42,1.8,2.17,2.31,3.07,3.65,6.57,4.53,10.29.25,1.08.86,2.07,1.36,3.21,1.73.86,3.52,1.74,5.19,2.57.36,1.2.67,2.2.97,3.21-.46,1.06-.93,2.13-1.55,3.54-.8.78-1.96,1.57-3.54,1.75-1.11.13-2.13.71-2.84,1.91-.03.46-.08,1.09-.13,1.71-.08.11-.14.25-.24.34-.53.44-1.18.79-1.59,1.32-1.03,1.33-2.44,2-3.99,2.1-1.34.09-2.49.5-3.55,1.2-1.69,1.12-3.53,1.4-5.53,1.25-2.36-2.24-4.58-4.58-3.98-8.42.08-.06.42-.21.64-.47.83-1,1.85-1.73,3.08-2.13,1.33-.43,2-1.39,2.54-2.61.79-1.77,1.2-3.56,1.07-5.52-.11-1.61-.02-3.24-.02-5.06-1.64.26-3.37.11-5,.76-.32.13-.64.35-.97.37-2.24.14-4.49.25-6.73.33-1.18.04-2.37,0-3.7,0-.99,2.01-1.83,3.92-2.85,5.75-1.91,3.44-3.89,6.85-5.88,10.25-.71,1.21-1.46,2.4-2.28,3.53-1.61,2.2-2.78,2.55-5.41,1.72-.33-.1-.64-.23-1.1-.4Zm22.5-30.86c1.89,0,3.53.24,5.07-.07,1.59-.32,3.34.08,5.08-.89-1.14-3.14-2.23-6.13-3.32-9.09-.86-.4-1.16.21-1.48.76-1.07,1.88-2.14,3.77-3.22,5.64-.65,1.13-1.32,2.25-2.13,3.64Z"/><path class="cls-1" d="m328.67,159.37c3.57,1.17,6.68,2.21,9.81,3.2,3.39,1.07,6.43,2.76,9.06,5.15.86.79,1.57,1.75,2.55,2.86.18,1.04.41,2.42.54,3.18-.41,2.37-2.04,3.06-3.11,4.22-1.24.1-2.49.21-3.9.32-1.5-.73-3.11-1.63-4.41-3.12-.73-.83-2.01-1.44-3.13-1.63-2.86-.47-5.54-1.52-8.2-2.51-2.67-1-5.16-2.58-7.56-4.16-1.01-.67-1.6-1.97-2.53-3.18-.26.74-.51,1.47-.8,2.31,2.47,1.21,2.87,3.31,2.77,5.69-.06,1.39.56,2.57,1.46,3.63,1.27,1.51,1.38,1.93,1.39,4.02-.93,1.82-2.31,3.09-4.22,3.9-1.33.56-2.62,1.32-3.79,2.16-2.64,1.9-5.77,2.54-8.76,3.55-.83.28-1.78.25-2.99.4-1.09-.94-2.41-2.08-3.74-3.22-.11-2.21-.21-4.29-.29-6.03,2.23-1.3,4.16-2.42,6.02-3.51.27-1.24.49-2.26.81-3.73.44-.37,1.19-1.01,1.99-1.68-.72-1.85-.3-3.53.33-5.27.89-2.48,1.73-5.02,2.19-7.61.41-2.29.91-4.56,1.23-6.88.24-1.78.87-3.51,1.36-5.25.5-1.75,1-3.46.72-5.34-.23-1.51.84-2.62,1.65-3.76.23-.32.58-.56.87-.82-.75-.9-1.4-1.69-1.97-2.37.15-1.01.28-1.91.41-2.83,1.79-2.38,3.7-3.04,7.88-2.67.6.65,1.22,1.31,1.88,2.01.17.9.36,1.85.58,2.97-.87,1.12-1.82,2.32-2.83,3.62.61.84,1.25,1.72,1.83,2.52-.24,4.47-2.31,8.39-3.87,12.96,2.14-.94,3.97-1.4,4.87-3.54,1.14-.32,2.41-.68,4-1.12,1.62-2.94,3.76-5.89,6.43-8.51,2.63-2.59,5.49-4.79,8.93-6.89,1.1-.25,2.57-.58,3.98-.89,1.42,1.39,2.62,2.63,2.49,4.68-2.11,2.65-4.74,4.84-7.31,7.09-1.32,1.16-2.58,2.39-3.98,3.46-1.32,1.01-2.78,1.84-4.41,2.9.27,1.06.6,2.36.93,3.66-1.2,1.17-2.26,2.3-3.42,3.31-1.05.91-2.62,1.15-3.73,2.75Z"/><path class="cls-1" d="m88.71,46.61q-.82-3.3.32-6.2c1.19-.61,2.54-1.29,3.63-1.84,4.49,1.66,6.03,5.29,7.56,8.95.7,1.68,1.57,3.29,2.38,4.97.22,1.23.46,2.53.65,3.55,1.11,1.17,2.02,2.14,2.99,3.17-.41.72-.74,1.32-1.23,2.18.52,2.05,1.11,4.33,1.69,6.61,3.34.27,5.76,1.91,7.01,4.77.81,1.87,1.63,3.82,1.93,5.9.06.39.37.74.54,1.04.05,1.7-1.19,2.71-1.9,4.11-1.49.45-2.4,1.64-3.4,2.85-1.73,2.08-4.02,3.46-6.6,4.33-.52.18-1.01.46-1.5.69-3.64.01-7.21-.12-8.43-4.96.08-.5.21-1.38.42-2.76,1.35-1.08,3.04-2.44,4.83-3.88-.04-.4-.1-.95-.17-1.59-.77-.9-1.58-1.86-2.54-2.99.59-2.48,1.44-5.15-.25-7.92-.85.32-1.73.56-2.52.97-3.02,1.56-6.22,2.61-9.47,3.58-2.09.63-4.18.52-6.37.56-.98-.82-1.99-1.67-3.09-2.59-.35.33-.69.57-.91.89-1.43,2.07-3.23,3.83-4.83,5.75-.89,1.07-1.53,2.36-2.25,3.57-1.71,2.91-3.57,5.72-5.88,8.18-1.71,1.82-3.8,1.56-5.03-.55-.32-.54-.61-1.1-.92-1.66-.06-1.09.24-1.95.98-2.87,1.04-1.29,1.72-2.88,2.59-4.32,2.8-4.59,6.2-8.69,9.93-12.54,3.43-3.54,6.81-7.13,10.25-10.67.68-.7,1.59-1.18,2.28-1.87,2.18-2.19,4.32-4.43,6.47-6.65.24-.25.51-.47.84-.76Zm-4.98,15.22c4.01-.43,6.92-2.55,10.05-4.08-.27-1.92-.75-3.55-1.91-5.03-1.23.71-1.93,1.76-2.71,2.74-.65.81-1.16,1.84-2,2.37-1.5.95-2.33,2.32-3.44,4Z"/><path class="cls-1" d="m832.15,99.16c.5,3.65-.26,5.33-2.73,6.06-.29-.25-.6-.52-.68-.59-.31-1.11-.39-2.05-.82-2.78-1.17-1.97-1.63-4.17-2.29-6.31-.14-.46-.27-.96-.53-1.35-.74-1.09-1.52-2.16-2.33-3.2-.34-.44-.74-.84-1.16-1.2-2.01-1.75-4.08-3.43-6.05-5.23-.76-.7-1.4-1.59-1.92-2.49-1.06-1.82-1.98-3.73-3.01-5.57-.55-.98-1.22-1.89-1.75-2.71-.53-1.64.71-3.48-1.11-5.01-.12.61-.26.98-.26,1.35,0,1.97.15,3.94.01,5.9-.1,1.5-.48,3-.89,4.45-.13.46-.73.81-1.15,1.16-.42.35-.88.65-1.4,1.03.24.54.42.98.63,1.4.82,1.58,1.24,3.24,1.41,5.03.24,2.58.73,5.13,1.15,7.69.24,1.51,0,2.9-.73,4.14-4.73.97-6.61.23-8.39-3.3.61-2.66.15-5.35-.23-8.07-.4-2.85-.41-5.73-.21-8.6.01-.19.19-.37.33-.64.56-.28,1.18-.58,1.87-.92.77-1.61,1.28-3.26,1.2-5.19-.1-2.43.24-4.88.38-7.32.01-.21.03-.42.02-.63-.08-3.3-.09-6.6-.27-9.89-.13-2.54.21-3.29,2.66-4.03,1.04-.31,2.18-.28,3.22-.4.46.67.78,1.13,1.08,1.6.29.46.55.94.78,1.34-1.58,2.49-1.57,4.86-.36,7.34.52,1.06.75,2.25,1.14,3.37.27.79.58,1.56.92,2.46.77.04,1.46.13,2.14.11,1-.02,1.77.4,2.37,1.14.57.71,1.14,1.44,1.61,2.22,1.04,1.74,2.01,3.54,3.04,5.29.5.84,1.01,1.71,1.66,2.43,1.83,2.03,3.75,3.99,5.61,5.96,1.08-.37,1.39-1.1,1.27-1.88-.15-.92.26-1.6.53-2.4.4-1.19.59-2.44.82-3.68.39-2.06.86-4.11,1.07-6.19.28-2.79.27-5.6.54-8.39.16-1.66-.24-3.03-1.3-4.26-.08-2.46,1.56-4.72.77-7.29,1.02-1.31,1.34-3.11,2.89-4.11,3.12-1.1,5.17.66,7.23,2.92,0,.32.12.84-.02,1.28-.74,2.34-.48,4.74-.47,7.13.01,2.96.27,5.94,0,8.88-.42,4.6-.82,9.22-1.99,13.73-.41,1.57-.57,3.31.15,4.94.06.13.14.26.16.39.29,2.71.52,5.43.86,8.14.21,1.67-1.51,3.24-3.02,3.49-1.3.21-2.59.49-3.88.77-.18.04-.32.26-.58.48Z"/><path class="cls-1" d="m759.39,42.4c.03,1.08.72,1.63,1.61,2.01.65.27,1.31.5,1.98.74,3.95,1.42,7.25,3.97,10.68,6.26,2.8,1.87,5.49,3.92,8.11,6.05,1.68,1.37,2.88,3.12,3.59,5.29.99,3.01.17,5.51-1.57,7.9-1.12,1.53-2.21,3.08-3.33,4.61-.64.87-1.53,1.38-2.56,1.74-2.72.97-3.67,2.43-3.62,5.39,0,.35,0,.7,0,1.25-.63.49-1.33,1.05-2.06,1.57-2.98,2.1-6.15,3.97-8.55,6.82-1.45-.19-2.65.06-3.79,1.09-1.28,1.15-2.87,1.73-4.64.8-.41-.21-.9-.26-1.43-.4-.83-1.23-1.72-2.57-2.43-3.63.41-3.26.99-6.24,1.12-9.24.17-4.05.72-8.1.06-12.19-.27-1.63.14-3.36.18-5.04.07-3.24.07-6.48.14-9.71.02-1.12.17-2.23.28-3.62-.39-.25-.87-.79-1.4-.85-2.65-.28-5.32-.65-7.97-.57-3.12.09-5.43-.95-7.17-3.69.69-1.66,2.14-2.24,3.72-2.55,2.99-.6,6-.7,9.03-.19.61.1,1.26.01,1.98.01,1.33-1.19,2.76-2.36,4.97-1.82.86.56,1.86,1.21,3.07,2Zm1.76,9.99c-.08,1.86-.25,3.73-.24,5.61.03,3.52.17,7.03.25,10.55.04,1.83.06,3.66.07,5.49,0,.65-.04,1.29.88,1.75,1.88-1.19,3.32-2.96,4.7-4.85,1.09-.81,2.41-1.02,3.75-1.15,1.8-.18,3.18-1.07,4.2-2.53.56-.81,1.14-1.61,1.67-2.43.46-.72.84-1.48.48-2.08-1.13-1.18-1.92-2.33-2.99-3.06-3.61-2.45-7.31-4.75-10.98-7.12-.55-.36-1.1-.63-1.79-.18Z"/><path class="cls-1" d="m593.27,165.55c.44.67.85,1.31,1.35,2.08,1.38-.79,2.7-1.54,4.32-2.47,3.74.29,5.9,2.58,6.67,7.56-.47.77-.97,1.6-1.38,2.27.11,1.81.21,3.48.3,4.97-.71,1.45-1.89,1.96-3.07,2.41-2.55.98-5.09,2.04-7.71,2.77-1.3.36-2.78.06-4.67.45-1-1.26-2-2.52-2.98-3.76-.4-1.82-.79-3.58-1.21-5.47,1.87-1.31,3.45-2.8,3.44-5.26,0-1.47-.84-3.34-2.15-4.75-.83.73-.24,1.74-.53,2.59-.99,1.36-2.55,1.92-4.07,2.41-1.81.58-3.97-.62-5.07-2.59-.44-.79-.84-1.61-1.28-2.45-.62-.04-1.17-.07-1.86-.12-1.17,1.56-2.36,3.11-3.51,4.7-2.3,3.17-4.6,6.34-6.84,9.55-.75,1.08-1.3,2.31-1.96,3.46-1.31,2.26-4.57,2.78-6.84,1.07-1.31-.99-1.59-2.39-1.09-3.98.56-1.79.96-3.62,2.09-5.22.72-1.02,1.13-2.25,1.8-3.66.3-.25.84-.69,1.49-1.24-.04-.4-.08-.87-.14-1.42-.85-.69-1.72-1.4-2.69-2.19-.36-1.07-.75-2.25-1.13-3.38.4-2.34,2.29-3.01,4.09-3.51,2.63-.73,5.33-1.2,8.01-1.73.79-.16,1.43-.43,2.01-1.03,2.21-2.27,4.44-4.52,6.72-6.73,1.21-1.17,2.53-2.22,4.18-3.67.09-.38.29-1.26.54-2.32.73-1.19,2.22-1.25,3.53-1.81,2.46,1.74,4.78,3.55,6.41,6.04,1.43,2.19,2.19,4.71,2.86,7.22.8,3.03.79,6.13.38,9.19Zm-9.58-10.99c-1.08,1.41-1.92,2.52-2.77,3.63-.85,1.11-2.28,1.77-2.7,3.32.34.08.54.17.74.16,2.59-.11,4.64.79,6,3.09.18.3.63.45.99.7.15-.32.33-.51.32-.69-.18-2.43-.35-4.86-.63-7.28-.08-.66-.46-1.32-.82-1.91-.22-.36-.65-.6-1.13-1.02Z"/><path class="cls-1" d="m292.86,161.44c-1.4-.88-2.77-.96-4.15-1.07-1.82-.15-3.67-.17-5.44-.57-2.28-.51-4.38-1.53-5.84-3.49-.33-.44-.79-.96-.78-1.44,0-1.76-.94-3.07-1.84-4.4-.82-1.19-1.12-2.4-.52-3.85,2.7-3.5,5.52-4.97,8.48-4.95.43-.64.92-1.38,1.41-2.12.03.05.07.1.1.15,1.79-1.44,3.63-2.82,5.34-4.34,1.11-.99,2.17-1.97,3.51-2.66,1.4-.72,2.57-1.77,4.08-2.4,1.51-.63,2.9-.91,4.46-.58.73.15,1.46.31,2.19.46.19,1.13.34,2.08.52,3.19-.15.36-.35.87-.58,1.43-.8.29-1.59.57-2.38.85.03.04.07.09.1.13-2.47,1.95-5.01,3.84-7.41,5.88-2.14,1.82-4.19,3.77-6.19,5.74-1.35,1.33-1.66,2.28-1.53,3.85.64.08,1.33.14,2,.24,2.35.36,4.73.58,7.03,1.15,2.86.71,5.06,2.4,6.18,5.37.79.3,1.63.61,2.76,1.04.6,1.23,1.3,2.67,1.97,4.05-.8,2.05-1.76,3.89-2.21,5.85-.34,1.47-.82,2.82-1.56,4.1-.88,1.51-1.79,3.01-3.37,4.16-2.28-.33-4.81.09-6.76-1.69-1.28,1.36-2.42,2.57-3.66,3.87.08.3.18.69.3,1.07.53,1.67-.55,2.81-1.41,3.95-.44.58-1.18.98-1.85,1.35-2.07,1.12-3.81,2.62-5.43,4.31-.86.89-1.93,1.58-2.91,2.35-.82.65-1.65,1.28-2.7,2.09-1.58.15-3.36,1.03-5.29.6-2.13-.48-4.08-1.26-4.72-3.63-.22-.79-.2-1.65-.28-2.44,1.22-1.52,2.42-2.93,4.08-3.97,1.59-.99,2.99-2.28,4.91-3.78,1.25-2.65,4.08-4.44,6.83-6.37,1.64-1.16,3.13-2.57,4.54-4.01,2.21-2.25,4.33-4.58,6.43-6.94.59-.66.96-1.51,1.57-2.52Z"/><path class="cls-1" d="m597.95,68.83c-1.86-1.03-3.68-1.18-5.46-1.14-2.04.04-3.57-1.03-5.21-1.93-.18-.1-.32-.28-.5-.39-2.1-1.36-3.05-3.24-2.5-5.97,1.96-3.46,4.83-6.4,8.13-8.96.5-.39.9-.9,1.4-1.29.71-.56,1.46-1.06,2.19-1.59,1.25-.91,2.51-1.79,3.72-2.75.29-.23.39-.7.53-.97-.51-1.4-2.39-1.85-2.09-3.65,1.66-1.15,3.35-1.55,5.34-.77.88.35,1.92.32,2.89.38,1.1.06,2.21.01,3.19.01,1.63,2.66,1.83,4.14.45,6.9-4.14,1.35-7.59,4.16-11.23,6.66-.52.36-.99.78-1.46,1.2-1.25,1.13-2.49,2.28-3.74,3.41-.58.53-1.18,1.04-.85,2.19,2.38.51,4.87,1.04,7.6,1.62,2.44-1.55,4.6.19,7.12,1.26.52,1.43,1.09,3,1.72,4.73,3,.32,3.52,3.07,4.46,5.31.73,1.75-1.54,6.09-3.31,6.84-1.62.69-2.78,1.89-3.78,3.27-.74,1.02-1.68,1.68-2.85,2.05-1.11.35-2.03.94-2.77,1.84-1.34,1.62-2.67,3.25-4.05,4.84-1.01,1.17-2.17,2.21-3.1,3.44-.88,1.17-1.61,2.46-2.27,3.77-.53,1.06-.83,2.23-1.28,3.33-.48,1.19-.7,2.37-.59,3.69.25,3.13-.97,5.58-3.9,7.33-.84-.25-1.8-.42-2.66-.82-1-.47-2.01-.73-3.07-.47-2.15.53-4.04-.3-5.9-1.12-1.45-.65-2.1-3.36-1.32-5.08.77-1.71,1.99-3.01,3.62-4,2.52-1.54,4.74-3.51,6.84-5.56.96-.94,1.47-2.38,2.07-3.65,1.58-3.38,3.15-6.76,5.18-9.9.5-.77,1.1-1.47,1.55-2.26,1.89-3.38,3.75-6.77,5.57-10.18.24-.46.22-1.05.33-1.62Z"/><path class="cls-1" d="m503.32,205.94c-1.88-.52-3.07-1.86-4.19-3.52-.1-1.67-.2-3.48-.32-5.56.06-.09.43-.4.51-.77.61-2.79,2.29-5.11,3.36-7.7.18-.44.43-.88.75-1.22,3.62-3.84,7.31-7.62,10.88-11.52,1.99-2.17,3.81-4.5,5.6-6.83.66-.86,1.04-1.94,1.51-2.83-1.06-1.47-2.62-1.39-3.85-1.74-2.07-.58-4.27-.73-6.43-.95-1.81-.19-3.69.02-5.45-.37-2.5-.55-5.13-1.1-6.38-3.86-.47-1.05-.51-2.02-.01-3.03.12-.25.21-.54.39-.75,1.86-2.09,3.53-4.43,5.66-6.2,3.95-3.26,8.15-6.22,12.31-9.23,1.25-.9,2.67-1.57,4.01-2.33,1.49-.85,2.99-.35,4.43.12.7.23,1.3.81,2,1.27.19,1.87-.35,3.21-2.07,4.31-4.79,3.07-9.45,6.36-13.78,10.07-.59.5-1.15,1.04-1.64,1.63-.18.21-.13.6-.18.9,2.35.31,4.58.49,6.76.92,3.39.67,6.67,1.67,9.31,4.09.16.14.36.25.47.42,1.1,1.73,2.5,3.07,4.17,4.32,1.41,1.05,2.58,2.84,2.06,5.34-.62.91-1.5,2.09-2.26,3.34-1.06,1.74-2.17,3.46-2.98,5.31-.68,1.56-1.73,2.65-3.1,3.53-.23.15-.48.28-.84.49-1.72.09-3.57.19-5.65.3.36.31.56.54.81.7,3.46,2.3,3.07,4.87,1.07,7.43-.46.59-1.09,1.15-1.77,1.44-1.55.66-2.69,1.77-3.78,2.97-.81.89-1.55,1.83-2.47,2.6-1.96,4.12-.76,4.41-8.91,6.91Z"/><path class="cls-1" d="m564.76,62.62c.61.58,1.09.96,1.48,1.42.88,1.04,2.04,1.46,3.33,1.54,3.04.18,5.93.86,8.7,2.18,2.01.96,4.16,1.61,6.99,2.67,1.02.7,1.68,2.45,2.17,4.32-1.06,2.43-2.6,4.28-5.14,5.28-1.02.4-1.87,1.24-2.78,1.91-3.3,2.43-5.65,2.29-8.62-.56-.4-.39-.74-.84-1.26-1.44.3-1.46.62-3,.96-4.67-.54-.62-1.09-1.24-1.72-1.96-4.35-.56-8.73-1.14-12.91-3.1-.81,2.57-1.79,4.82-2.03,7.3-.07.76-.39,1.5-.53,2.25-.27,1.51-.52,3.03-.73,4.55-.24,1.66-.17,3.39-1.24,4.79-3.33.96-5.85-.32-7.85-3.91.47-2.64.86-5.27,1.41-7.86.55-2.59,1.27-5.15,1.89-7.64-1.12-1.18-2.14-2.25-3.29-3.47-.05-.41-.13-1.04-.22-1.67.36-.77.59-1.62,1.49-1.94.92-.34,1.84-.75,2.79-.95,1.33-.29,2.09-1.03,2.46-2.3.52-1.81,1.08-3.6,1.66-5.51-.79-.34-1.48-.65-2.49-1.09-.48-1.84-1.04-4-1.63-6.22,1.25-.91,1.48-2.62,3.02-3.2,1.58-.6,2.87.04,4.14.86,1.12-.15,2.24-.3,3.53-.47,1,.8,2.09,1.67,3.21,2.56,3.4.52,6.87,1.02,10.34,1.59,2.5.41,2.79.6,6.24,3.1.23,1.34.51,2.92.78,4.46-.48.54-.89,1.02-1.31,1.49l-.13-.23c-2.53,1.36-5.05,2.71-7.78,4.18-1.75-.34-3.2.9-4.94,1.76Zm-5.81-3.89c3.36-1.06,6.67-1.73,9.34-3.97q-.98-.86-2.79-.72c-1.3-1.09-2.94-.66-4.66-.72-1.08,1.57-1.73,3.27-1.88,5.41Z"/><path class="cls-1" d="m620.69,40.85c.89-.54,1.97-1.17,3-1.87.45-.3.86-.71,1.16-1.16.35-.51.57-1.11.74-1.47,1.6-.55,2.99-1.02,4.55-1.55,4.43.53,7.16,3.23,6.35,6.51.94.33,1.82-.1,2.66-.34,3.18-.89,6.45-1.61,9.45-2.92,2.14-.93,4.43-.58,6.5-1.51,1.07-.48,2.31-.58,3.42-1,1.3-.5,2.52-.1,3.72.2,1.91.48,3.14,2.15,3.27,4.13.02.35,0,.7,0,1.02-1.28,2.2-2.55,4.38-3.82,6.56l.29.28c-1.37.82-2.74,1.64-3.83,2.3-3.51.42-5.68-1.47-7.72-3.49-1.87,0-13.16,3.58-14.97,4.68-.59,1.21-1.1,2.28-1.64,3.33-.55,1.06-1.13,2.1-1.75,3.27-.26.15-.7.29-.97.59-1.8,1.93-4.1,2.23-6.55,2.16-.56-.02-1.12.09-1.68.18-2.49.42-4.55-.39-6.37-2.08-1.07-1-2.3-1.84-3.36-2.84-.71-.66-1.36-1.43-1.86-2.26-.73-1.23-.41-2.05.87-2.72,1.36-.72,2.71-1.47,4.1-2.16,1.2-.6,2.04-1.46,2.5-2.73.57-1.57,1.19-3.13,1.95-5.11Z"/><path class="cls-1" d="m636.24,55.12c1.39-1.65,3.23-2.24,4.85-3.09,3.33.35,5.5,2.25,6.07,5.28.05.27.08.57.05.84-.27,2.22-.44,4.47-.87,6.66-.41,2.12-1.11,4.17-1.62,6.27-.85,3.5-2.2,6.8-4.07,9.88-.33.54-.58,1.12-.88,1.72.11.7.22,1.39.31,2.08.49,3.6-2.11,5.99-5.35,6.17-1.2.07-2.35.02-3.48.62-.46.25-1.28.13-1.81-.1-1.34-.59-2.61-1.34-3.91-2.03-.3-.16-.6-.31-1.09-.55.24-1.04.54-2.18.76-3.33.18-.95.69-1.45,1.62-1.68.88-.22,1.73-.58,2.59-.87,1.16-.39,1.81-1.27,2.22-2.36.91-2.43,1.81-4.86,2.72-7.29,1.61-4.29,2.69-8.7,2.88-13.3.03-.77.1-1.54.16-2.36-.35-.78-.72-1.61-1.15-2.56Z"/><path class="cls-1" d="m791.88,91.42h-3.04c-.72-.38-1.38-.8-2.09-1.09-1.15-.46-1.9-1.28-2.54-2.32-.68-1.1-1.08-2.08-.29-3.3.28-.43.29-1.07.32-1.62.13-2.45.11-4.91.74-7.32.16-.6.1-1.26.13-1.89.02-.42-.1-.91.07-1.26,1.04-2.08.74-4.38,1.18-6.55.22-1.09.81-2.11.95-3.21.22-1.73.18-3.49.28-5.23.11-1.81.22-3.62.41-5.42.06-.53.41-1.03.62-1.51,2.3-1.32,4.59-1.08,6.66.17,1.46.89,2.25,2.48,2.34,4.25.09,1.72.22,3.38-.46,5.13-.56,1.42-.23,3.17-.41,4.76-.35,3.2-.82,6.37-1.69,9.5-.62,2.21-.99,4.55-1.11,6.84-.11,2.22-.58,4.45-.12,6.72.24,1.16-.44,2.07-1.94,3.36Z"/><path class="cls-1" d="m367.28,152.07c1.5.52,3.15,1.1,4.83,1.68.2.9.3,1.81.62,2.64.54,1.38.19,2.59-.34,3.86-.85,2.05-1.6,4.14-2.4,6.21-.07.19-.16.4-.28.56-2.16,2.74-2.78,6.05-3.48,9.33-.11.54-.24,1.09-.44,1.6-.5,1.3-.51,2.58.06,3.85.08.18.24.37.22.55-.12,1.49-.26,2.98-.4,4.46-3.65,2.63-6.13,2.61-9.37-.5-.43-2.19-1.12-4.55-1.3-6.95-.14-1.92.21-3.92.58-5.83.53-2.74,1.27-5.44,1.95-8.15.12-.47.39-.9.6-1.34,1.11-2.36,2.3-4.69,3.31-7.09.95-2.28,2.36-3.94,4.86-4.49.27-.06.52-.2.98-.38Z"/><path class="cls-1" d="m125.9,47.88c.83-.42,1.7-.86,2.48-1.26,3.95.64,4.55.86,6.45,2.47.2,1.43.42,3.01.62,4.39-.47.76-.8,1.3-.99,1.6-.14.86-.12,1.53-.36,2.07-1.63,3.52-2.68,7.22-3.64,10.96-.71,2.76-1.6,5.48-2.39,8.22-.33,1.14-.61,2.29-.89,3.37-.76.52-1.5,1.02-2.21,1.5-.87,0-1.71.02-2.56,0-2.59-.08-4.5-2.05-4.73-4.67-.18-2.03.45-3.91,1-5.76,1.48-4.97,3.19-9.88,4.77-14.82.84-2.63,1.62-5.29,2.46-8.05Z"/><path class="cls-1" d="m366.63,143.08c-2.91-1.89-4.61-4.32-4.71-8,0,0,.22-.33.21-.65-.1-2.13,1.34-3.41,2.63-4.74,1.37-1.41,2.86-2.65,4.67-3.54,1.3-.64,2.45-1.57,3.6-2.45.78-.3,1.6-.54,2.34-.93,1.07-.56,2.11-.6,3.22-.16,1.3.52,2.63.96,4.13,1.5.57,1.14,1.22,2.45,1.94,3.89-.76,1.52-1.26,3.11-2.59,4.42-1.01,1-1.53,2.49-2.01,3.31-1.09,1.19-1.9,1.96-2.57,2.84-1.2,1.59-2.69,2.71-4.47,3.65-2.08,1.09-4.21.88-6.4.87Z"/><path class="cls-1" d="m793.22,45.69c-1.98.69-3.63,1.26-5.04,1.75-2.74-.9-5.14-1.99-6.43-4.81.05-.55.11-1.3.19-2.18,1.22-.83,2.51-1.76,3.23-3.31.28-.6.92-1.06,1.47-1.49,1.64-1.28,2.62-2.92,2.75-5,.07-1.06.48-1.87,1.02-2.28,1.91-.5,3.5-1,5.13-1.33,1.01-.21,2.07-.25,3.11-.21.83.03,1.64.28,2.71.48,1.11.61,2.03,1.68,2.51,3.15.35,1.06.34,2.07-.06,3.09-.62,1.59-1.49,3.01-2.74,4.2-1.88,1.79-3.77,3.58-5.61,5.41-.88.88-1.66,1.87-2.25,2.54Z"/><path class="cls-1" d="m143.06,24.42c.33,5.07-1.21,8.9-6.32,10.61-1.32-.14-2.64-.27-3.86-.4-1.65-1.72-2.89-3.47-2.53-5.89-.53-.85-1.06-1.68-1.62-2.58.85-3.3,3.51-4.74,6.43-5.21,3.15-.51,6.18.3,7.91,3.46Z"/><path class="cls-1" d="m495.56,149.07c-.79.5-1.48.93-2.5,1.57-.58-.13-1.51-.34-2.51-.56-.04-.9,1.22-1.59.19-2.63-.39.16-.88.35-1.5.6-.24-.21-.53-.46-.91-.79.38-.44.69-.8,1.04-1.2.4.15.77.3,1.13.44.81-.37,1.61-.74,2.7-1.24-.38,1.68-.7,3.09-1.03,4.58,1.71.25,1.35-1.58,2.33-2.06.75.04,1.04.49,1.05,1.31Z"/></svg>