<?xml version="1.0" encoding="UTF-8"?><svg id="Layer_1" xmlns="http://www.w3.org/2000/svg" viewBox="0 0 1192.32 245.84"><defs><style>.cls-1{stroke-width:0px;}</style></defs><path class="cls-1" d="m708.69,110.78c1.97-.22,3.79-.23,5.68.18,1.69.37,3.48.13,5.13-.55.7-1.79,1.34-3.54,2.09-5.25.76-1.73,1.04-3.62,2.08-5.28.99-1.57,1.67-3.32,2.53-5.07-2.05.41-5.29,2.55-6.15,4.13-.47.86-.95,1.53-2.02,1.54-.12,0-.26.07-.36.14-1.72,1.24-3.48,1.15-5.46-.09-.36-.41-.91-1.03-1.45-1.64-.34-1.43.24-2.53,1.12-3.56,2.17-2.53,4.79-4.5,7.61-6.27,2.21-1.39,4.51-2.54,6.96-3.37,1.63-.55,3.34-.9,5.04-1.17,1.44-.23,2.92-.36,4.37-.29,1.79.08,3.57.38,5.34.64,3.14.46,6.2,1.23,9,2.78,2.39,1.32,4.18,3.21,5.26,5.73.56,1.3,1.07,2.62,1.68,4.13,2.7-.47,5.46-.94,8.29-1.43.33-.7.7-1.38.97-2.1.48-1.27,1.22-2.09,2.71-2.07.57,0,1.15-.18,1.84-.29.72,1.09,2.72.99,2.5,3.04,1.13-.12,2.08-.19,3.03-.33,2.38-.35,4.61.59,6.91.83.83.09,1.65.26,2.43.52,1.08.33,2.15.9,3.24.93,1.62.03,2.57.67,3.1,2.13.18.48.42.94.58,1.29-.16,1.07-.3,2.02-.47,3.15-1.17,1.34-2.44,2.79-3.71,4.24-.72.05-1.36.1-2.03.15-.86.69-1.76,1.34-2.56,2.09-2.22,2.07-5.06,3.14-7.61,4.67-.41.25-1.01.18-1.48.35-3.39,1.21-6.77,2.45-10.38,3.76.41.28.66.55.96.65,3.67,1.2,7.32,2.45,11.03,3.52,1.97.57,4.03.89,6.07,1.13.86.1,1.8-.19,2.65-.45,1.65-.52,3.25-1.22,5.05-.57.43.16,1-.04,1.76-.09-.11-.6-.04-1.18-.31-1.49-.83-.99-.62-1.97-.03-2.87.56-.85,1.22-1.71,2.02-2.31,1.2-.89,2.43-1.85,4.06-1.88,2.47-1.61,5.35-2.63,6.99-5.37,2.36-3.94,5.17-7.56,8.46-10.79.23-.23.64-.47.64-.71.01-1.32,1.1-1.98,1.72-2.9.98-1.46,2.22-2.69,3.89-3.42.76-.33,1.44-.82,2.37-1.37h1.11c2.34-3.14,5.18-5.43,9.64-4.69,2.21,1.75,2.64,4.78.93,7.22-.85,1.21-1.66,2.45-2.47,3.69-.65.99-1.54,1.64-2.72,1.6-3.2-.11-5.4,1.44-7.1,3.98-.23.35-.63.65-1.02.83-1.77.83-2.93,2.18-3.7,3.95-.22.5-.77.85-1.15,1.3-1.03,1.22-2.05,2.44-3.2,3.81,1.22.29,2.04-.3,2.93-.48.94-.2,1.92-.19,2.88-.28,2.69,2.25,1.71,5.16-1.07,6.77-2.89,1.68-6.02,2.96-9.04,4.41-.28.13-.64.21-.8.43-1.31,1.78-1.84,3.75-1.5,6.08,2.7.27,5-.55,7.19-1.7,2.53-1.32,5.01-2.75,7.52-4.11,1.31-.71,2.6-1.46,3.97-2.02.67-.27,1.5-.14,2.45-.2.48-.9,1.02-2.06,1.68-3.15.53-.88,1.18-1.69,1.8-2.5.35-.46.85-.84,1.13-1.33,1.31-2.27,3.34-3.87,5.16-5.67,1.1-1.09,2.14-2.25,3.17-3.4,1.38-1.55,2.66-3.18,4.11-4.67,2.66-2.73,5.13-5.65,8.24-7.91.21-.15.45-.25.68-.38,1.92-1.02,4.06-1.58,5.68-3.22.67-.67,1.8-1.37,3.03-.78,1.45.69,2.64,1.69,3.22,3.19.27.71.57,1.51.2,2.38-.21.5-.12,1.16-.07,1.74.17,1.8-.3,3.44-1.01,5.08-1.42,3.31-6.07,4.06-8.36,1.3-.16-.19-.29-.41-.54-.77-.37.15-.82.23-1.12.49-.84.72-1.69,1.45-2.39,2.29-2.82,3.36-6.03,6.38-8.6,9.98-1.5,2.1-3.42,3.9-5.04,5.92-1.08,1.34-1.96,2.82-3,4.33.96.78,2.02,1.27,3.4,1.35,2.52.14,5.08.32,7.54.86,2.03.45,4.04,1.3,5.31,3.32.31,0,.81.16,1.05-.03,1.64-1.25,3.78-1.16,5.57-2.09.89-.46,2.24-.05,3.4-.03.28-1.05.61-2.32.94-3.59.41-1.53-.5-2.75-1.05-4.27.62-.82,1.32-1.73,2.05-2.68,1.67-.1,2.55-1.19,3.47-2.46,2.43-3.33,3.88-7.35,7.02-10.18.51-1.6,1.8-2.65,2.77-3.91,1.98-2.56,4.53-4.49,7.39-5.91,1.1-.55,2.51-.72,3.75-.65,1.57.08,2.92-.2,4.25-1.02.69-.43,1.56-.56,2.25-.78,1.6.77,3.09,1.27,4.23,2.53,1.68,1.86,1.91,4.82.2,6.63-.92.98-2.02,1.79-2.83,2.49h-3.14c-.74-.58-1.58-1.25-2.68-2.12-2.24.32-4.8.48-6.58,2.8-2.05,2.67-4.19,5.26-6.36,7.97.49.57.85.99,1.28,1.5,1.23-.77,2.36-1.51,3.53-2.19.5-.29,1.09-.65,1.61-.6,1.55.13,2.05-.81,2.42-2.01.08-.25.15-.49.21-.72,2.62-1.86,5.59-1.68,8.5-1.63,1.76,1.11,2.13,3.12,3.43,4.75-.14,1.17-.3,2.51-.47,3.84-.11.88-.66,1.3-1.49,1.55-.93.28-1.82.69-2.7,1.11-1.01.49-1.95.68-2.89-.16-.16-.14-.49-.1-.85-.16-.29.38-.73.73-.88,1.18-.66,2.01-2.46,2.78-4.05,3.72-.5.29-1.24.23-1.87.23-1.41,0-2.82-.37-4.22.23-1.16.5-2.07-.51-3.25-.78-.37.34-.77.71-1.3,1.2.36.19.63.43.75.37.56-.28.94-.28,1.18.54-.71.16-1.38.31-2.08.47-.27-.32-.52-.61-.8-.95-.8.3-1.89.39-2.37.97-1.11,1.33-1.4,3-.97,4.86,1.32,1.1,3.06,1.2,4.68,1.13,2.77-.12,5.54-.42,8.16-1.48,1.32-.53,2.6-1.07,3.79-1.92,1.2-.86,2.65-1.35,3.98-2.03,1.03-.53,2.05-1.09,3.58-1.9.77.19,2.06.51,3.58.9,1.83-5.04,3.67-10.08,5.43-14.95-.12-1.18-.22-2.19-.33-3.33,2.36-1.31,2.86-3.68,3.55-5.96.41-1.36.95-2.67,1.39-4.02.15-.47.16-.98.24-1.51-3-.49-5.85-.95-8.94-1.45-1.32-.9-2.87-1.95-4.36-2.96.24-1.41.46-2.67.74-4.3.3-.29.86-.82,1.42-1.35h3.46c1.24,1.65,3.3,1.37,5,2.01.28.1.65.04.95-.05,2.84-.84,5.63-.46,8.44.21,1.06.26,2.16.34,3.24.53.5.09,1.02.19,1.5.36,1.99.72,4.16.86,6.07,1.89.37.2.89.11,1.29.15,2.19,1.47,4.32,2.91,6.46,4.35l-.14.23c.51.1,1.01.24,1.52.31,2.62.31,3.68,2.31,3.34,4.73-.09.61-.18,1.22-.29,2.05-1.34,2.31-4.35,2.51-6.35,4.04-5.2,1.07-10.48.65-15.58,1.83-.18.04-.34.18-.8.43,2.61.68,4.37,2.03,6.17,3.38,1.16.88,2.61,1.39,3.95,2.03,2.04.97,4.1,1.91,6.14,2.87,1.87.89,1.93.8,3.45-.62.93-.87,2.11-1.47,3.08-2.12,1.33.16,2.59.1,3.68.51,1.17.43,2.19,1.3,2.99,2.24.29.89.67,1.77.85,2.69.1.51.02,1.17-.23,1.61-.55.94-1.3,1.75-1.91,2.66-.63.96-1.19,1.97-1.69,3.03-1.95,1.94-4.31,2.92-7.15,2.68-1.16-.1-2.34-.03-3.51-.01-1.29.01-2.19-.59-2.89-1.64-1.02-1.53-1.66-3.17-1.67-4.89-4.35-2.21-8.58-4.36-12.99-6.6-.03.01-.32.13-.55.21-.87-.48-1.68-.93-2.58-1.43-1.52,2.97-2.89,5.78-3.77,8.84-.62,2.16-1.49,4.25-2.31,6.35-.74,1.89-1.36,3.76-.98,5.84.09.49-.12,1.02-.22,1.73-.55.49-1.2,1.07-1.72,1.53.4,1.28.82,2.65,1.36,4.37.15.1.66.44,1.21.81,3.12-1.13,6.26-2.27,9.43-3.42q1.68.85,1.85,4.14c-2.97,3.8-6.65,6.81-11.36,8.52-2.07.75-4.1,1.63-6.12,2.51-1.06.46-2.1,1.02-3.09,1.62-2.28,1.37-4.44.83-5.77-1.48-.25-.43-.55-.82-.9-1.33.21-.35.47-.77.59-.97-.22-1.16-.46-2.07-.56-2.99-.11-.96.25-1.65,1.17-2.24,1.02-.65,1.87-1.59,2.68-2.51.48-.56.97-1.3,1.03-1.99.12-1.35.93-2.2,1.72-3.11.54-.63,1.04-1.3,1.52-1.91-.67-.99-1.26-1.88-1.81-2.69-1.35.32-2.78.62-4.18,1.03-.47.14-.82.61-1.27.87-1.78,1.04-3.59,2.04-5.37,3.08-1.19.69-2.28.72-3.41-.18-1-.79-2.1-1.45-3.01-2.44-.96,0-1.92.09-2.87-.01-3.9-.42-7.7-1.12-10.5-4.25-.08-.09-.22-.13-.42-.25-1.08.84-1.17,2.2-1.66,3.35-.87,2.05-1.46,4.24-3.01,5.97-.41.46-.67,1.1-.87,1.7-.71,2.11-2.15,3.6-3.84,4.98-2.09,1.7-4.23,3.39-6.01,5.39-1.51,1.7-3.02,3.53-3.52,5.92-.27,1.3-1.03,2.37-2.17,3.1-1.32.86-2.71,1.19-4.19.34-.5-.29-1.04-.52-1.63-.81-.12-.77-.23-1.5-.35-2.33-1.24.27-1.92,1.04-2.37,2.09-.28.65-.48,1.36-.85,1.95-.54.86-1.03,1.96-1.84,2.41-1.58.86-3.35,1.4-5.24,1.1-2.13-.34-3.92-2.32-4.06-4.53-.04-.71,0-1.42,0-2.29,1.08-.92,2.19-1.79,3.22-2.75,1.8-1.67,3.66-3.31,5.32-5.12,2.43-2.67,4.69-5.5,7.05-8.24,1.23-1.42,2.68-2.67,3.76-4.19,1.38-1.94,2.53-4.06,3.68-6.15.23-.42.03-1.07.03-1.8-2.4-.17-4.57-.39-6.74-.47-3.17-.12-5.84-1.26-7.98-3.6-.65-.71-1.34-1.38-1.99-2.05-.28.12-.5.15-.62.28-2.27,2.49-5.19,4.08-8.05,5.73-3.08,1.78-6.44,2.98-9.9,3.75-1.87.42-3.87.47-5.69-.54-.85-.47-1.74-.84-2.79-1.34-1.12,1.41-2.26,2.87-3.41,4.32-.32.4-.69.77-1.01,1.17-1.49,1.86-3.54,2.36-6.17,2.33-2.87-.62-3.61-3.16-4.05-6.2.71-1.03,1.53-2.23,2.52-3.66-.5-.21-.97-.53-1.48-.6-1.98-.28-3.98-.42-5.96-.75-2.21-.37-4.4-.87-6.59-1.36-3.06-.69-6.01-1.72-8.93-2.88-1.58-.63-3.22-1.1-4.93-1.66-1.06,2.27-2.71,4.14-3.01,6.73-.11.93-.98,1.77-1.58,2.78,2.19.96,3.17,2.65,3.35,4.55,1.12.99,2.06,1.82,2.9,2.57-.08,3.28-2.24,4.85-4.55,6.15-1.06.6-2.49.92-3.7.81-2.2-.2-4.09.45-5.97,1.38-.95-.15-1.89-.31-2.96-.48-.54-.42-1.2-.93-1.9-1.47-1.1-3.05-1.11-3.27-.44-6.87,2.64-.69,5.32-1.59,7.21-3.72,1.95-4.8,3.9-9.58,5.86-14.41-1.79-1.65-3.04-3.56-3.37-6.13,1.14-1.37,2.59-2.11,4.45-2.18.87-.03,1.73-.24,2.51-.36,1.15-3.41,2.22-6.58,3.37-9.96-1.76-.32-3.41-.62-5.44-1,.29-.12.11-.1.07-.02-.92,1.92-2.33,3.4-4.02,4.66-.62.46-1.21,1-1.7,1.6-1.3,1.6-3.01,2.66-4.76,3.65-2.83,1.59-5.69,3.13-8.53,4.7-.79.44-1.58.76-2.53.89-1.39.19-2.75.68-4.12,1.03-1.55.39-3.11.76-4.63,1.13-1.36,1.42-2.76,2.89-4.29,4.49,1.03.11,2.14.24,3.22.36.73,1.64,1.44,3.09,2.03,4.59.19.48.23,1.16.04,1.63-.7,1.81-1.51,3.56-2.95,4.96-.68.67-1.14,1.56-1.75,2.42.16.6.32,1.22.57,2.16-.32.94-.74,2.2-1.17,3.46-.1-.07-.2-.14-.3-.21-.95.74-1.86,1.54-2.86,2.21-1.25.83-2.65,1.34-4.16,1.37-.84.02-1.68-.16-2.5-.12-.94.1-1.87.19-2.81.3-.45.05-.93.05-1.34.21-1.9.74-3.85.48-5.79.35-2.51-.17-4.43-2.49-4.27-4.99.03-.45,0-.9,0-1.26.58-.75,1.09-1.41,1.62-2.06,1.43-1.78,3.5-1.61,5.46-1.76,1.14-.08,2.34.03,3.38-.87-.43-1.45-.28-2.76,1.12-3.66.11-.07.26-.14.3-.24.66-1.71,1.3-3.44,2.02-5.33-.87-.07-1.42-.11-2.25-.17-.73-1.38-1.51-2.85-2.14-4.04v-3.01c.64-1.11,1.31-2.28,2.03-3.54-1.05-1.12-3.04-1.49-2.99-3.65.04-1.59.87-2.66,1.88-3.85Zm40.89-11.37c-.27-2.66-1.53-4.54-3.89-5.56-4.4-1.89-9.01-2.28-13.72-1.67-.58.07-1.3-.08-1.71.69,1.7.71,2.13,2.06,2.02,3.67-.2,3.11-1.35,5.9-2.99,8.51-.2.32-.45.63-.59.98-.82,1.96-1.61,3.94-2.42,5.93.28.89.57,1.8.87,2.77,1.83-.14,3.46-.49,4.94-1.61,2.52-1.92,5.17-3.67,7.72-5.55,3.42-2.53,7.07-4.79,9.77-8.15Zm21.12,3.2c-1.41,2.15-1.92,4.43-2.66,6.77,1.47.16,2.3-.71,3.3-1.05,2.85-.97,5.67-2.01,8.23-3.68.88-.58,1.39-1.24,1.58-2.4-.55-.21-1.08-.61-1.58-.56-2.91.24-5.82.59-8.87.92Zm155.35-6c-2.47-1.44-4.85-2.72-7.37-2.93-1.11.49-2.03.89-3.13,1.37-.49,1.52-1.04,3.19-1.62,4.97.47,0,.74.07.96-.01,2.93-1.07,5.89-1.94,9.06-1.93.96,0,1.77-.36,2.1-1.47Z"/><path class="cls-1" d="m259.59,141.58c-.04,2.63-1.97,4.91-1.02,7.63-1.77.56-2.76,2.3-4.5,2.25-1.44-.04-2.81.15-4.15.53-2.96.84-5.89,1.8-8.83,2.72-1.45,1.65-3.28,1.13-5.02.8-.73-.14-1.4-.6-2.08-.92-.15-.52-.17-1.08-.44-1.48-.84-1.25-.6-2.64-.53-3.96.09-1.53,1.45-2.02,2.65-2.5.5-.2,1.06-.25,1.6-.37.01-.14.03-.27.04-.41-.78-.34-1.65-.55-2.32-1.04-.81-.59-1.63-1.31-2.13-2.16-1.37-2.35-.31-5.16,2.28-6.15.95-.36,2.01-.45,3.19-.71.91-1.97-.05-4.26.65-6.75-2.6.77-4.89,1.49-7.2,2.12-2.34.64-4.71,1.18-7.27,1.82-2.48,2.98-5.06,6.05-7.61,9.15-2.63,3.19-4.54,3.6-7.92,1.57-.21-.54-.39-1.15-.68-1.72-.25-.5-.6-.95-.95-1.48-1.95,1.3-3.77,2.5-5.58,3.71-2.19,1.47-4.39,2.93-6.89,3.88-2.22.85-4.36,1.9-6.61,2.64-2.06.68-4.22,1.07-6.33,1.59-2.7.66-5.4.56-8.08-.05-2.3-.52-4.06-1.93-5.4-3.84-.52-.74-1.24-1.54-1.3-2.35-.15-2.2-1.13-4.34-.6-6.58.3-1.29.75-2.54,1.13-3.81.15-.51.31-1.01.56-1.85-6.66,7.24-14.3,11.8-23.83,13.06-.95,3.05-.69,6.15-.39,9.23.19,1.92.2,2.88-.3,4.23-.91.18-1.86.36-2.92.56-.83-1.02-1.7-2.03-2.52-3.1-.38-.5-.54-1.05-.57-1.76-.1-2.38-.44-4.75-.64-7.13-.07-.82-.51-1.28-1.21-1.58-.66-.28-1.31-.57-1.95-.85-3.77.63-6-.73-7.39-3.55-1.16-2.36-1.17-4.92,1.08-6.74,3.68-.62,7.26-1.23,10.81-1.83.91-2.96,1.75-5.85,2.7-8.71.86-2.55,1.87-5.04,2.78-7.57.87-2.42,1.65-4.87,2.55-7.27.38-1,.96-1.93,1.49-2.87,1.07-1.9,2.16-3.8,3.26-5.72-.24-.68-.86-.65-1.44-.65-3.26-.01-6.51-.04-9.77-.01-1.58.01-3.01.62-4.41,1.33-2.49,1.26-5.06,1.43-7.96.42-.34-1.08-.72-2.29-1.03-3.28,1.21-3.61,4.02-4.87,7.04-5.85,2.33-.75,4.68-1.45,7.18-2.23.81,0,1.82.01,2.83,0,.39,0,.78-.13,1.16-.1,6.5.58,12.76,1.86,18.29,5.69,1.91,1.32,3.7,2.76,5.49,4.43,1.68-2.6,3.94-2.2,6.64-.99.38.63.94,1.64,1.57,2.61.64.98.5,1.89.04,2.91-.75,1.64-1.39,3.34-2.04,5.02-.11.27-.05.6-.08.96,1.27-.53,2.4-1.3,3.58-1.42,1.15-.11,2.36.46,3.36.69.73.63,1.34,1.15,2.02,1.74.46-.43.76-.75,1.09-1.03,1.65-1.45,3.32-2.88,4.96-4.34,2.81-2.5,5.82-4.75,9.14-6.51,1.93-1.03,4.01-1.8,6.07-2.71.94.41,1.88.83,2.82,1.24.29.91.58,1.81.9,2.83-.4,1.32-1.24,2.28-2.61,3.02-3.24,1.76-6.38,3.7-9.53,5.63-.99.6-1.9,1.33-2.8,2.07-1.54,1.27-3.03,2.6-4.69,4.04.73.42,1.21.17,1.75.06,1.82-.38,3.66-.73,5.5-.95,1.82-.22,3.18.77,3.86,2.29.67,1.51.49,3.14-.71,4.5-.34.38-.6.83-.86,1.21-.51.21-1,.38-1.45.61-2.86,1.49-5.64,3.15-8.6,4.41-1.14.49-2.39.89-3.61,1.27-1.4.44-2.78-.2-4.12-.65-.72-.24-1.46-.4-2.28-.62-1.1,1.68-2.39,3.14-3.06,4.84-.61,1.56-1.56,2.98-1.99,4.6-.25.92-.31,1.89-.47,2.94.87.76,1.69,1.48,2.45,2.16,3.43.06,6.6-.71,9.72-1.76,5.6-1.88,10.93-4.37,16.25-6.9,2.5-1.19,5.05-2.28,7.59-3.42.65.53,1.14.92,1.68,1.36-.17.67-.32,1.26-.47,1.86l.22.15c.8-.86,1.61-1.71,2.4-2.58.7-.77,1.31-1.63,2.07-2.34,1.53-1.45,2.78-3.06,3.53-5.06.48-1.25,1.29-2.19,2.72-2.53.58-.14,1.16-.59,1.56-1.06,2.13-2.52,4.24-5.05,6.27-7.65,1.63-2.08,3.21-4.21,4.67-6.41,1.39-2.11,2.9-4.1,4.44-6.1,1.57-2.05,2.93-4.26,5.85-4.99,1.36.91,3.36,1.11,4.59,2.91-.04.78-.09,1.69-.17,2.98-3.16,3.1-3.66,7.6-4.45,11.99-.07.38-.08.79,0,1.17.34,1.7.67,3.4,1.11,5.07.72,2.75,1.42,5.48,1.66,8.34.2,2.35.2,4.62-.48,6.89-.17.56.04,1.23.08,1.95,2.29-.03,4.42.32,6.5-.56.96.18,1.97.49,2.99.54.87.05,1.48.44,2,1.01.6.67,1.12,1.41,1.78,2.27Zm-101.75-37.44c-.13.15-.21.2-.2.24.02.19.09.37.11.55.18,1.55.04,2.99-.7,4.47-1.85,3.69-3.68,7.41-5.2,11.25-1.7,4.28-3.14,8.67-4.83,12.96-.38.96-.53,2.02-.83,3.17,3.27-.56,6.21-1.42,8.95-2.91,2.74-1.49,5.49-3.03,7.25-5.66,1.35-2.02,2.3-4.31,3.37-6.5.17-.36.08-.84.12-1.31-1.01-.37-1.91-.7-2.54-.93-1.12-1.18-2.05-2.16-3.05-3.21.1-.39.31-.82.3-1.25-.02-1.76.92-2.86,2.32-3.75.56-.36.95-.97,1.43-1.47-1.54-2.86-3.98-4.31-6.51-5.64Zm79.58,16.52c-.34-.98-.56-1.59-.8-2.27q-1.3,1.11-1.56,2.45c.71-.05,1.37-.1,2.36-.18Z"/><path class="cls-1" d="m421.47,102.07c.44-1.35.9-2.48.99-3.84.17-2.47,1.89-4.02,3.9-5.2.35-.2,1.03-.03,1.47.16.7.31,1.33.77,2.08,1.23-.1,1.45-.2,2.86-.3,4.27-.01.19-.05.4,0,.58.64,2.11.77,4.31,1.02,6.48,1.19.85.56,2.33,1.21,3.43.61,1.03.85,2.28,1.22,3.44.39,1.23.79,2.45,1.09,3.71.51,2.12.93,4.27,1.42,6.4.22.93.52,1.85.87,3.04-.35,2.14-.74,4.59,1.32,6.69.25-.08.59-.12.85-.28.98-.61,1.9-1.36,2.92-1.88,1.28-.66,1.93-1.7,2.22-3.01,1.03-4.74,2.13-9.46,3-14.23.62-3.42.88-6.91,1.36-10.36.15-1.08.38-2.16.72-3.2.61-1.86.73-1.94,2.98-3.91-.23-1.1-.6-2.21-.67-3.33-.08-1.15.12-2.32.22-3.83.69-.46,1.58-1.06,2.67-1.79,1.28.31,2.65.64,3.86.93,1.06,1.25,1.95,2.29,2.29,3.78.5,2.21-.11,4.12-1.24,5.92-.77,1.24-.96,2.49-.66,4.04.4-.19.76-.28,1.02-.49,2.23-1.75,4.74-2.87,7.47-3.62,1.98-.54,3.92-1.27,5.97-1.49,3.23-.35,6.45-.74,9.69-.92,3.05-.17,6.12-.05,9.17-.14,3.41-.1,6.75.49,10.02,1.3,2.1.52,4.16,1.39,5.47,3.43.7,1.09,1.76,1.95,2.71,2.96-.41.75-.73,1.29-1,1.85-.63,1.27-1.05,2.51-.96,4.05.09,1.54-.31,3.22-.94,4.65-1.14,2.59-2.28,5.17-3.34,7.8-.48,1.21-1.57,2.17-2.46,3.35-.89,1.69-1.96,3.46-2.78,5.35-1.35,3.1-3.65,5.06-6.72,6.34-1.21.5-2.33,1.17-3.69.98-1.96-.28-3.5.62-5,1.61-.86,3.75-3.17,6.46-6.22,8.84-.96.36-2.11.8-3.18,1.21-1.53-.14-3-.28-4.48-.42-.42.49-.78.86-1.08,1.27-.63.84-1.45,1.15-2.51,1.2-1.15.05-2.32.25-3.42.57-1.93.56-4.36-.08-5.63-1.62-.45-.55-.9-1.1-1.34-1.63-2.9.15-5.18,1.61-7.49,3.03-1.21.75-2.46,1.44-3.69,2.17-2.66,1.57-6.02.28-7.64-2.47-.26-.44-.55-.87-.87-1.37v-1.58c-.45-1.07-.99-1.22-5.4-3.18-.22-1.14-.47-2.32-.67-3.5-.25-1.43.29-2.52,1.46-3.35.41-.29.77-.67,1.31-1.15-1.57-.85-3.07-1.66-3.24-2.61,0-2.86,0-4.86,0-6.86,0-.26.08-.57-.03-.77-1.34-2.27-1.43-4.93-2.3-7.34-.21-.59-.5-1.16-.86-2-.34.55-.59.83-.69,1.15-.55,1.85-1,3.74-1.62,5.56-.39,1.15-1.03,2.22-1.55,3.33-2.11,4.52-4.23,9.03-6.3,13.56-.56,1.23-.89,2.56-1.43,3.8-.96,2.18-1.99,4.32-2.94,6.35-2.75.95-5.28,1.71-7.49-.97-.24-1.4.29-2.81.94-4.14,1.14-2.32,2.11-4.69,2.95-7.14.78-2.25,2.11-4.3,3.1-6.48,1.79-3.94,3.69-7.84,5.22-11.88,1.04-2.75,2.08-5.5,3.07-8.27.82-2.29,1.59-4.61,2.29-6.94.25-.83.22-1.75.32-2.63Zm44.71,32.62l.59-.14c.27-.83.55-1.66.8-2.5.2-.68.29-1.39.53-2.05.43-1.22.97-2.4,1.39-3.63.7-2.09,1.43-4.17,1.97-6.3.44-1.74.65-3.55.92-5.33.36-2.41.68-4.83,1.02-7.24.2-.69,1.14-1.19.36-2.33-3.78-.27-7,1.65-10.32,2.73.1,1.22.17,2.19.25,3.16-.54.5-1,.93-1.35,1.26-1.95.22-3.18-.38-3.7-2.21-.12-.41-.57-.73-.87-1.09-.14.04-.28.08-.42.11-.12.74-.28,1.47-.36,2.21-.13,1.22-.05,2.48-.33,3.66-.67,2.81-1.64,5.55-2.21,8.38-.4,2.01-.87,3.97-1.57,5.9-.36.98-.9,2.02.02,3.11-.62.06-1.13.1-1.71.16-.11.45-.21.86-.33,1.39.79.09,1.48.16,2.18.24.32.6.62,1.15,1.07,1.99.67-1.14,1.21-2.05,1.74-2.96-.06-.04-.13-.08-.19-.11,1.06-.84,2.12-1.68,3.33-2.64,1.01.28,2.05.58,3.11.84,1.87.47,3.02,1.89,4.1,3.4Zm16.78-30.81c-.83,2.53-1.56,4.67-2.23,6.83-.38,1.23-.77,2.47-1.01,3.73-.53,2.79-.89,5.62-1.48,8.41-.34,1.62-1,3.18-1.49,4.77-.4,1.3-.76,2.62-1.23,4.27,2.74-1.16,5.14-2.18,7.42-3.14.26-.6.44-1.01.6-1.43.78-2.04,2.04-3.4,4.26-4.12,1.46-.47,2.67-1.72,3.99-2.63.1-.07.22-.17.26-.28.63-1.61,1.26-3.22,1.92-4.94,1.05-.91,2.06-1.97,2.26-3.58.04-.35.37-.67.59-.98,1.54-2.15,2.48-4.5,2.38-7.31-5.52-.37-10.97-.77-16.25.39Z"/><path class="cls-1" d="m63.74,92.44c.67-1.38,1.36-2.79,1.94-3.97,3.19-1.18,5.1-4.31,8.87-4.17.91.45,2.12,1.05,3.48,1.73.33,2.58-1.17,4.21-3.05,5.72.29.71.58,1.41.85,2.08.88.43,1.73.85,2.59,1.27,1.12.54,1.69,1.51,2.13,2.62,1.06,2.64,1.44,5.46,2.19,8.17,1.01,3.67,1.99,7.33,3.35,10.9.58,1.52,1.62,2.91,1.6,4.69,0,.65.45,1.31.73,2.07,2.23-.82,4.27-2.13,6.81-1.25.15-.26.47-.56.48-.88.03-1.54.19-3.01.74-4.49.42-1.13.52-2.41.57-3.63.11-2.52.8-4.94,1.25-7.39.48-2.64,1.37-5.2,1.99-7.81.41-1.75.77-3.53.92-5.32.14-1.6.54-3.04,1.43-4.37.35-.52.55-1.14.9-1.89,1.26-.11,2.64-.23,4.42-.38.98.66,2.24,1.51,3.51,2.36-.08.09-.17.17-.25.26.29.83.57,1.65.96,2.78-.45,1.56-1.02,3.41-1.5,5.28-.31,1.25-.44,2.54-.71,3.8-.25,1.13-.64,2.23-.86,3.36-.68,3.61-1.3,7.23-1.97,10.84-.22,1.2-.55,2.38-.79,3.57-.17.89-.35,1.79-.38,2.69-.04.98-.02,1.93-.58,2.8-.16.25-.17.61-.2.93-.28,3.22-.52,6.44-.85,9.65-.07.67-.41,1.31-.63,1.97.36.51.72,1.03,1.12,1.61-.16,1.12-.23,2.28-.51,3.4-.35,1.41-1.32,2.31-2.7,2.8-1.04.37-2.1.73-3.06,1.26-2.07,1.12-4.14,2.27-5.16,4.33h-3.3c-.37-.24-1.06-.7-1.89-1.25-2.71.78-3.93-1.17-4.96-3.21-.34-.88-.85-1.73-.98-2.64-.17-1.25-.05-2.54-.07-3.81-.04-2.61-.46-5.12-1.59-7.51-.37-.78-.69-1.54-.55-2.54.13-.95-.31-2.01-.65-2.97-1.11-3.21-2.31-6.38-3.41-9.59-.45-1.33-.72-2.72-1.08-4.13-1.65.3-.86,1.98-1.72,2.79-.79.75-1.04,2.05-1.59,3.07-.55,1.02-1.17,2-1.84,3.13.45,1.88-.49,3.75-2.57,4.51-1.32.48-2.71.78-4.12,1.18-.52,2.47-.4,4.96-.96,7.38-.55,2.38-.8,4.82-1.18,7.28.89,1.27,2.05.69,3.21.52,1.98.67,3.82,1.67,5.03,3.66v2.84c-1.01,1.45-2.51,2.23-4,3.02-1.75.92-3.66,1.27-5.57,1.66-1.33.27-2.7.55-3.47,1.74-2.57.48-5.02.93-7.89,1.46-2.38-.13-4.87-.9-5.65-3.8-.11-1.57-.22-2.94-.32-4.39,2.89-2.83,6.9-3.23,10.68-4.52.11-.52.22-1.04.42-1.96-.78.57-1.22.89-1.88,1.37-1.17-.62-2.45-1.3-3.87-2.06.18-1.25.22-2.35.51-3.38.47-1.72,1.18-3.38,1.63-5.11.73-2.79,2.86-4.5,4.88-6.82.09-.77.22-1.92.35-3.02-.72-.85-1.35,0-2.12,0-.39-.24-.87-.53-1.28-.78-1.15,2.4-2.4,4.6-4.31,6.35-.29.26-.66.45-.89.75-2.06,2.72-4.95,4.35-7.81,6.03-.88.52-1.7,1.19-2.62,1.62-3.71,1.73-7.54,2.65-11.72,2.54-3.28-.09-6.05-1.13-8.72-2.82-2.46-1.56-3.71-3.73-4.18-6.6-.42-2.52.35-4.74,1.25-6.92,1.25-3.05,2.89-5.91,4.8-8.63,3.69-5.27,8.58-9.05,14.22-11.96,1.9-.98,3.97-1.14,6.12-1.02.42.39.85.77,1.18,1.07,3.16.13,6.2.26,9.65.4.11-.16.49-.68.8-1.11h3.52c.91,1.17,1.77,2.29,2.74,3.54.54-.11,1.15-.24,1.9-.39,1.19.66,2.48,1.38,3.66,2.04.18,1.48.35,2.83.52,4.23-.94,2.45-1.9,4.95-2.91,7.59,1.12-.29,2.15-.56,3.39-.88.36-.96.74-2.04,1.17-3.1,1.05-2.58,2.13-5.14,3.19-7.71.14-.34.41-.71.37-1.03-.32-2.92-.39-5.84-.47-8.77-.02-.68-.66-1.35-1.04-2.01-.48-.83-.99-1.65-1.62-2.7Zm-16.34,16.08c-1.08-.13-1.8-.39-2.45-.27-2.4.43-4.87.74-7.15,1.54-3.72,1.3-6.65,3.97-9.6,6.47-1.76,1.49-3.11,3.45-4.7,5.14-1.31,1.39-2.38,3.13-4.57,3.33-.15.01-.29.25-.45.4-.12.8-.2,1.63-.37,2.44-.43,1.98.14,3.18,1.94,4.16,2.14,1.17,4.46,1.36,6.8,1.12,3.09-.32,5.93-1.59,8.78-2.71,2.94-1.15,5.58-2.91,8.17-4.83-.42-.55-.81-1.05-1.14-1.49.15-.88.25-1.64.42-2.39.22-1,.43-2.02.76-2.99.74-2.12,1.56-4.21,2.33-6.31.39-1.08.74-2.17,1.23-3.61Z"/><path class="cls-1" d="m1019.98,101.78c.09-.8.17-1.61.26-2.41.03,0,.06,0,.09,0,.16-1.45.32-2.89.51-4.58.15-.12.47-.43.84-.68,1.44-.96,2.2-2.28,2.21-4.02,0-.38,0-.81.17-1.12,1.16-2.14,1.47-4.58,2.82-6.72,1.1-1.75,1.93-3.71,3.08-5.48.54-.83.82-1.82,1.2-2.7h2.91c3.96,3.32,4.8,6.03,2.63,11.03.24.07.47.2.68.18,4.05-.49,8.09-1,12.13-1.5.06,0,.13-.03.19-.02,3.13.26,6.18-.53,9.26-.83,1.85-.18,3.68-.63,5.52-.94,2.74-.46,5.48-.9,8.21-1.37,2.22-.39,4.43-.85,6.66-1.22,1.78-.3,3.58-.5,5.74-.79.46-.57,1.23-1.37,1.8-2.29,1.1-1.8,2.62-2.61,4.72-2.34.32.04.65,0,1.25,0,.82,1.33,1.76,2.71,2.56,4.17,1.31,2.38.63,4.68-.72,6.75-1.09,1.67-2.51,3.12-3.76,4.69-.18.23-.21.57-.32.89,1.34.41,2.6.8,3.86,1.19-.01.08-.03.17-.04.25.5-.11,1-.23,1.5-.32,1.13-.19,2.17-.06,3.11.7.66.53,1.37,1,2.11,1.41,1.65.91,2.04,2.6,2.65,4.14.11.27.1.71-.05.94-.83,1.29-1.35,2.78-2.75,3.69-1.44.94-2.49,2.41-4.12,3.15-1.83.82-3.58,1.86-5.47,2.48-1.04.34-2.29.03-3.44,0-.5-.01-.99-.08-1.73-.14-.91-1.1-1.96-2.38-3.34-4.06-.21-.58-.6-1.67-.89-2.46-1.76-.84-3.26-1.55-4.63-2.21-.49-.96-.92-1.75-1.31-2.56-.22-.46-.61-1-.53-1.42.34-1.77-.84-3.16-.93-4.81-5.35.77-10.57,1.52-15.67,2.25.75,1.59,1.48,3.09,2.14,4.62.2.45.4,1.09.23,1.47-.64,1.4-1.14,3.12-2.26,3.99-1.57,1.22-1.9,2.74-2.29,4.38-.72,3-1.31,6.03-2.16,8.99-.55,1.9-1.49,3.68-2.22,5.54-.44,1.13-.8,2.29-1.22,3.51-1.01.59-2.04,1.2-3.4,2.01-.02-.95-.17-1.6-.02-2.17.63-2.33-.26-4.58-.3-6.87-.01-.52-.1-1.04-.08-1.55.07-1.74.35-3.49.22-5.22-.14-1.85.46-3.56.65-5.34.15-1.44.44-2.84.38-4.33-.04-1.08.67-2.18,1.03-3.29.45-1.4.92-2.81.68-4.56-3.35.3-6.62.64-9.72,1.41-.49.74-.9,1.53-1.47,2.2-1.85,2.15-3.85,4.1-6.41,5.45-1.69.89-3.23,2.07-5.03,3.25-.33.07-.96.17-1.55.35-1.28.4-2.42.15-3.29-.93-1.01-1.26-1.93-2.6-2.9-3.9,0,0,.05.08.05.08Z"/><path class="cls-1" d="m1148.2,128.75c1.6-3.42,3.2-6.84,4.95-10.58.97-.47,2.22-1.07,3.46-1.68.03.07.06.13.09.2.09-.09.25-.16.27-.27.34-1.29.61-2.6,1-3.87,1.21-3.86,2.47-7.71,3.7-11.56.2-.62.51-1.24.52-1.86.03-1.54.75-2.71,1.78-3.86.55-.18,1.15-.43,1.78-.58,2.32-.53,3.61,1.05,4.86,2.53,1.03,1.23,1.56,2.7,1.18,4.34-.43,1.87-.82,3.75-1.39,5.57-.92,2.94-2,5.83-2.97,8.76-.39,1.2-.63,2.44-.98,3.65-1.14,3.84-2.32,7.67-3.45,11.51-.42,1.43-.82,2.87-1.03,4.34-.23,1.67-.48,3.3-.94,4.94-.26.93.22,2.07.69,3.09-.11.64-.14,1.3-.35,1.9-.43,1.25-1,2.19-2.65,2.37-1.57.17-3.08.96-4.58,1.54-1.88.74-3.76,1.35-5.84,1.18-1.41-.12-2.51-.56-3.11-1.93-.18-.41-.38-.87-.7-1.16-1.36-1.22-1.16-2.73-.59-4.12.53-1.28.37-2.29-.16-3.51-.85-1.94-1.45-3.99-2.16-5.99-.13-.36-.23-.74-.45-1.04-1.88-2.53-2.98-5.41-4.02-8.35-.38-1.08-1.02-2.07-1.66-3.32.23-1.93-1.45-3.52-1.83-5.82-.36.44-.63.63-.7.88-1.11,3.64-2.1,7.32-3.31,10.92-1.56,4.65-3.16,9.29-5,13.83-1.47,3.63-3.35,7.1-5.01,10.66-.55,1.18-1.68,1.52-2.69,2.09-1.78,1-3.46.84-5.19-.23-.21-.77-.42-1.57-.64-2.39.77-2.78,1.46-5.61,2.35-8.37,1.36-4.23,2.78-8.45,4.33-12.61,2.22-6,4.6-11.95,6.86-17.94,1.71-4.54,3.34-9.12,5.02-13.67.36-.97.82-1.9,1.18-2.86.32-.84.56-1.71.99-3,1.1-.45,2.56-1.11,4.06-1.65.84-.31,1.66-.02,2.37.52.99.74,1.98,1.47,2.97,2.2.92,2.13.53,4.26-.01,6.38-.05.19-.14.37-.14.56.04,3.68-.3,7.41.65,11,.82,3.13,1.96,6.17,2.95,9.25.26.8.41,1.64.72,2.42.19.46.59.84.69,1.32.55,1.46,1.1,2.92,1.65,4.38.16-.04.32-.09.47-.13Z"/><path class="cls-1" d="m569.37,106.78c-.91-1.25-1.77-2.43-2.67-3.67.32-2.25,1-4.34,2.54-6.15,1-1.18,1.82-2.52,2.61-3.85,1-1.67,1.86-3.41,2.83-5.1.78-1.36,4.17-2.71,5.66-2.31,2.16.58,3.55,2.46,3.6,4.74.03,1.58-.22,3.08-1.07,4.42-.76,1.2-.53,2.77-1.58,3.88-.68.72-1.17,1.63-1.95,2.74.03,2.55-1.58,5.02-2.39,7.84,1.26.35,2.18-.38,2.93-1.04,1.1-.96,2.4-1.49,3.65-2.15,1.2-.63,2.35-1.37,3.55-2.01,1.48-.8,2.95-1.65,4.5-2.29,2.15-.89,5.46,1.28,5.6,3.56.02.32.04.65.05.99-.05.1-.09.21-.15.33-1.12,2.28-3.05,3.69-5.34,4.5-1.94.68-3.55,1.84-5.27,2.87-1,.6-2.07,1.07-3.08,1.64-.49.28-.91.66-1.52,1.11,1.57,1.33,3.15,2.37,4.34,3.74,1.6,1.83,3.17,3.78,3.33,6.43,1.21-.09,1.67-1.08,2.45-1.6.81-.53,1.72-.9,2.56-1.33.74.06,1.45.17,2.15.15,2.1-.05,3.62,1.17,4.06,3.28.03.16.18.31.38.64,1.82-1.76.44-3.94,1.09-5.86.95-.93,1.84-2.12,3.49-2.39.9-.15,1.24-1.01,1.4-1.91.85-4.76,1.7-9.53,2.63-14.27.19-.98.58-2.02,1.17-2.8,1.06-1.39,2.32-1.66,4.61-1.28.89,1.08,1.91,2.31,2.75,3.33-1.22,4.83-2.28,9.34-3.53,13.79-.49,1.73-1.49,3.31-2.12,5-.33.88-.45,1.86-.5,2.81-.08,1.47-.02,2.96-.02,4.36,1.03.24,1.88.43,2.94.68.22,1.87,2.3,3.03,2.05,5.41-1.44,1.13-2.95,2.33-4.55,3.58.23.48.46,1,.71,1.51.78,1.59.49,2.99-.73,4.24-2.42,2.47-5.17,3.61-8.58,2.18-.36-.15-.74-.33-1.11-.33-2.15,0-3.23-1.32-3.98-3.11-.72-1.71-2.14-3.13-2.21-4.94.47-1.14.88-2.13,1.34-3.26-2.86.61-5.31,1.4-7.45,3.11-1.95,1.55-4.19,1.19-6.13-.64-.38-.35-.72-.75-1.19-1.24.1-.74.18-1.57.33-2.39.14-.76.37-1.5.55-2.21-.08-.16-.1-.33-.19-.38-2.02-.97-3.02-2.73-3.67-4.74-.34-1.04-.93-1.86-1.84-2.42-1.1-.68-2.19-1.41-3.38-1.9-.78-.33-1.72-.29-2.71-.43-.35.98-.68,1.8-.93,2.65-1.18,4.1-2.34,8.2-3.5,12.31-1.16,4.1-2.3,8.21-3.47,12.31-.18.62-.49,1.2-.68,1.82-.78,2.52-2.67,3.49-5.11,3.72-.32.03-.64.08-1.16.15-.62-.98-1.32-1.98-1.9-3.05-.6-1.1-.68-2.33.13-3.31,1.78-2.18,2.45-4.84,3.35-7.38.83-2.37,1.4-4.83,2.08-7.25.86-3.03,1.74-6.05,2.57-9.09,1.61-5.93,3.24-11.86,5.68-17.76Z"/><path class="cls-1" d="m630.83,143.35c1.44,2.02,2.21,4.1,1.8,6.72-1.75,1.41-3.32,3.61-6.54,2.92-3.31-2.1-3.9-5.37-3.26-9.11.49-.99,1.41-1.15,2.5-1.21.06-2.17.03-4.29.22-6.4.21-2.31.52-4.63.96-6.91.6-3.04,1.37-6.05,2.07-9.06.71-3.06,1.4-6.13,2.17-9.18.68-2.67,1.47-5.31,2.21-7.97.07-.25.17-.53.12-.77-.4-2.15.94-3.7,1.89-5.36.27-.47.8-.83,1.28-1.15.81-.53,1.68-.98,2.52-1.46,2.74.14,4.5,1.96,4.67,4.65.17,2.51.48,5.01.69,7.52.06.64,0,1.3,0,1.95,0,.45-.16.97.01,1.35.62,1.39.67,2.86.94,4.31.47,2.53,1.28,5,2.01,7.48,1.06,3.6,2.35,7.1,4.13,10.42.73,1.36,1.24,2.83,1.93,4.45.32-.52.7-.9.81-1.35.46-1.88.75-3.8,1.27-5.66.51-1.82.38-3.59-.09-5.2.85-1.04,1.56-1.92,2.35-2.89-.67-.92-1.23-1.69-1.81-2.48-.4-2.94.45-5.77,1.16-8.56.7-2.74,1.78-5.38,2.7-8.07-.94-.85-1.85-1.66-2.77-2.49.05-.35,0-.74.16-.97,2.56-3.59,5.56-6.64,9.85-8.17,1.95-.7,3.84-.23,5.73.1,1.23,2.01,1.17,2.63-.33,4.34-.55.63-1.08,1.29-1.61,1.93.09.86.15,1.69.26,2.52.24,1.94-.57,3.54-1.64,5.03-1.92,2.65-2.65,5.59-2.29,8.81.21,1.86.55,3.72.67,5.59.09,1.44.68,2.59,1.7,3.99-.64,2.96-1.32,6.15-1.96,9.12,1.14,1.47,2.15,2.77,3.05,3.94,0,1.63-.03,3.04.02,4.45.02.51.16,1.03.33,1.5.83,2.25.27,4.01-1.78,5.2-.84.49-1.76.83-2.66,1.18-.89.35-1.81.65-2.98,1.06-1.17-.08-2.64-.18-4.12-.26-1.47-.09-2.94-.14-4.41-.24-1.6-.11-2.94-.82-4.13-1.85-.16-1.72-.31-3.4-.49-5.31-.34-.3-.84-.72-1.31-1.16-3.96-3.64-6.36-8.28-8.22-13.2-1.3-3.43-2.22-7-3.33-10.5-.15-.48-.35-.94-.59-1.6-.91,1.04-.85,2.16-1.06,3.17-.62,2.9-1.25,5.8-1.77,8.72-.41,2.28-.68,4.58-1.02,6.87-.09.62-.23,1.23-.35,1.85-.08.45-.28.91-.21,1.34.34,2.16-.41,4.06-1.43,6.06Z"/><path class="cls-1" d="m274.17,95.87c-1.08.94-1.99,1.72-2.9,2.5.03.1.06.2.1.3,1.11-.12,2.22-.24,3.33-.36.39-.04.77-.12,1.16-.14,3.04-.18,6.08-.31,9.11-.53,2.06-.15,4.13-.37,6.17-.68.74-.11,1.47-.51,2.11-.93,1.24-.81,2.36-1.82,3.64-2.55,1.72-.98,3.52-1.91,5.85-1.29,1.89-3.46,4.55-5.73,9.08-4.75,1.04,1.36,3.15,2.1,3.71,4.55-.29,2.09-1.18,4.15-3.38,5.46-.32.19-.71.48-.82.81-.78,2.26-2.62,3.79-3.87,5.72-.25.38-.57.76-.66,1.18-.4,1.86-1.82,2.9-3.14,4.05-1.48.15-2.95,1.14-4.33.11-.97.72-1.76,1.54-2.72,1.94-.91.38-2.01.32-3.24.48-1.23-1.08-2.6-2.29-4.05-3.56.09-.31.21-.73.3-1.02h-5.3c-.04.13-.08.26-.12.4.72.57,1.44,1.14,2.17,1.71.13,1.13.26,2.22.38,3.35-.82.93-1.63,1.85-2.79,3.17-.42,2.9-.75,6.3-1.44,9.61-.51,2.44-1.49,4.77-2.26,7.16-.16.49-.26.99-.41,1.48-.29.91-.53,1.85-.9,2.73-.67,1.58-1.42,3.14-2.17,4.77.85.55,1.52,1.05,2.25,1.45,1.7.93,2.24,2.43,2.1,4.23-.14,1.73-1.05,3.07-2.57,3.85-1.27.64-2.52,1.21-3.66,2.13-.71.58-1.97.84-2.9.7-1.62-.25-3.28-.68-4.5-1.99-.48-.51-1.04-.94-1.68-1.5-.27-.52-.62-1.2-.91-1.75.12-1.05.24-2.03.39-3.3.94-1.77,3.24-1.83,5.03-2.6.67-3.03,1.29-5.91,1.94-8.79.63-2.81,1.56-5.57,1.54-8.08.26-1.25.6-2.12.59-2.98,0-3.19.88-6.3.87-9.5,0-.81.6-1.66,1.03-2.43.52-.94,1.15-1.81,1.71-2.69-.28-.23-.38-.37-.47-.37-2.09.1-4.17.3-6.26.56-2.05.26-4.18.38-6.2.07-2.16-.33-4.01-.43-5.28,1.64-1.49-.12-2.86-.21-4.21-.35-1.84-.2-3.01-1.54-3.08-3.49-.03-.84,0-1.68,0-2.51,1.59-1.43,2.19-3.24,2.41-5.21,1.17-1.09,2.31-2.16,3.45-3.22,1.1-1.03,2.25-1.86,3.84-2.05,1.24-.15,2.24-.8,3.01-1.9.9-1.27,2.17-2.19,3.58-2.72.86.17,1.61.37,2.37.45,1.34.15,2.15.92,2.39,2.15.28,1.45.37,2.93.56,4.54Z"/><path class="cls-1" d="m310.42,145.32c.36-.27.55-.5.78-.57,2.52-.82,2.54-2.76,2.26-4.87-.07-.56-.01-1.13-.01-1.59,1.64-1.11,2.69-2.62,3.68-5.3-.66-.04-1.27-.16-1.86-.1-2.32.24-4.63.56-6.95.82-2.06.23-4.13.4-6.18.67-1.08.14-2.14.48-3.22.6-1.07.12-1.57.8-1.95,1.65-1.47,3.22-2.91,6.47-3.68,9.93-.32,1.42-.5,2.87-.92,4.29-.42,1.41-1.12,2.61-2.15,3.61-.34.33-.89.55-1.36.61-1.64.19-3.44-.84-4.13-2.33-.52-1.11-1.04-2.23-1.46-3.38-.21-.57-.19-1.23-.28-1.9.84-.58,1.77-.95,2.25-1.64.47-.67.4-1.69.7-2.5.93-2.48,1.93-4.94,2.86-7.28-.87-1.35-2.71-1.11-3.28-2.48-.52-1.25-.86-2.57-1.26-3.8.51-.59.89-1.11,1.34-1.56.65-.65,1.38-1.05,2.37-1.13,1.35-.12,2.66-.56,4.01-.73.91-.11,1.35-.54,1.67-1.34,1.02-2.51,2.08-5.01,3.13-7.51.94-2.22,2.2-4.22,3.89-5.88,2.83-.32,4.72,1.46,4.11,4.11-.64,2.82-1.62,5.56-2.44,8.33-.04.12-.04.25-.09.62,1.64.08,3.22-.24,4.74-.63,2.73-.7,5.52-.8,8.29-.86,1.78-.04,3.56.39,5.69.66,1.92-3.75,3.49-7.96,5.07-12.16,1.56-4.14,2.95-8.35,4.39-12.49,2.86-.47,5.49.92,6.6,3.38.86,1.9,1.11,3.75.12,5.72-.42.84-.38,1.9-.7,2.81-.78,2.22-1.58,4.44-2.49,6.61-.83,2-2.06,3.88-2.63,5.94-.52,1.86-1.33,3.57-2,5.35-.7,1.88-1.62,3.67-2.31,5.56-.35.95-.4,2.01-.6,3.13,1,2.18,2.05,4.47,3.07,6.68-1.01,3.72-1.24,4.05-3.87,5.52.18,1.45.37,2.94.59,4.62-1.08,1.03-2.32,2.2-3.4,3.22-1.97-.03-3.56-.15-4.86-1.45-.55,0-1.13-.04-1.71,0-2.31.17-3.65-1.13-4.74-2.96-.87-1.45-1.17-2.97-1.09-4.62.05-1.1,0-2.2,0-3.39Z"/><path class="cls-1" d="m1019.93,101.7c.17.82.24,1.67.52,2.46,1.14,3.21,1.64,6.57,2.45,10,.92-.54,1.81-1.03,2.66-1.57.86-.54,1.67-.56,2.5.07.88.66,1.78,1.3,2.42,1.76.72,1.73.16,3.05-.29,4.41-.97,2.95-1.61,5.93-1.09,9.09.19,1.19.03,2.44.03,3.9.27.18.65.59,1.09.69.87.19,1.8.09,2.65.33.79.22,1.5.73,2.46,1.23.57.73,1.28,1.65,2.14,2.75-.3,1.06-.59,2.24-.98,3.37-.37,1.08-1.21,1.75-2.14,2.4-1.21.85-2.28,1.91-3.44,2.84-2.01,1.62-3.99,3.29-6.09,4.78-.98.7-2.2,1.04-3.11,1.45-3.23-.25-4.63-2.34-5.71-4.8-.21-.47-.46-.92-.74-1.49,1.86-1.83,2.25-4.26,2.34-6.74.85-.52,1.63-1,2.42-1.48-.42-1.71-1.01-3.1-2.21-4.2.51-1.6-.24-3.03-.6-4.53-1.06-4.51-2.03-9.04-3.09-13.56-.81-3.45-1.69-6.88-2.56-10.32-.08-.3-.27-.57-.53-1.09-2.62,3.8-5.17,7.49-7.68,11.13,1.81.71,3.57,1.41,5.44,2.15.22.89.42,1.75.64,2.64-1.87,1.54-3.98,2.33-6.14,2.91-1.92.52-3.9.78-6.02,1.18-1.2,2.07-2.39,4.13-3.6,6.18-.55.94-1.19,1.82-1.7,2.78-.76,1.42-1.6,2.82-2.1,4.34-.68,2.06-2.04,3.48-3.7,4.7-.57.42-1.2.76-1.81,1.13-1.52-.07-3.04-.18-4.31-1.21v-6.1c2.49-.78,3.14-3.1,4.3-4.97,1.74-2.81,3.39-5.67,5.1-8.49.29-.48.71-.89,1.12-1.39-.22-.58-.47-1.24-.76-1.99,1.43-1.46,2.45-3.34,4.48-3.94,1.17-1.69,2.52-3.17,3.31-4.91.89-1.96,2.56-3.27,3.6-5.1,1.04-1.85,2.52-3.45,3.75-5.19,1.15-1.63,2.28-3.22,2.71-5.29.76-3.57,3.82-4.9,6.04-4.35,1.15.29,2.22,1.01,3.26,1.63.6.36,1.09.9,1.75,1.47.11,1.85.13,3.79.36,5.7.13,1.13.58,2.22.89,3.33,0,0-.05-.08-.05-.08Z"/><path class="cls-1" d="m942.41,97.66c-1.26-1.59-1.22-3.27-1.05-4.96.19-1.87,1.79-2.54,3.1-3.55,1.52-.16,3.11-.32,4.68-.49.92,1,1.75,1.88,2.59,2.79.26,1.08.91,2.27.73,3.32-.59,3.39,1.63,5.85,2.69,8.64,2.49,6.56,5.35,12.98,7.4,19.7.07.24.25.44.53.91,1.29-2.41,2.48-4.66,3.71-6.9.36-.67.8-1.29,1.22-1.93.28-.43.61-.83.87-1.28,2.75-4.69,5.51-9.37,8.22-14.08.32-.56.34-1.28.49-1.91.25-.06.54-.14.95-.25-.27-.75-.5-1.39-.73-2.03.15-2.78,1.43-5.17,2.61-7.6.55-1.12,1.35-1.73,2.64-1.97,4.97-.95,8.37,3.75,7.25,8.01-.07.25-.13.5-.22.88-1.71,1.21-3.49,2.47-5.18,3.67.46,1.7.92,3.35,1.35,4.95-3.58,6.01-7.07,11.88-10.49,17.64,1.48,1.23,2.81,2.33,4.02,3.34.43,1.76,1.24,3.31.69,4.57-1.1,1.22-1.87,2.15-2.72,3-1.05,1.04-2.11,2.08-3.28,2.95-.49.36-1.3.29-2.17.45.5.97.98,1.9,1.36,2.63v3.6c-.74.5-1.62,1.31-2.65,1.76-2.22.97-4.47,1.9-6.99,1.86-1.56-.03-2.73-.68-3.76-1.75-1.39-1.45-2.78-2.89-4.16-4.33-.17-3.47-2.18-6.33-3.16-9.6.13-1.63,1.79-2.15,2.58-3.12-.73-2.46-1.19-4.88-2.17-7.06-1.54-3.45-2.37-7.18-4.29-10.47-.61-1.04-.92-2.26-1.34-3.41-.72-1.92-1.35-3.87-2.16-5.75-.31-.71-.77-1.47-1.75-1.62-.49-.08-.95-.4-1.38-.6Z"/><path class="cls-1" d="m544.21,132.15c-.96-.56-1.87-1.16-2.84-1.66-4.1-2.15-7.2-6.52-7.49-11.1-.13-2.11.21-4.24,1.2-6.24,1.52-3.06,3.59-5.7,5.74-8.31,3.6-4.37,7.89-8.06,11.88-12.05.54-.54.92-1.24,1.43-1.81.6-.67,1.17-1.42,1.91-1.9,1.65-1.06,3.52-.76,4.95.61,2.08,1.99,2.3,3.53,1.36,6.3-.67,1.97-2.11,3.18-3.53,4.49-4.33,4.03-8.69,8.03-12.91,12.17-1.41,1.39-2.5,3.12-3.64,4.76-.71,1.03-1.07,2.21-.7,3.99.12.09.56.49,1.05.78,1.44.86,2.98,1.59,4.34,2.55,1.36.96,2.56,2.15,4.2,3.57,1.1-.06,2.71-.15,4.55-.26,2.05.86,2.66,3.04,3.45,5.06.17.43.1,1.07-.1,1.5-.49,1.06-.97,2.17-1.72,3.04-2.02,2.37-4.16,4.63-6.27,6.93-1.15,1.25-2.65,1.53-4.5,1.46-1.69,1.88-3.48,3.85-5.23,5.84-.81.93-1.58,1.89-2.34,2.87-.9,1.17-1.68,2.37-2.14,3.85-.41,1.32-1.39,2.47-2.14,3.67-.37.6-.98,1.11-1.18,1.75-.54,1.69-1.74,2.84-2.93,4.03-.78.78-1.5,1.61-2.43,2.61-.26.02-.77.14-1.27.1-1.68-.12-3.27-.15-4.93.53-1.87.77-3.5-.31-4.98-1.54-.12-.48-.26-.98-.35-1.48-.28-1.53-.14-2.94,1.07-4.11.4-.38.6-.96.91-1.47.61-.18,1.31-.29,1.9-.59.61-.32,1.13-.82,1.94-1.44-.62-.12-.91-.18-1.2-.23,2.92.07,4.7-2.32,7.13-3.2.27-1.14.46-2.22.78-3.25.87-2.81,2.2-5.3,4.43-7.35,1.7-1.57,3.02-3.55,4.66-5.2,2.45-2.47,3.73-5.71,5.83-8.39.1-.13.07-.37.14-.88Z"/><path class="cls-1" d="m400.79,96.94c.08,1.5.16,2.65.19,3.81.01.5-.06,1.01-.13,1.51-.05.38-.25.75-.22,1.12.27,3.39-1.05,6.46-2.16,9.51-.99,2.71-1.52,5.45-1.75,8.29-.08.97-.31,1.93-.32,2.89,0,.89.19,1.78.55,2.46l3.95,3.59c-.05.06-.1.11-.15.17.94.41,1.88.81,2.93,1.26.33,1.34.65,2.7,1.01,4.05.27,1,.09,1.9-.46,2.76-1.16,1.83-2.48,3.44-4.76,3.96-1.06.24-2.07.68-3.05,1.01-.81-.28-1.54-.56-2.29-.78-1.76-.5-2.64-1.8-3.12-3.43-.52-1.8-1.11-3.59-1.47-5.43-.46-2.33-.73-4.69-.98-7.05.27-1.24,2.08-1.8,1.44-3.53-5.91,1.52-11.85,2.57-17.91,3.05-.24.23-.51.42-.7.67-1.73,2.24-3.37,4.56-5.19,6.73-1.45,1.74-2.97,3.49-4.74,4.87-.91.71-2.44.61-3.82.9-.83-1.06-1.56-2.01-2.21-2.84.93-3.36,2.96-5.79,4.87-8.29,1.06-1.39,2.21-2.7,3.26-4.09,4.09-5.41,9.1-9.95,13.96-14.62,2.2-2.12,4.45-4.2,6.82-6.11,3.52-2.83,6.91-5.89,11.26-7.52,2.22-.83,3.76-.59,5.19,1.07Zm-10.15,18.21c.37-1.08.75-2.22,1.07-3.15-.56-1.19-1.01-2.17-1.57-3.38-3.26,2.21-5.72,5.14-8.41,7.96,2.86-.46,5.72-.91,8.92-1.43Z"/><path class="cls-1" d="m1097.2,113.15c1.35-1.27,2.57-2.51,3.9-3.62,1.96-1.64,4.13-2.89,6.74-3.23,1.67-.22,3.33-.68,4.99-.68,2.82,0,5.22.98,7.03,3.38.65.86,1.23,1.77,1.84,2.65.72,1.03.74,2.18.52,3.35-.47,2.42-1.54,4.57-2.58,6.8-1.73,3.7-4.27,6.51-7.31,9.15-1.95,1.7-4.13,2.93-6.3,4.15-3.5,1.97-7.77,1.2-10.53-1.65-.64-.66-.95-1.65-1.33-2.52-.81-1.87-1.26-3.77-.82-5.86.3-1.45.33-2.95.41-4.44.13-2.24,1.27-4.04,2.42-5.86.37-.58.73-1.16,1.02-1.63Zm4.6,13.67c.76-.34,1.45-.53,2.01-.91,2.34-1.61,4.79-3.08,6.78-5.16.71-.75,1.44-1.5,2.24-2.15,1.64-1.32,2.87-2.92,3.69-4.86.6-1.42.57-1.6-.76-2.71-1.73-.17-3.38.03-4.87.99-.65.42-1.33.8-1.92,1.29-1.57,1.31-3.26,2.49-3.93,4.63-.3.94-1.1,1.7-1.54,2.61-.9,1.87-2.39,3.58-1.72,6.27Z"/><path class="cls-1" d="m1080.71,113.34c.64-.48,1.26-.94,1.85-1.38,2.75.62,5.02,3,5.29,5.58.04.42-.12.89-.27,1.3-.44,1.15-.92,2.28-1.38,3.42-.19.48-.53.96-.55,1.44-.08,2.04-1.07,3.81-1.55,5.72-.47,1.87-1.09,3.71-1.56,5.58-.67,2.66-1.27,5.34-1.86,8.02-.11.5.01,1.04-.04,1.55-.06.54-.2,1.06-.36,1.87.84,1.43,3.38,1.67,3.63,4.43-.18.66-.49,1.83-.82,3.07-2.36,1.09-4.58,2.5-7.19,2.91-1.4.22-2.84.2-4.27.24-.98.03-1.52-.65-1.97-1.38-.55-.88-1.06-1.77-1.58-2.64.15-2.55,1.57-3.98,4.12-4.35.05-.79.06-1.43.13-2.06.13-1.28.24-2.57.45-3.85.47-2.74.97-5.47,1.54-8.18.22-1.06,1-2.09.97-3.11-.06-1.79.62-3.36.98-5.02.9-4.18,2.06-8.29,4.01-12.14.17-.34.3-.7.43-1.03Z"/><path class="cls-1" d="m1036.97,149.1c.13-.88.25-1.76.4-2.63.37-2.13,1.22-4,3.39-5.62.25-1.11.55-2.62.95-4.1.18-.67.85-1.3.82-1.93-.06-1.3.55-2.36.81-3.53.27-1.21.75-2.17,1.89-3.02h1.83c3.83,1.39,4.66,5.48,3.85,8.97,1.07-.43,1.99-.8,2.99-1.21,1.09.39,2.24.8,3.23,1.16.87,1.04,1.65,1.97,2.61,3.12.13.52.22,1.39.57,2.13.79,1.66.13,3.16-.33,4.69-.1.33-.47.63-.79.82-.77.47-1.55,1.02-2.4,1.27-3.99,1.17-7.64,3.14-11.47,4.69-.36.15-.72.29-1.09.42-2.12.78-4.22.26-5.5-1.55-.8-1.13-1.39-2.4-2.08-3.61l.31-.07Z"/><path class="cls-1" d="m605.95,86.15c-1.41-1.63-1.01-3.5-1.37-5.2.74-1.39,2.06-2.18,3.42-2.93,2.95-1.63,5.92-3.21,8.83-4.9,2.41-1.41,5.42-.74,6.83,2.19.33.69.62,1.41.88,2-.53.84-.99,1.52-1.41,2.22-1.1,1.8-2.88,2.76-4.61,3.78-2.46,1.44-4.95,2.84-7.2,4.12-2.2.5-3.69-.77-5.37-1.27Z"/><path class="cls-1" d="m161.52,60.17c1.34.08,2.72.16,3.98.23.81,1.75-1.6,2.18-.98,3.76.56-.06,1.21-.13,1.95-.21.03,1.09-.73,1.39-1.32,1.95-.37-.33-.69-.61-1.16-1.02-.71.51-1.45,1.03-2.28,1.62-1.38-.84-.36-1.94-.15-3.04-.45-.38-.91-.76-1.56-1.31.5-.3.91-.45,1.15-.73.2-.24.21-.65.37-1.24Z"/><path class="cls-1" d="m221.85,113.91c-.45.2-.92.42-1.62.74-.51-.1-1.41-.28-2.32-.46.02-.08.03-.17.05-.25.59-.19,1.18-.37,2.02-.64-.9-.58-2.32-.09-2.17-1.57,1.68-.24,2.98.19,4.04,2.17Z"/><path class="cls-1" d="m161.66,67.37h2.14c.42.61.8,1.17,1.31,1.9h-2.65c-.27-.66-.51-1.22-.79-1.9Z"/><path class="cls-1" d="m780.36,86.46c-.05.46-.1.82-.13,1.15-.58.34-1.68-.35-2.24-1.34,1.26-.2,2.5-.39,3.86-.6-.05.49-.08.72-.12,1.06-.5-.1-.9-.18-1.36-.27Z"/><path class="cls-1" d="m375.69,88.39c-.31-.49-.51-.74-.63-1.03-.07-.16-.01-.38-.01-.73.81-.09,1.61-.18,2.48-.27.07,1.52-1.51,1.01-1.83,2.04Z"/></svg>