<?xml version="1.0" encoding="UTF-8"?><svg id="Layer_1" xmlns="http://www.w3.org/2000/svg" viewBox="0 0 886.05 509.3"><defs><style>.cls-1{stroke-width:0px;}</style></defs><path class="cls-1" d="m524.14,59.09c1.52-3.12,2.97-6.1,4.37-8.96,3.73-1.89,6.95-1.5,9.75,1.8,0,2.8-2.52,4.74-3,7.47,2.22.4,4.33.74,6.44,1.16,3.17.63,6.38,1.13,9.48,2.01,1.94.55,3.78.65,5.69.24,2.43-.52,4.69-.08,6.88.98,1.09.53,2.24.96,3.78,1.62.47.85,1.17,2.12,1.88,3.41-.16,2.06-1.73,3.28-2.94,4.78-4.22,5.23-11.25,3.7-14.57-.04-2.05.22-4.19.38-6.31.69-3.57.52-7.13,1.12-10.68,1.7-1.6.26-3.19.53-4.77.86-.85.18-1.67.52-1.45,1.94.55.26,1.22.61,1.92.89,5.39,2.14,10.85,4.15,15.98,6.89,1.63.88,3.35,1.64,4.86,2.69.97.68,1.69,1.76,2.44,2.71.37.47.58,1.07.8,1.5,1.02.59,1.94.56,2.81.14,3.37-1.61,6.06-.02,8.24,1.27.87,2.16,1.52,3.69,2.09,5.26.47,1.28.83,2.6,1.19,3.75-1.65,1.64-3.02,3.1-4.51,4.43-.67.6-1.55.98-2.36,1.4-1,.52-2.08.88-3.03,1.47-1.75,1.09-3.52,1.77-5.67,1.66-2.98-.15-5.2-1.38-6.65-3.95-.56-1-1.29-1.67-2.38-2.05-2.18-.76-3.97-2.05-4.97-4.32.2-.83.41-1.72.62-2.57,1.07-1.7,3.58-1.09,4.64-3.05-1.49-1.3-1.39-2.76-.23-4.34-.33-.25-.58-.58-.91-.68-4.11-1.27-7.91-3.41-12.15-4.34-.81-.18-1.53-.69-2.32-.96-.79-.28-1.63-.58-2.57.18,0,.57.04,1.25,0,1.92-.1,1.45-.25,2.86-.92,4.22-.52,1.07-.86,2.33-.91,3.52-.21,4.56-1.43,8.95-2.1,13.43-.29,1.89-.29,3.83-.42,5.75-.15,2.16-.14,4.36-.52,6.48-.52,2.92-2.69,5.24-6.05,4.48-1.97-.45-3.7-.93-4.59-2.95-.15-.33-.51-.57-.83-.92,3.26-9.79,2.73-20.23,5-30.22.08-.35-.13-.76-.2-1.14,2.02-2.39,1.11-5.8,3.27-8.32-2.15-.84-3.55-2.44-5.96-2.99.17,1.18.29,1.97.41,2.75q-1.01-.21-.86-2.23c-.69.33-1.26.59-1.97.93-.64-.31-1.39-.68-2.15-1.05.1-.23.23-.52.44-1.01-.86-.08-1.58-.14-2.39-.22-.43-.84-.87-1.72-1.39-2.73.87-.35,1.61-.64,2.16-.85.63-.99-.56-2.05.54-2.72,1.33-.09.95.87.99,1.61,1.19.43,1.76-.52,2.52-1.15.16.13.32.26.56.46.02,0,.2.11.26.06,2.21-1.73,5.02-1.89,7.56-2.64,2.03-.59,2.34-1.83,2.77-3.52-3.45-.37-6.65-1.1-8.7-4.41-2.92,3.12-6.66,3.7-10.67,3.63-.47-.35-1.01-.76-1.53-1.15-1.27-.03-1.8.94-2.3,1.76-.61,1.01-1.47,1.5-2.51,1.9-.85.33-1.71.75-2.43,1.3-4.16,3.21-8.1,6.67-11.78,10.43-.29.3-.46.73-.86,1.37,3.4-.26,6.47.74,9.64-.34,3.46-1.18,6.9-1.13,9.66,2.44-.19.63-.46,1.55-.79,2.65-1.97.69-3.96,1.52-6.02,2.06-3.2.84-6.44,1.55-9.69,2.17-2.56.5-5.16.75-7.74,1.19-1.1.18-2.22.42-3.24.86-.89.39-1.74.95-2.07,2.06-.35,1.18-.79,2.34-1.29,3.46-1,2.24.12,4.02,1.26,5.75.35.53,1.01.98,1.62,1.2,1.8.65,3.6,1.32,5.61,1.13,2.69-.24,5.45-.17,7.95-1.38,1.43-.7,2.77-1.59,4.31-2.49,1.56-.32,3.37-.64,5.15-1.09,2.07-.51,4.09-.58,6.13.11.51.17,1.03.31,1.53.46q2.87,4.45,2.82,6.89c-2.72,4.02-6.77,6.06-11.4,7.15-1.29.3-2.61.25-3.83-.46-1.24-.72-2.67-.95-3.81-2.04-1.03-.99-2.61-.61-4.01-.52-2.07.14-4.15.15-6.23.2-.23,0-.46-.15-.68-.13-4.65.42-8.47-1.64-11.79-4.44-3.19-2.69-5.45-6.13-5.06-10.65.06-.65.39-1.31.69-1.91.8-1.6.81-3.04-.38-4.52-.95-1.19-1.32-2.77-2.57-3.82-.39-.33-.41-1.11-.61-1.74,1.19-1.92,3.11-2.23,5.02-2.36,1.85-.13,3.72-.03,5.72-.03,3.57-3.65,7.06-7.49,10.85-11,3.74-3.47,7.77-6.61,11.56-9.8.12-1.21.21-2.2.32-3.3-.44-.79-.92-1.65-1.49-2.67-4.02.98-7.31,3.56-11.58,4.33-1.52-.78-3.28-1.68-5.22-2.66-.71.37-1.69.81-2.61,1.35-2.75,1.62-5.48,1.57-8.22-.02-.33-.19-.7-.32-1.06-.48-3.14,1.03-5.38.48-7.61-3.3-4.07.4-8.25.81-12.59,1.23.52,3.5-2.34,4.09-4.82,5.23-3.39-.68-6.73-1.8-9.74-3.78-.06-.04-.12-.13-.19-.14-2.68-.24-4.06-2.24-5.5-4.12v-7.13c1.73-1.96,3.75-3.22,6.47-2.73,1.47.26,2.67-.14,3.47-1.31.99-1.47,2.51-1.96,4.02-2.53,1.94-.73,3.9-1.43,6.15-2.26.41.08,1.17.29,1.93.34,3.56.27,4.74,3.32,3.38,6.41-.15.35-.33.69-.53,1.1.07.78.14,1.62.23,2.71.7-.04,1.36-.03,2.01-.13,4.82-.75,9.65-1.33,14.54-1.12,2.28.1,4.19-.42,5.88-2.1.95-.94,2.3-1.56,3.56-2.08,1.25-.52,2.33-1.14,3.24-2.15,1.41-1.55,3.13-2.47,5.33-2.29.84.07,1.69-.12,2.64-.21.82.42,1.73.85,2.6,1.34,2.4,1.36,2.88,2.9,1.75,5.36-.21.47-.37.96-.54,1.39,2.53.39,4.92.77,7.4,1.15.74,1.71,2.69,2.89,1.82,5.18,7.19-.65,14.25-1.78,21.79-.41.5.7,1.5,1.59,1.8,2.68.27.98-.22,2.17-.39,3.34,2.3-.25,4.43-.48,6.68-.73Zm6.95,10.6c2.48-.7,5.08-.55,7.48-1.5-.09-.34-.09-.57-.17-.61-1.97-.83-4.05-1.02-6.07-.43-.9.26-1.66,1.12-1.24,2.54Z"/><path class="cls-1" d="m657.09,271.24c1.21.92,2.25,1.71,3.12,2.37.68,1.6,1.24,3.02,1.89,4.41.61,1.3,1.17,1.69,2.57,1.4,2.87-.6,5.72-1.31,8.54-2.09,1.03-.29,1.9-.94,2.39-2.05.81-1.83,1.76-3.6,2.65-5.4.2-.41.28-.97.6-1.22,2.38-1.82,4.64-4.01,8.05-3.45.15.02.3.06.79.17.88,1.11,1.92,2.43,3.04,3.84,2.14-.9,4.03.78,6.25.82.64.99,1.27,1.96,1.96,3.02-.4,1.44-.82,2.91-1.31,4.66-1.27,1.24-2.82,2.65-3.6,4.78,1.05.9,2.1,1.8,2.68,2.31.6,2.23.19,3.55-.92,4.49.43,1.54.83,2.92,1.29,4.56-.59.81-1.2,1.77-1.95,2.61-.65.73-1.2,1.42-.91,2.58.5.55,1.09,1.16,1.65,1.8,1.14,1.33.77,2.49-.96,2.79-.66.11-1.37-.08-2.06-.11-.3-.01-.6.02-.87.04-.93,2.24-.78,8.66.33,10.87.65-.35,1.49-.55,1.91-1.08,1.49-1.87,3.56-3.2,4.71-5.41.59-1.13,1.71-1.97,2.53-2.99,1.11-1.38,2.15-2.81,3.4-4.44,1.31.38,2.67.78,4.1,1.2.12-.38.48-.9.43-1.38-.28-2.5.47-4.86.85-7.27.39-2.51.74-5.03.72-7.76.48-.39,1.09-.7,1.41-1.2,1.41-2.19,3.7-2.62,5.95-3.08,1.15-.23,2.4-.1,3.2.88.82,1.01,1.72,2.08,2.1,3.28.34,1.07.52,2.41-.39,3.5-.18.21-.19.58-.24.87-.51,2.75-1.14,5.48-1.7,8.22-.32,1.55-.06,3.22-.06,4.71,1.62.63,3.26,1.27,5.3,2.07.3-.11.99-.37,1.66-.63,0-1.72-.03-3.26,0-4.79.09-4.18.93-8.26,1.81-12.32.25-1.17.23-2.4.94-3.51.31-.48.05-1.33.05-2.1-1.47-.35-2.89-.68-4.4-1.04-1.59-1.04-1.77-2.82-1.99-4.52,1.93-2.39,4.68-3.49,7.49-4.9-.72-.66-1.29-.91-2.02-.82-3.41.4-6.43-.54-9.15-2.61-.53-1.5.07-2.71.84-3.82,3.09-1.32,6.3-1.54,9.42-1.11,2.97.41,5.75,1.75,7.91,3.98.67.69,1.02,1.68,1.69,2.81,1.94.5,4.24.49,6.55.58,5.56.19,10.49,1.85,13.97,6.55.78,1.05,1.62,2.06,2.5,3.19.77-.23,1.5-.44,2.39-.7.57.17,1.3.4,1.97.61,2.17,2.94,1.47,5.88.19,8.82-.59,1.34-1.64,2.08-3.12,1.95-1.37-.12-2.73-.38-4.21-.6-2.43,1.58-4.8,3.59-8.2,4.03,2.03,3.61,4.24,6.69,7.33,9.41,1.43-.31,2.99-.7,4.57-.97,2.14-.37,4.14.66,5.17,2.61.4.75.73,1.53,1.11,2.31-.33,2.01-1.54,3.3-3.05,4.68-2.23,2.03-4.8,3.37-7.34,4.83-.93.54-1.85,1.19-2.57,1.97-1.14,1.22-2.4,1.57-4.07,1.71-3.28.27-5.33-1.14-6.84-4.08-.38-1.56.18-3.06,1.43-4.4.51-.55.82-1.3,1.06-1.7-.14-1.83-.06-3.41-.42-4.88-.77-3.11-1.8-6.41-4.51-8.18-2.23-1.46-4.8-3.21-8.14-2.3-1.26,3.42-2.55,6.94-3.99,10.85.49,1.13,2.03,2.52,1.66,4.38-.35,1.71-1.16,3.32-1.81,5.11,1.1,2.76,4.12,4.72,4.22,8.29-.34.51-.77,1.06-1.1,1.66-1.06,1.91-2.77,2.67-4.84,2.62-1.93-.05-3.88-.12-5.78-.44-3-.51-4.82-2.56-6.06-5.2-.35-.73-.64-1.49-1.08-2.51-.78,1.03-.83,1.92-.81,2.69.05,1.69,0,3.48.55,5.04.79,2.26-.1,4.04-.79,5.76-1.8,1.89-4.1,1.62-6.31,2.22-1.46-1.18-2.95-2.39-4.24-3.43-.84-2.7.28-5.36-.92-7.79-1.89.26-3.46,1.52-5.29.76-1.63-.68-3.46-.97-4.69-2.6-1.88,1-3.91,1.38-5.84.73-1.89-.64-3.62-1.75-5.4-2.65-1.88-3.47-2.72-7.07-2.36-10.95.09-1,0-2.01.02-3.02.01-1.23-.17-2.49.62-3.59.13-.18.23-.44.21-.66-.16-2.25.72-4.29,1.49-6.28.78-2.01.09-3.93.44-5.95-1.86-.38-3.6.59-5.17-.59-1.35-1-2.89-1.75-4.57-2.74-.82.31-1.86.7-2.92,1.1.88,1.61,1.64,3.01,2.41,4.41.53.97.51,1.89-.08,2.84-.57.92-1.15,1.86-1.59,2.84-.75,1.69-1.41,3.42-2.1,5.14-.05.14.01.33-.05.46-1.95,4.25-2.54,8.83-3.33,13.37-.06.37-.21.73-.29,1,.63.9,1.4,1.62,1.71,2.5.71,2.06.24,3.65-1.68,4.81-2.44,1.48-5.05,2.67-7.63,3.9-.51.24-1.22.13-1.83.11-.38-.01-.77-.24-1.14-.21-2.64.22-4.64-.93-6.41-3.09-.07-.56-.18-1.39-.3-2.38,2.36-2.38,5.55-3.61,8.32-5.47.07-.81.2-1.5.18-2.18-.09-4.14.79-8.11,1.9-12.05.25-.87.21-1.82.39-2.72.58-2.94,1.01-5.94,3.35-8.18.74-.71.73-1.65.64-2.54-1.09-1.18-2.42-.51-3.59-.66-1.15-.14-2.31-.22-3.79-.35-1.05,1.51-2.22,3.19-3.69,5.29-3.69,2.26-6.34,3.91-11.27-2.35.13-.55.19-1.33.49-2,1.06-2.38,2.21-4.71,3.17-7.14.92-2.35,2.34-4.5,3.54-6.74.48-.89.96-1.77,1.51-2.76,1.92-1.14,4.01-2.08,6.47-1.99Zm81.68,14.29c1.76.61,3.23.89,4.47,1.6,2.17,1.24,4.34,1.49,6.7.83.82-.23,1.7-.26,2.5-.53,2.22-.77,4.44-1.59,4.77-4.35-1.26-3.23-3.53-5.07-6.9-5.54-1.46-.2-2.91-.49-4.37-.58-1.12-.07-2.26.11-3.54.19-.07.94-.15,1.62-.15,2.3,0,1.3-.4,2.35-1.42,3.27-.78.7-1.27,1.71-2.06,2.8Z"/><path class="cls-1" d="m360.99,168.53c1.03.35,1.67.61,2.33.79,2.88.78,4.27,2.76,4.65,5.62.41,3.14.82,6.27,1.32,9.39.26,1.58.74,3.12,1.08,4.69.11.51.09,1.05.14,1.67,3.54,1.6,5.31,4.4,5.39,8.29.02.93.11,1.86,1.07,2.4,1.07-.79,2.11-1.56,3.06-2.26,1.36-.07,2.59-.13,3.99-.2,2.79-8.22,6.53-16,9.15-24.11-.41-.78-.73-1.39-1.1-2.09.19-.55.38-1.13.58-1.7.36-1.02.85-2.02,1.07-3.07.53-2.5.48-2.51,1.9-4.23,1.43-.2,3.01-.42,4.6-.64,1.67,1.57,3.3,3.11,4.87,4.6.51,1.63.86,3.19.51,4.82-.24,1.11-.59,2.12-1.21,3.15-2.21,3.68-4.92,7.04-6.56,11.11-1.61,4-3.78,7.77-5.68,11.64-.47.96-.88,1.94-1.44,3.17,1.11.52,2.06.97,2.92,1.37,3.84-1.55,7.58-3.1,11.36-4.54,1.37-.52,2.82-.82,4.26-1.11,2.09-.42,3.94-1.16,5.39-2.84.7-.8,1.64-1.45,2.58-1.95.77-.4,1.71-.58,2.59-.66.83-.07,1.69.12,2.5.19.92.59,1.87,1.11,2.7,1.77,2.47,1.98,4.04,4.28,3.93,7.74-.13,4.37-1.65,8.29-2.96,12.33-.69,2.12-1.24,4.28-1.76,6.45-.11.45.18,1,.27,1.42-.29,1.31-.56,2.58-.9,4.09-.84,1.39-2.54,2.01-4.22,2.86-.36-.07-.81-.25-1.25-.24-2.12.06-3.96-.45-5.37-2.18-1.2-1.48-2.59-2.8-2.92-4.84-.23-1.42-.71-2.79-1.12-4.37.31-.64.73-1.5,1.13-2.33-1.76-.51-3.3-.95-4.97-1.43-1.1.55-2.33,1.17-3.72,1.87.29,2.69-2.56,3.94-3.05,6.3-.73.34-1.41.54-1.96.93-1.57,1.1-3.26.67-4.94.47-.29-.04-.6-.22-.82-.43-1.15-1.08-2.28-2.2-3.6-3.48-.86.39-1.81.82-2.64,1.19-.58,1.28-1.08,2.38-1.68,3.7-1.17-.28-2.35-.28-3.17-.83-1.24-.82-2.49-.89-3.77-.58-2.04.49-3.42-.08-4.37-2-.42-.85-1.19-1.53-1.77-2.24.18-.21.46-.53.96-1.1-.84.05-1.37.03-1.88.13-2.49.52-4.96,1.15-7.47,1.57-.77.13-1.71-.11-2.43-.48-2.68-1.37-4.07-5-3.15-7.94.41-1.3,1.01-2.41,2.4-2.94.64-.25,1.22-.64,1.76-.94.48-1.39.93-2.69,1.4-4.04,2.17-.51,4.3-1.07,4.26-4.24-1.22-2.95-2.64-6.28-3.97-9.64-.56-1.43-.97-2.94-1.36-4.43-.45-1.76-.78-3.56-1.21-5.33-.3-1.25-.66-1.68-2-2.67-1.6.71-.61,2.39-1.26,3.46-.64,1.05-1.15,2.17-1.8,3.41,2.28,1.02,3.7,2.73,4.37,5.31-.07.11-.36.39-.46.73-.66,2.29-2.38,3.26-4.52,3.82-1.41.37-2.9.73-4.1,1.5-1.12.72-2.2,1.82-2.79,3.01-1.4,2.79-3.11,5.32-5.01,7.78-1.16,1.5-1.98,3.26-3.04,4.85-1.41,2.11-2.92,4.15-4.36,6.23-.3.43-.48.93-.76,1.49-1.59.49-3.06,2.03-4.89,1.42-1.3-.43-3.09-.21-3.68-2.06-3.51,1.96-7.1,3.43-10.88,4.46-.42.11-.9.08-1.34.03-2.85-.32-5.27-1.64-7.51-3.32-.25-.18-.28-.63-.47-.92-.49-.78-1-1.55-1.51-2.32-.27-1.08.44-2.37-.94-3.42-.55.54-1.11,1.12-1.71,1.65-.68.6-1.33,1.31-2.12,1.72-2.26,1.16-4.58,2.19-6.93,2.93-1.05-.12-2.09-.24-3.14-.34-.38-.04-.86.13-1.14-.05-1.82-1.12-3.78-2.1-5.33-3.52-1.6-1.46-2.36-3.49-2.58-5.78-.63-6.6,1.11-12.67,3.86-18.52.61-1.3,1.62-2.41,2.37-3.48,2.35-.93,4.26.06,6.16.89.77.34,1.33,1.01,1.3,2.03-.01.51.24,1.03.39,1.63-1.1,2.62-2.29,5.29-3.36,8.01-1.13,2.89-1.26,6-1.65,9.04-.04.33.26.7.4,1.05,3.2-.67,5.48-2.67,7.5-4.9,3.01-3.33,5.82-6.85,8.74-10.26.52-.61,1.18-1.11,1.81-1.7.51-1.44.8-3.16,1.67-4.51,1.37-2.15,1.81-4.45,1.6-6.84-.18-2.04.92-3.33,2.02-4.68.58-.71,1.35-1.27,2.05-1.92v-2.94c1.77-2.58,2.95-3,5.71-2.11.88.29,1.76.59,2.65.89,1.35,1.61,3.09,3.04,2.79,5.71-.87.67-1.81,1.4-2.69,2.08v4.63c-.78,2.31-1.59,4.7-2.4,7.11,1.77,2.41.68,4.54-.55,6.54-1.06,1.73-2.01,3.46-2.41,5.45-.09.44-.08.9-.13,1.53,4.14,1.5,7.16,4.63,10.71,7.23,3.7-5.52,7.37-11,11.04-16.47-.39-1.08-.79-2.19-1.15-3.16.76-1.05,1.35-1.86,1.98-2.72,2.01-.12,3.27-1.26,4.03-3.02,1.4-3.26,2.76-6.53,4.17-9.79,1.11-2.56,2.15-5.16,3.46-7.62,1.04-1.96,3.24-2.48,5.12-3.33.48-.22,1.04-.25,1.61-.38,1.57,1.27,3.85,1.98,3.38,4.82Z"/><path class="cls-1" d="m360.62,82.86c1.85.1,3.57,1.11,4.18,2.71.6,1.59,1.65,2.73,2.6,3.96.78,1,1.4,2,1.72,3.21.06.21.13.42.19.64,1.2.65,2.28.12,3.37-.22,1.23-.39,2.46-.76,3.95-1.22.14-1.34.71-2.81,2.43-3.55-.19-1.43-.53-2.78-.53-4.14,0-4.5.02-9,.2-13.5.1-2.46.75-4.85,1.8-7.27,1.03-.29,2.13-.59,3.51-.98.72.69,1.69,1.38,2.33,2.29.61.87.64,1.96.43,3.1-.5,2.72-1.14,5.47-1.14,8.2,0,3.29-.99,6.21-2.19,9.14-.35.85-.66,1.72-1.05,2.71.85.06,1.53.11,2.27.17.41-.48.8-.93,1.22-1.41,1.24,0,2.57-.33,3.63.06,3.36,1.26,6.44.52,9.3-1.15,2.46-1.44,4.79-3.17,6.52-5.65.16-1.45.63-2.8,1.66-4.1,1.04-1.31,1.39-3.04,1.5-4.78.26-3.91-.42-7.68-1.62-11.37-.99-3.07-1.9-6.18-3.54-9.01-1-1.72-2.21-3.17-4.05-4.01-.35-.16-.71-.42-1.07-.44-2.85-.12-5.73-.62-8.52.4-2.38.87-4.76,1.75-7.08,2.77-1.54.68-2.99,1.59-4.45,2.45-.38.23-.72.61-.95.99-1.05,1.73-2.56,2.83-4.44,3.48-.51.18-.98.45-1.58.74-1.4-.28-2.89-.58-4.38-.89-.44-1.4-.8-2.56-1.16-3.73,1.11-1.33,2.04-2.68,3.2-3.8,2.01-1.94,4.47-3.29,6.98-4.46,3.07-1.42,6.19-2.76,9.36-3.95,1.32-.49,2.89-.29,4.23-.75,2.03-.7,4.03-.62,6.11-.51,2.41.13,4.77.41,7.07,1.11,4.68,1.44,8.17,4.28,10.11,8.88,1.65,3.92,2.97,7.92,3.4,12.17.12,1.2.02,2.43.02,3.66,1.18.48,2.23.91,3.26,1.33,3.3-.68,6.5-1.07,9.07,1.94.67,2.54-.78,4.53-1.85,6.67-1.25,2.5-3.67,3.88-5.45,5.86-1.2,1.32-2.13,2.74-2.43,4.77-1.85,1.06-2.69,3.18-3.84,5.07-2.67,4.37-6.72,7.09-11.42,8.58-2.72.86-5.77.65-7.63-2.41-3.69.66-7.29,1.16-10.95.39-.21,4.87-1.91,9.56-1.77,14.46.08,2.76-.51,5.47-.14,8.28.26,1.97-.56,4.08-.85,6.13-.14.97-.16,1.95-.24,2.95,2.29-.15,5.28.92,6.67,2.26-.06.69-.18,1.36-.17,2.04.02,1.36-.53,2.4-1.67,3.09-1.38.84-2.83,1.52-3.29,3.33-.13.5-.88.83-1.32,1.26-1.64,1.62-3.67,2.9-4.28,5.26-1.01.22-1.83.39-2.46.53-1.78-.65-3.03-2.15-5-1.9-.2.02-.52-.08-.63-.24-1.2-1.61-3.09-2.26-4.64-3.38-1.15-.83-1.93-1.83-2.28-3.32,2.13-2.06,3.75-5.01,7.72-4.43.53-.54,1.11-1.14,1.53-1.58.36-2.49.74-4.68.99-6.89.35-3.14.7-6.29.87-9.44.15-2.63,0-5.28.08-7.92.05-1.6.3-3.2.47-4.93-2.06.07-2.77,1.64-3.58,2.79-.87,1.24-1.29,2.78-2.01,4.43-2.78,1.56-5.73,1.52-8.84,0-1.52-.74-3.3-.95-5.12-1.45-.52-.61-1.17-1.36-1.95-2.26,0-.55-.02-1.24,0-1.94.02-.69.08-1.37.12-2.09.64-.27,1.2-.5,1.78-.75.59-1.04,1.19-2.1,1.9-3.36-.17-1.7-.22-3.64-.59-5.51-.24-1.22-.94-2.34-1.36-3.31-.61-1.38-.93-2.7-1.69-3.68-4.03-5.2-6.93-10.96-8.98-17.18-.72-2.18-1.22-4.42-1.85-6.73-2.57,3.58-5.16,7.19-7.91,11.02.73.25,1.22.59,1.68.55,1.39-.12,2.57.4,3.75.98,2.34,1.15,2.43,1.33,1.73,3.99-2.06,1.68-4.63,2.23-7.16,2.89-1.7.45-3.42.85-5.09,1.42-.77.26-1.61.72-2.1,1.35-1.57,2-2.99,4.12-4.46,6.19-1.55,2.19-2.98,4.48-4.69,6.54-1.43,1.73-3.35,2.71-5.89,2.15-.18-.73-.37-1.53-.55-2.25.43-1.32.76-2.6,1.26-3.81,1.14-2.78,2.6-5.39,4.45-7.78.42-.54.55-1.31.8-1.92-1.1-.93-1.98-1.67-2.8-2.36.02-3.42,2.2-4.84,8.65-5.61.47-.52,1.11-1.1,1.59-1.79,1.87-2.65,3.64-5.36,5.53-7.99.94-1.3,2.05-2.49,3.12-3.69,1.84-2.07,3.76-4.02,4.9-6.66.46-1.06,1.8-2.03,2.95-2.45,2.03-.75,4.16-1.65,6.43-.58,2.05.97,2.88,2.8,3.18,4.79.36,2.34.21,4.75.54,7.1.23,1.66.79,3.3,1.37,4.89,1.19,3.25,2.23,6.56,4.06,9.54.92,1.5,1.84,3,2.94,4.81Z"/><path class="cls-1" d="m577.99,404.72c-1.69,1.4-3.2,2.67-5.4,3.11-1.54.31-2.98,1.3-4.35,2.16-1.72,1.09-3.38,2.18-5.56,1.96-.26-.03-.55.24-1.07.48-1.64-.85-3.4-1.77-5.22-2.71-.11-1.03-.22-1.99-.36-3.21-3.27,1.61-6.28,3.42-10.02,2.94-1.36-1.01-2.82-2.09-4.28-3.17-2.08,3.12-5.18,4-7.95,2.02-2.03-1.45-3.37-3.54-3.55-6.19-.08-1.22-.29-2.43-.46-3.85.57-.81,1.26-1.81,1.82-2.6v-4.4c.9-.61,1.62-1.28,1.18-2.64-1.32.2-2.63.41-4.33.67-.3.22-.91.68-1.55,1.16-2.16-.26-4.49.71-6.41-.94-1.59.5-3.14.92-4.63,1.48-.43.16-.78.71-1.03,1.15-.94,1.68-1.82,3.4-2.74,5.09-1.39,2.54-3.17,4.77-5.53,6.56-.76.13-1.58.27-2.72.46-.96-.44-2.21-1.02-3.25-1.5-1.04-2.02-.49-3.38.71-4.88,1.44-1.79,2.51-3.88,3.73-5.85,2.01-3.27,3.96-6.58,6.04-9.81,1.54-2.38,3.25-4.65,4.99-7.14-.17-.21-.47-.53-.68-.89-1-1.78-.34-4.51,1.45-5.48,2.11-1.14,4.32-1.76,6.55-.18.37.26.85.38,1.27.56.3.58.6,1.16.96,1.83.19-.3.37-.47.34-.53-.78-1.58-1.55-3.16-2.41-4.7-.2-.37-.66-.67-1.07-.84-1.83-.73-2.8-2.08-3.14-3.98-.04-.22-.18-.42-.29-.66.2-.55.49-1.11.61-1.7.35-1.59,1.39-2.51,2.85-2.96,1.56-.48,3.03-1.13,4.86-.58,1.6.48,2.49,1.39,3.25,2.67.98,1.66,2.01,3.29,2.92,4.98.69,1.29,1.16,2.69,1.83,3.99,2.05,3.97,4.18,7.9,6.2,11.89,1.05,2.06,1.92,4.21,2.9,6.31.29.63.69,1.2,1,1.73,4.74,1.49,5.77,2.87,5.03,6.56-.96,1.05-1.88,2.05-2.75,3.01,1.04,1.48,2.3,2.1,8.12,4.06.31,1.22.66,2.54,1,3.86,1.32-.33,3.64-1.74,4.82-2.93.4-2.9.49-5.8,1.27-8.5.72-2.51,1.02-5.09,1.81-7.57.72-2.26,1.41-4.52,2.11-6.78.14-.44.4-.9.38-1.34-.1-2.42.97-4.31,2.56-5.83-.05-1.5.39-2.96-.89-3.99-1.61.49-3.18.84-4.65,1.45-1.1.46-2.09.33-3.17.15-.9-.16-1.86-.05-2.07.99-.58,2.95-2.88,3.51-5.28,3.91-.99.16-2,.23-3,.22-.59,0-1.29-.09-1.75-.42-1.26-.87-2.41-1.89-3.77-2.98-.09-.47-.23-1.15-.39-1.95-1.86-.37-2.04-2.23-2.75-3.56-.67-1.26-.6-1.72-1.22-2.4,0-1.35,0-2.82,0-4.29,0-1.35.58-2.28,1.79-2.96,1.44-.81,2.82-1.55,4.55-1.19.42.09.9-.13,1.4-.21.8.51,1.64,1.04,2.55,1.61.58-.42,1.13-.82,1.76-1.29,2.11.16,4.32-.67,6.49.14.82.73,1.63,1.44,2.49,2.2.21.63.45,1.32.77,2.26,5.75-2.02,11.65-1.69,17.46-1.91,1.71-2.26,3.85-3.21,6.54-2.76,1.13.18,1.92-.43,2.55-1.25.98-1.29,1.92-2.61,2.81-3.83,3.85-2.14,7.39-2.27,10.71,2.25.49.93.34,2.64-.13,4.53.96-.87,1.85-1.85,2.91-2.58,1.07-.73,2.31-1.2,3.55-1.83,2.77.33,5.41,1.03,6.22,4.42,0,1.69-.11,3.55.04,5.39.1,1.23-.49,2.16-1.14,2.9-1.68,1.91-3.56,3.65-5.37,5.45-.86.86-1.76,1.47-2.93.49-.06-.05-.15-.08-.22-.07-3.04.3-5.09-1.46-7.21-3.57-.62-3,.46-5.69,2.5-8.13.33-.4.37-1.04.54-1.57-.15-.1-.3-.19-.45-.29-.85.75-1.78,1.43-2.54,2.26-2.29,2.5-4.41,5.19-6.82,7.56-1.51,1.48-3.44,2.54-5.02,3.67-2.59-.33-4.55-1.27-6.23-3.08-.16,1.36-.05,2.46-.46,3.32-.44.91-1.36,1.6-2.31,2.65,0,.02-.11.44.02.77.81,2.13.19,4-.67,6-.9,2.1-1.32,4.4-1.99,6.6-.54,1.8-.89,3.64-1.58,5.4-.47,1.2-.63,2.53-.92,3.8-.14.59-.26,1.18-.39,1.77.6.69,1.23,1.19,2.31,1.16,2.63-.06,3.96,1.33,3.73,4.1-.06.69-.1,1.39-.16,2.26Zm-46.37-24.55c-1.73-3.12-3.3-5.96-4.98-8.98-2.46,3.46-4.06,6.98-5.39,10.62.77,1.15,1.78.76,2.71.66,2.02-2.26,4.59-2.65,7.66-2.3Z"/><path class="cls-1" d="m609.49,378.04c.28-.39.71-.74.81-1.17.96-4.07,3.79-6.45,7.38-8.03,3.75-1.65,7.66-2.35,11.73-1.31.81.21,1.62.48,2.39.8,1.49.62,2.96,1.31,4.66,2.07.49.88,1.05,1.98,1.68,3.04,1.52,2.53,2.33,5.2,1.9,8.18-.04.28.07.57.18,1.41.62-.95,1.1-1.44,1.31-2.04.77-2.17,1.72-4.26,2.39-6.48.64-2.12,2.34-3.92,3.49-5.72h2c1.28.81,2.29,1.44,3.61,2.27.36,1.85-.14,4.05-.7,6.17-.53,2.01-1.43,3.9-.6,6.04.21.54.03,1.22.03,2.04,2.71,1.35,5.35,2.96,6.15,6.09,1.35.81,2.51,1.5,3.77,2.25.16-.4.32-.67.37-.95.69-3.53,1.56-7.01,2.62-10.45.36-1.15.74-2.3.07-3.59-.3-.58.04-1.48.06-1.84,1.36-2.69,3.4-4.03,5.77-4.92,2.41-.9,4.87-.83,7.23.07,1.8.68,3.11,3.35,2.92,5.32-.24,2.64-1.38,4.67-3.84,5.85-.75.36-1.46.82-1.99,1.13-1.15,5.51-2.47,10.75-2.33,16.28,1.67,1.29,4.24,1.33,5.54,3.34.03.21.07.37.07.52-.05,2.42-.67,4.62-2.01,6.72-.88,1.38-1.38,2.99-1.28,4.84.08,1.42-.68,2.93-1.23,4.34-.81,2.09-2.82,2.98-4.52,4.14-.38.26-1.05.11-1.59.12-1.15.01-2.29,0-3.83,0-.54-.3-1.48-.81-2.42-1.33-1.81-1-2.55-2.6-2.16-4.63.04-.23.03-.49.14-.68,1.45-2.46.59-4.73-.54-7.07-.8-.33-1.65-.69-2.5-1.05-1.14-1.56-1.38-3.33-1.36-5.3-1.35-1.25-2.82-2.61-4.25-3.95-.92-2.39-.24-5.29-2.66-7.56-.68,1.97-1.23,3.62-1.83,5.25-.34.92-.58,1.78-.47,2.82.13,1.19-.16,2.41-.73,3.56-1.64,3.32-3.19,6.69-4.82,10.14,2.92,2.17.8,4.54.06,7.11-1.38.48-2.9,1.02-4.42,1.54-.22.07-.51,0-.68.12-3.32,2.28-5.42-.29-7.71-1.95-1.18-.86-2.28-1.83-3.42-2.75-1.07-.87-2.15-1.73-3.23-2.61.09-.69.23-1.3.23-1.91,0-.96.49-1.59,1.19-2.14.78-.61,1.54-1.25,2.5-2.03,2.15-.56,4.42-1.48,6.17-3.37.35-.38.68-.82.91-1.28,1.23-2.45,2.46-4.9,3.64-7.37,1.36-2.85,2.48-5.77,3.06-8.9.2-1.09.94-2.08,1.33-3.15.25-.69.33-1.45.11-2.31-.96,1.7-1.93,3.4-2.89,5.1-.3.54-.51,1.15-.91,1.6-2.01,2.24-3.98,4.53-6.15,6.62-3.41,3.29-7.16,6.17-11.85,7.34-4.95,1.24-6.78,1.45-10.76-1.86-1.34-1.12-1.63-2.71-2.13-4.25-.51-1.57-.44-2.88.38-4.38,1.83-3.31,3.46-6.74,5.11-10.15.6-1.23,1.05-2.53,1.62-3.94h-3.49c-2.52,1.67-5.14,3.4-7.84,5.19.11,1.78-.45,3.4-1.35,4.99-.51.91-.83,2.04-.86,3.08-.05,1.97-.65,3.79-1.43,5.51-.93,2.07-1.21,4.15-.83,6.34.33,1.89.05,3.59-1.1,5.22-.96,1.36-1.65,2.92-2.37,4.23-2.38.37-4.41.69-6.41-.42-1.87-1.04-3.09-3.05-2.69-5.12.36-1.81.9-3.59,1.35-5.39.63-2.53,1.32-5.05,1.83-7.6.57-2.86.87-5.77,1.51-8.61.33-1.47,1.13-2.83,1.69-4.25.28-.71.64-1.44.69-2.17.12-2.12,1.2-3.67,2.95-4.58,2.93-1.54,5.94-2.98,9.02-4.2,2.42-.96,5.6,1.33,5.86,3.95.06.61.15,1.22.23,1.82.17.06.33.12.5.18Zm19.75-3.85q-1.96.69-2.93,1.94c-1.34,1.76-2.57,3.62-4.03,5.27-2.39,2.69-4.15,5.76-5.77,8.92-.75,1.45-1.21,3.05-1.86,4.72.55,1.17,1.61.86,2.46.34,2.37-1.44,4.71-2.94,6.95-4.57,2.46-1.79,4.26-4.24,6.21-6.54,2.51-2.95,2.54-7.68-1.03-10.1Z"/><path class="cls-1" d="m624.62,298.48c2.92,4.31,2.81,2.85,1.24,7.8.54.04,1.06.23,1.48.1,3.17-.99,6.34-1.97,9.46-3.1,1.29-.47,2.45-1.32,3.85-2.1,4.35-.18,7.22,2.54,9.8,5.91.97,2.27-1.37,3.98-1.45,6.35-1.22.12-1.64,1.48-2.4,2.46-1.25,1.62-2.4,3.32-3.58,5-.22.31-.42.64-.55.99-.58,1.48-1.51,2.67-2.86,3.66-2.04.38-4.08.42-5.81-1.18-.73-1.4-.95-2.88-1.02-4.46-.07-1.58-.6-3.13-.98-4.97-1.31.61-2.38,1.01-3.36,1.57-2.5,1.46-5.22,2.26-8,2.98-1.46.38-2.89,1.14-4.14,2.01-1.5,1.04-2.91,1.19-4.59.62-3.35-1.14-5.39-3.49-6.59-6.7-.16-.42-.34-.82-.52-1.24-6.27,2.9-6.22,4.2-13.76,2.23-4.68,4.22-9.77,3.18-14.94,1.14-1.27-1.4-1.45-3.52-3.09-4.97-.56.89-1.04,1.66-1.53,2.43-1.53.67-3.14,1.23-4.6,2.07-1.52.88-3.13,1.03-4.71.73-1.1-.21-1.96-.04-2.85.45-2.47,1.36-5.18,1.67-7.92,2.08-1.93.29-3.84.66-5.72.1-1.54-.46-3-1.19-4.49-1.81-.15-.39-.21-.79-.42-1.1-2.68-3.97-1.89-8.03-.34-12.11.33-.86.75-1.69,1.18-2.66-1.96-2.76-1.32-5.74.37-8.13,1.3-1.86,3.49-3.32,6.31-2.79,2.8-3.54,5.53-7.19,8.48-10.65,1.59-1.87,3.46-3.55,5.4-5.06,1.18-.92,2.73-1.38,4.13-2.02.2-.09.46-.09.69-.05,1.83.27,3.66.5,5.47.86,1.92.37,2.65,1.96,3.38,3.6-.55,1.81-.25,3.96-2.59,5.03-1.9.87-3.64,1.87-5.72.59-.35-.56-.69-1.13-1.05-1.71-.32.08-.55.09-.74.19-2.34,1.22-3.85,3.36-5.55,5.24-1.7,1.88-3.02,4.1-4.63,6.07-3.1,3.79-4.73,8.33-6.63,12.72-.67,1.54-.81,3.31-1.23,5.14.61.05,1.06.21,1.46.11,2.02-.48,4.05-.98,6.04-1.57.56-.17,1.25-.55,1.49-1.03.75-1.51,2.18-2.11,3.47-2.93.52-.33,1.04-.73,1.4-1.21,1.33-1.77,3.24-2.7,5.19-3.39,2.33-.83,4.7-.41,7.07.76.26-.46.64-.88.74-1.35.39-1.88.7-3.79,1.04-5.68.07-.37.09-.79.27-1.11,1.1-1.99,1.45-4.2,2.06-6.35.71-2.51,1.83-4.91,2.79-7.35.17-.43.58-.82.61-1.24.1-1.66,1.25-2.75,1.73-3.55,2.92-2.99,5.45-1.48,8.21-.06.03.07.09.46.3.76,1.04,1.52.72,2.94-.35,4.25-1.89,2.32-2.94,5.09-4.07,7.8-.53,1.26-.7,2.67-1.03,4.01-.17.67-.27,1.36-.51,2-.78,2.08-1.46,4.14-1.5,6.42-.03,1.43-.65,2.84-.85,4.28-.2,1.43-.19,2.88-.28,4.37,2.57-.38,3.66-2.29,5.03-3.81,1.03-1.15,1.78-2.56,2.86-3.64,1.36-1.36,2.94-2.5,4.35-3.67,1.03-1.89.88-4.13,2.35-5.79.38-.43.24-1.32.32-2.01.16-1.55.59-3,1.33-4.39.37-.7.5-1.61.49-2.42,0-1.98,1.08-3.2,2.68-3.99,1.3-.65,2.69-1.17,4.1-1.56.99-.28,1.99.02,2.91.8v2.54c.19.31.43.71.68,1.09,1.24,1.83,1.22,3.74.45,5.74-.26.68-.3,1.44-.4,1.96-.71,1.02-1.72,1.86-1.88,2.84-.44,2.57-1.74,4.79-2.5,7.22-.34,1.11-.78,2.19-1.17,3.28-.36.99-.03,1.64,1.11,2.05.62-1.3,1.22-2.59,1.76-3.72,2.68-1.75,5.36-2.83,8.43-1.91.83-1.15,1.08-2.25,1.23-3.54.28-2.35.93-4.68,1.59-6.96.96-3.33,2.09-6.62,3.12-9.93.23-.73.33-1.5.49-2.28,1.02-.75,2.07-1.52,3.21-2.37-.38-.62-.69-1.13-1.06-1.74.8-2.2,1.49-4.71,4.3-5.17,3.07-.51,4.8,1.57,6.3,4.1-.07.76-.15,1.69-.26,2.91-1.2.7-2.51,1.47-4.02,2.36.26.64.54,1.32.93,2.28-2.82,5.83-5.31,12.03-6.87,18.48Z"/><path class="cls-1" d="m286.98,300.13c-2.44-2.53-5.44-4.16-6.76-7.72-.4.57-.88.95-.88,1.32.02,2.54-1.26,4.55-2.38,6.69-1.58,2.99-3.36,5.88-4.41,9.15-.37,1.17-1.45,2.12-2.17,3.13-3.93-.08-4.9-3.02-6.22-5.54.28-.78.46-1.61.87-2.31.81-1.37,1.55-2.77,2.46-4.11,1.49-2.18,2.38-4.78,3.52-7.2.03-.06-.03-.17,0-.23,1.26-2.02,1.05-4.4,1.64-6.59.56-2.08,1.35-4.09,2.04-6.13.12-.36.27-.72.34-1.09.48-2.57,1.83-3.48,4.5-3.09,1.24,1.47,2.37,2.92,3.63,4.25.84.88,1.79,1.74,2.84,2.32,1.52.83,2.88,1.72,3.74,3.3.31.58.98.97,1.55,1.51-.13,2.72,1.04,5.01,2.74,7.3,1.61-1.36,3.37-1.29,5.35-.39.32-.99.67-1.82.86-2.68.48-2.24.86-4.49,1.32-6.73.32-1.58.64-3.16,1.08-4.7.51-1.76,1.47-3.44,1.69-5.22.32-2.68,2.14-3.41,4.28-4.08,2.52.64,4.11,2.57,5.61,4.53.43.56.67,1.43.66,2.15-.02,1.6-.08,3.24-.46,4.77-.41,1.63-1.32,3.12-1.82,4.74-.64,2.06-1.1,4.17-1.6,6.27-.24,1.02-.39,2.07-.61,3.26,3.01-3.33,5.86-6.49,8.8-9.74-.88-.62-1.79-1.26-2.97-2.09-.11-.54-.29-1.44-.48-2.37.42-.72.78-1.49,1.27-2.16,1.11-1.51,2.51-2.58,4.27-3.37,3.38-1.53,6.67-3.26,9.9-5.08.96-.54,1.68-1.56,2.37-2.47,1.56-2.06,3.32-3.83,5.88-4.61.44-.13.87-.31,1.29-.52,1.82-.89,3.61-1.17,5.63-.43,1.39.51,2.98.55,4.48.71,2.73.28,5.03,1.26,6.67,3.58.89,1.26,1.91,2.42,2.77,3.49.01,4.25-3.12,7.02-7.23,6.21-2.86-.57-4.89.53-6.94,2.19-1.38,1.11-2.9,1.87-4.83,2.01-1.87.14-3.71.91-5.53,1.52-1.45.49-2.85,1.13-4.26,1.75-2.14.95-4.1,2.14-5.75,3.84-1.01,1.04-2.24,1.87-3.16,2.97-1.58,1.89-3.48,3.72-4.35,5.92-1.46,3.68-2.77,7.57-2.04,11.68.16.92.83,1.74,1.24,2.57,6.26.34,11.28-2.54,16.34-5.1,1.89-.95,4.02-1.83,4.95-4.22-.76.43-1.67.72-2.26,1.33-1.15,1.18-2.57,1.19-3.9.91-1.64-.35-3.3-.91-4.41-2.76.56-1.16,1.18-2.46,1.81-3.76,5.57-2.37,11.48-3.8,16.33-7.24q5.25.19,7.38,3.76c-.69,2.28-1.35,4.47-2.02,6.67-.63,2.04-1.31,4.07-1.89,6.12-.27.95-.37,1.95-.53,2.93-.06.38.02.82-.14,1.14-1.33,2.56-.88,5.3-.76,7.97.09,1.85-.06,3.55-1.17,5.12-.95.26-1.96.54-3.07.85-1.2-.3-2.45-.76-3.65-1.53-1.07-.69-1.79-1.55-2.1-2.65-.74-2.58-1.35-5.2-.97-8.14-.5.16-.93.23-1.29.42-1.16.59-2.28,1.25-3.44,1.82-.62.3-1.37.36-1.94.72-1.33.83-2.74,1.31-4.31,1.35-.45.01-.95.05-1.35.24-4.21,1.99-8.49,1.37-12.64.02-1.58-.51-2.9-1.96-3.7-3.63-.9-1.87-1.04-3.86-1.03-5.88,0-.37,0-.74-.17-1.22-1.47,2.15-1.72,5.37-5.2,5.51-.18,1.89-.23,3.67-.55,5.4-.42,2.27-1.39,4.27-3.71,5.25-.21.09-.43.31-.63.29-3.38-.38-6.89,1.81-10.16-.58-.55-.73-1.09-1.57-1.74-2.3-2.37-2.64-2.76-5.77-2.32-9.1.2-1.52.51-3.02.81-4.53.1-.52.27-1.04.47-1.53.79-1.99,1.61-3.98,2.47-6.09Z"/><path class="cls-1" d="m119.41,264.07c1.54-.45,2.72-.79,3.99-1.16.54.31,1.13.66,1.81,1.05,1.86-1.33,3.58-2.76,6.26-1.48,2.3,1.09,3.8,2.55,4.25,4.85,1.03.93,2.1.69,3.03.46,3.75-.9,7.46-1.92,11.2-2.85.57-.14,1.21-.07,1.82-.03,2.81.17,5.19-.48,6.65-3.17.55-1.02,1.26-1.94,2.07-3.17,1.65-.81,3.57-1.74,5.31-2.6,3.38-.03,5.56,1.85,7.44,4.35.03.51.08,1.16.14,2,2.58-.53,4.93-1.19,7.39-.26,2.54.97,3.31,3.28,4.53,5.39-.32.64-.65,1.32-1,2.02,1.77.21,6.45-.31,7.75-.83.22-.09.53-.11.63-.27,1.75-2.71,5.04-3.98,6.48-6.97.82-1.71,2.26-2.47,4.15-2.39.54.02,1.1.08,1.63-.01,1.98-.36,3.36.56,4.29,2.14,1.37,2.32,2.84,4.61,2.55,7.54-.1,1.02-.45,1.78-1.18,2.4-2.13,1.79-3.45,4.11-4.43,6.67-.28.72-.55,1.46-.93,2.13-1.37,2.4-4.08,3.19-6.59,2.03-1.88-.87-3.57-1.89-4.07-4.17-2.54-.39-4.74.74-7.06,1.01q.07,1.36,1.03,2.73c-.07.99-.13,1.98-.21,3.15-.47.41-1.04.91-1.7,1.5.38,1,.77,2.06,1.12,2.97-.3,1.5-.57,2.85-.84,4.21-.04.22-.02.52-.15.65-2.18,2.18-2.48,5.27-3.75,7.88-1.11,2.29-2.14,4.85-2.25,7.34-.11,2.45-1.75,4.15-2.03,6.39-.28,2.16-1.34,4.18-1.1,6.58-1.07,1.53-2.66,2.07-4.53,1.78-1.7-.26-3.29-.72-4.16-2.51-.39-.8-1.17-1.4-1.85-2.17.38-2.89.8-5.82,1.86-8.67,1.66-4.47,3.07-9.04,4.6-13.56.57-1.67,1.19-3.33,1.77-4.99.35-1.01.6-2.05,1.01-3.04.78-1.9,1.51-3.87,3.88-4.77-.75-1.3-1.39-2.42-2.04-3.56-.61-.05-1.14-.09-1.51-.12-.75.66-1.44,1.14-1.97,1.76-.7.81-1.33,1.7-1.88,2.62-.64,1.06-1.18,2.18-1.73,3.29-1.6,3.22-4.37,4.09-7.7,3.85-.31-.02-.62-.07-1.05-.11-1.43-1.37-2.94-2.74-4.2-4.46-1.35-1.85-.83-3.43-.15-5.15.19-.48.55-.9.85-1.4-.95-1.04-1.81-2.09-2.79-3.02-1.11-1.05-.47-2.53-1-3.87-1.19.52-2.29,1-3.68,1.61.31,2.09.63,4.24.91,6.13-1.24,1.88-2.35,3.54-3.42,5.17.27.84.48,1.5.64,1.98-.35,1.09-.65,2.03-1.01,3.13-1.2.7-1.77,1.94-2.17,3.45-.86,3.27-2.2,6.42-2.89,9.72-.42,2.01-1.74,3.86-1.25,6.06.05.21-.03.47-.13.67-1.26,2.56-2.38,5.21-4.41,7.56-.06.8-.14,1.79-.24,3.01-.44.42-1,.95-1.48,1.4-3.81.57-5.73-.27-7.33-2.96.27-1.65.47-3.09.76-4.5.17-.82.43-1.63.72-2.42,1.19-3.24,2.45-6.46,3.58-9.72.31-.91.26-1.95.36-2.93.02-.23-.04-.5.06-.67,1.19-1.97.9-4.31,1.63-6.39.08-.22.27-.42.28-.63.04-1.45-.08-2.92.08-4.35.16-1.34.61-2.65.54-4.28.85-.43,1.7-.86,2.65-1.35.19-1.08.41-2.27.64-3.57-1.86-.41-3.4.6-5.42.62-1.02-.55-2.34-1.27-3.76-2.05-2.02,1.68-2.66,4.33-3.91,6.49-2.53,1.49-5.07,1.64-7.66.74-.88-1.04-1.74-1.97-1.73-3.46,0-.57-.7-1.14-1.12-1.77,0-1.22-.03-2.52,0-3.81.06-2.07,0-4.17.33-6.2.16-.96,1.11-1.8,1.61-2.54.41-1.44.77-2.74,1.16-4.09Z"/><path class="cls-1" d="m528.62,215.42c-1.48.44-2.24,1.28-2.84,2.3-.12.2-.27.39-.35.6-1.05,2.74-2.22,5.41-4.92,7.66-.57-.07-1.63-.15-2.67-.32-1.47-.24-2.88-.34-4.19.57-1.51,1.05-2.99,2.16-4.6,3.04-2.83,1.55-5.61,3.4-8.65,4.28-2.57.74-5.58,1.7-8.28-.48-.27-.86-.57-1.8-.89-2.85-.52,0-1.19-.21-1.55.04-1.76,1.21-3.28-.18-4.89-.37-.46-.05-.93-.75-1.22-1.26-1.21-2.09-1.63-4.24-.47-6.55.42-.83.43-1.88.87-2.69.47-.86,1.24-1.57,1.87-2.34.05-.06.08-.14.12-.2,2.25-3.1,3.52-6.67,4.87-10.21,1.25-3.28,2.07-6.71,3.59-9.9.65-1.36.88-2.91,1.31-4.43-.36-.64-.76-1.35-1.1-1.96.39-1.56,1.61-2.01,2.39-2.49.75-2.01,1.43-3.78,2.08-5.57.65-1.78,1.27-3.57,1.98-5.57-2.21-.56-4.37.55-6.58.67-2.36.14-4.77.42-7.03,1.1-2.15.64-4.12,1.86-6.41,2.94-.66-1.04-1.25-1.98-1.78-2.81.73-1.9,2.07-2.77,3.7-3.45,1.55-.65,3-1.54,4.14-2.14,1.37-.24,2.4-.4,3.42-.62,1.27-.27,2.52-.73,3.81-.87,1.53-.16,3.02-.25,4.54-.7,1.47-.44,3.14-.23,4.73-.25,2.63-.03,5.26-.12,7.89,0,3,.13,5.93.77,8.81,1.65,2.26.69,3.69,2.39,5.08,4.29-.28,1.81-1.01,3.28-2.69,4.46-2.58,1.81-4.94,3.94-7.38,5.95-.27.23-.45.57-.83,1.06,1.77.43,3.28.95,4.82,1.15,4.6.6,8.98,2.05,13.36,3.45,1.51.48,2.83,1.54,4.22,2.36.52.31.99.69,1.62,1.15,1.68-1.25,2.44-3.16,3.59-4.74,1.16-1.59,2.24-3.23,3.45-4.98-.4-.35-.71-.66-1.05-.92-1.63-1.25-1.55-1.29-2.55-3.24-.71-1.38-.82-2.59.13-3.85.23-.3.39-.65.39-.66,2.63-1.09,5.01-1.95,7.27-3.05,1.57-.76,2.96-1.9,4.49-2.77,1.6-.92,3.14-.54,4.44.63,1.7,1.54,3.67,2.44,5.92,2.19,3.29-.36,4.61,2,6.15,4.1.24.33.1,1.04-.03,1.53-.19.73-.52,1.41-.91,2.41-2.29,2.4-5.26,3.97-9.14,3.69-.94-.8-2.05-1.61-3.89-1.3-5.79,5.84-10.36,12.92-14.97,19.97.1.13.2.27.3.4,4.32-1.62,8.65-3.25,12.92-4.85,1.78,1.27,4.13,1.47,4.71,3.75.32,1.25.48,2.62-.08,3.24-3.52,1.53-6.47,2.82-9.43,4.1-2.39,1.03-4.74,2.19-7.2,3.02-1.26.43-2.72.32-4.08.35-.68.01-1.36-.22-2.21-.37-1.36,3.42-2.44,6.78-2.5,10.69.73.19,1.5.66,2.11.51,2.67-.65,5.43-1,7.68-2.94.86-.74,2.48-.58,3.39-1.3.98-.78,1.92-1.64,3.11-1.81,1.82-.25,3.72-.46,5.51-.18,1.75.27,2.79,1.78,3.24,3.49.24.92.04,1.85-.76,2.55-.47.41-.87.92-1.38,1.24-2.73,1.71-5.22,3.79-8.23,5.08-2.55,1.09-2.64,1.2-5.32.01-2.09.8-4.25,1.75-6.65,1.39-1.43-.21-2.89-.43-4.26-.87-3.11-1.01-4.84-3.18-5.57-6.44-.46-2.06-.27-3.89.27-5.82.43-1.54.77-3.1,1.22-4.9Zm3.19-15.25c-1.84-.83-3.26-1.59-4.76-2.12-2.68-.94-5.34-1.98-8.25-2.04-.21,0-.41-.21-.64-.27-3.2-.91-6.47-1.37-9.79-1.42-.84-.01-1.59.07-2.45-.31-1.47-.67-2.66-.06-3.38,1.44-.26.55-.39,1.16-.58,1.74-1.08,3.28-2.15,6.56-3.25,9.83-.47,1.38-1.06,2.71-1.52,4.08-.18.55-.16,1.17-.22,1.73,1.48.38,2.79.71,4.12,1.05.08,2.67,2.05,4.77,1.18,7.39,1.48-.3,2.74-.66,4.02-.8,1.44-.16,2.62-.78,3.74-1.63.49-.37,1-.73,1.5-1.09,2.99-2.18,6.02-4.32,8.96-6.58,1.64-1.26,3.13-2.72,4.7-4.08,1.45-1.26,2.97-2.46,4.34-3.8.79-.78,1.34-1.8,2.3-3.12Zm-26.74-13.62c.93-.08,1.4-.04,1.82-.17,3.42-1.09,6.65-2.63,9.9-4.14,1.58-.74,2.67-1.98,3.79-3.62-3.98-1.65-7.82-2.13-12.04-2-1.13,3.25-2.23,6.4-3.47,9.93Z"/><path class="cls-1" d="m299.18,406.9c2.08.31,3.86.57,5.51.82.7,1.07,1.28,1.95,1.92,2.92-.95,2.38-1.56,5.07-3.6,7.05-.21.21-.4.52-.45.8-.44,2.21-2.18,3.53-3.65,4.94-.96.91-2.39,1.35-3.65,1.92-.77.35-1.61.53-2.58.84-1.56.09-2.6-1.03-3.7-2.14-.86-.87-1.48-1.9-1.48-3.04,0-1.73.33-3.46.47-4.72-.27-1.68-.67-2.94-.62-4.19.07-2.04.11-4.12,1.25-6,.42-.69.32-1.54,0-2.43-.99-2.87-.32-4.59,2.25-6.35,1.01-4.62,2.02-9.29,3.08-14.15-.72-.07-1.18-.22-1.58-.13-1.8.43-3.6.88-5.37,1.41-.88.26-1.72.68-2.56,1.06-.61.27-1.14.56-1.9.56-.67,0-1.49.48-1.97,1-1.08,1.17-2.32,1.71-3.89,1.66-.61-.02-1.22.14-2.02.23-1.97-1.71-4.1-.38-6.32-.03-1.15,2.13-.64,4.61-1.39,6.69-.78,2.19-.42,4.44-1.46,6.68.77.12,1.25.2,1.85.3.53,1.18,1.55,2.23,1.13,3.8-.56,2.11-1.67,3.92-3.57,4.92-2.02,1.06-4.05,2.13-6.54,2.11-1.3-.01-2.7.65-3.89,1.32-3,1.69-5.6,1-8.08-.95-.5-2.88,1.1-4.62,3.14-6.08,1.61-1.16,3.29-2.21,5.01-3.35.14-2.6,1.4-5.04,1.05-7.73,1.32-2.78,1.32-5.85,1.9-8.78.91-4.61,1.52-9.29,2.23-13.94.23-1.49.41-2.99.56-4.49.05-.52-.04-1.05-.07-1.74-1.45.59-2.75,1.11-4.21,1.7-.76,0-1.77-.17-2.7.04-1.71.37-3.19.08-4.71-1.04.75-1.19.84-2.43-.05-3.78,2.83-1.57,4.87-4.35,8.4-4.46.14,0,.3-.04.42-.11,2.61-1.71,5.85-1.84,8.46-3.5,1.97.87,4,.82,5.95.41,3.48-.73,7.01-.49,10.5-.88,3.11-.35,6.05.4,9.06.9,2.91.49,4.86,2.1,6.04,4.74.09.21.21.41.37.71h1.36c.84.45,1.82.97,3.13,1.67.6.98,1.33,2.42.61,3.97-.55,1.17-1.45,2.17-2.22,3.23-.4.54-.85,1.04-1.34,1.62,1.19.83,2.08-.13,3.02-.1.51.02,1.03-.35,1.54-.35,3.61,0,7.26-.56,10.82.33,2.37.6,4.72,1.37,6.97,2.34.99.43,1.7,1.52,2.42,2.2.09.32.15.46.16.6.52,5.36-2.59,8.66-6.7,11.09-3.45,2.03-7.19,3.56-10.81,5.28-1.31.62-2.66,1.14-3.99,1.73-.83.37-1.3.98-1.49,1.92-.59,2.85-1.26,5.69-2.01,8.99Zm-28.7-35.9c4.73-.26,12.89-3.47,14.56-5.75-.86-1.08-2.09-.77-3.19-.75-1.31.03-2.61.24-3.91.34-2.19.18-4.39.35-6.67.53-.29,2.03-.54,3.81-.79,5.62Zm41.34,10.16h-6.86c-.25,1.08-.49,2.12-.75,3.26,2.46-.51,6.06-2.02,7.61-3.26Z"/><path class="cls-1" d="m609.58,95.87c1.92-.33,3.97-.7,6.02-1.02.51-.08,1.11-.08,1.57.11,1.07.44,2.13.94,3.12,1.55,1.14.7,1.99,1.68,2.21,3.3.49-.41.86-.65,1.14-.96,7.18-7.77,13.36-16.26,18.51-25.49,2.11-3.79,4.15-7.62,6.1-11.49,1.32-2.62,2.49-5.33,2.63-8.31-.39-.57-.74-1.07-1.22-1.75.11-.63.18-1.47.39-2.27.47-1.83-.47-2.96-2.28-2.44-2.44.71-4.88,1.52-7.2,2.55-2.89,1.28-5.79,2.63-8.46,4.3-2.74,1.72-5.55,3.4-7.81,5.79-.69.73-1.36,1.49-2.31,2.53-.08,1.68-.96,3.42-2.63,4.75-.24.19-.5.41-.63.68-.91,1.93-2.58,2.4-4.46,2.14-1.68-.23-3.36-.64-4.18-2.46-.12-.26-.41-.45-.78-.83.36-2.31.74-4.74,1.12-7.1.51-.36.99-.64,1.39-1,.92-.81,1.96-1.19,3.18-1.1,1.47.11,2.62-.47,3.78-1.41,3.25-2.62,6.48-5.3,9.95-7.6,2.75-1.82,5.78-3.27,8.81-4.61,2.39-1.06,4.92-1.92,7.47-2.44,2.01-.41,4.16-.29,6.23-.15,1.89.13,3.78.5,5.65.74,3.09.4,5.81,2.02,7.04,5.21.32.82.4,1.81.32,2.69-.33,3.75-1.29,7.18-5.28,8.75-.14.06-.27.16-.49.29-1.39,5.37-3.62,10.42-7.11,14.87-.14.18-.25.39-.36.59-2.17,4.02-4.78,7.77-7.37,11.53-2.54,3.69-5.13,7.33-8.25,10.56-1.62,1.67-3.15,3.42-4.69,5.16-.23.26-.34.64-.64,1.25.62-.08.98-.06,1.29-.18,3.59-1.4,7.23-2.63,10.98-3.53.75-.18,1.52-.44,2.15-.85,2.43-1.6,5.18-2.33,7.88-3.29,1.72-.61,3.3-1.65,4.94-2.49.21-.11.44-.16.63-.29,2.3-1.53,4.77-1.88,7.45-1.19.89.23,1.84.24,2.77.25,3.33.03,5.79,1.42,7.24,4.47.66,1.39,1.34,2.77,1.99,4.11-.25,1.05-.48,2.02-.68,2.88-3.36,3.95-7.7,6.55-11.87,9.66-1.35.28-2.69-.26-3.96-1.07-1.49-.94-3.18-1.59-4.27-3.12-.29-.4-.88-.61-1.38-.82-1.14-.49-2.28-.98-3.45-1.35-.56-.18-1.27-.28-1.8-.09-5.67,1.98-11.36,3.94-16.98,6.08-3.97,1.51-7.83,3.31-11.75,4.94-.84.35-1.74.68-2.63.77-.81.08-1.65-.19-2.69-.33-.76,1.21-1.65,2.38-2.28,3.69-1.25,2.59-2.75,4.99-4.54,7.24-1.38,1.74-3.09,3.04-5.02,4.06-3.12,1.65-7.06.31-8.7-2.8-1.63-3.1-1.6-6.42-1.15-9.7.22-1.63.23-3.41,1.26-4.87.13-.19.17-.46.33-.61,2.25-2.24,3.19-5.27,4.77-7.9,1.76-2.94,4.12-5.39,6.45-7.86.83-.88,1.66-1.78,2.51-2.69Z"/><path class="cls-1" d="m767.74,332.29c-1.76.12-3.51.25-5.11.36-1.13-.92-2.09-1.7-3.16-2.57-.02-.37-.21-.92-.03-1.25.79-1.39,1.69-2.72,2.58-4.06,1.19-1.81,2.45-3.57,3.59-5.4,3.38-5.46,6.54-11.08,10.13-16.39,3.28-4.86,7.02-9.42,10.76-14.37-.08-.45-.22-1.28-.32-1.89.77-.82,1.45-1.54,2.2-2.32.61-.08,1.3-.16,1.67-.21,2.01-1.75,3.82-3.34,5.63-4.92-.09-.13-.19-.26-.28-.38.75.08,1.51.15,2.39.24.55.51,1.17,1.08,1.85,1.72-1.35,2.69-2.62,5.23-3.79,7.56.67,1.64,1.27,3.05,1.83,4.47.49,1.26,1.29,2.35,1.66,3.7.32,1.19,1.61,1.26,2.84,1.02.58.88,1.18,1.78,1.96,2.95-.3,1.03-.71,2.25-1.01,3.51-.21.88-.25,1.8-.35,2.54,1.29,1.28,1.77,1.5,4.49,2.2,0-1.15-.1-2.28.03-3.39.14-1.18.14-2.47,1.4-3.23.29-.18.45-.63.58-.98.85-2.33,2.61-4.02,4.13-5.86,1.01-1.22,2.44-1.82,4.02-2.09,1.04-.18,2.04-.57,2.99-.84.23-2.08.56-3.9.58-5.73.01-1.49.33-2.86.66-4.29.29-1.23.06-2.58.06-4.09-2.05-1.16-2.91-3.2-2.9-5.85.53-.56,1.17-1.23,1.8-1.89,2.78-.96,5.78.31,8.48-.95.13-.06.32-.12.45-.07,1.28.52,2.58,1.03,3.83,1.61,1.33.62,2.29,1.56,2.41,3.14.02.22.09.46.21.65.52.86,1.2,1.65,1.55,2.56.32.84.3,1.82.42,2.66-.93,2.85-2.72,4.48-5.74,4.02-1.11.57-1.7,1.43-1.78,2.45-.28,3.37-.88,6.66-1.78,9.92-.51,1.84-.8,3.74-1.2,5.66,1.64.96,2.42-.53,3.46-1.12,1.13-.64,2.22-1.36,3.53-2.17,3.17-.26,6.6-.45,9.76-2.19,1.78-.98,3.76-1.42,5.85-1.04.59.11,1.22-.06,1.81-.1.9.64,1.83,1.2,2.65,1.89,2.2,1.87,2.83,4.68,4.03,7.14.24.5-.02,1.38-.29,1.98-.53,1.2-1.21,2.34-1.87,3.48-1.21,2.09-2.13,4.28-2.35,6.66-.57.62-1.1,1.18-1.62,1.74-1.08.23-2.12.61-3.17.66-3.21.16-6.06-.76-8.44-3.02-.67-.63-1.49-1.12-2.31-1.55-.37-.2-.97-.28-1.33-.12-1.84.85-3.8.41-5.69.63-.74.09-1.55.19-2.18.55-1.66.96-3.24,2.06-5.01,3.2-1.91-.11-3.98-.22-6.08-.33-1.05,2.27-2.59,4-4.67,5.34-1.15.74-2.15,1.74-3.14,2.71-2.58,2.52-5.49,3.03-8.71,1.53-1.35-.63-2.23-1.59-2.74-2.99-.65-1.79-1.67-3.32-3.47-4.28v-2c.5-.56,1.12-1.25,1.7-1.9.17-1.48-.14-2.79-.78-4.09-.5-1.02-.69-2.19-1.1-3.26-.23-.61-.61-1.17-.89-1.69-.5.08-.79.04-.94.17-3.77,3.3-8.1,5.29-13.12,5.71-1.11.09-1.77.58-2.31,1.61-1.68,3.22-3.42,6.42-5.3,9.53-1.47,2.45-3.17,4.76-4.96,7.42Zm45.84-20.07c-1.65-.8-3.04-1.47-4.85-2.34.61,1.26,1.03,2.12,1.49,3.09,1.07-.32,2.14.6,3.36-.74Z"/><path class="cls-1" d="m466.45,270.93c3.97,0,4.04.02,7.03,2.24.28,1.06.56,2.15.91,3.49,1.6-.46,3.04-.92,4.5-1.29,1.33-.33,2.71-.46,4.03-.85,1.99-.58,3.99-.12,5.98-.21.9-.04,1.79-.36,2.57-.53,1.8.66,3.51,1.36,5.27,1.92,4.11,1.31,7.71,3.6,11.33,5.86.44.27.89.71,1.08,1.17.74,1.76,1.37,3.57,2.12,5.58,1.9,1.24,5.1,1.69,4.77,5.26-.9,1.28-1.74,2.46-2.75,3.89-1.98.2-3.11,2.16-4.37,3.69-1.83,2.21-3.96,3.27-6.75,3.23-1-.01-2,0-3.13,0-.16.39-.31.79-.62,1.56,1.04-.17,1.75-.29,2.64-.44,1.05,1.35,2.2,2.84,3.27,4.23-.81,3.44-3.45,4.99-6.13,6.43-4.23,2.27-8.5,4.46-12.77,6.63-2.14,1.08-4.3,1.47-6.66.39-2.33-1.06-2.99-2.61-1.68-4.75.27-.45.63-.85,1.03-1.38-1.54-.35-3-.67-4.58-1.03-.19-1.14-.38-2.25-.58-3.43,1.25-.95,2.42-1.97,3.73-2.78,1.44-.88,2.14-2.18,2.58-3.7.81-2.8,1.52-5.64,2.44-8.4.49-1.48,1.14-2.86.9-4.48-.05-.34.18-.72.28-1.08.49-1.69,1.09-3.35,1.46-5.07.33-1.57.42-3.19.61-4.79-1.3-.4-3.56.22-10.66,2.95-.64,4.93-1.22,9.83-1.94,14.7-.3,2.05-.9,4.05-1.31,6.09-.15.75-.09,1.54-.17,2.31-.16,1.49-.3,3-.57,4.47-.09.5-.53.93-.82,1.39-.54.84-1.16,1.63-1.62,2.51-1.4,2.66-4.68,3.64-7.21,2.02-1.16-.74-2.21-1.64-3.53-2.63-.39-.04-1.08-.17-1.77-.18-2.1-.06-2.78-.8-3.42-3.02-.49-1.69-.4-1.71-1.42-2.93.05-1.11.11-2.33.17-3.51-1.73-1.6-3.52-3.27-5.18-4.81-.02-2.23-.07-2.34-2.47-5.69-.72,1.22-1.11,4.71-.75,6.51-.85,1.63-1.5,3.24-1.68,5.06-.1.95-.49,1.9-.87,2.8-.83,2-1.69,3.99-2.61,5.94-.28.59-.81,1.07-1.35,1.77-1.22-.63-2.28-1.19-3.44-1.79,0-.73-.12-1.36.02-1.94.51-2.09,1-4.2,1.7-6.23,1.12-3.27,1.91-6.6,2.4-10.02.37-2.51.93-5,1.27-7.51.3-2.22.56-4.47-.53-6.61-.27-.54-.43-1.14-.69-1.87-1.15-.22-2.35-.47-3.56-.67-2-.33-3.67-1.1-4.66-3.03-.42-.81-.34-1.44.17-2.13.94-1.26,2.37-1.93,3.75-2.12,3.04-.42,6-1.46,9.16-1.1,1.17.13,2.29.21,3.33.82.87.51,1.78.95,2.71,1.34,3.33,1.39,4.92,4.09,5.69,7.42.38,1.64.72,3.28,1.19,5.39-.12.38-.4,1.25-.64,2.13-.33,1.17-.02,2.26.39,3.38.4,1.1.7,1.99,1.98,2.57,1.01.46,1.66,1.76,2.43,2.71.57.71,1.07,1.47,1.67,2.31,1.2-.84,2.33-1.63,3.49-2.45,0-2.52,0-4.96,0-7.4,0-.15-.01-.31.03-.45,1.16-3.95.75-7.93.26-11.93-.18-1.45-.15-2.92-.23-4.56.81-.99,1.72-2.12,2.79-3.42Zm26.75,12.1c-.64,3.6-1.07,6.8-1.79,9.94-.73,3.17-1.75,6.26-2.75,9.75.79-.34,1.28-.5,1.71-.75.93-.56,1.8-1.21,2.74-1.75,3.04-1.76,5.68-3.99,7.77-6.8,1.04-1.39,2.22-2.85,1.7-4.48-2.35-3.45-5.65-4.63-9.38-5.9Z"/><path class="cls-1" d="m208.43,212.15c.43-.5.78-.72.78-.93-.06-2.05.8-3.85,1.49-5.68,1.3-3.47,2.62-6.95,4.17-10.31,1.55-3.36,3.39-6.59,5.11-9.87.73-1.39.7-1.8-.52-2.73-1.16-.88-2.32-1.63-3.91-1.86-3.95-.57-6.6-3.76-6.75-7.73-.04-1.06.5-1.77,1.59-1.92.61-.08,1.25-.07,1.85.01,1.68.23,3.35.49,5.02.8,1.83.34,3.6.81,5.05,2.13,1.35,1.21,2.91,1.81,4.81,1.98,4.6.42,7.66,4.66,5.25,9.16-2.12,3.96-4.29,7.9-6.42,11.85-2.24,4.16-4.11,8.46-5.38,13.02-.04.15,0,.34-.07.45-1.5,2.28-1.81,4.88-1.86,7.58-.79.58-1.55,1.13-2.31,1.69-3.24,1.17-6.64-.45-7.41-3.33-1.92,1.71-3.7,3.67-5.83,5.1-2.28,1.53-5.03.99-7.71.68-3.41-2.63-4.06-3.52-5.01-6.94-.82-.54-1.71-1.13-2.47-1.62-.28-1.46-.55-2.87-.84-4.33-1.93-.71-3.72-1.39-5.52-2.04-2.61-.94-5.31-1.69-7.8-2.87-1.78-.84-3.41-2.1-4.43-3.95-.75-1.35-1.61-2.65-3.4-2.93-2.18,2.64-3.12,5.85-4.15,8.96-1.01,3.06-2.84,5.86-3.1,9.16.3.37.53.68.79.96,2.46,2.74,1.79,6.83-1.36,9.02-.38.26-.61.73-.99.97-.51.33-1.1.75-1.65.76-2.47.03-4.94-.39-6.25-2.74-.97-1.74-1.18-3.83-.82-5.85.29-1.65.73-3.27,1.11-4.89.07-.29.2-.56.31-.84,1.06-2.66,2.11-5.33,3.19-7.98.29-.71.61-1.44,1.05-2.07.45-.65,1.03-1.18.64-2.07-.05-.12-.01-.31.05-.44.84-1.73,1.67-3.47,2.56-5.17,2.44-4.66,4.78-9.36,6.5-14.35.44-1.28.81-2.64,1.5-3.78.89-1.46,2.45-2.05,4.22-2.32.95,1.05,1.92,2.12,2.62,2.89.38,4.07-1.17,7.29-2.6,10.63.59.29.97.6,1.38.66,3.34.5,6.69.95,10.03,1.4.53.07,1.09.04,1.63,0,3.93-.31,7.86-.63,11.79-.96,1.46-.12,2.61-.91,3.7-1.76.11-2.53-1.37-4.45-3.92-5.31-2.41-.82-4.77-1.78-7.18-2.62-4.01-1.4-8.05-2.7-12.04-4.16-3.63-1.33-7.2-2.86-10.81-4.24-2.23-.85-4.52-1.56-6.76-2.4-3.05-1.14-6.02-2.44-8.66-4.41-.82-.62-1.21-1.36-1-2.37,1.57-2.11,3.63-2.36,6.03-1.85,5.25,1.13,10.3,2.92,14.91,5.57,4.53,2.6,9.42,4.27,14.09,6.47,3.08,1.45,6.29,2.78,9.06,4.72,2.83,1.99,5.93,3.74,8.15,6.49,1.06,1.31,1.87,2.81,2.63,3.96-.15,1.48-.24,2.62-.39,3.75-.04.27-.3.49-.43.75-1.78,3.73-5.17,4.5-8.82,4.76-.3.02-.61-.05-1.11-.1-.64,1.14-1.3,2.31-1.99,3.56,4.64,2.4,9.1,4.7,13.54,7.01,1.8.94,3.54,1.95,4.55,3.84.15.27.31.54.53.93Z"/><path class="cls-1" d="m42.65,310.81c2.15.53,3.95.91,5.65.18.12-.22.19-.29.19-.36-.11-2.8.34-5.55,1.1-8.21.99-3.45.21-6.93.47-10.38.14-1.9,0-3.76.6-5.67.37-1.17.11-2.56,1.25-3.43-.59-1.46-1.11-2.73-1.68-4.13h-3.06c-.51.92-.09,1.9.1,2.85.91,4.48-1.99,8.61-6.46,9.17-.38.05-.75.2-1.13.24-5.49.53-7.32,4.59-8.81,9.03-.77,2.3-2,4.38-4.05,5.76-1.86,1.25-3.54,1.15-5.01-.44-.42-.45-.89-.84-1.48-1.39-.11-.31-.18-.89-.48-1.3-1.77-2.46-.92-4.96.04-7.3,1.12-2.7,2.19-5.44,4.06-7.81,1.09-1.37,1.7-3.12,2.5-4.71.52-1.04.94-2.13,1.49-3.15.63-1.18.84-2.42,1.03-3.75.3-2.15.58-4.38,2.45-6.02.83-.73,1.58-1.84,1.83-2.9.57-2.36,1.81-4.23,3.64-6.1,2.9-.04,5.26,1.28,7.08,3.66,2.8.37,5.42-.35,8.06-.89.5-.1,1.13-.38,1.39-.78,1.82-2.79,4.52-2.38,7.1-1.86,1.87.38,3.64,1.21,5.57,1.87.32.45.72,1,1.13,1.57,1.77.26,2.3-1.44,3.53-2.13,2.62-.21,5.39-.71,7.4,2.21,2.12-.55,4.31-.66,5.84-2.96,1.36-2.03,3.64-2.8,6.24-2.08,1.18,1.36,2.39,2.77,3.88,4.49-.05.78-.19,2.22-.23,3.67-.04,1.81-.43,3.52-1.11,5.18-.2.49-.6,1.18-.41,1.5,1.14,2.05-.32,4.31.73,6.2-.45.83-.81,1.51-1.19,2.19-1.87,3.33-4.02,4.3-7.61,3.47-.52-.49-.97-1.07-1.54-1.42-1.93-1.17-2.62-2.88-2.52-5.06.04-.79-.19-1.6-.29-2.31-1.79.03-3.62.13-5.45.07-1.06-.03-1.95.23-2.83.8-2.79,1.83-5.57,3.66-8.43,5.36-1.37.81-2.91,1.32-4.58,2.05-.06.21-.22.64-.29,1.09-.34,2.34-.84,4.69-.93,7.04-.07,1.82-.58,3.46-1.18,5.1-.47,1.28-1.25,2.47-1.52,3.78-.54,2.65-1.84,5.01-2.63,7.55-.2.65-.25,1.35-.29,1.58,1.06,1.81,2.06,3.2,2.75,4.73,1.65,3.66-.35,8.84-4.12,9.56-2.77.53-5.44,1.53-8.18,2.25-1.51.4-4.4-.87-5.27-2.26-1.48-2.35-1.8-4.81-.8-7.47.99-2.63,2.2-5.08,4.54-6.78.61-.45,1.29-.8,1.89-1.17Z"/><path class="cls-1" d="m407.12,398.9c-.51,3.09-.99,6.03-1.52,9.27,1-.28,1.7-.48,2.59-.73.68.46,1.48,1.06,2.32,1.57,2.38,1.45,2.93,5.56.89,7.76-.62.67-1.16,1.41-1.77,2.16-1.07.37-2.23.75-3.37,1.18-1.12.42-2.01,1.07-2.41,2.29-.77,2.33-2.56,3.1-4.83,2.98-1.27-.07-2.46.09-3.56.75-2.32,1.4-4.55.89-6.46-.94-1.17-1.12-2.2-2.39-3.28-3.58-.42-1.2.36-2.06.79-3.03.47-1.05,1.29-1.3,2.35-1.56.96-.24,1.77-1.1,2.91-1.86.36-1.32,1.52-2.34,2.83-3.36,1.92-1.5,3.31-3.33,3.11-6.1-.13-1.72.36-3.49.56-5.24.15-1.3.34-2.6.42-3.91.1-1.72.33-3.36.76-5.06.88-3.5,1.33-7.1,1.97-10.66.2-1.14.43-2.28.62-3.42.19-1.19.34-2.39.49-3.5-1.6-.8-2.95-1.46-4.45-2.21-.9,1.53-1.78,3.03-2.66,4.54-1.31,2.26-2.49,4.61-4.66,6.23-.06.05-.16.08-.18.14-1.25,3.39-4.93,4.32-7.02,6.88-.54.66-1.55,1.01-2.42,1.31-2.03.69-4.07,1.39-6.16,1.83-1.25.26-2.6.05-3.84.05-.31-.29-.48-.57-.73-.68-2.82-1.2-3.47-4.01-4.72-6.35-.56-1.05-.02-2.12.47-3.1,1.66-3.3,3.45-6.56,6.11-9.16,2.01-1.96,3.18-4.38,4.27-6.84,1.81-4.09,5.17-6.36,9.17-7.48,3.01-.84,6.28-.58,9.35.33,1.34.4,2.45,1.09,2.96,2.66.37,1.13,1.28,2.07,1.97,3.14,2.25-.45,4.58-.83,6.86-1.4,1.04-.26,1.97-.72,2.99.02.22.16.6.11.91.11,3.31-.01,6.52.48,9.78,1.17,2.91.61,5.84,1.05,8.62,2.11,2.93,1.12,6.01,1.85,8.74,3.53,2.78,1.72,4.16,3.98,3.6,7.27-.05.3-.05.62-.07,1.03,1.09.88,1.69,2.04,1.65,3.55-.01.45.46.92.82,1.59-.74,1.81-1.54,3.77-2.44,5.98-1.13.45-2.47,1.02-3.83,1.52-1.52.56-2.85-.27-4.21-.71-.72-.24-1.39-.69-2.04-1.11-2.13-1.38-4.07-1.11-6.04.78-.62.59-1.21,1.21-1.84,1.78-1.17,1.06-2.47,1.75-4.12,1.84-.77.04-1.64.45-2.25.96-1.51,1.27-3.22,2.08-5.04,2.72-.58.2-1.15.45-1.7.74-1.38.73-1.37.74-3.25.2Zm-13.78-31.7c-2.85-1.95-5.64-1.02-8.43-.09-.77.26-1.17.74-1.43,1.6-.49,1.57-1.22,3.06-3.16,3.42-.48.09-.9.55-1.33.88-2.39,1.83-3.43,4.54-4.1,7.26-.29,1.18-1.1,2.62-.31,3.92,1.06.5,1.92.15,2.76-.26.83-.41,1.62-.9,2.46-1.29,5.35-2.47,9.33-6.51,12.73-11.17.85-1.17,1.42-2.58.8-4.27Zm17.52,16.27c1.55-1.47,3.2-1.47,4.83-1.64,2.04-.22,4.06-.54,5.99-1.4,1.81-.8,3.74-1.35,5.64-1.95.82-.26,1.35-.65,1.43-1.81-2.19-.52-4.31-1.1-6.47-1.51-2.83-.54-5.69-.94-8.53-1.4-1.1-.18-1.78.36-1.9,1.44-.09.82-.21,1.64-.38,2.45-.35,1.71-.99,3.38-.6,5.82Z"/><path class="cls-1" d="m292.34,48.3c1.12,2.61-.21,4.5-.94,6.49-1.65,4.49-3.71,8.8-5.89,13.05-.12.23-.02.58-.02,1.05,4.82-.44,9.56-.74,14.46.18v-3.53c.7-1.61,2.33-2.33,4.02-3.09-.07-1.4.63-2.44,1.26-3.58.76-1.39,1.09-3.02,1.6-4.55.5-1.53.86-3.14,2.44-4.13-.03-.49-.05-1.02-.09-1.71-1.82-.71-3-2.16-3.79-3.95.07-3.34-.13-3.13,1.52-4.7,2.12-.49,4.13-.98,6.14-1.41,2.93-.62,5.85-1.45,8.89-1.09,1.21.14,2.41.38,4.1.65,1.34,1,3.07,2.28,4.61,3.43,1.42,2.33.57,4.16-.66,5.97-1.39,2.04-2.92,3.93-4.59,5.77-1.79,1.97-3.61,3.79-6.12,5.23.17.73.33,1.44.5,2.16.26,1.11.61,2.21.74,3.34.17,1.49-.33,2.71-1.81,3.4-.47.22-.85.65-1.24,1.02-1.06.99-2.11,2-3.23,3.07-1.42,3.22-2.92,6.6-4.51,10.21.08.32.1.98.4,1.48.55.93.21,1.73-.18,2.51-.59,1.17-1.3,2.29-1.94,3.44-.67,1.21-1.49,2.38-1.21,3.85,1,1.91,2.74,3.48,2.26,6.06-2.47,3.4-6.07,4.69-10.21,4.33-2.16-.19-4.05-1.41-5.57-3.03-1.76-1.87-1-5.78,1.12-6.87,1.52-.78,1.93-2.36,2.59-3.72,1.43-2.91,2.72-5.87,4.08-8.81.12-.27.23-.61.45-.76,2.45-1.69,1.85-4.48,2.83-6.7-.44-.16-.67-.3-.71-.26-1.99,1.89-4.6,2-7.08,2.31-3.15.4-6.33.44-9.43,1.24-1.02.26-2.15.24-3.22.19-1.17-.05-2.12.31-2.59.73-2.34,4.35-4.65,8.21-6.54,12.27-1.84,3.97-4.69,7.45-5.89,11.9,2.16.15,4.16.29,6.18.43.71,1.33,1.36,2.53,1.93,3.6-.68,2.37-2.15,3.81-4.05,4.8-.79.41-1.73.54-2.61.79-.71.2-1.42.4-2.44.7-1.93-.7-4.17-1.7-6.76-1.38-.81.1-1.8-.4-2.54-.89-.82-.55-1.51-1.34-2.14-2.12-1.27-1.56-1.32-3.07.31-4.23,1.77-1.26,2.52-3.06,3.48-4.8,3.09-5.63,6.22-11.23,9.31-16.86.55-1,1-2.05,1.67-3.45-2.78-.09-5.21-.15-7.64-.25-2.39-.1-4.77-.24-7.16-.36-2.74-2.29-2.74-2.31-1.63-4.69,3.25-2.1,6.84-1.65,10.25-2.11,2.06-.28,4.13-.47,6.2-.67,1.44-.14,2.88-.23,4.33-.34,3.61-7.37,6.05-14.96,7.98-23.44.93-1.26,2.57-1.23,4.7-.95,2.23.3,3.07,1.85,4.08,2.79Z"/><path class="cls-1" d="m494.72,416.26c-3.25-.5-6.48-.02-9.61,1.56-1.89-2.25-3.59-4.21-5.22-6.23-.67-.84-.57-1.5.12-3.95,2.51-1.57,5.02-3.15,7.66-4.81.1-1.87.19-3.77.3-5.75-2.22,1.2-4.27,2.38-6.38,3.42-2.91,1.45-5.68,1.27-8.1-1.1-1.81-1.77-4.07-2.59-6.44-3.25-1.25-.35-2.46-.8-3.31-1.08-1.61-1.82-1.08-3.69-1.29-5.46-1.17-.63-2.31-1.24-3.46-1.86-1.26,1.87-2.84,9.69-2.49,12.44.76.95,1.89,1.68,2.14,3.11.25,1.45-.04,2.62-1.19,3.48-.87.64-1.68,1.43-2.64,1.87-1.91.88-2.36,2.62-2.54,4.33-.21,1.99-1.03,3.5-2.79,5.01-.91-.14-2.08-.31-3.11-.47-.58-1.05-1.02-1.85-1.53-2.76-2.59.59-4.76-.49-6.7-1.56-.55-1.71-.89-3.22-1.5-4.62-.97-2.22-.52-4.33.39-6.36.31-.7,1.16-1.16,1.81-1.78h7.24c.38-2.47.67-4.76,1.11-7.02.6-3.1,1.29-6.19,2-9.28.55-2.38,1.17-4.75,1.76-7.13.13-.52.31-1.04.33-1.57.03-.61-.09-1.23-.14-1.84.73-1.83,2.86-3.26,1.67-5.78-3.44-.45-6.8.12-10.16.39-1.28-.85-2.55-1.68-3.77-2.49-.06-1.17-.11-2.17-.15-3.19,1.65-1.49,3.75-1.41,5.67-1.77,1.81-.35,3.7-.59,5.53-.49,2.73.15,5.49-.56,8.21.23.4.12.91-.2,1.36-.18.99.04,2,.09,2.97.28.9.17,1.73.67,2.7.32.27-.1.64-.09.91,0,2.59.95,5.19,1.86,7.72,2.94,1.24.53,2.33,1.41,3.29,2,.63,4.1.66,4.75-3.4,7.21-1.78,1.08-3.52,2.26-5.38,3.2-1.34.68-2.85,1.03-4.45,1.59,0,.2-.11.67.03,1.05.21.57.51,1.15.92,1.59,2.48,2.71,5.29,4.92,9.09,5.43,1.38.18,2.77.26,4.15.43,3.24.39,5.96,2.12,8.74,3.61.67.36,1.06,1.26,1.65,2.02,1.38-2.15.35-4.5.93-6.65.58-2.14.81-4.38,1.16-6.58.35-2.21.67-4.43,1.01-6.72.36-.43.69-.99,1.18-1.35.59-.44,1.28-.89,1.98-1,1.21-.19,2.47-.09,3.7-.15,2.18-.09,3.73,1.81,4.12,4.21.29,1.78.14,3.61-.61,5.44-.7,1.7-.76,3.67-1.06,5.53-.27,1.73-.48,3.47-.72,5.2-.58,4.11-1.21,8.21-1.72,12.33-.27,2.21-.36,4.44-.5,6.66-.14,2.11-1.26,4.85-3.18,7.33Z"/><path class="cls-1" d="m658.76,202.4c2.04-1.3,4.05-2.58,6.1-3.89-.08-.68-.13-1.2-.2-1.72-.22-1.69-.45-3.37.2-5.05.22-.56.34-1.24.27-1.83-.14-1.08-.24-2.11.17-3.18.17-.45-.02-1.06-.13-1.59-.6-2.93-.27-4.98,1.37-7.9.6-.09,1.28-.31,1.96-.29,3.39.13,4.97,1.76,5.54,5.04.37,2.11.23,4.26.81,6.41.46,1.73.12,3.7.07,5.55-.03.92-.2,1.84-.29,2.67,1.14,1.64,1.92,3.24,1.91,5.22,0,1.02.43,2.11.92,3.04,1.09,2.04.98,4.06-.07,5.95-.8,1.45-1.65,2.93-3.25,3.83-.75.42-1.2,1.36-1.75,2.03-.12,1.77-.25,3.46-.34,5.16-.02.45.04.93.17,1.37.99,3.43.51,6.89.3,10.5,1.43.96,1.12,2.53.97,4.17-1.13.92-2.32,1.88-3.69,2.99-1.1-.26-2.4-.44-3.59-.9-1.14-.44-2.17-1.18-3.4-1.88-.14-1.36-1.08-2.37-1.86-2.96-.38-1.55-.66-2.72-.96-3.9-.04-.15-.22-.29-.2-.41.35-2.44-1.36-3.86-2.52-5.66-1.09-1.69-1.48-3.84-2.1-5.81-.98-3.11-2.1-6.13-4.28-8.65-.49-.56-.79-1.29-1.17-1.93-1.92-1-3.83-2-5.71-2.98-1.39,2.19-3.04,9.98-2.68,12.34-.92,1.96-1.84,3.91-1.71,6.16.03.53-.08,1.08-.2,1.6-.64,2.6-1.31,5.2-2,7.92.24.5.52,1.1.73,1.53-.13,2.27-2.92,3.74-4.6,2.63-1.03-.68-2.02-1.41-3.16-2.21-.33-1.76-.49-3.56.17-5.52.7-2.08.8-4.36,1.29-6.53.59-2.61.41-5.37,1.58-7.86.13-.27.22-.62.17-.9-.49-3.01.96-5.74,1.37-8.62.3-2.18,1.04-4.42,1.69-6.6.23-.79.23-1.65.32-2.4-3.34-3.34-6.96-6.34-6.45-11.59,1.26-2.72,3.69-3.52,6.8-2.56,1.62.5,3.03.02,4.51-.35.89-.23,1.77-.62,2.67-.68,2.8-.18,5.26,1.82,5.95,4.77.37,1.58.62,3.18.99,4.75.16.66.36,1.37.75,1.91,2.08,2.85,4.23,5.64,6.6,8.77Z"/><path class="cls-1" d="m327.36,365.81c.19-.24.51-.64.96-1.2-.58-.35-1-.8-1.45-.85-1.92-.18-3.19-1.4-4.4-2.64-1.87-1.92-2.6-4.65.82-6.64.53-.31,1.05-.63,1.57-.94,1.74.48,3.5,1.01,5.28,1.42.74.17,1.57.21,2.31.08,3.65-.64,7.24-.02,10.84.38,1.69.19,3.39.36,5.08.43,2.26.1,4.24,1.05,6.33,1.71,1.35.43,2.56.92,3.67,1.76,1.45,1.1,2.29,2.47,2.04,4.38-.08.61-.01,1.23-.01,1.84-4.28,4.19-10.03,5.72-15.1,8.95,1.3.92,2.45,1.79,3.65,2.56,2.02,1.29,4.08,2.49,5.77,4.26.88.92,2.11,1.51,3.19,2.23,1.92,1.28,3.82,2.6,5.79,3.81,2.92,1.79,4.1,4.68,5.03,7.73.29.95.34,1.96.52,3.05-.88.76-1.83,1.45-2.61,2.28-.89.95-1.68,2.02-2.44,3.08-1.43,2-3.24,2.5-5.43,1.56-.82-.36-1.74-.5-2.95-.83-1.32-1.22-2.03-3.24-2.9-5.1-.67-1.44-1.61-2.18-3.05-2.51-.3-.07-.64-.03-.91-.15-3.33-1.39-6.66-2.8-9.98-4.22-.78-.33-1.53-.71-2.26-1.06-.27-1.07-.53-2.13-.9-3.63.14-.76.74-1.61,1.96-2.06,1.09-.41,1.95-1.18,2.75-2.12-1.22-1.88-3.38-1.98-4.66-3.19-1.11.29-.96,1.05-1.11,1.72-.62,2.86-1.49,5.61-3.62,7.98.11,2.32-1.78,3.97-2.65,6.14.33,1.44,1.73,2.06,2.58,3.15,1.08-.11,2.14-.22,3.17-.33,1.6,1.72,2.43,3.54,1.38,5.7-.95,1.95-1.89,3.99-3.74,5.24-1.31.89-2.85,1.45-4.3,2.14-.2.09-.46.1-.69.06-2.05-.31-4.1-.63-6.1-.95-1.29-2.05-2.53-3.99-3.75-5.94-.68-1.08-.84-2.19-.43-3.44.31-.94.43-1.95.71-3.25,1.58-1.2,3.42-2.6,5.02-3.81.63-3.74,1.21-7.29,1.85-10.83.15-.81.67-1.56.81-2.37.7-4.1,1.34-8.21,1.98-12.32.15-.97.24-1.95.39-3.27Zm9.66,2.86c3.77-1.19,7.61-1.98,11.12-4.08-.87-.9-1.77-.7-2.69-.58-1.13.15-2.32.46-3.39.26-1.92-.36-3.74-.09-5.6.21.18,1.34.35,2.59.57,4.19Z"/><path class="cls-1" d="m258.13,181.96c-3.07-2.95-5.49-3.69-8.49-.78.54,3.35-.86,6.36-2.13,9.42-.34.83-.43,1.77-.66,2.64-.13.5-.23,1.06-.51,1.47-1.21,1.77-2.98,2.68-5.05,3-.42.07-.91-.07-1.32-.23-.79-.32-1.51-.81-2.31-1.07-2-.66-2.87-2.2-3.43-4.06-.19-.64-.5-1.24-.75-1.85.06-.75.1-1.54.2-2.32.11-.82.12-1.7.45-2.44.55-1.23.64-2.36-.19-3.58.51-1.64,1.03-3.32,1.4-4.53,1.22-1.08,2.16-1.76,2.93-2.61,1.01-1.11,2.1-1.49,3.52-.93.71.28,1.46.43,2.47.71.39-.81.76-1.57,1.12-2.33-.09-.06-.19-.12-.28-.18.57-.37,1.13-.74,1.92-1.25-.32-.93-.63-1.84-.95-2.81.21-1.23.3-2.58.68-3.84.37-1.24,1.04-2.39,1.54-3.51,3.92-.88,6.25,1.74,7.53,4.81.41.98.93,1.93,1.51,2.82.28.42.82.67,1.03.84,2.27-.42,4.32-.69,6.31-1.2,2.53-.65,5.06-1.37,7.47-2.34,1.07-.43,1.92-1.51,2.78-2.38,1.56-1.59,3.32-1.88,5.21-.75,1.91,1.14,3.09,2.84,3.6,5.33,1.85-.73,3.71-1.37,5.49-2.2,2.82-1.31,3.95-1.2,6.26.87,1.04.93,2.1,1.83,3.21,2.79v1.7c.35.21.95.58,1.29.79.09,1.69.16,2.99.24,4.37-.69,2.07-1.09,4.44-3.44,5.59-1.25.29-2.52.84-3.76.81-1.25-.03-2.49-.64-4.07-1.09-4.42,2.16-8.73,5.41-14.26,6.92-.29-.08-.95-.26-1.7-.47-1.45-2.67-3.84-4.95-3.51-8.76-1.88.74-3.25,1.46-4.71,1.81-1.38.33-2.84.26-4.49.38,1.57,1.43,3.01,2.76,4.37,4-.04,2.33-1.02,4.12-1.79,6.04-1.37,3.43-3.64,6.52-4.49,10.06-.8,3.3-2.52,6.39-2.34,9.99.09,1.86-.67,3.76-.92,5.66-.25,1.94-1.56,2.49-3.19,2.72-.38.06-.77.12-.99.16-2.89-.61-4.75-2.35-6.07-4.71.31-1.88.42-3.81,1-5.58.4-1.23.82-2.44,1.08-3.7.22-1.13.35-2.28.66-3.38.51-1.81,1.05-3.61,1.71-5.37.99-2.59,2.09-5.15,3.16-7.71,1.18-2.81,2.68-5.4,5.28-7.18.18-.12.27-.36.4-.54Z"/><path class="cls-1" d="m675.72,185.85c1.16-2.39,2.94-3.87,4.88-5.19.36-.25.83-.37,1.27-.48.97-.26,2.01-.34,2.91-.76,2.14-1,4.39-.8,6.6-.79,4.1.03,8.21.13,12.3.36,3.47.2,7.1.06,10.35,1.06,5.14,1.58,10.26,3.55,13.19,8.77,2.12,3.78,2.52,7.54.92,11.54-.31.78-.62,1.57-.98,2.47.65.57,1.3,1.1,1.9,1.67,1.36,1.29,1.95,2.81,1.07,4.58-1.13,2.27-2.18,4.6-4.25,6.25-1.08.86-2.08,1.84-3.11,2.76-1.78,1.59-3.87,2-6.22,1.87-1.81-.1-3.19-1.08-4.74-1.72-1.42-.59-2.42-.13-2.85,1.32-.13.44-.2.91-.26,1.37-.04.31.02.62,0,.93-.08,1.66-.47,2.08-2.08,2.54-3.71,1.07-7.44,2.07-10.74,4.22-2.34,1.52-5.16,1.46-7.8,1.92-.47.08-1.03-.2-1.52-.4-.5-.2-.94-.55-1.43-.77-1.86-.83-3.6-1.78-4.41-4.22.46-1.48,1.02-3.29,1.6-5.13,1.05-.48,2.17-.99,3.32-1.53-.07-.65-.21-1.25-.2-1.85.03-2.04,1.12-3.32,3.14-3.61.87-.12,1.71-.15,2-.7.2-1.24.33-2.12.48-2.99.45-2.51.68-5.08,1.41-7.5.92-3.06.63-6.22,1.23-9.3.32-1.64.13-3.4.06-5.1-.01-.38-.46-.74-.74-1.16-1.65.17-3.21.44-4.85.22-.82-.11-1.76.48-2.6.85-.84.37-1.62.89-2.46,1.29-2.43,1.14-5.13.38-6.66-1.85-.22-.31-.47-.6-.74-.94Zm24.6,24.48c1.95-.56,3.78-.88,5.43-1.61,4.92-2.16,9.07-5.38,12.08-9.85,1.6-2.39,2.5-5.08.34-7.69-.7-.85-1.62-1.63-2.6-2.11-3.42-1.65-7.13-2.01-10.86-2.05-.96-.01-1.93.28-2.74.41.19,1.47.45,2.75.48,4.04.04,1.62-.3,3.26-.14,4.86.25,2.51-.28,4.86-.83,7.27-.51,2.21-1.42,4.38-1.15,6.74Z"/><path class="cls-1" d="m439.42,231.77c.48.35.95.69,1.3.95.36,1.31.68,2.48,1.1,3.97-.44,1.65-1.39,3.36-2.71,4.94-1.19,1.42-2.29,2.94-3.25,4.52-1.26,2.09-2.91,3.8-4.73,5.37-1.04.9-2.17,1.4-3.62,1.02-.96-.25-2.02-.1-2.96-.38-3.66-1.1-5.43-3.81-6.06-7.39.82-1.23,1.69-2.29,2.89-3.19.97-.73,1.45-2.09,2.16-3.17.55-.83,1.02-1.58,2.18-1.89.74-.2,1.26-1.25,1.84-1.97,1.69-2.09,3.76-3.49,6.57-3.68.04-.07.22-.26.18-.34-1.09-2.27-.32-4.36.58-6.45.33-.77.76-1.49.34-2.43-.18-.4.04-1,.13-1.51.74-4.33,2.84-8.14,4.51-12.13,1.12-2.68,3.09-4.76,4.52-7.21.61-1.04,1.37-2,2.24-3.26-6.11-.1-12.05.3-17.51-3.03-.23-.39-.55-1-.92-1.59-1.71-2.68-1.74-5.41-.04-8.07,1.03-1.62,2.22-3.13,3.37-4.66,1.33-1.78,2.53-3.7,4.09-5.25,2.95-2.93,5.33-6.42,8.73-8.89,1.37-1,2.79-2.07,4.36-2.62,1.41-.49,3.04-.31,4.24-.4,1.9.66,1.56,2.3,2.34,3.33-.27.55-.39,1.24-.77,1.46-2.46,1.37-3.88,3.77-5.76,5.69-3.29,3.37-6.66,6.68-9.4,10.55-.93,1.32-1.88,2.62-3.01,4.19.78.34,1.42.82,2.09.87,1.61.13,3.25.07,4.87.07,3.02,0,6.04,0,9.06,0,2.29,0,4.79,1.78,5.51,3.93.34,1.02.58,2.08.92,3.32-.14.37-.35.93-.57,1.52,1.19,1.04,2.95,1.08,3.64,2.79.63,1.56.58,2.95.14,4-.99,1.33-1.71,2.33-2.47,3.29-.27.35-.67.6-.98.91-.54.54-1.32,1.01-1.56,1.67-.85,2.32-2.69,3.95-3.99,5.94-1.14,1.74-2.73,3.25-5.28,2.24-.42-.17-1.1.32-1.39.42-1.44,2.87-1.19,5.88-2.57,8.42-.15.27-.22.59-.4.84-.94,1.39-1.67,3.06-3.93,2.78v.5Z"/><path class="cls-1" d="m258.72,45.35c2.04-1.72,2.49-5.17,6.11-4.16,1.63,1.82,3.31,3.7,4.39,6.08.5,1.1.57,2.04.14,3.1-.15.36-.28.73-.48,1.06-.8,1.34-.89,2.73-.24,4.22-1.92,1.49-3.19,3.37-3.96,5.63-.83.6-1.7,1.22-2.76,1.98h-2.26c-1.46-1.05-3.08-2.21-4.84-3.48.7-1.29.14-2.35-1.21-3.18.72-2.39.46-4.73-.06-7.07-3.38-2.45-7.23-2.52-11.09-1.96-6.35.91-12.62,2.2-18.62,4.56-3.23,1.27-6.49,2.53-9.59,4.08-1.99.99-3.81,2.38-5.53,3.8-2.16,1.78-3.41,4.12-3.54,7.01-.11,2.47-.49,4.93-.52,7.39-.02,1.76.2,3.56.58,5.29.32,1.45.82,2.79,2.36,3.71,2.84,1.7,2.92,6.03,2.21,8.33-.21.67-.91,1.19-1.46,1.87.77,1.03,1.75,1.39,2.97,1.51,3.67.36,7.21-.28,10.72-1.21.45-.12.89-.23,1.46-.38.24-.44.52-.96.91-1.67,3.02.47,5.73-.67,8.39-1.92.71-.34,1.5-.93,1.81-1.61.94-2.03,2.56-3,4.6-3.51.37-.09.74-.21,1.19-.34.13-.6.26-1.19.39-1.81.62-.6,1.29-.97,2.25-.8,1.55.27,3.83,1.56,4.76,2.72h6.35c1,1,2.19,2.19,3.29,3.29.15,2.19-.8,3.83-1.81,5.36-1.02,1.54-2.26,2.93-3.47,4.34-.79.93-1.86,1.15-3.1,1.24-2,.15-3.76-.62-5.63-1.01-.34-.07-.64-.4-.92-.66-.91-.83-1.81-1.68-2.72-2.53-1.03-.33-2.04-.29-2.86.42-1.5,1.3-3.4,1.76-5.14,2.54-3.78,1.7-7.75,2.71-11.88,3.1-1.68.16-3.34.53-5.02.6-4.29.16-8.29-.77-11.61-3.68-.68-.59-1.35-1.3-1.76-2.08-.81-1.52-1.71-2.93-2.96-4.13-.54-.52-.88-1.24-1.27-1.81.1-.93.2-1.76.31-2.78.62-.8,1.38-1.78,2.31-2.98h3.66c-.75-.78-1.08-1.33-1.56-1.61-2.17-1.24-3.26-3.17-3.72-5.54-.34-1.73-.89-3.46-.95-5.2-.06-2.07.31-4.15.5-6.22.08-.82.18-1.64-.11-2.62,1.56-1.79,3.1-3.61,4.7-5.36.46-.5,1.07-.89,1.67-1.23,4.14-2.28,8.55-3.94,12.96-5.61,5.27-2,10.62-3.76,16.08-5.17,2.97-.77,6.06-1.11,9.01-1.95,2.66-.75,5.34-.62,8.02-.67,2.04-.04,3.93.68,5.77,1.49.9.4,1.8.81,2.75,1.23Z"/><path class="cls-1" d="m110.22,312.18c4.34,1.96,5.96,2.27,10.93,2.36,1.28,1.71,2.66,3.55,3.96,5.27-.39,1.3-.71,2.36-1.04,3.43.11.08.22.16.34.24-.84.64-1.59,1.51-2.54,1.89-4.89,1.97-9.65,4.47-15.16,4.05-1.13-.83-2.41-1.5-3.29-2.51-.79-.92-1.15-2.21-1.79-3.54-.18-2.02-.39-4.31-.62-6.86.81-1.07.76-2.41.15-3.9-.37-.89-.32-1.96-.44-2.95-.28-2.29-.54-4.59-.83-6.88-.04-.28-.23-.53-.49-1.08-4.13,3.02-8.12,5.93-12.21,8.93.59.77,1.1.79,1.73.52,2.96-1.24,5.39-.32,7.51,1.76-.04,2.28-.96,4.11-2.13,5.88-1.95,2.94-4.7,2.92-7.32,2.03-1.67-.57-3.28-1.32-4.87-2.1-.43-.21-.66-.81-1.02-1.27-1.2,1.09-2.19,2-3.19,2.9-.98.88-2.03,1.69-2.94,2.63-1.81,1.87-4.06,2.8-6.57,3.1-2.4.29-4.01-1.24-5.75-2.69.23-1.11.42-2.17.68-3.21.27-1.08.91-1.81,1.9-2.46,3.05-1.99,5.74-4.45,8.34-6.99,2.49-2.43,4.99-4.87,7.62-7.13,2.04-1.76,4.3-3.26,6.46-4.87,2.91-2.17,5.82-4.34,8.91-6.64.48-3.93.36-8.08,2.01-13.03.77-1.44,2.87-2.68,5.56-3.05.13.02.3.01.43.08,1.21.66,2.52,1.2,3.6,2.03,1.28.98.48,2.58.78,3.88,1.07,4.66.62,9.4.71,14.1.08,4.17-.1,8.34-.06,12.51.01,1.12.4,2.24.66,3.56Z"/><path class="cls-1" d="m224.22,289.36c.14-3.25,1.6-5.71,3.1-8.29-.93-.56-1.75-1.05-2.6-1.56,2.15-2.85,5.45-3.91,8.18-6,.7-.06,1.62-.06,2.5-.22,1.95-.36,3.82-.17,5.69.49,3.31,1.17,6.18,3.14,8.2,5.86,1.48,2,2.87,4.28,3.03,7.11.11,1.97.13,3.73-.8,5.51-.33.64-.2,1.51-.25,1.94-.78,1.12-1.37,1.99-1.99,2.85-3.3,4.62-10.07,7.17-15.38,5.13-2.22-.86-4.26-1.89-6.1-3.38-.22-.18-.57-.18-1.11-.35-.22.77-.32,1.52-.64,2.15-1.46,2.9-2.94,5.79-4.52,8.62-.4.71-1.19,1.2-1.78,1.82-1.57,1.65-3.53,2.9-4.92,4.76-.39.52-1.15.75-1.74,1.11-1.57.98-3.08,2.08-4.73,2.89-1.22.6-2.61.87-3.95,1.17-.97.22-1.99.21-2.97.37-1.15.19-2.12-.25-3.12-.69-1.55-.67-3.16-1.21-4.66-1.98-1.57-.8-2.6-2.1-2.92-3.92-.2-1.12-.8-2.21-.82-3.32-.05-3.49,1.26-6.51,3.2-9.41,1.38-2.07,3.01-3.88,4.6-5.75,2.23-2.62,4.93-4.65,8.1-6.12q3.23.17,5.07,2c2.15-1.02,4.88-.58,6.85-2.63.7-.72,1.88-.97,2.9-1.45,1.1.39,2.18.78,3.56,1.26Zm-25.38,16.31c-.34,1.24-.73,2.56-1.05,3.9-.09.36.03.76.06,1.19.52.46,1.03.92,1.42,1.26,3.81.63,6.93-.86,9.45-2.21,4.3-2.3,7.65-5.74,10.87-9.31.58-.65,1.34-1.36.86-2.48-.21-.05-.43-.18-.64-.15-2.51.27-5.03.5-7.52.87-.89.13-1.78.56-2.59.99-3.53,1.89-7.03,3.84-10.85,5.94Zm36.73-12.17c.85.13,1.61.26,2.37.35,3.41.4,5.92-2.17,5.51-5.55-.24-2.02-1.67-3.12-2.99-4.38-1-.95-2.08-.71-3.21-.58-.38.04-.76.04-1.02.06-1.71,1.31-3.1,2.58-3.5,4.79-.46,2.57,1.44,3.65,2.83,5.3Z"/><path class="cls-1" d="m584.1,224.82c-.19-.87-.21-1.35-.39-1.76-1.18-2.58.52-5.27,2.37-6.38.92-.55,1.83-1.12,2.75-1.68-.14-1.99.48-3.62,1.12-5.28.39-1.04.25-2.28.35-3.43.16-1.92.33-3.83.47-5.75.04-.6,0-1.21,0-1.92-3.42-.34-6.68-1.83-10.24.22-.77,3.02-1.58,6.21-2.39,9.41-.41,1.64-.81,3.28-1.21,4.92-.24.97-.65,1.93-.65,2.9,0,1.89-.3,3.67-1.39,5.62-.79.2-1.81.46-2.78.7-.63-.48-1.12-.85-1.7-1.29-.25-1.35-.77-2.79-.72-4.22.1-3.32.7-6.6,1.61-9.81.52-1.84.85-3.74,1.24-5.62.06-.27-.07-.59-.13-.98-1.28,0-2.51-.11-3.71.02-2.96.33-5.25-1.05-7.3-2.86-.59-.52-.67-1.62-.91-2.28.88-1.55,1.79-2.29,3.5-2.05,1.07.15,2.24-.36,3.36-.58,2.4-.46,4.81-.92,7.33-1.4.38-1.1.94-2.15,1.1-3.26.59-4.11,1.92-8.02,3.12-11.96.32-1.06.73-2.1,1.1-3.15.49.17.7.27.93.31,3.17.62,4.26,2.28,3.85,5.55-.26,2.05-.75,4-1.36,5.97-.49,1.59-.46,3.34-.67,5.16,1.55.1,3.06.13,4.54.31,1.44.18,2.85.52,4.42.81.5-1.77.97-3.42,1.45-5.11-2.07-1.74-1.58-4.03-1.52-6.23.51-.54,1.08-.99,1.44-1.57,1.54-2.46,3.91-3.32,6.63-3.56.08,0,.17.03.23,0,2.94-1.49,4.74.32,6.51,2.23.46,2.02-1.1,3.06-1.72,3.87-.79,3.14-1.5,5.71-2.07,8.3-.63,2.85-1.15,5.73-1.68,8.6-.38,2.04-.71,4.09-1.02,6.14-.21,1.37-.36,2.74-.53,4.15,1.25,1.41,2.48,2.69,3.58,4.07,1.81,2.28,1.84,5.61-.56,7.71-.41.36-.87.64-1.43,1.05,1.27,1.69,2.62,3.36,2.47,5.91-.19.35-.57.94-.85,1.57-.94,2.13-2.7,2.72-4.84,2.66-1.23-.03-2.46,0-3.87,0-1.59-.8-3.7-.81-5.26-2.3-1.45-1.38-3.08-2.56-4.52-3.74Z"/><path class="cls-1" d="m241.01,385.51c.13.81.26,1.67.43,2.74,2.01,0,3.77,0,5.54,0,1.57,0,3.05.31,4.39,1.2.84.56,1.31,1.26,1.28,2.3-.03,1.23,0,2.46,0,3.4-1.06,1.2-1.84,2.27-2.8,3.15-2.48,2.27-4.63,4.91-7.56,6.68-1.2.73-2.35.48-3.53.11-.81-.25-1.6-.54-2.48-.83-.29-.57-.52-1.34-1-1.89-2.19-2.53-2.54-4.62-1.1-7.58.33-.68.77-1.32,1.2-2.05-.75-7.24-2.02-14.51-3.77-21.75-1.67-.05-1.74,1.77-2.84,2.41-1.15.67-2.15,1.67-3.11,2.63-.92.92-1.7,1.97-2.56,2.98,1.27.87,2.6,1.79,3.89,2.68-.19,1-.33,1.81-.48,2.58-1.73,1.51-3.71,2.05-5.94,2.07-1.37,0-2.73.37-4.23.6-2.43,2.82-4.94,5.73-7.63,8.86.99.83,1.91,1.6,2.91,2.44.1.78.22,1.7.34,2.64-.97,1.91-2.11,3.66-4.21,4.67-.77.37-1.24,1.34-1.84,2.02-2.07-.21-4.11-.42-6.2-.64-1.21-1.99-2.04-4.01-.57-6.35-1.85-2.01-.86-3.89.38-5.64,1.29-1.82,2.75-3.54,4.12-5.3.27-.35.49-.72.66-.96-1.42-1.6-2.73-3.08-4.06-4.58.35-.92.68-1.76,1-2.61,1.77-1.02,3.49-1.85,5.66-1.8,1.66.04,3.35-.5,5-.91,1.62-.39,2.45-1.86,3.49-2.96,2.33-2.48,4.52-5.09,6.83-7.59,1.58-1.71,3.23-3.35,4.89-4.98.7-.7,1.5-1.3,2.37-2.04-1.1-2.92-.75-6.3-2.63-9.12-.3-.46-.07-1.34.06-1.99.12-.59.46-1.14.79-1.91,1.38-.41,2.9-.86,4.07-1.21,2.61.99,3.86,2.82,4.72,4.79.72,1.65,1.18,3.54,1.23,5.33.06,2.51.67,4.9,1.04,7.33.2,1.29.51,2.56.8,4.01.14.03.42.14.71.15,2.69.11,4.23,1.42,4.91,3.96.47,1.76.34,3.48.06,5.23-.25,1.6-.4,3.21-.64,5.24-.87.61-2.06,1.43-3.58,2.49Z"/><path class="cls-1" d="m417.99,266.87c1.77,1.36,3.47,2.66,5.31,4.08-.3,1.43-.61,2.85-.91,4.26-.06.3-.18.6-.19.91-.1,2.37-.14,4.75-.28,7.12-.1,1.74.16,3.37,1.18,5.05,1.04.6,2.24,1.3,3.79,2.19.52,2.04,1.13,4.41,1.62,6.35,1.88,1.42,3.46,2.62,4.93,3.73-.15,1.42-.27,2.56-.4,3.81-2.97,2.86-5.35,6.21-7.27,9.97-.62,1.22-2.15,2.17-3.48,2.8-1.23.59-2.7,1.34-4.18.32-.17-.12-.46-.04-.68-.1-2.14-.56-4.01-1.37-3.89-4.09,0-.21-.17-.43-.24-.65-.05-.14-.05-.3-.1-.58,1.79-2.46,1.89-5.3,1.5-8.29-.25-1.91-.12-3.87-.18-5.81-.1-3.3-.08-6.6.15-9.9.08-1.13-.13-2.27-.23-3.82-1.99,2.33-3.76,4.4-5.68,6.65,1.06.53,1.98.99,2.91,1.46v3.07c-.67.47-1.36,1.1-2.16,1.5-1.52.76-3.06,1.59-4.69,2.01-2.39.61-3.91,2.13-5.09,4.1-.99,1.65-1.77,3.39-3.27,4.73-.83.74-1.19,1.98-1.83,2.94-.64.95-1.38,1.84-2.08,2.76-.32.42-.67.82-1,1.24-.91,1.15-1.82,2.3-2.71,3.46-.97,1.27-2.6.79-3.79,1.55-.86-.41-1.69-.8-2.64-1.25-.16-.77-.33-1.58-.54-2.6,3.39-4.92,6.83-9.92,10.06-14.61v-5.54c1.45-.62,2.9-1.13,4.24-1.83,1.69-.89,3.46-1.79,3.72-3.57,1.09-1.27,1.92-2.26,2.76-3.24,1.58-1.81,3.14-3.63,4.75-5.41,1.77-1.94,3.49-3.95,5.42-5.72,1.58-1.44,1.99-3.23,2.24-5.16.22-1.74,1-3.04,2.92-3.88Z"/><path class="cls-1" d="m606.03,223.02c.38-.36.83-.78.92-.88.37-2.75.68-5.08,1.02-7.65,1.88-1.53,1.41-4.01,1.69-6.25.04-.3-.57-.68-1.05-1.23,0-.04.06-.42.11-.73-.54-.59-1.05-1.14-1.5-1.62-1.19-.61-1.15.69-1.86,1.1.04-.68.08-1.25.13-1.98.34-.15.8-.36,1.33-.6,1.05.83,2.04,1.63,3.08,2.46,3.07-7.67,6.06-15.15,9.03-22.58,2.48-1.06,4.51-.34,6.42.98.25.58.39,1.21.73,1.7,1.52,2.14.9,4.27-.06,6.33-1.3,2.8-2.82,5.49-4.11,8.29-1.47,3.2-2.8,6.47-4.22,9.8,2.18,1.41,2.7,4.42,5.58,4.69.51.82.96,1.53,1.52,2.44-.16.82-.55,1.81-.47,2.76.08.91.66,1.78,1.12,2.63.25,1.37.23,2.74-.58,4-.16.25-.22.61-.44.78-1.75,1.38-3.48,2.78-5.29,4.06-.94.67-2.05,1.08-3.06,1.66-1.57.89-3.3,1.3-5.05,1.44-1.44.12-2.54-.88-3.49-1.83-1.26-1.28-2.28-2.72-2.36-4.64-.02-.52-.27-1.04-.36-1.35.42-1.29.77-2.38,1.22-3.76Z"/><path class="cls-1" d="m446.56,102.41c1.7.31,3.13.56,4.56.82,1.29.78,1.98,1.92,2.03,3.53-.4.72-.84,1.53-1.26,2.29-2.77.96-5.41,1.98-7.77,3.69-2.83,2.04-6.43,1.78-9.27-.32-.56-.41-1.17-.79-1.82-1.01-1.45-.49-2.61-1.32-3.65-2.93.23-.8.54-1.86.84-2.91,1.17-.26,2.14-.45,3.11-.69.89-.22,1.77-.48,2.71-.73.4-1.08.89-2.05,1.11-3.08.5-2.36,1.67-4.46,2.45-6.7.88-2.53,2.06-4.98,2.47-7.67.09-.59.4-1.16.63-1.73,1.5-3.71,2.59-7.54,3.31-11.48.52-2.79,1.27-5.53,1.97-8.52,1.83-1.89,4.12-2.48,6.8-1.42.5.2.99.44,1.48.65,1.92.81,2.48,2.07,1.77,4.04-1.94,5.41-3.43,10.95-5.05,16.45-.63,2.14-1.6,4.17-2.34,6.28-.84,2.38-1.58,4.8-2.41,7.18-.28.8-.78,1.51-1.1,2.3-.24.59-.36,1.24-.56,1.96Z"/><path class="cls-1" d="m257.75,321.22c-1.35.54-2.63,1.05-3.99,1.59-.85,1.62-1.65,3.28-2.57,4.88-1.14,2-2.54,3.71-5.05,3.61-1.18-.45-1.45-1.35-1.44-2.3,0-1.69-.24-3.4.46-5.04.2-.48.2-1.04.29-1.61-1.33-.9-2.6-1.76-3.82-2.57-.13-1.14-.25-2.17-.36-3.1,1.56-3.88,5.01-5.26,8.58-6.51.76-1.17,1.59-2.27,1.5-3.8-.02-.4.29-.83.47-1.23.79-1.74,1.64-3.46,2.36-5.23,1.11-2.69,2.2-5.4,3.16-8.15.61-1.73.97-3.55,1.43-5.33.25-.95.34-1.97.74-2.86,1.46-3.27,2.99-3.91,6.4-2.83,1.87.6,3.34,3.13,3.04,5.11-.5,3.36-1.61,6.55-2.74,9.71-.83,2.32-2,4.51-3.04,6.75-1.55,3.32-3.41,6.51-4.31,10.05,1.37,4.98,1.45,3.93-1.1,8.84Z"/><path class="cls-1" d="m277.77,266.44c-.54,1.22-1.09,2.47-1.84,4.18-1.8,1.23-4.03,2.74-6.01,4.08-3.74-.47-7.36.19-9.91-1.9-1.6-.34-2.49,1.33-3.83.16-.36-2.12.36-3.99,1.56-5.83,1.99-3.05,4.73-5.28,7.65-7.3,1.66-1.15,3.53-1.91,5.65-1.79.43.03.88-.21,1.32-.32,3.28,1.92,5.94,4.24,5.4,8.72Z"/><path class="cls-1" d="m634.08,163.16c-.39,1.86-.76,3.67-1.14,5.46-1.05.89-2.11,1.79-3.17,2.69.15.21.29.41.44.62-2.57-.44-4.69.61-6.87,1.66-1.73.84-5.14-.83-6.39-2.83-.96-1.53-1.62-3.15-1.47-4.72,1.01-2.96,3.32-4.55,5.23-6.44.76-.75,2.02-1.18,3.13-1.38,2.68-.47,5.45-.82,7.6,1.42.95.99,1.67,2.19,2.64,3.5Z"/><path class="cls-1" d="m240.3,154.76c-.79,1.01-1.62,1.93-2.29,2.95-1.48,2.25-3.53,3.12-6.14,2.62-3.03-.58-5.24-2.32-6.58-4.97-.63-1.24-.67-2.81-.8-4.24-.04-.41.49-.92.84-1.3,1.69-1.81,3.81-2.55,6.54-2.39.45-.61,1.18-1.26,1.48-2.07.58-1.58,1.91-2.2,3.21-2.81,1.45-.68,2.66.22,3.76,1.03.61.44,1.06,1.1,1.56,1.65.12.86.3,1.69.34,2.53.06,1.34.02,2.66-.68,3.92-.52.92-.81,1.97-1.25,3.08Z"/><path class="cls-1" d="m488.75,354.77c.05-.09.08-.16.13-.22,2.71-3.72,6.95-4.89,10.9-6.54.71-.3,1.54-.44,2.11-.91,2.25-1.84,4.53-1.58,7.15-.16-.46,2.41-.94,4.93-1.26,6.6-1.94,1.98-3.35,3.41-4.96,5.05-1.35.44-3.17.85-4.81,1.62-2.33,1.09-6.18.03-7.78-1.95-.28-.34-.43-.78-.6-1.19-.29-.71-.55-1.43-.88-2.31Z"/><path class="cls-1" d="m376.88,55.7c2.12-.97,4.48-2.07,6.86-3.13.4-.18.92-.32,1.32-.23,1.76.41,3.55.8,5.24,1.42,1.06.38,1.97,1.16,3.02,1.8.86,1.29.97,2.82-.12,3.95-.97,1-2.4,1.55-3.56,2.26-3.71.05-7.38.61-11.17-.65-1.22-1.29-3.08-2.6-1.59-5.42Z"/><path class="cls-1" d="m237.5,407.49q1.33-.74,4.28.69c.07.54.16,1.2.25,1.83-.94.89-1.57,2.1-3.09,1.73q-1.61-1.78-1.44-4.25Z"/></svg>