<?xml version="1.0" encoding="UTF-8"?><svg id="Layer_1" xmlns="http://www.w3.org/2000/svg" viewBox="0 0 772.12 245.84"><defs><style>.cls-1{stroke-width:0px;}</style></defs><path class="cls-1" d="m343.33,65.13c0,.71.04,1.27,0,1.81-.06.64-.18,1.27-.29,1.9-.05.27-.22.54-.19.79.19,1.75-.51,3.35-.77,5.03-.31,1.95-.59,3.9-.88,5.85-.01.09.07.21.04.27-.81,1.37-.18,2.87-.36,4.3-.07.56.33,1.18.67,1.72-.06.36-.11.73-.17,1.14-.07.07-.16.16-.26.25-1.04.92-1.81,2.04-2.46,3.26-.72,1.36-1.76,2.32-3.28,2.71-.4.1-.77.28-1.15.45-2.76,1.2-5.23.35-7.55-1.15-.52-.34-1.35-.53-1.45-1.38-.08-.68-.25-1.37-.21-2.05.06-1.02-.2-1.85-1.15-2.51.2-1.38.54-2.68,1.97-3.34,1.33-.61,2.59-1.42,4.16-1.45.86-.77,1.32-1.78,1.57-2.95.35-1.71.83-3.39,1.26-5.08.11-.45.29-.87.41-1.32.14-.57.26-1.15.37-1.73.25-1.31.49-2.61.73-3.92.06-.32.19-.64.17-.95-.13-1.93.82-3.65,1.02-5.68-.16-.15-.39-.47-.7-.6-1.09-.48-2.21-.9-3.32-1.35-.77-.32-1.43-.76-1.9-1.51-1.22-1.95-1.81-4.03-1.52-6.32.12-.96.65-1.8,1.47-2.26.99-.56,1.66-1.6,2.85-1.82.04,0,.09-.04.11-.08,1.05-1.49,2.58-1.31,4.11-1.13.11-2.09.22-4.1.34-6.26.16-.47.36-1.12.59-1.75.17-.47.33-.95.58-1.38.4-.67.6-1.32.28-2.08-4.31,1.61-9.05,6.69-9.08,10.02-.57.82-1.06,1.52-1.64,2.35-.46.18-1.12.44-1.78.71-1.79.12-3.5-.23-4.71-1.62-.66-1.42-.65-2.9-.3-4.16.44-1.57.42-3.44,1.97-4.57,1.26-2.35,3.43-3.86,5.38-5.52,1.5-1.28,3.3-2.2,4.99-3.24,2.34-1.44,4.87-2.47,7.47-3.34,2.34-.79,4.68-1.63,7.07-2.24,1.63-.42,3.36-.47,5.05-.68.81-.1,1.63-.23,2.45-.26,2.61-.1,5.15.45,7.71.9,2.13.38,4.11,1.07,5.97,2.13.39.22.83.36,1.06.46.61.48,1.11.8,1.51,1.2.88.88,1.79,1.74,2.53,2.73.71.95,1.26,2.03,1.8,3.1.19.38.17.89.21,1.34.06.78.22,1.52,1,2.21.21-1.47,1.13-2.34,1.96-3.23.74-.79,1.71-1.38,2.58-2.05.6-.47,1.17-.94,1.94-1.23.58-.23,1.12-.38,1.7-.34.85.07,1.73.1,2.52.37,1.16.4,1.51,1.53,1.91,2.56.15.38.19.79.27,1.16-.41.84-.8,1.66-1.21,2.5,1.48,2.02,3.09,3.5,5.72,3.43,1.84-.04,3.69.18,5.54.2,1.61.02,3.22-.06,4.83-.12.5-.02.99-.12,1.54-.18-.06-.56-.11-1.01-.15-1.38.61-1.33,1.7-2.34,1.73-3.84,0-.1.18-.2.26-.3.56-.7.78-1.45.33-2.31-.1-.18-.05-.43-.07-.55.87-.5,1.65-.94,2.43-1.4.79-.47,1.56-.97,2.35-1.43.48-.28.98-.43,1.58-.37.37.04.81-.12,1.15-.31,1.93-1.01,3.72-.71,5.54.35,1.51.88,3.13,1.57,4.79,2.39.68.83,1.44,1.75,2.1,2.55.33,1.42-.4,2.49-.66,3.64-.06.26-.39.54-.67.66-1.09.48-1.68,1.39-2.3,2.49.73.17,1.22.5,1.55,1.17.22.44.83.71,1.29,1.01.43.27.9.47,1.4.73-.02,1.04.16,2.02,1.19,2.75.17-.05.46-.13.87-.25-.19-.26-.31-.43-.45-.62.27-1.12.85-2.03,1.76-2.81.51-.43.89-1.07,1.17-1.69.5-1.1,1.33-1.79,2.34-2.41,3.93-2.39,8.22-3.23,12.77-3.05.5.02,1.01,0,1.58,0,.84.54,1.72,1.22,2.7,1.71,1.07.53,1.46,1.45,1.78,2.42.34,1.86-1.13,2.83-1.8,3.81-.91.6-1.7.9-2.17,1.47-.66.8-1.56,1.07-2.41,1.45-1.18.52-2.42.91-3.61,1.41-1.26.53-2.48,1.1-3.81,1.49-1.2.35-2.29,1.16-3.35,1.89-1.52,1.05-2.96,2.2-4.43,3.32-.5.38-.96.77-.66,1.61.21.1.49.26.78.36.6.21,1.25.32,1.82.6.53.26.97.24,1.64-.17.27-.72.61-1.62,1.04-2.74.47-.14,1.15-.35,1.98-.61.21-.22.52-.56.81-.87h4.03c1.15.64,2.42,1.35,3.7,2.06.47.9.95,1.8,1.37,2.6-.39,2.13-1.24,3.92-2.58,5.43-.57.64-1.33,1.11-2,1.67-1.83,1.54-4.02,2.03-6.33,2.33-1.03.13-1.98.01-2.77-.09-.97-.67-1.8-1.23-2.66-1.82-1.13.46-2.17.88-3.36,1.36-.38.1-.94.2-1.47.4-2.54.96-5.08,1.94-7.61,2.93-.47.18-.96.38-1.39.65-1.08.67-2.07,1.56-3.22,2.04-1.34.56-2.05,1.58-2.59,2.74-.75,1.59-1.32,3.26-2,4.96.58,1.07,1.15,2.11,1.66,3.04.92.23,1.68.37,2.41.62,1.08.37,2.15.33,3.27.32,2.19-.03,4.32-.47,6.37-1.08,1.87-.56,3.87-.82,5.6-1.86.57-.34,1.33-.35,1.95-.64,2.08-.96,4.16-1.93,6.19-2.99.89-.46,1.7-1.1,2.48-1.75,1.3-1.08,2.91-1.52,4.41-2.15.49-.2,1.21-.12,1.73.08,1.31.5,2.58,1.14,3.94,1.75.25,1.47.5,2.86.72,4.14-.92,1.33-2.14,2.06-3.29,2.92-1.9,1.42-4.05,2.35-6.06,3.56-1.21.73-2.54,1.29-3.86,1.82-1.74.7-3.35,1.7-5.19,2.18-2.56.67-5.07,1.6-7.66,2.14-2.75.58-5.57.87-8.41.59-.18-.02-.38.02-.56-.02-1.59-.4-3.18-.84-4.78-1.21-3-.7-5.39-2.33-7.38-4.65-1.32-1.54-2.24-3.26-2.68-5.21-.16-.69-.09-1.42-.13-2.07-.86-.51-.79.58-1.36.62-.48.03-.94.41-1.43.51-.49.1-1.02.06-1.53.06-.56,0-1.11,0-1.61,0-.88-.66-1.99-.87-2.57-1.99-1.03,1.18-.77,2.62-1.33,3.93.22.37.43.83.74,1.21.82,1,1.2,2.18,1.03,3.44.3.6.6,1.22.88,1.79,0,.15,0,.25,0,.34-.03,2.17-.65,4.16-1.92,5.89-.54.67-1.09,1.33-1.63,1.99-.17.21-.34.43-.53.62-.85.82-1.97,1.29-2.77,2.22-.34.39-1.07.48-1.64.61-.49.11-1.01.09-1.41.12-.93-.6-1.76-1.19-2.64-1.68-1.89-1.05-2.84-2.84-3.79-4.64-.37-.69-.7-1.4-1.01-2.04.04-.71.16-1.41.09-2.08-.17-1.65.46-3.06,1.22-4.44.35-.64.69-1.27,1.06-1.95.69-.53,1.52-1.03,2.19-1.7,1.17-1.17,2.38-2.17,4.14-2.27.2-.01.4-.21.44-.23.64-2.99,1.19-5.83,1.85-8.64.85-3.62,1.63-7.26,2.75-10.8.52-1.62.84-3.27,1.24-4.9.37-1.51.86-2.98,1.25-4.49.1-.39.08-.81.12-1.36-1.73-.37-3.35.13-5.01.18-.51.75-1.21,1.17-2.11,1.43-1.18.35-2.22,1.12-3.54,1.13-.26,0-.57.31-.75.55-.7.91-1.36,1.85-2.01,2.79-.44.63-.84,1.29-1.16,1.79-.55.7-1.03,1.24-1.42,1.84-1.25,1.9-3.23,2.54-5.48,2.05-1.15-.25-1.81-1.2-2.71-1.39-.48-1.17-.9-2.18-1.31-3.17,2.05-2.59,3.56-5.37,5.07-8.2-1.21-.25-1.77.38-1.79,1.75-1.74,1.83-3.36,3.67-5.13,5.36-1.45,1.39-2.76,2.92-4.57,3.96-1.04.6-2.02,1.23-3.2,1.53-.64.16-1.15.51-1.56,1.07-1.17,1.58-2.6,2.93-4.36,3.82-1.56.78-3.14,1.42-5.05,1.31-1.59-.09-3.09-.37-4.8-.87Zm3.08-34.35c-.02.12-.03.25-.05.37,1.64.97,2.36,2.61,3.29,4.06-.19.43-.44.75-.46,1.09-.08,1.2-.14,2.4-.09,3.6.06,1.52-.04,3.03-.42,4.49-.2.79-.59,1.53-.93,2.27-.25.55-.31,1.06.15,1.49,1.1.5,2.2,1.02,3.24,1.64.65.38,1.22.91,1.82,1.37.04-.05.09-.1.13-.16.29.35.57.71.93,1.15,1.29-.47,2.58-1.11,4.24-.24,1.22-1.34,2.56-2.64,3.7-4.09,1.39-1.77,2.64-3.65,3.67-5.68,1.01-2.01,1.88-4.01,1.45-6.34-.02-.09,0-.18.02-.28.28-1.71-.66-2.95-1.72-4.04-.68-.7-1.62-1.18-2.7-1.26-.63-.05-1.24-.33-1.86-.49-.49-.13-.98-.3-1.47-.32-3.28-.12-6.57-.2-9.8.49-1.05.22-2.08.57-3.12.86Zm55.55,17.27c-.3,1.18-.53,2.06-.76,2.94-.09.35-.22.7-.3,1.05-.25,1.11-.44,2.24-.75,3.34-.63,2.2-1.44,4.37-1.99,6.59-.7,2.84-1.35,5.68-2.43,8.41-.12.29-.09.64-.16,1.16,1.35-.94,2.48-1.73,3.6-2.52,1.09-.77,2.16-1.58,3.29-2.3,1.05-.66,2.19-1.2,3.26-1.83.47-.28.82-.82,1.31-.99,2.17-.74,4.02-1.86,5.54-3.64,1.28-1.5,2.78-2.83,4.24-4.18,1.26-1.16,2.62-2.2,3.89-3.35.85-.78,1.9-1.39,2.41-2.45-1.12-.07-2.16-.1-3.19-.19-2.88-.28-5.76-.58-8.49-.86-.76-1.41-1.91-1.31-3.01-1.26-1.05.05-2.1.24-3.15.24-1.14,0-2.28-.12-3.3-.18Z"/><path class="cls-1" d="m272.48,32.62c-.46.43-.86.81-1.1,1.04-.98.12-1.76.22-2.54.32,0,.11,0,.21,0,.32.51.09,1.02.17,1.51.25.64.55,1.26,1.1,2.05,1.78.41,1.04.67,2.25-.19,3.47-.24.33-.36.75-.55,1.12-.25.48-.47.92-.37,1.54.13.77,0,1.59-.73,2.16.34.79.44,1.54-.07,2.27-.1.15-.19.33-.21.51-.14,1.36-.22,2.73-.4,4.09-.15,1.13-.42,2.24-.67,3.59.65.86,1.4,1.84,2.19,2.87-.7,1.3-1.09,2.72-1.49,4.12.08.07.16.14.25.2.62-.27,1.24-.54,2.11-.91,1.59.37,3.47.18,5.35-.03.32-.04.65,0,.97.02.18.01.38.14.54.1,1.89-.52,3.78.27,5.66-.03.5-.08.99-.18,1.44-.26.74-1.34,1.38-2.59,1.73-4,.23-.92.85-1.74,1.25-2.62.75-1.63,1.65-3.18,2.19-4.92.29-.94.96-1.77,1.5-2.71-.5-.7-1.14-1.23-1.94-1.65-1.43-.75-2.8-1.62-4.21-2.42-1.04-.59-2.1-1.16-3.15-1.74-.41-.22-.82-.44-1.2-.7-2-1.34-3.99-2.68-5.99-4.03-.23-.15-.46-.31-.57-.38-.33-.76-.56-1.4-.88-2-.41-.74-.35-1.38.2-2.02.33-.38.59-.82.87-1.2.75-.15,1.46-.39,2.18-.41.67-.02,1.4.08,2.03.32,2.17.83,4.11,2.08,5.98,3.46.85.62,1.83,1.08,2.76,1.6,2.25,1.26,4.5,2.51,6.91,3.85.31-.87.59-1.67.87-2.47.09-.25.11-.55.26-.75.59-.75.9-1.57,1.03-2.52.15-1.08.89-1.89,1.59-2.69.25-.28.52-.53.81-.82h1.85c.53.31,1,.61,1.5.85,1.31.63,1.85,1.69,1.93,3.09.08,1.46-.11,2.84-.74,4.18-.27.57-.36,1.21-.56,1.81-.25.72-.5,1.45-.75,2.17-.04.13-.07.26-.13.38-.54,1.12-.53,1.24.41,1.83,1.17.73,2.37,1.42,3.54,2.16.38.24.72.57,1.07.86.68.57,1.44.97,2.43,1.07.2.81.77,1.35,1.53,1.75.36.19.63.53.95.8.91.78,1.84,1.55,2.73,2.36.54.49,1.02,1.05,1.51,1.6.27.31.47.69.76.98,1.54,1.55,2.69,3.41,4.08,5.08.98,1.18,1.78,2.45,2.67,3.68.58.81.98,1.74,1.5,2.6.3.51.57,1.1,1.02,1.46,1.26,1.03,1.74,2.6,2.83,3.8-.16,1.35-.34,2.72-1.69,3.55-1.36,2.21-3.6,3.04-5.9,3.79-.51.17-1,.42-1.51.59-.78.25-1.54.24-2.28-.2-.27-.16-.6-.28-.91-.31-1.32-.11-2.16-.92-2.93-1.87-.29-.36-.63-.67-1-1.05.06-.25.13-.51.2-.81-.19-.22-.4-.46-.65-.75.22-1.78-.27-3.74,1.14-5.42-.23-.4-.39-.85-.7-1.16-1.1-1.12-2.21-2.24-3.38-3.28-.68-.6-1.57-.92-2.09-1.76-1.15-1.88-2.43-3.69-3.56-5.58-.83-1.38-.85-2.18-.48-4.28-1.57-1-3.18-2.04-4.94-3.17-.24.45-.49.74-.56,1.06-.17.84-.71,1.51-.91,2.38-.23,1.02-1.04,1.92-1.61,2.86-.34.55-.66,1.08-.69,1.78-.01.37-.33.74-.55,1.08-.21.34-.48.64-.86,1.14,2.42.86,4.88.71,7.24,1.59.05.31.1.7.16,1.13-2.15,1.02-4.25,1.9-6.53,2.32-.82.15-1.64.3-2.43.55-1.01.32-1.65.95-2.03,2.04-.43,1.24-.97,2.46-1.73,3.58-.64.95-1.1,2.02-1.64,3.04-.82,1.55-1.66,3.1-2.47,4.66-.24.47-.4.99-.63,1.57-.38.49-.82,1.06-1.37,1.78,1.06.23,1.93.42,2.77.61-.22.98-.39,1.78-.6,2.71-.15.22-.43.54-.61.91-1.03,2.06-3,2.6-5,3.08-.13.03-.31.06-.41,0-1.2-.74-2.83-.59-3.83-1.81v-1.76c.34-.29.65-.55,1.01-.85-.02-.27,0-.56-.07-.81-.23-.71-.06-1.35.19-2.02.5-1.38.9-2.8,1.39-4.19.24-.7.6-1.35.89-2.03.31-.72.61-1.44.88-2.18.55-1.5,1.33-2.89,2-4.33.33-.7.65-1.41,1.06-2.3-.47-.07-.84-.23-1.14-.15-2.33.64-4.75.6-7.11,1.04-.71.13-1.53-.16-2.27-.37-.97-.27-1.92-.64-3.01-1.01,0,.38-.07.7.01.98.41,1.49.24,2.95-.3,4.35-.37.95-.32,1.78.25,2.62.36.53.67,1.1.97,1.59.04.96.2,1.87-.72,2.47.19,1.36,1.5,2.04,1.77,3.3-.81,1.22-1.65,2.48-2.51,3.77-1.26.11-2.56.43-3.81.3-3.52-.37-7.07-.5-10.53-1.43-1.3-.35-2.45-.77-3.34-1.79-.82-.94-1.19-2.07-1.36-3.26-.15-.96.47-1.66,1.12-2.28.34-.32.73-.57,1.13-.89.11-.46.23-.95.37-1.53,1.91-1.2,2.94-3.27,4.28-5.05.82-1.09.83-2.58.78-3.89-.05-1.66-.31-3.29.51-4.86-1.23-.88-1.56-2.21-2.12-3.4-.11-.23-.09-.54-.09-.81-.01-.9,0-1.79,0-2.82-5.83.34-11.45,1.54-17.26,2.42-.14.6-.3,1.26-.46,1.91-.04.18-.05.38-.14.53-.8,1.29-.88,2.8-1.38,4.18-.27.74-.58,1.46-.8,2.2-.48,1.59-.88,3.19-1.37,4.77-.43,1.41-.94,2.79-1.53,4.51.13,1.34-.59,2.86-1.09,4.56,1.56.59,1.02,2.5,2.17,3.62-.05.29.02.79-.2,1.07-1.03,1.3-1.13,2.77-.94,4.31.03.27,0,.55,0,.88-.99.94-1.34,2.32-2.41,3.27-.87.78-1.67,1.55-2.81,1.92-.88.28-1.71.71-2.6.94-.61.16-1.34.3-1.9.11-1.68-.56-3.23-1.34-4.21-2.97-.7-1.16-1.48-2.24-1.27-3.53,1.34-2.18,2.61-4.27,3.99-6.52.06-.93.14-2.08.22-3.31.82-.9,1.81-1.68,2.93-2.16,1.08-.46,1.65-1.08,1.69-2.26.03-.78.14-1.57.31-2.33.18-.79.53-1.55.74-2.34.51-1.86.97-3.74,1.5-5.59.24-.84.61-1.64.87-2.48.37-1.18.7-2.38,1.03-3.58.03-.11-.05-.26-.09-.45-1.78.27-3.54.54-5.3.79-2.29.32-4.58.63-6.87.95-.96.13-1.91.38-2.87.42-2.23.09-3.84-.44-5.65-1.69-.3-.64-.57-1.21-.9-1.89.17-1.29,1.09-1.94,2.37-2.42,1.19-.44,2.36-.62,3.63-.67,2.07-.08,4.13-.39,6.18-.65,1.55-.2,3.1-.49,4.65-.69.83-.11,1.59-.29,2.38-.62.86-.36,1.88-.35,2.83-.51.5-.08.99-.19,1.54-.3.98-2.59,1.21-5.35,1.93-7.99.7-2.58.98-5.27,1.46-7.99.15-.36.38-.8.5-1.27.22-.9.68-1.63,1.45-2.12,1.63-1.04,2.48-.96,4.25.44.36.28.61.69.98,1.12-.03,1.84-.14,3.7-.74,5.53-.4,1.21-.67,2.48-.9,3.74-.3,1.58-.46,3.19-.76,4.77-.12.62-.44,1.2-.65,1.73.22.76.75.75,1.26.65,1.9-.36,3.8-.73,5.75-.85,1.65-.1,3.27-.52,4.91-.73.92-.11,1.86-.06,2.78-.09.65-.02,1.31,0,1.94-.13,1.28-.27,2.32-.92,2.67-2.31.54.06.94.11,1.32.15.08-.08.18-.14.2-.21.27-1.07.53-2.13.78-3.2.05-.22.18-.49.11-.67-.46-1.14.12-2.07.6-3.05-.14-.33-.28-.66-.45-1.05.97-.57,1.07-1.52,1.17-2.49-.95-.79-1.88-1.55-2.89-2.38.1-.6.05-1.26.32-1.73.52-.9.95-1.91,2.06-2.35.81-.32,1.54-.85,2.35-1.15.54-.2,1.17-.23,1.76-.24,1.41-.03,2.77.21,4,.96.99.6,1.58,1.4,1.45,2.61-.03.32,0,.64,0,.93Z"/><path class="cls-1" d="m502.39,79.47c.74-.68,1.37-1.27,2.06-1.91h1.29c.28.34.61.72.91,1.12.31.4.49.99.89,1.21.92.51,1.15,1.4,1.52,2.24.35.79.8,1.53,1.12,2.33.25.62.37,1.29.56,1.98-.29.27-.59.55-.96.89.06.5.12,1.04.16,1.44-.78,1.03-1.5,1.98-2.13,2.81v2.1c-1.76,1.75-3.27,3.26-4.78,4.75-.16.16-.35.3-.56.39-.81.37-1.36.95-1.46,1.7-.64.44-1.16.8-1.88,1.3-.82-.18-1.84-.41-2.95-.66-1.14-1.4-2.32-2.86-3.75-4.62-.05-1.03-.12-2.44-.17-3.85-.03-.76-.58-1.53.01-2.11-.65-1.06-1.24-2.02-1.84-2.98-.68-1.1.12-2.25-.09-3.46.25-.31.56-.7.8-1,.07-.87.12-1.64.2-2.61-.62-.55-1.35-1.22-2.12-1.85-1.33-1.08-2.66-2.15-4.03-3.19-.77-.58-1.58-1.13-2.42-1.61-2-1.13-3.84-2.56-6.11-3.09-1.07-1.17-2.23-2.08-3.79-2.47-.56-.14-1.05-.68-1.5-1.11-.66-.62-1.39-.84-2.34-.72-.58,1.52-1.24,2.99-1.7,4.53-.56,1.85-.94,3.74-1.43,5.61-.32,1.24-.78,2.45-1.03,3.71-.41,2.09-1.26,4.04-2.06,5.97-.59,1.41-2.1,2.22-3.67,2.36-1.5.13-3.1.3-4.52-1.28-.47-.75-.41-1.78.12-2.9.33-.69.43-1.48.63-2.23.18-.67.26-1.38.53-2,1.2-2.76,1.99-5.65,2.77-8.54.04-.13.05-.28.11-.4.85-1.62,1.14-3.46,2.06-5.05.26-.45.31-1.02.46-1.54-.64-.29-1.13-.52-1.71-.79-.06-.62-.13-1.25-.21-2.02-1.83-.04-2.76-1.59-4.13-2.45-.87-.54-1.56-1.36-2.35-2.08-.14-1.81.73-3,2.54-3.5.6-.17,1.17-.45,1.73-.74,1.85-.38,3.51.19,5.02,1.23.93.65,1.78,1.34,3.03.77.25-.11.63.05,1.1.11,1.69-2.91,3.4-5.84,5.14-8.84-.79-.55-1.42.06-2.08.18-1.35,1.64-2.86,3.02-4.82,3.89-.98.44-1.99.37-3,.35-.68-.01-1.37-.09-2.05-.15-.17-.01-.39,0-.51-.1-.9-.7-1.79-1.43-2.48-1.98-.44-1.35-.06-2.14.71-2.97.59-.64.82-1.61,1.34-2.72,1.21-.8,2.7-1.76,4.47-2.2.13-.03.28-.13.39-.11,2.08.43,3.1-1.13,4.25-2.32,1.22-1.26,2.12-2.83,3.4-4.01,1.84-1.71,2.96-4.04,5.04-5.53.65-.46.95-1.42,1.61-1.85.98-.65,2.09-1.18,3.22-1.49,1.04-.28,1.96.52,2.5,1.22.84,1.1,1.84,2.34,1.4,3.89-.36,1.27-.11,2.68-.93,3.84-.12.17-.22.49-.15.65.37.77.2,1.51-.28,2.45.71-.13,1.12-.25,1.55-.28,3.84-.32,7.67-.63,11.53-.52,2.1.06,3.8.81,5.09,2.53.69.91.83,1.81.51,2.85-.11.35-.26.69-.42,1.11,1.11.32,1.63,1.24,2.12,2.08.7,1.19.05,3.89-1,4.87-.23.21-.46.45-.58.73-.45,1.06-.69,2.24-1.31,3.17-.79,1.18-1.37,2.53-2.79,3.31-.9.49-1.68,1.29-2.65,1.71-2.1.91-4.24,1.25-6.43.26-.42-.19-.86-.32-1.09-.4-.88-1.04-1.65-1.95-2.47-2.92-3.26.97-6.44,1.92-9.61,2.88-.18.06-.3.32-.58.63.26.18.48.36.72.49,2.15,1.18,4.32,2.33,6.46,3.53,2.3,1.29,4.65,2.51,6.86,3.95,2,1.3,3.99,2.67,5.71,4.36.23.23.46.48.74.63,1.83.99,3.21,2.51,4.68,3.93.42.41.74.94,1.05,1.45.28.46.49.97.82,1.64Zm-27.11-24.95c.11.08.22.16.34.24.36-.26.72-.53,1.09-.79.22-.16.44-.41.68-.44,1.13-.15,2.06-.74,2.99-1.32,1.59-.99,3.27-1.83,4.84-2.88,1.23-.82,2.41-1.65,3.46-2.67.89-.87,1.76-1.76,2.63-2.65.21-.21.36-.47.71-.94-.72.04-1.17.04-1.61.09-1.28.16-2.57.54-3.83.46-1.72-.11-3.28.44-4.91.71-.91.15-1.46.63-1.88,1.44-1.33,2.58-2.72,5.13-4.07,7.7-.18.34-.3.71-.45,1.06Z"/><path class="cls-1" d="m532.9,89.61c-.05-.28-.1-.58-.12-.7.81-.96,1.44-1.9,2.25-2.63.92-.83,1.99-1.5,3.02-2.2.92-.62,1.94-1.11,2.83-1.77,1.25-.92,2.42-1.96,3.64-2.92.28-.22.67-.29.99-.47,1.53-.83,1.81-2.3,2.03-3.85.27-1.86.68-3.7,1.06-5.54.23-1.13.49-2.25.78-3.37.34-1.29.71-2.57,1.09-3.85.16-.52.49-1.01,0-1.62-.24.06-.52.08-.75.2-1.04.51-2.11.98-3.09,1.58-1.67,1.03-3.57,1.47-5.37,2.11-1.08.38-2.38.11-3.58.13-.69,0-1.38,0-2.22,0-1.15-.69-2.64-1.18-3.4-2.56.4-1.2,1.21-1.78,2.25-2.04.67-.17,1.37-.28,2.06-.27,1.58.02,2.99-.53,4.37-1.18,1.55-.73,3.07-1.53,4.61-2.3.21-.1.45-.16.62-.31,1.35-1.15,3.07-1.71,4.47-2.75,1.52-1.12,2.99-2.35,4.32-3.69.62-.62.94-1.57,1.29-2.42.22-.54.26-1.16.37-1.72-.33-.53-.63-1.03-.83-1.35.55-1.1,1.01-2,1.44-2.91.31-.63.72-1.13,1.33-1.54.73-.48,1.42-1.05,2.03-1.68,1.34-1.4,2.55-2.94,3.96-4.28,1.17-1.11,2.5-2.06,3.83-2.96.8-.54,3.57-.02,4.24.67.1.1.23.22.23.34.03,1.47.75,2.83.12,4.45-.6,1.55-.58,3.34-.83,5.01.27.34.5.63.76.97-.25,1.98.18,4.19-1.76,5.7-.21.16-.37.41-.52.64-.86,1.35-2.08,1.93-3.66,1.79-1.05-.1-2.01.21-2.99.68-.81,2.31-1.61,4.64-2.45,6.96-.33.91-.81,1.76-1.13,2.67-.87,2.48-1.69,4.97-2.52,7.47-.12.35-.15.73-.21,1.09-.32,1.8-.81,3.55-1.28,5.31-.27,1.04-.21,2.18-.3,3.27-.02.27.02.56-.09.79-.32.68-.29,1.34.04,2.04.78.13,1.59.27,2.41.42.26.64.51,1.23.74,1.8.18.05.32.13.44.1,2.15-.52,4.29-1.09,6.44-1.57,1.21-.27,2.45-.41,3.68-.62,2.87-.48,5.73-.99,8.6-1.44.95-.15,1.92-.15,2.87-.28,1.22-.17,2.42-.39,3.71-.6.37-1.26.71-2.41,1.03-3.48,1.05-.66,1.97-1.29,2.94-1.81,1.41-.75,2.89-1.1,4.53-1.15,1.26-.04,2.49.02,3.74.07,1.59.06,2.66.67,3.2,2.27.18.53.84.94,1.35,1.32.32.24.76.35,1.16.47,1.75.49,2.66,1.78,3.22,3.37.13.37.21.88.06,1.21-.62,1.39-.43,2.91-.68,4.01-.73.99-1.28,1.72-1.82,2.46-1.1,1.48-2.18,2.98-4.17,3.38-.29.06-.51.4-.81.48-.52.15-1.1.37-1.58.25-2.3-.54-4.64-.64-6.98-.65-.78,0-1.57-.09-2.35-.15-.73-.05-1.45-.12-2.3-.18-1.23-.49-2.6-1-3.92-1.6-1.35-.61-2.64-1.37-4-1.95-.46-.2-1.09-.19-1.61-.08-2.17.47-4.32,1.01-6.48,1.54-1.12.27-2.22.58-3.34.84-2.2.51-4.41.99-6.62,1.48-.32.07-.64.15-.94.27-1.5.61-3.12.71-4.66,1.09-1.82.45-3.61,1.03-5.42,1.54-1.28.36-2.47,1.03-3.86,1.03-.43,0-.85.34-1.29.46-2.39.67-4.82,1.19-7.15,2.01-1.92.67-3.75.75-5.67.23-1.3-.35-2.33-1.11-3.13-2.15-.23-.3-.25-.76-.36-1.12,1.5-2.2,4.11-2.59,6.09-4.24Z"/><path class="cls-1" d="m224.08,38.25c.64,2.97-.29,5.56-1.12,8.15-.23.72-.8,1.33-1.27,1.96-.15.2-.45.39-.7.41-1.06.07-2.13.14-3.18.05-.44-.04-.9-.43-1.26-.76-.43-.4-.77-.91-1-1.42-.28-.68-.57-1.37-.96-2.32.33-.92.75-2.07,1.21-3.34-.48-.77-1.44-1.08-2.3-1.45-.84-.36-1.79-.43-2.66-.71-1.91-.63-3.89-.64-5.85-.6-1.51.03-3.02.32-4.53.5-.78.1-1.56.19-2.32.34-6.01,1.18-11.6,3.46-16.8,6.66-.86.53-1.6,1.24-2.5,1.94.1.19.26.44.36.72.15.43.33.86.35,1.3.05.96.02,1.93.02,2.96-.42.5-.93,1.12-1.52,1.82-2.37,1.35-4.86,2.77-7.34,4.2-.55.32-1.07.69-1.59,1.05-.71.5-1.2,1.15-1.3,2.03-.08.67-.1,1.35-.15,2.02,0,.08-.03.18-.08.25-1.02,1.37-.66,2.96-.56,4.43.06.9.68,1.8,1.16,2.64.43.76,1.03,1.42,1.53,2.14,1.43,2.05,3.53,3.23,5.65,4.36,1.21.65,2.45,1.23,3.92,1.26.89.02,1.78.44,2.68.62.33.07.7-.04,1.15-.08-.16-1.5.75-2.05,1.9-2.55,1.43-.62,2.86-1.24,4.18-2.16,1.15-.81,2.57-1.23,3.89-1.77,1.33-.54,2.68-1.02,4.03-1.51,1.34-.49,2.69-.99,4.05-1.42,1.04-.33,2.16-.46,3.17-.85,1.64-.63,3.36-.95,5.04-1.4,1.11-.3,2.18-.73,3.24-1.18,1.33-.57,2.7-.6,4.04-.55.55.42,1.12.75,1.55,1.21,1.09,1.16,2.07,2.43,1.73,4.14-.14.69-.6,1.31-.92,1.96-.43.86-.74,1.77-1.1,2.65-.64,1.56-1.64,2.99-2.52,4.45-.28.47-.75.85-.99,1.34-.58,1.19-1.53,1.95-2.65,2.56-.41.22-.81.45-1.23.65-2.67,1.31-5.15.63-6.82-1.86-.13-.19-.24-.4-.39-.57-.59-.7-1.06-.74-1.9-.3-1.52.8-3.13,1.35-4.85,1.56-.18.02-.38.02-.54.1-1.53.77-3.24.7-4.86,1.01-.18.03-.39-.01-.55.06-1.37.6-2.79.42-4.22.33-.82-.05-1.65.15-2.48.15-2.7-.02-5.28-.55-7.85-1.45-2.06-.73-3.97-1.74-5.92-2.65-1.67-.78-3.09-1.99-4.43-3.3-1.56-1.52-2.58-3.36-3.59-5.22-.44-.81-.72-1.68-.74-2.64-.01-.7-.34-1.4-.37-2.11-.04-.91.07-1.83.13-2.75.04-.59.11-1.18.2-1.97,1.13-1.73,1.13-4.09,2.08-6.08-.37-.83-.72-1.58-1.08-2.39.12-.38.7-.33.81-.93.17-.91.94-1.53,1.81-1.96,1.37-.68,2.59-1.5,3.59-2.74.92-1.13,2.16-2.02,3.29-2.97,1.49-1.24,2.95-2.52,4.53-3.64,1.38-.98,2.87-1.8,4.35-2.61,1.58-.86,3.22-1.61,4.95-2.46.17-.23.41-.57.71-.98,1.18.38,2.18-.19,3.25-.62,1.16-.46,2.38-.74,3.59-1.08,1.27-.36,2.55-.7,3.84-1.02.35-.09.71-.12,1.07-.16.88-.08,1.76-.09,2.63-.25,1.93-.36,3.9-.52,5.8-.28,2.68.33,5.44.55,7.9,1.87.41.22.84.39,1.26.58,1.11.49,2.18.82,3.42.24,1.08-.5,2.13-.32,2.98.69.56.66,1.3,1.17,1.94,1.73Z"/><path class="cls-1" d="m114.87,143.24c.26-.49.54-.97.76-1.48.49-1.14,1.05-2.18,2.02-3.03.97-.85,1.98-1.18,3.23-1.02,1.09.14,1.49.53,1.47,1.66-.03,1.77-.3,3.43-1.05,5.12-1.34,3.01-2.32,6.19-3.48,9.28-.64,1.7-1.36,3.37-1.99,5.08-.13.34-.16.94.04,1.13.21.2.77.14,1.15.07,2.78-.54,5.54-1.22,8.33-1.66,2.5-.39,5.05-.49,7.57-.84.42-.06,1.03-.69,1.09-1.11.25-1.84.54-3.73.42-5.57-.1-1.46.85-2.49.97-3.82.23-2.41.99-4.77.53-7.26-.13-.71.22-1.53.4-2.28.25-1.02.66-2,.83-3.03.24-1.49,1.06-2.38,2.49-2.67,1.25-.25,2.51-.5,3.77-.54.76-.02,1.57.29,1.96,1.14.72,1.57,1.73,3.06.73,4.92-.31.58-.25,1.23.29,1.91,1.07,1.34,1.47,2.95,1,4.67-.62,2.29-1.25,4.57-1.9,6.85-.11.39-.34.81-.63,1.07-1.23,1.1-1.61,2.61-2.05,4.08-.1.33.1.75.21,1.5,1.17-1.87,2.08-3.41,3.08-4.88,1.31-1.94,2.69-3.83,4.06-5.73.91-1.26,1.93-2.38,3.4-3.09.72-.35,1.2-1.01.75-2.12-.66-1.6-.54-3.22.92-4.49.23-.2.39-.52.49-.82.36-1.02,1.08-1.68,2.03-2.11,1.84-.84,3.66-1.76,5.56-2.43.77-.27,1.78-.1,2.62.11.73.18,1.35.48,2.15.15,1.28-.52,2.48-.27,3.27.92.7,1.04,1.29,2.16,1.84,3.29.13.26.01.76-.17,1.04-.82,1.3-1.67,2.58-2.56,3.83-.62.86-1.38,1.63-2,2.49-.68.96-1.18,1.14-2.27.69-.44-.18-.92-.27-1.36-.46-1.28-.55-2.1-.14-3.03.89-1.13,1.26-2.62,2.19-3.92,3.29-.53.45-1.03.94-1.48,1.47-.2.24-.24.61-.35.92l.24.27c.55-.25,1.1-.52,1.66-.75,1.05-.43,2.1-.53,3.01.29,1.09.98,1.81,3.28,1.32,4.24-.21.41-.57.82-.97,1.03-1.75.93-3.54,1.78-5.31,2.67-1.23.62-2.46,1.27-3.69,1.9-.19.1-.37.25-.57.28-3.48.6-3.53,3.46-3.88,6.03-.15,1.09,0,2.23.09,3.34.07.81.6,1.1,1.41,1.22,3.13.48,6.07.12,8.78-1.65.53-.35,1.15-.59,1.75-.81.99-.36,2.07,0,2.74.8.43.51.86,1.13,1.43,1.41,1.88.93,1.28,5.03-.55,5.71-.8.29-1.64.45-2.46.68-.91.26-1.86.45-2.7.85-1.41.67-2.82,1.22-4.43,1.13-.96-.05-1.93-.02-2.9,0-4.01.11-7.16-2.23-8.76-5.87-.26-.59-.56-1.16-.8-1.75-.35-.85-.66-1.72-1.04-2.71-.86.35-1.01,1.3-1.27,2.16-.06.19.09.5-.01.62-1.66,1.93-1.23,4.59-2.43,6.74-.63,1.13-.48,2.79-.41,4.19.19,3.45-.42,4.45-3.49,6.05-2.33,1.21-4.87.51-6.33-1.5-.66-.91-1.41-1.74-2.11-2.61-.53-.66-.81-1.32-.33-2.18.57-1.02,1.14-2.07,1.49-3.18.4-1.25.55-2.57.81-3.87.1-.52.16-1.05.29-1.56.06-.25.36-.48.35-.71-.12-1.83,1.19-2.93,2-4.32.42-.73,1.23-1.56.66-2.64-.05-.09.11-.28.13-.43.08-.42.14-.85.21-1.28-.41,0-.83-.09-1.22,0-.98.25-1.94.62-2.92.85-2.34.56-4.69,1.06-7.03,1.59-1.61.37-3.22.79-4.84,1.1-1,.19-1.64.75-2.04,1.63-.42.92-.82,1.85-1.15,2.8-1.18,3.41-2.49,6.79-3.43,10.27-.47,1.75-1.26,3.52-.83,5.48.23,1.03-1.42,2.96-2.47,3.18-.68.14-1.36.26-2.03.42-.73.18-1.39.13-1.93-.44-.7-.72-1.87-.87-2.02-2.28-.12-1.09-.1-2.07.08-3.14.52-3.14,2.16-5.88,3.06-8.89.48-1.62,1.27-3.15,1.9-4.73.17-.42.25-.87.44-1.54-1.66.19-3.06.39-4.48.51-.96.09-1.93.08-2.89.13-1.14.05-2.06-.63-2.52-1.43-.5-.86-.1-1.89.54-2.82,1.1-1.61,2.51-2.47,4.43-2.81,2.36-.41,4.68-1.04,7-1.63.99-.25,1.86-.68,2.32-1.76,1.39-3.3,2.86-6.56,4.29-9.84.08-.18.05-.4.07-.6-.62-.42-1.03-.24-1.41.26-1.69,2.27-4.18,2.04-6.58,2.07-1.21-.95-2.47-1.84-3.62-2.85-.87-.76-1.62-1.65-2.37-2.53-.54-.64-.95-1.28-.99-2.26-.05-1.3-.49-2.59-.77-3.87-.18-.8-.86-.93-1.49-.98-2.89-.23-5.78-.36-8.66.5,0,.26-.08.55.01.77,1.08,2.56.62,4.99-.52,7.4-.32.67-.52,1.4-.71,2.12-.99,3.74-2.19,7.4-3.59,11-1.14,2.92-2,5.96-2.98,8.95-.22.67-.02,1.2.38,1.78.44.63.75,1.38.95,2.13.28,1.02.43,2.07.62,3.11.06.31.11.66.04.96-.38,1.65-.79,3.29-1.2,4.93-.06.25-.35.5-.32.72.23,1.99-1.09,3.34-2.13,4.69-1.12,1.46-2.56,2.67-4.67,2.59-.75-.03-1.35-.23-1.85-.79-1.43-1.62-2.7-3.29-2.8-5.61-.04-.93-.46-1.84-.64-2.78-.55-2.8-.27-5.5,1.09-8.06.15-.28.28-.61.27-.92-.03-1.59,1-2.76,1.54-4.13.45-1.15,1.21-1.89,2.45-2.05,1.06-.14,1.44-.71,1.68-1.77.45-1.96,1.18-3.86,1.79-5.79.96-3.04,1.9-6.1,2.89-9.13.35-1.06.88-2.07,1.24-3.13.54-1.61,1-3.24,1.49-4.86-1.73-.81-3.64.46-3.62,2.34.03,2.7-2.43,5.31-5.08,5.18-2.11-.11-3.9.45-5.51,1.75-.81.65-2,.83-2.34,2.05-.06.2-.51.37-.8.41-1.74.21-3.29-.26-4.58-1.47-1.69-1.59-2.73-3.6-3.27-5.8-.26-1.06-.03-2.23-.07-3.35-.02-.51-.05-1.04-.22-1.51-.36-1.01-.2-1.93.43-2.72.94-1.17,1.76-2.39,2.36-3.78.32-.75,1.04-1.32,1.49-2.03.19-.31.29-.8.2-1.14-.48-1.77.42-4.34,1.96-5.27.67-.4,1.36-.8,2.09-1.04,1.64-.52,2.84.45,3.75,1.55,1.14,1.4,2.72,1.64,4.24,1.95,1.31.27,2.27.78,2.97,1.93.67,1.09,1.52,2.07,2.18,3.17.53.89,1.29.65,1.98.53,1.05-.19,2.07-.57,3.12-.76,1.99-.35,3.99-.67,5.99-.88,1.16-.12,2.37-.18,3.5.02,1.93.33,3.16-.67,4.31-1.91.65-.7,1.1-1.54,2.16-1.81.33-.08.58-.72.76-1.15.76-1.78,2.16-2.67,4.02-2.95.74-.11,1.5-.2,2.21-.42,1.54-.48,3.13-.39,4.58.03,2.56.73,4.52,2.43,5.62,4.87.34.76.33,1.89.04,2.68-.46,1.24-.46,2.59-1.51,3.76-.94,1.04-1.89,2.65-.66,4.35.38.52.45,1.25.66,1.89.15.03.31.05.46.08Z"/><path class="cls-1" d="m566.5,143.53c.23.1.45.24.69.28,2.67.48,4.22,3.19,3.19,5.66-.69,1.66-1.43,3.3-2.11,4.96-.18.43-.23.92-.31,1.38-.06.31.03.69-.12.92-1.88,2.89-1.6,6.35-2.56,9.49-.51,1.67-.13,3.48-.84,5.14-.22.51-.05,1.17-.13,1.75-.14.99-.35,1.97-.53,2.96-.27,1.45-.56,2.89-.82,4.34-.29,1.61-.56,3.23-.84,4.84-.04.21-.12.46-.04.62.63,1.4-.14,2.67-.29,4.01-.18,1.62-.23,3.26-.26,4.89-.02.73.06,1.4-.28,2.15-.35.77-.2,1.76-.29,2.75-2.2,1.32-4.52,1.57-6.92.32-.14-.07-.27-.23-.41-.24-1.93-.07-2.96-1.26-3.6-2.89-.24-.62-.58-1.3-.52-1.92.31-2.95.7-5.87,1.57-8.74.48-1.59.36-3.36.61-5.04.49-3.33,1.11-6.64,1.57-9.97.52-3.81.86-7.64,1.38-11.46.31-2.31.59-4.63,1.46-6.86.78-1.97,1.31-4.03,1.92-6.07.21-.71.41-1.46-.35-2.19-.72.18-1.52.29-2.24.58-.92.37-1.15.92-.7,1.78.38.71.12,1.23-.02,1.91-.38,1.83-1.58,2.7-3.13,3.44-1.59.76-2.66,2.16-3.3,3.76-.83,2.09-2.42,3.61-3.64,5.41-.23.33-.95.46-1.44.45-1.17-.02-2.37-.07-3.51-.33-.9-.21-1.73-.72-2.56-1.15-.42-.22-.74-.61-1.16-.83-1.45-.75-2.41-1.9-3.04-3.38-.2-.46-.46-.9-.78-1.51-.46,1.37-.82,2.52-1.22,3.65-.45,1.25-.86,2.53-1.43,3.72-1.04,2.19-2.19,4.33-3.31,6.48-.37.72-.46,1.42,0,2.13,1.21,1.88.78,3.94.64,5.95-.06.87-.55,1.7-.72,2.57-.45,2.25-1.2,4.39-2.17,6.46-.38.8-.77,1.6-1.26,2.33-.55.82-.74,1.57-.29,2.53.4.86.72,1.8.87,2.74.23,1.5-.01,2.93-1.24,4.01-1.6,1.4-3.25,2.62-5.6,2.19-1.98-.36-3.07-1.57-3.79-3.42-.86-2.2.15-3.95,1.15-5.52,1.97-3.09,2.47-6.5,2.91-9.99.22-1.72.75-3.4,1.1-5.1.18-.87.12-1.81.43-2.61.44-1.12,1.16-2.13,1.68-3.23.48-1,1.01-2.02,1.24-3.09.4-1.81.25-3.8.95-5.46.65-1.54.36-3.15,1-4.63.41-.94.45-2.05.55-3.09.05-.49-.13-1-.22-1.56-3.34.2-6.38,1.04-9.44,1.84-2.01.52-4.02,1.27-6.06,1.39-2.26.13-4.52-.48-6.59-1.54-.48-.24-.92-.58-1.43-.74-1.7-.52-2.13-2-2.61-3.41-.14-.41-.09-1.05.14-1.41,1.41-2.18,2.05-4.83,4.08-6.62.47-.41.99-.8,1.56-1.06,1.09-.48,1.95-1.03,2.65-2.15,1.01-1.61,2.31-3.12,3.76-4.36.91-.78,2.28-1.22,3.5-1.39,2.14-.3,4.24.44,5.86,1.71,1.02.79,1.56,2.35,1.99,3.67.34,1.04.37,1.36,1.46,1.4.32.01.67.04.96-.05,2.58-.83,5.41-.79,7.78-2.37.51-.34,1.34-.3,2.01-.27,2.64.12,5.04-.93,7.5-1.59.55-.15.95-.83,1.43-1.25,1.27-1.11,2.83-1.92,3.58-3.57.13-.29.68-.57,1.03-.56,2.14.02,4.29-.04,6.4.24,2.6.34,4.28,1.99,5.19,4.42.25.66.64,1.11,1.42,1.02,1.42-.18,2.93-.13,4.24-.61,1.8-.65,3.59-.96,5.48-1.03.78-.03,1.56-.29,2.32-.48.73-.18,1.43-.46,2.16-.62,1.69-.36,2.91-1.19,3.82-2.77.91-1.58,2.5-2.63,4.3-3.1,1.65-.43,3.36-.76,5.06-.9,3.24-.26,6.1,1.4,7.43,4.46.18.42.22.95.18,1.41-.23,2.18-.7,4.24-2.42,5.87-.7.66-1.03,1.72-1.49,2.62-1.38,2.67-3.61,4.34-6.42,5.14-.88.25-2.05-.02-2.95-.38-1.82-.73-3.62-1.57-5.29-2.58-1.41-.85-2.63-1.03-4.17-.36-1.3.56-2.77.73-4.16,1.06-.39.09-.79.17-1.18.25,0,.13,0,.26-.01.39Zm-34.72,6.22c.22,1.59.38,2.81.57,4.15,1.38-.49,1.93-1.89,2.94-2.78.28-.25.16-.95.24-1.61-1.42.09-2.61.17-3.74.25Z"/><path class="cls-1" d="m710.2,145.05c-.88.38-1.65.52-2.16.96-3.66,3.13-6.67,6.81-8.52,11.27-1.02,2.45-2.23,4.79-3.27,7.23-.2.46-.27.98-.44,1.63,2-.69,3.78-1.39,5.6-1.92,1.87-.54,3.79-.9,5.69-1.34.31-.07.75-.05.91-.25.62-.79,1.52-.68,2.33-.86,2.63-.59,5.28-1.13,7.9-1.77,1.23-.3,2.42-.79,3.64-1.17,2.29-.73,4.3.01,6.2,1.22,1.63,1.03,2.3,2.66,1.82,4.51-.55,2.1-1.19,4.17-1.75,6.27-.31,1.18-.56,2.37-.75,3.57-.34,2.1-.85,4.14-1.67,6.11-.2.47-.31,1.02-.29,1.53.1,2.9-1.89,5.44-1.4,8.39-1.46,2.71-.66,6.06-2.51,8.68-.54.76-.79,1.71-1.18,2.57-.09.19-.13.45-.28.57-1.31,1.05-2.5,2.46-4.01,2.99-1.3.46-2.99-.03-4.3-.88-.87-.57-.98-1.6-1.21-2.54-.66-2.74-.08-5.38.47-8.05.51-2.49.77-5.04,1.18-7.56.16-1,.43-1.98.64-2.97.11-.52.29-1.04.3-1.57.01-.78-.53-1.03-1.16-.57-.6.44-1.24.86-1.74,1.4-1.76,1.93-4.1,3.06-6.14,4.58-3.15,2.35-6.72,3.94-10.24,5.6-1.19.56-2.5.97-3.8,1.19-.85.15-1.86.03-2.66-.29-1.51-.59-3.12-.99-4.33-2.3-.78-.84-1.28-1.79-1.45-2.78-.55-3.26-.56-6.56.02-9.83.26-1.46.81-2.86,1.17-4.31,1.24-4.97,2.83-9.81,4.76-14.57,1.32-3.25,3.03-6.26,4.7-9.28,1.36-2.45,3.26-4.62,5.04-6.81,1.13-1.4,2.36-2.78,3.78-3.87,2.38-1.84,5.05-3.17,8.19-3.11.36,0,.75.11,1.07.28,2.01,1.08,3.77,2.43,4.81,4.52.18.36.34.83.28,1.2-.3,1.87-.82,3.65-2.66,4.66-1.52.84-2.27.45-2.47-1.28-.02-.21-.04-.42-.11-1.07Zm-15.94,25.89c-1.5,4.65-2.82,9.13-3,13.87,2.85-.21,14.26-7.35,15.6-9.67-1.24-1.37-1.25-1.39-2.82-1.19-3.31.43-6.4.2-8.77-2.58-.21-.24-.65-.29-1.01-.44Z"/><path class="cls-1" d="m187.85,161.95c.85-2.4,1.4-4.48,1.7-6.64.11-.79-.24-1.26-.95-1.66-.56-.32-1.05-.86-1.42-1.41-.18-.26-.12-.8.01-1.14.53-1.31.5-1.49-.57-2.62-.25-.27-.55-.72-.48-1.01.54-2.31,1.65-4.28,3.78-5.49,1.21-.69,2.45-1.55,3.76-1.77,1.4-.23,3.09-.14,4.34.46,2.14,1.03,4.07.41,6.06-.05,3.43-.8,6.75-.86,9.98.85,1.48.79,2.48,2.03,3.5,3.25,1.02,1.22.91,2.75.47,4.12-.53,1.62-1.24,3.2-2.07,4.69-.64,1.14-1.6,2.11-2.41,3.17-.8,1.04-1.68,2.01-2.55,2.99-1.38,1.57-3.12,2.54-4.78,3.64-1.46.96-3.27,1.47-4.51,2.62-1.11,1.02-2.37,1.56-3.59,2.28-.88.52-.88,1.21-.15,1.94.91.9,1.81,1.81,2.75,2.69.26.24.63.35.95.52.46.26,1.02.43,1.36.8,2.15,2.37,5.06,3.53,7.75,5.08,2.25,1.3,4.71,2.36,6.54,4.29.97,1.02,1.78,2.19,2.67,3.29.33.41.65.81.94,1.17.95-.45,1.79-.79,2.56-1.24.72-.42,1.22-.19,1.68.36.92,1.12,2.16,1.73,3.47,2.24,2,.78,3.7,1.93,4.81,3.83.11.18.22.39.39.51,1.69,1.25,1.42,2.89.93,4.58-.62,2.14-1.66,4.05-3.09,5.75-1.37,1.64-3.23,1.38-5.04,1.28-.68-.04-1.35-.14-2.03-.22-.26-.03-.55-.02-.77-.13-1.67-.92-3.63-1.39-4.87-3.02-.18-.24-.51-.37-.77-.56-.21-.16-.53-.28-.61-.5-.54-1.37-1.26-2.75-.99-4.25.22-1.18.72-2.33,1.21-3.44.42-.95.51-1.71-.45-2.36-1.5-1.01-2.94-2.12-4.49-3.03-1.76-1.02-3.54-2.14-5.46-2.73-4.64-1.42-7.91-4.97-11.95-7.3-.85-.49-1.52-1.28-2.36-2.01-1.27,1.36-.75,2.96-1.12,4.43.77.73,1.53,1.46,2.31,2.19.16.14.38.22.52.37.45.51,1.35,4.92,1.22,5.62-.18.99-.28,1.99-.46,2.98-.14.72-.24,1.5-.58,2.13-.99,1.84-2.37,3.39-3.97,4.75-.08.07-.18.2-.25.19-1.48-.26-2.85.96-4.39.27-.67-.3-1.45-.47-2.18-.48-2.28-.05-3.75-1.43-5-3.04-.76-.98-1.4-2.14-1.77-3.32-.23-.72.14-1.64.27-2.47.29-1.83.55-3.67,1.41-5.36.12-.23.22-.49.4-.67,1.47-1.47,2.05-3.27,2.02-5.31,0-.15,0-.36.1-.45,1.78-1.66,1.52-4.28,2.93-6.14.63-.83.3-1.6-.58-2.37-2-1.74-4.03-3.45-6-5.22-.71-.64-1.35-1.38-1.91-2.16-1.08-1.52-1.06-3.59.02-5.14.18-.26.56-.5.88-.54,2.48-.37,4.68.45,6.61,1.9.79.6,1.33,1.53,2.05,2.23.6.58,1.3,1.05,2.22,1.79Zm10.33-2.89c.9-.68,1.71-1.36,2.59-1.94,1.65-1.08,3.34-2.1,5.03-3.14,2.07-1.27,2.88-3.42,4.13-5.77-2.05.57-3.74.97-5.38,1.52-1.19.4-2.38.86-3.06,2.1-.38.69-.92,1.31-1.48,1.86-.99.97-1.92,1.89-1.96,3.45-.02.58-.54,1.15.13,1.91Z"/><path class="cls-1" d="m380.07,156.28c.72.12,1.18.25,1.64.27,2.08.1,4.17.11,6.24.27,1.25.1,2.63.16,3.69.72,1.01.54,1.69,1.7,2.54,2.6-.73,1.83-1.85,3.11-3.53,3.85-2.3,1.02-4.65,1.79-7.15,2.28-1.55.31-3.28.29-4.7,1.31-.61.44-1.05.84-1.15,1.6-.35,2.58-.71,5.16-1.12,7.73-.12.72-.4,1.41-.64,2.11-.39,1.14-.65,2.27.11,3.37.09.13.2.29.19.43-.13,1.74-.27,3.48-1.35,4.98-1.15,1.61-2.83,2.16-4.69,2.38-.85.1-1.69.29-2.54.36-1.48.12-2.98-.76-3.56-2.11-.67-1.54-.93-3.05-.24-4.76,1.18-2.91,2.16-5.91,3.1-8.9.61-1.96,1.03-3.97,1.51-5.97.16-.66.12-1.27-.67-1.6-.44-.18-.79-.57-1.22-.76-1.93-.85-2.15-2.47-2-4.26.06-.73.19-1.45.3-2.26-1.04.07-1.43.58-1.74,1.34-.62,1.52-1.32,3.02-2.03,4.5-.15.32-.46.58-.74.83-1.82,1.64-3.57,3.34-5.55,4.83-1.79,1.35-3.62,2.34-5.71,3.07-1.55.54-2.94.3-4.39-.12-.67-.19-1.31-.47-1.94-.78-.3-.15-.59-.42-.78-.71-1.36-2-1.56-4.21-.88-6.45.52-1.73,1.27-3.39,2.01-5.04.24-.53.39-.83.02-1.41-.29-.47-.27-1.22-.19-1.81.31-2.1,1.81-3.4,3.33-4.66.2-.17.5-.25.66-.44,1.75-2.16,3.48-4.34,5.34-6.66.7-.25,1.69-.49,2.57-.96,2.69-1.43,5.61-2.06,8.51-1.44,1.76.38,3.73,1.38,4.87,2.72,1.83,2.17,2.67,4.91,1.5,7.84-.12.29-.23.6-.41.84-.61.78-1.25,1.54-2.12,2.6.69-.22,1.01-.32,1.33-.43,1.55-.52,2.61-1.37,3-3.13.65-2.9,1.57-5.74,2.35-8.61.1-.38.01-.81.01-1.41-1.22.21-2.24.38-3.27.55-.15.02-.32.03-.47-.01-1.41-.45-2.79-.99-4.22-1.35-1.12-.28-1.73-1.1-2.22-1.94-.33-.58-.8-1.36.08-2.14.45-.4.46-1.26.77-1.86.67-1.29,1.93-2.01,3.09-2.71,2.55-1.54,5.2-2.93,7.83-4.34.35-.19.81-.19,1.21-.3.66-.19,1.39-.27,1.96-.61,1.95-1.18,4.16-1.3,6.31-1.67.42-.07.92.21,1.35.38,1.09.43,2.16.89,3.41,1.42.14.33.37.86.62,1.45,1.6-.15,3.19-.29,4.77-.45.27-.03.53-.1.79-.13,2.37-.19,3.26.34,4.16,2.54.1.25.08.63-.03.88-.49,1.11-1.25,1.97-2.4,2.46-3.54,1.51-7.14,2.86-10.93,3.61-.68.13-1.36.29-2.01.51-.85.28-1.46.76-1.57,1.79-.17,1.57-.43,3.15-.78,4.69-.29,1.32-.8,2.58-1.13,3.89-.41,1.64-.74,3.3-1.15,5.18Zm-33.49,12.52c1.52-.6,2.85-.92,3.94-1.6,3.18-1.98,5.94-4.51,8.64-7.1,1.86-1.79,3.6-3.63,4.16-6.29.3-1.43-.1-2.32-1.54-2.28-1.58.05-3.14.46-4.71.74-.14.02-.27.16-.38.27-1.64,1.6-3.39,3.1-4.65,5.06-.86,1.34-1.94,2.56-2.69,3.95-1.16,2.14-2.4,4.28-2.76,7.25Z"/><path class="cls-1" d="m443.73,143.73c-1.87.55-3.56.54-4.87,1.65-.4.35-.73.95-.81,1.48-.26,1.73-1.35,2.68-2.81,3.41-.42.21-.79.6-1.05,1-.52.81-.91,1.7-1.42,2.52-1,1.6-3.46,2.01-4.9.77-.85-.73-1.8-1.46-2.36-2.4-1.89-3.15-2.45-6.48-1.14-10.06.41-1.13.44-2.4.67-3.6.16-.82.33-1.64.56-2.45.24-.87.51-1.74.86-2.58.45-1.06.58-2.27,1.62-3.05.4-.3.77-.86.82-1.34.12-1.09.89-1.58,1.61-2.18,1.25-1.06,2.55-.84,3.49.54.56.83,1.11,1.72,1.85,2.36,1.64,1.41,2.32,3.27,2.78,5.36.53-.08,1-.15,1.47-.21,2.1-.26,4.2-.55,6.3-.76.68-.07,1.45-.07,2.06.18,1.72.68,3.44,1.12,5.53.83.29-.62.74-1.4,1.05-2.23.61-1.63,1.29-1.94,2.88-1.18.19.09.38.17.72.31.42-.46.94-.86,1.24-1.39.85-1.54,1.64-3.12,2.38-4.71.58-1.25,1.41-1.83,2.78-1.51,1.49.35,2.64,0,3.53-1.22.06-.09.15-.16.22-.23,1.62-1.62,3.26-1.43,4.64.45.87,1.19,1.76,2.39,2.79,3.44,2.13,2.18,2.74,4.79,2.36,7.68-.3,2.23-1.07,4.26-3.19,5.47-.37.21-.74.46-1.03.77-.6.66-1.22,1.13-2.21.99-.31-.05-.72.19-1,.4-1.09.86-2.18,1.73-3.22,2.65-1.68,1.48-3.35,1.67-5.25.53-1.07-.64-2.14-1.2-3.48-.96-.39.07-.99-.15-1.24-.45-.78-.94-1.49-1.94-2.13-2.98-.71-1.14-1.02-1.24-2.11-.42-.29.22-.6.46-.94.55-2,.51-4.01.98-6.02,1.48-.2.05-.37.2-.69.39.29,1.07.59,2.16.87,3.24.04.15.03.31,0,.46-.4,2.3-.81,4.6-1.21,6.9-.04.26-.07.54-.02.8.6,2.78.17,5.51-.34,8.25-.22,1.2-.45,2.43-.41,3.64.09,2.57-1.49,4.6-2.08,6.94-.6,2.37-1.52,4.67-2.2,7.02-.12.4.09,1.12.41,1.38,1.15.93,1.35,1.9.67,3.22-.56,1.08-1.02,2.24-1.37,3.4-.34,1.16-.51,2.38-.68,3.58-.03.24.25.56.45.79,1.19,1.35,1.81,2.86,2.11,4.71.26,1.66.24,3.08-.37,4.63-.89,2.26-2.05,4.17-4.43,5.09-.35.14-.71.26-1.03.45-2.56,1.6-5.15,1.12-7.96.59-2.19-.41-3.52-1.91-5.33-2.71-.05-.02-.13-.03-.14-.07-.65-2.2-2.83-3.94-2.35-6.39.36-1.83.91-3.73,2.26-5.22,2.55-2.81,4.97-5.73,7.64-8.42,1.37-1.38,3.11-2.41,4.77-3.46.96-.6,1.46-1.43,1.69-2.42,1.09-4.66,2.23-9.31,3.15-14.01.6-3.07.87-6.21,1.26-9.32.11-.88.06-1.79.17-2.67.25-2.06.5-4.13.85-6.17.12-.71.54-1.37.8-2.06.14-.37.24-.75.46-1.47Z"/><path class="cls-1" d="m472.26,171.32c-.28.16-.56.44-.84.45-1.9.08-2.83,1.49-3.92,2.71-.57.63-1.32,1.09-1.88,1.73-1.37,1.53-2.67,3.11-4.01,4.67-.28.32-.55.66-.87.94-2.01,1.78-3.57,3.93-5.22,6.02-1.32,1.66-3.04,3.02-4.58,4.5-.23.22-.58.38-.71.64-.33.71-.68,1.25-1.58,1.33-1.48.14-2.95.71-4.41-.03-1.16-.58-1.08-.94-.64-2.11.84-2.25,2.81-3.62,4-5.57.3-.5.57-1.03.92-1.49.47-.63.98-1.23,1.51-1.8,1.39-1.48,2.81-2.93,4.2-4.41,1.05-1.13,2.08-2.28,3.09-3.44.12-.13.1-.39.19-.8-.64.07-1.16.08-1.66.19-2.12.49-4.11.18-6.1-.71-1.2-.54-1.52-1.59-1.92-2.61-.09-.22.2-.68.44-.92,1.8-1.84,3.85-3.14,6.5-3.5,3.06-.42,6.1-1.04,9.15-1.56.58-.1,1.17-.12,1.76-.17,1-.08,1.81-.46,2.55-1.18,1.39-1.32,2.88-2.52,4.53-3.94-.63-.82-1.17-1.57-1.76-2.28-.71-.86-1.45-1.69-2.22-2.5-.76-.81-1.58-1.58-2.35-2.39-.59-.61-1.4-1.26-.91-2.2.46-.89,1.14-1.78,2.26-1.87.99-.08,2,.08,3.36.15.63-.37,1.25-1.11,1.34-2.32.03-.46.39-1.03.77-1.31,1.08-.79,2.23-1.47,3.38-2.15.25-.15.64-.23.92-.16,2.65.6,5.31,1.14,7.31,3.27,1.14,1.21,1.55,2.73,1.83,4.17.26,1.34.48,2.67,1.24,3.75,1.22,1.75,1.67,3.79,2.51,5.68,1.17,2.63,2.27,5.3,3.28,8,.49,1.32.75,2.73,1.01,4.12.16.84.63,1.32,1.34,1.66,1.21.58,2.39,1.23,3.63,1.73,1.48.6,2.36,1.73,3.17,3.02.57.92.51,1.75-.17,2.48-1.25,1.35-1.51,2.73-.83,4.51.28.75-.02,1.98-.5,2.7-1.08,1.63-2.37,3.14-3.7,4.58-1.93,2.09-5.35,2.41-7.95,1.04-1.91-1-3.03-2.41-3.39-4.55-.19-1.14-.66-2.24-1.06-3.34-.19-.54-.3-.97.18-1.45.93-.93.77-1.97.31-3.11-.36-.87-.51-1.82-.74-2.74-.08-.31-.08-.65-.23-.92-.86-1.54-.87-3.25-1.11-4.94-.2-1.45-.74-2.86-1.29-4.23-.51-1.27-1.23-2.46-1.82-3.7-.15-.32,0-.78-.17-1.07-.31-.52-.72-1.02-1.19-1.38-.1-.08-.71.43-1.02.74-1.03,1.01-2.01,2.07-3.05,3.07-.39.37-.99.72-.64,1.27.22.35.86.62,1.32.62,1.18.02,1.96.51,2.3,1.61.59,1.93-.92,3.42-2.98,2.84-.96-.27-1.82-.86-2.88-1.38Z"/><path class="cls-1" d="m654.82,169.03c-1.26,2.76-2.35,5.18-3.47,7.57-.7,1.49-1.45,2.97-2.19,4.44-.09.17-.32.27-.48.4-.65.54-1.32,1.05-1.94,1.63-1.03.98-2.17,1.64-3.63,1.87-1.21.19-1.9-.31-2.64-1.09-1.2-1.27-1.43-2.79-1.34-4.43,0-.16.02-.33.1-.46,1.41-2.51,2.87-5,4.23-7.53,1.72-3.2,3.36-6.44,5.03-9.67.17-.33.33-.7.36-1.06.39-3.93,2.45-7.35,3.31-11.13.35-1.52.68-2.94,1.75-4.16.68-.77,1.49-1.16,2.38-1.09,1.37.12,2.73.46,4.07.81.33.09.66.52.81.87.34.82.53,1.7.87,2.52.26.63.46,1.14-.12,1.74-.24.25-.18.78-.24,1.19-.09.57-.16,1.14-.24,1.71-.03.21-.19.49-.11.61,1.04,1.6.23,3.41.6,5.11.36,1.66.19,3.42.45,5.1.2,1.32.48,2.6.17,3.94-.06.26.13.57.21.89.25-.05.5-.03.53-.11.62-1.46,1.22-2.93,1.8-4.41.19-.49.23-1.05.47-1.51,1.08-2.05,1.62-4.26,1.96-6.52.02-.1,0-.24.07-.3,1.62-1.59,1.17-3.92,2.07-5.81.46-.97.76-2.13,1.22-3.18.15-.33.34-.75.25-1.06-.36-1.34.09-2.34,1-3.33.78-.85,1.55-1.31,2.56-.81,1.1.54,2.26,1.12,3.09,1.98,1.15,1.17,1.3,2.73.81,4.33-.25.81-.38,1.65-.57,2.47-.1.4-.21.81-.36,1.19-.31.8-.7,1.56-.99,2.37-.75,2.09-.71,2.07.97,3.6.78.71,1.46,1.54,2.17,2.33.09.1.11.3.11.46,0,2.01.82,3.97.44,6.02-.08.44.15.93.19,1.4.13,1.52.47,3.06.29,4.54-.19,1.67-.9,3.27-1.28,4.92-.15.65-.15,1.39,0,2.04.52,2.19-.2,4.23-1.15,6.01-.85,1.6-2.41,2.9-4.21,3.53-1.61.57-3.29.38-4.87-.29-1.23-.53-2.55-.94-3.64-1.68-1.08-.73-1.92-1.82-2.89-2.73-.38-.35-.78-.89-1.21-.93-1.18-.12-1.81-.82-2.24-1.76-.7-1.54-1.62-2.97-1.72-4.78-.07-1.18-.68-2.33-1.04-3.49-.3-.96-.55-1.93-.89-2.87-.14-.38-.45-.7-.9-1.38Z"/><path class="cls-1" d="m246.3,169.37c-1.36,2.24-2.49,4.22-3.74,6.14-1.89,2.91-4.12,5.56-7,7.53-3.02,2.07-6.42,2.53-9.72.9-2.46-1.22-4.25-3.37-5.5-5.87-.12-.25.04-.62,0-.92-.04-.34-.08-.72-.27-.98-.64-.89-.95-1.73-.67-2.9.32-1.38.2-2.87.43-4.28.19-1.14.64-2.24.94-3.36.11-.41.13-.84.2-1.35-1.2-.63-1.62-1.46-1.02-2.85.39-.89.2-2.02.49-2.98.96-3.23,2.67-5.96,5.31-8.17,2.99-2.5,6.42-3.83,10.1-4.96,2.18-.67,3.93.04,5.87.26,2.33.26,3.69,1.94,5.13,3.48.3.32.61.64,1.03,1.09,1.39-2.57,3.8-3.67,5.77-5.26,1-.8,1.9-1.74,2.95-2.47,1.13-.79,2.35-1.45,3.58-2.09,1.31-.69,2.6-.3,3.82.3.36.18.8.48.91.82.36,1.07,1.23,1.36,2.15,1.7,1.15.43,2.5.68,3.36,1.46.94.85,1.41,2.2,2.08,3.34.05.08-.02.22.02.32,1.32,3.13-.17,6.07-.65,9.06-.17,1.04-.87,2.05-.86,3.06.02,1.19-.53,2.04-.91,3.04-.41,1.08-.41,2.3-.77,3.41-1.16,3.59-2.21,7.24-4.74,10.19-.47.54-1.07.98-1.63,1.44-2.34,1.93-5.02,3.23-8.06,2.62-3.2-.65-5.52-2.72-6.72-5.81-.59-1.53-.93-3.15-1.4-4.73-.1-.33-.26-.64-.49-1.18Zm-16.31,8.56c1.31-.18,4.01-1.42,5.3-2.55,2.41-2.1,4.19-4.7,5.72-7.45,1.2-2.16,2.58-4.35,2.02-7.06-.03-.17.22-.38.23-.57.02-1.35.53-2.69-.14-4.06-1.19-2.43-3.2-3.51-5.85-2.88-1.19.28-2.37.65-3.52,1.06-.84.3-1.71.62-2.45,1.11-1.81,1.19-2.79,3.15-3.72,4.95-1.05,2.04-1.51,4.39-2.15,6.63-1.04,3.66.23,6.8,2.47,9.61.47.59,1.38.82,2.08,1.22Zm38.54-21.1c0-.76.1-1.27-.02-1.71-.29-1.05-.45-2.28-1.12-3.05-.8-.93-2.01-1.56-3.42-1.47-1.17.07-2.37-.04-3.53.12-.56.07-1.25.43-1.57.88-1.91,2.67-3.51,5.51-4.07,8.8-.8,4.76-.99,9.42,1.95,13.68.49.7,1.01.85,1.59.61.92-.39,1.95-.82,2.59-1.54,2.64-2.93,5.24-5.92,6.27-9.87.58-2.21,1.48-4.36,1.33-6.44Z"/><path class="cls-1" d="m314.21,138.08c-.24,1.11-1.06,1.85-2.06,1.98-1.93.26-3.07,1.62-4.37,2.76-1.41,1.22-2.73,2.54-4.05,3.86-2.64,2.65-4.97,5.57-7.06,8.67-.29.44-.39,1.01-.69,1.81,2.66-.65,3.59,1.17,4.76,2.57,1.3,1.55,1.37,3.35.93,5.41,1,0,1.97,0,2.95,0,.26,0,.56-.06.79.04,2.7,1.22,5.43,2.4,6.62,5.46.34.89.7,1.78,1.14,2.63.21.41.61.73.97,1.04.73.63,1.63,1.12,2.21,1.86,1.88,2.39,2.25,5.12,1.4,8.01-.24.82-.59,1.61-1,2.36-.59,1.09-.93,1.99-.49,3.41.38,1.21.43,2.79-.24,4.2-.44.93-.49,2.03-.78,3.33-1.22.82-2.41,2.07-3.28,3.65-.97,1.74-2.54,2.87-4.31,3.67-1.45.65-2.67,1.6-3.71,2.72-1.24,1.34-2.76,1.69-4.45,1.74-.41.01-.83,0-1.37,0,0,.43-.03.74,0,1.04.32,2.69-.36,5-2.16,7.12-1.3,1.53-2.26,3.36-3.32,5.09-.74,1.21-1.39,2.08-3.18,2.09-1.33,0-2.25-.38-3.14-1.06-.51-.39-1.03-1.1-1.08-1.7-.37-3.97.24-7.69,3.55-10.41,1.56-1.27,3.24-2.39,4.88-3.56.66-.47,1.09-1.04.95-1.87-.15-.95.04-1.76.62-2.55.48-.65.6-1.29.15-2.19-.77-1.55.37-4.28,1.92-5.72,1.11-1.03,2.45-2.09,2.96-3.41.43-1.1,1.33-1.75,1.73-2.78.42-1.08.86-2.19,1.49-3.15.89-1.36,1.11-2.72.94-4.33-.13-1.22.1-2.46,1.02-3.58,1.35-1.64.55-2.78-1.01-3.53-3.27-1.57-6.72-2.66-10.12-3.87-.98-.35-1.85-1.06-2.73-1.65-.62-.41-1.14-1.03-1.81-1.33-1.44-.64-1.94-1.83-2.26-3.22-.16-.71-.42-1.4-.6-2.11-.07-.25-.15-.56-.06-.78.72-1.94,1.28-3.95,2.75-5.55,3.06-3.35,6.04-6.78,9.08-10.14.97-1.07,2.03-2.05,3.05-3.07.19-.19.44-.34.57-.56,1.65-2.75,4.35-4.29,6.92-5.93,1.71-1.09,3.21-.51,4.98,1.51Z"/><path class="cls-1" d="m632.45,192.83c.7.18,1.16.31,1.62.41,2.09.44,3.28,1.77,3.74,3.79.18.78.34,1.58.38,2.37.03.49-.12,1.02-.3,1.49-.22.6-.52,1.17-.82,1.73-.14.26-.31.55-.55.71-1.14.75-2.35,1.39-3.44,2.21-1.95,1.46-4.18,1.93-6.52,2.31-2.08.33-4.13.37-6.18.1-1.53-.2-3.03-.59-4.55-.91-.42-.09-.83-.19-1.24-.27-3.19-.6-4.37-3.41-3.08-6.34.54-1.24,1.43-1.96,2.72-2.48.98-.39,1.72-1.37,2.56-2.09.6-.52,1.13-1.18,1.81-1.54,1.48-.77,1.94-2.04,2.06-3.54.12-1.49.14-2.98.36-4.45.26-1.72.83-3.4,1.03-5.12.36-3.15,1.67-6.03,2.34-9.08.68-3.1,1.82-6.07,2.55-9.14.46-1.91,1.08-3.77,1.5-5.69.14-.66.52-1.26.7-1.91.51-1.77,1-3.55,1.46-5.33.26-1.03.46-2.08.65-3.14.15-.83.33-1.67.32-2.5,0-.82.24-1.41.84-1.96.61-.57,1.09-1.28,1.64-1.92.24-.28.46-.64.77-.76,2.03-.85,6.1.37,7.49,2.1.67.84.51,1.81.68,2.73.33,1.81-.11,3.47-.68,5.18-.93,2.77-1.63,5.62-2.45,8.44-.43,1.48-.96,2.94-1.36,4.43-.35,1.32-.55,2.68-.87,4.01-.68,2.74-1.44,5.47-2.08,8.22-.59,2.53-1.09,5.08-1.6,7.63-.32,1.56-.64,3.11-.87,4.69-.26,1.84-.42,3.69-.63,5.63Z"/><path class="cls-1" d="m618.44,166.8c2.07,1.9,2.47,3.93,1.39,6.29-.18.39-.4.77-.52,1.17-.8,2.54-2.72,4.12-4.75,5.63-.85.64-1.63,1.39-2.38,2.14-1.31,1.3-2.78,2.33-4.46,3.08-1.2.54-2.38.56-3.57.02-2.97-1.37-5.13-3.37-5.53-6.84-.1-.86-.48-1.68-.73-2.52-.13,0-.26-.02-.39-.02-.28.49-.58.97-.84,1.46-1.83,3.42-4.05,6.58-6.95,9.15-1.65,1.46-3.59,2.74-5.61,3.61-1.42.62-3.12.66-4.81-.04-2.9-1.2-4-3.52-4.5-6.29-.31-1.73-.38-3.49-.61-5.24-.05-.39-.23-.87-.52-1.11-.64-.55-.62-1.16-.51-1.89.22-1.46.46-2.93.7-4.37.31-1.82,1.16-3.69,2.26-5.18,1.28-1.74,3.09-3.09,4.64-4.64.66-.66,1.24-1.41,2.09-2.38.63.15,1.6.38,2.56.61.26.06.52.16.78.14,2.86-.24,5.65.16,8.38.99.25.08.52.08.94.15,1-1.84,2.12-3.63,2.96-5.54.65-1.47,1.79-2.49,2.75-3.67,1.11-1.36,2.23-2.74,3.5-3.96,1.85-1.79,3.42-2.74,5.96-.97,1.49,1.04,3.04,1.43,4.69,1.66,1.33.19,2.38.65,3.41,1.54.95.83,2.17,1.37,2.82,2.52.33.58.52,1.24.71,1.88.15.5.19,1.03.3,1.55.2.96.29,1.88-.29,2.77-.26.39-.37.88-.55,1.32-.51,1.24-.97,2.51-1.53,3.72-.52,1.1-1.15,2.15-1.76,3.26Zm.52-6.31c.08-4.51-2.31-6.85-5.63-6.39-1,.14-2,.33-3,.43-2.07.21-3.38,1.36-3.82,3.32-.54,2.38-1.36,4.7-1.53,7.18-.14,2.01-.6,4-.84,6-.24,1.98.31,3.95-.07,5.97-.32,1.7,1.26,2.87,2.74,2.15,1.29-.64,2.39-1.62,2.83-3.12.18-.6.36-1.23.66-1.77.64-1.16,1.44-2.23,2.02-3.41.96-1.94,2.46-3.28,4.26-4.4.47-.29,1.02-.73,1.17-1.21.56-1.83.96-3.7,1.22-4.74Zm-39.66,18.49s-.03,0-.04,0c.07.96.16,1.91.2,2.87.08,2.26,1.46,3.23,3.65,2.75,1.11-.24,1.95-.75,2.71-1.53.25-.26.57-.5.9-.64,1.88-.8,2.98-2.37,4.08-3.96.42-.61.81-1.29,1.36-1.77.88-.77,1.26-1.81,1.86-2.74.74-1.15.55-2.68,1.78-3.62.47-.36.31-1.15-.24-1.55-.64-.47-1.3-1.01-2.03-1.23-1.37-.41-2.8-.81-4.23-.87-2.11-.08-4.14.64-5.87,1.79-1.76,1.17-2.92,2.95-3.79,4.89-.13.28-.32.58-.33.87-.03,1.58-.02,3.16-.02,4.74Z"/><path class="cls-1" d="m287.65,135.41c1.09.69.71,1.54.77,2.39.17,2.34-.62,4.52-.83,6.77-.29,3.05-.93,6-1.69,8.94-.33,1.28-.5,2.6-.7,3.9-.29,1.97-1.1,3.77-1.77,5.61-.27.74-.35,1.56.43,2.01,1.72.99,1.63,2.73,1.54,4.23-.09,1.48-.79,2.93-1.21,4.39-.09.29-.28.81-.21.85,1.18.67.6,2.09,1.3,2.98.25.32.3,1.05.11,1.43-.66,1.27-1.45,2.48-2.22,3.69-1.36,2.14-5.93,2.22-7.23-.36-.42-.83-.37-2.14-.06-3.06.52-1.49,1.44-2.84,2.31-4.47-.91-1.68-.57-3.74-.36-5.8.03-.25.08-.62.25-.72,1.51-.91,1.96-2.63,2.89-3.94.67-.95.62-2.43.83-3.68.6-3.63,1.3-7.25,1.7-10.9.17-1.54.6-3.03.67-4.6.09-1.96.39-3.94.84-5.86.26-1.09,1.01-2.07,1.62-3.26-.39,0-.7-.06-.97,0-3.46.96-6.97,1.62-10.56,1.87-.37.03-.9-.01-1.06.2-1,1.31-2.33.67-3.55.7-.94.02-1.88.09-2.81.08-.46,0-.99-.02-1.36-.24-1.62-.98-3.13-2.05-3.21-4.25-.02-.59-.56-1.15-.67-1.76-.39-2.02.81-3.44,2.21-4.49,1.15-.87,2.63-1.21,4.18-1.33,3.17-.25,6.3.54,9.43.29,2.87-.23,5.7-.96,8.53-1.53,2.54-.51,5.08-1.03,7.6-1.65,1.24-.3,2.49-.6,3.28-1.89.97-1.58,1.85-3.28,3.39-4.43.39-.29.9-.44,1.38-.6.19-.06.44.07.64,0,2.35-.71,3.93.16,4.9,2.32.21.46.42.97.44,1.46.06,1.23.19,2.4.84,3.5.78,1.32.68,2.83.71,4.31.01.61.33,1.34.09,1.82-.8,1.63-1.75,3.19-2.7,4.74-.2.33-.67.5-1.02.74-.89.58-1.95,1-2.65,1.76-1.86,2.02-4.08,1.81-6.32,1.19-1.48-.41-2.67-1.48-3.66-2.65-.9-1.05-1.81-1.72-3.28-1.2-.78.27-1.63.3-2.72.49Z"/><path class="cls-1" d="m644.63,116.82c1.34.09,3.08.07,4.75.38.94.18,1.8.87,2.67,1.38,1.01.59,1.18,1.57,1.14,2.64-.02.58.05,1.17.12,1.75.18,1.53-.29,2.73-1.5,3.78-.56.48-.74,1.39-1.09,2.11-.21.43-.29,1.03-.62,1.26-3.06,2.11-5.97,4.58-9.83,5.13-3.44.49-6.19-.94-8.33-3.48-.75-.89-.82-2.04-.26-3.3.69-1.57,1.15-3.29,1.41-5,.34-2.24,2.68-4.95,5.1-5.57,1.03-.26,2.03-.71,3.07-.89.98-.18,2.01-.12,3.39-.18Z"/></svg>