<?xml version="1.0" encoding="UTF-8"?><svg id="Layer_1" xmlns="http://www.w3.org/2000/svg" viewBox="0 0 601.9 226.72"><defs><style>.cls-1{stroke-width:0px;}</style></defs><path class="cls-1" d="m138.46,123.17c-.13-1.51-.36-3.08-.36-4.64,0-1.09.18-2.22.51-3.25.46-1.44,1.19-2.8,1.71-4.23,1.48-4.12,3.89-7.76,6.39-11.25,2.18-3.03,4.46-6.09,7.58-8.36,1.28-.93,2.55-1.86,3.86-2.75,1.49-1.01,3.09-1.01,4.77-.91,1.45.09,2.91.16,4.36.07,2.93-.18,5.58.5,7.98,2.23.2.57.38,1.12.57,1.67.16-.03.34-.02.37-.08,1.12-2.33,2.24-4.66,3.32-7.01.19-.41.31-.9.29-1.34-.14-2.41-.16-2.41,1.2-4.6.49-.14,1.05-.3,1.64-.47,1.04-1.33,1.73-2.77,1.56-4.55-.05-.55.22-1.14.38-1.71.26-.94.56-1.88.92-3.11,1.04-1.16,2.25-2.66,3.61-4,1.25-1.23,2.15-2.94,3.96-3.46,1.65-.48,3.34-1.39,5-.24.69.99,1.33,1.9,2.01,2.87-.25.93-.52,1.94-.69,2.54-1.46,2.17-2.75,4-3.95,5.88-1.1,1.73-2.1,3.53-3.13,5.31-.71,1.22-.88,2.54-.73,3.94.13,1.15.09,2.32.16,3.48.02.32.07.66.22.94,2.38,4.66,4.75,9.33,7.19,13.97,1.45,2.76,2.57,5.64,3.42,8.63.14.5.36.97.6,1.58.59-.39,1.03-.84,1.55-.97.51-.13,1.1.07,1.51.11.6,1.19,1.08,2.16,1.77,3.54.43-1.19.7-1.92.97-2.64.32-.86.63-1.73.95-2.59.56-1.49,1.64-1.97,2.96-1.71,1.08,1.77,2.08,3.4,3.15,5.16.9-.92.72-1.99.81-2.89.3-2.95.37-5.92.68-8.87.42-4,.99-7.98,1.5-11.98.27-2.09.52-4.19.81-6.28.1-.71.33-1.39.44-2.1.15-.97.25-1.95.37-2.98-1.4-.78-2.71-1.51-4.07-2.26-.14-.36-.28-.72-.42-1.09-.99-2.63-.21-4.83,2.2-6.36.84-.53,1.66-1.1,2.39-1.76,1.1-1.01,2.35-1.45,3.87-1.3,1.86,1.48,2.44,3.84,3.69,5.7v3.22c1.27,1.39,2.47,2.69,3.71,4.05.38,1.51-.03,2.95-.59,4.38-.24.61-.62,1.23-.64,1.85-.07,2.92-1.1,5.67-1.42,8.53-.11,1.02-.02,2.07-.02,3.38-.97.61-.36,1.96-.56,3.08-.39,2.21-.58,4.46-.82,6.7-.22,2.09-.41,4.19-.24,6.41.23-.39.43-.8.69-1.17,2.48-3.74,4.89-7.54,7.49-11.19,1.65-2.31,3.49-4.5,5.45-6.56,1.71-1.8,3.72-3.32,5.55-5.02,1.41-1.3,2.72-2.69,4.37-3.74,3.76-2.38,7.72-4.03,12.3-4.05.85-1.36,1.71-2.68,2.5-4.05,1.11-1.93,2.68-3.41,4.39-4.79.51-.41,1.07-.79,1.51-1.27,2.15-2.35,6.35-2.45,8.8-.44,1.67,1.36,2.28,2.98,2.22,4.78-.69,1.21-1.31,2.28-1.98,3.46.86,1.16.46,2.31-.02,3.52-.7,1.77-1.22,3.59-.69,5.53.24.87-.24,1.55-.64,2.23-1.42,2.38-2.88,4.75-4.32,7.12-.07.11-.17.21-.24.31-2.08,2.94-3.12,3.26-6.54,2.09-.55-.19-1.15-.22-1.79-.33-.72-.82-1.5-1.71-2.28-2.6-4.18,1.61-7.59,5-12.36,5.09-1.55-1.26-3.81-1.48-4.64-3.87-.72.73-1.35,1.28-1.88,1.92-1.02,1.21-2.04,2.43-2.96,3.72-1.31,1.83-2.54,3.71-3.8,5.57-2.91,4.31-5.07,9.02-7.13,13.76-1.5,3.47-2.38,7.23-2,11.03.47,4.74,2.89,7.87,7.56,9.2,3,.86,6.11,1.19,9.25.65,2.78-.48,5.57-.87,8.35-1.32.45-.07.87-.26,1.34-.4.16-.62.31-1.18.53-1.98,3.42-2.69,6.92-5.57,10.58-8.26,1.35-1,3.05-1.53,4.71-2.33,1.08.29,2.26.61,3.52.95-.65-1.38-1.24-2.64-1.84-3.89.09-.05.18-.11.27-.16-.43-.41-.86-.82-1.29-1.22-.46-1.65.07-2.88,1.41-3.97,2.29-1.87,3.72-4.43,5.15-6.96.81-1.43,1.71-2.81,2.62-4.29,1.37.08,2.61.16,3.84.23,4.02-10.19,6.77-20.73,10.15-30.92-1.65-.65-3.21-1.27-4.7-1.86-.7-1.42-1.34-2.7-2.06-4.15,2.44-1.52,3.6-3.86,5.05-6.37,2.63-1.48,5.69-3,6.48-6.71.97-.81,2.22-.72,3.32-1.08,1.28-.41,2.32.39,3.68.18.69,1.1,1.44,2.18,2.05,3.33.26.49.33,1.15.26,1.71-.1.89-2.29,4.28-3.05,4.96q-.2,1.9-1.88,3.46c1.79.55,2.36,1.91,2.57,3.56.16,1.28-.23,2.32-1.01,3.3-.61.77-1.24,1.58-1.62,2.47-1.53,3.58-2.81,7.23-3.63,11.05-.49,2.29-1.36,4.5-2.08,6.73-.72,2.24-1.67,4.38-2.19,6.7-.41,1.81-1.31,3.52-1.94,5.29-.46,1.28-.83,2.6-1.26,3.96.82.34,1.43.11,2.02-.15,2.81-1.24,5.78-1.8,8.8-2.31,1.96-.33,4.01-.74,5.68-2.07.38-.31.98-.36,1.47-.52,1.37-.47,2.81-.8,4.1-1.44,1.03-.51,1.81-1.52,2.83-2.07,1.68-.91,3.41-1.8,5.22-2.37,1-.31,2.22.04,3.15.09,2.66,1.8,4.73,3.83,5.96,6.8,1.38-2.35,1.69-5.05,2.66-7.5.97-2.46,1.65-5.02,2.53-7.51.9-2.51,1.9-4.99,2.95-7.74-.58.11-.81.14-1.04.2-.18.05-.36.14-.4.16-1.5-.53-2.87-1.01-4.59-1.62-.55-1.29-1.22-2.85-1.86-4.33,1.39-2.07,3.49-2.67,5.34-3.67.84-1.08,1.68-2.18,2.49-3.22,3.13-.08,5.91-1.14,8.73-2.03,1.79-.56,3.56-.89,5.41-.24.55.19,1.18.19,1.69.26.88.57,1.71,1.11,2.66,1.72.09.61.2,1.38.32,2.2-.32,1.29-.97,2.44-2.09,3.23-.95.67-2.06,1.13-3.02,1.8-.62.44-1.26,1-1.62,1.65-1.98,3.63-3.79,7.35-5.15,11.28-.79,2.31-1.89,4.51-2.78,6.78-.58,1.47-1.12,2.97-1.55,4.5-1.02,3.63-2.33,7.15-3.76,10.63-.8,1.95-1.49,3.96-2.06,5.99-.77,2.75-.76,5.6-.66,8.43.02.66.02,1.32.06,1.98.16,2.76,2.24,3.99,4.75,2.81,1.63-.77,3.01-1.88,4.27-3.16.91-.93,1.92-1.77,2.81-2.72,2.39-2.54,4.7-5.13,6.27-8.3.43-.86,1.21-1.54,1.72-2.37.76-1.24,1.43-2.53,2.1-3.82.57-1.11,1.1-2.25,1.62-3.38.44-.96.87-1.93,1.27-2.9.73-1.77,1.45-3.56,2.2-5.41,1.5-.73,2.78-1.95,4.86-1.74.32-1.08.6-2.14.94-3.19.24-.74.62-1.45.82-2.2.92-3.31,1.86-6.62,2.66-9.95.54-2.24.89-4.53,1.25-6.8.12-.77.36-1.39,1.01-1.84.44-.3.85-.63,1.29-.95,2.39-.52,4.42.31,6.19,1.83.93.8,1.38,1.95,1.43,3.15.04.84-.08,1.77-.43,2.52-1.08,2.31-1.1,4.88-1.93,7.25-.39,1.11-.6,2.27-.94,3.4-.81,2.71-1.61,5.43-2.47,8.12-.89,2.76-1.85,5.5-2.84,8.45.44.48.96,1.06,1.5,1.62,1.85,1.9,1.92,3.35.71,5.68-.97,1.86-1.61,3.89-2.43,5.9.49.31.79.68,1.12.69,2.47.11,4.13,1.56,5.67,3.34v2.82c-1.95,1.64-2.52,4.47-5.1,5.84.28.64.53,1.21.91,2.06-.24,1.78-1.73,3.04-3.3,4.27-.45.35-.9.82-1.12,1.34-.67,1.58-1.34,3.18-1.79,4.82-.91,3.29-3.35,4.74-6.58,3.78-.5-.15-1.03-.19-1.57-.28-1.11-.99-2.47-1.85-3.3-3.07-.7-1.02-.81-2.45-1.22-3.84.67-.54,1.34-1.08,2.01-1.62l-.28-.18c.45-2.35.9-4.7,1.38-7.22-1.84-1.04-3.48-2.24-3.9-4.76-.87.72-1.39,1.09-1.86,1.53-1.21,1.14-2.4,2.29-3.58,3.46-2.14,2.13-4.67,3.69-7.38,4.99-.52.25-1.02.55-1.51.82-.04.79-.08,1.44-.1,1.88-.9.75-1.63,1.4-2.41,1.99-.31.23-.69.4-1.07.49-1.35.33-2.71.65-4.07.89-.43.07-.94-.03-1.34-.21-1.91-.82-3.26-2.23-3.96-4.17-.2-.56-.1-1.32.08-1.92.28-.94.75-1.82,1.22-2.91-.46-.51-.98-1.08-1.66-1.84-.62-1.63-1.14-3.53-1.34-5.58-.19-1.94-.41-3.86-.54-5.9-.17.31-.39.61-.49.94-.56,1.73-1.64,2.69-3.63,2.43-.21.52-.4.98-.56,1.39-1.3.55-2.54,1.08-3.78,1.61.02.06.05.12.07.18h-2.78s-.25-.29-.54-.43c-2.4-1.17-3.3-3.37-4.01-5.72-.09-.31-.25-.61-.33-.82-1.31-.83-2.53-1.61-3.99-2.54-1.98-.01-4.25,1.9-6.55.08-3.68.81-7.32,1.56-10.58,3.15-.4,1.45-.81,2.7-1.09,3.98-.15.69-.24,1.46-.09,2.13.35,1.54-.05,2.65-.99,3.99-1.2,1.71-2.68,2.47-4.56,2.7-.68.09-1.47-.04-2.1-.32-1.33-.59-2.59-1.34-3.94-2.07-.3-1.1-.6-2.2-.81-2.96.84-1.51,1.46-2.64,2.23-4.03h-3.12c-.43-.29-.91-.61-1.74-1.17,1.35,2.74,1.14,5.01-.8,6.99-.66,1.65,1.44,3.02.4,4.69-1.55,2.13-3.71,3.41-6.25,4.14-1.36.39-2.52,1.16-3.5,2.2-1.32,1.41-2.92,2.23-4.89,2.2-.46,0-1,.09-1.38-.1-1.98-.99-3.9-.32-5.82.1-2.73.59-5.47.98-8.28.76-1.12-.09-2.26.05-3.39.05-1.6,0-3.16-.16-4.69-.73-1.22-.45-2.55-.58-3.8-.98-3.79-1.2-6.7-3.72-8.99-6.81-1.59-2.15-2.55-4.73-2.83-7.49-.35-3.47.14-6.83,1.12-10.14.05-.16-.03-.37-.07-.71-1.29.49-1.99,1.51-2.73,2.42-.62.77-1.25,1.44-2.06,2.06-1.74,1.32-3.21,2.89-3.42,5.33-.14,1.64-1.19,3.02-2.04,4.41-.34.56-.76,1.08-1.18,1.6-.2.24-.46.46-.73.62-1.74.99-5.41.55-6.9-.82-.39-.36-.78-.72-1.16-1.09-1.03-1.01-1.66-2.2-1.79-3.67-.06-.67-.37-1.31-.56-1.96-.57,0-.95-.11-1.21.02-2.28,1.06-3.95-.32-5.65-1.42-1.94-1.25-2.32-5.58-.54-7.12.84-.72,1.6-1.56,2.28-2.43.55-.72.92-1.57,1.33-2.29-.8-2.93-1.54-5.72-2.33-8.51-.18-.63-.46-1.24-.74-1.83-1.05-2.2-2.08-4.42-3.21-6.58-.8-1.52-1.8-2.93-2.61-4.44-.62-1.15-1.06-2.39-1.61-3.58-.18-.38-.46-.72-.9-1.41-.53,1.26-.96,2.2-1.33,3.15-.4,1.04-.68,2.12-1.11,3.14-1.57,3.8-3.1,7.62-4.03,11.65-.16.69-.62,1.32-.83,2.01-1.22,4.16-2.35,8.35-3.61,12.5-.67,2.21-1.54,4.36-2.34,6.54-.74,2.03-1.19,4.15-1.96,6.18-1,2.66-1.78,5.4-2.64,8.11-.22.69-.44,1.39-.52,2.1-.14,1.17-.57,2.15-1.71,3.05-1.37-.59-2.86-1.13-4.25-1.87-1.14-.61-1.51-1.99-1.15-3.39.03-.13.15-.26.12-.37-.3-1.5.37-2.81.75-4.19.53-1.91.89-3.87,1.39-5.79.55-2.11,1.16-4.2,1.78-6.29.92-3.1,1.88-6.2,2.83-9.3.44-1.45.92-2.88,1.36-4.33.09-.3.05-.63.08-1.13-.88.24-1.25.89-1.72,1.36-2.19,2.21-4.33,4.48-6.52,6.68-.88.88-1.8,1.74-2.8,2.48-2.59,1.9-5.51,3.15-8.5,4.27-3.03-.19-6.18-.05-8.11-3.14-.45-.73-1.08-1.34-1.82-2.23Zm30.86-29.05c-4.08.07-6.98,2.19-9.69,4.67-1.16,1.06-2.23,2.22-3.05,3.59.36.44.65.79.94,1.13-.07.56-.13,1.08-.18,1.52.32.57.6,1.05.88,1.54-.75.25-1.38.46-2,.67-.19.36-.36.7-.53,1.04-1.15-.14-2.27-.27-3.48-.42-.36.48-.74.93-1.06,1.42-1.57,2.43-2.91,5.04-4.76,7.24-1.18,1.39-.93,2.55-.71,4.17,1.15-.44,2.18-.73,3.11-1.21,3.64-1.85,6.77-4.43,9.55-7.36,2.17-2.29,4.53-4.39,6.45-6.96,1.22-1.64,2.49-3.25,3.42-5.06.9-1.75,1.68-3.59,1.13-5.99Z"/><path class="cls-1" d="m547.77,135.12c.27.09.52.23.75.23,2.31-.04,4.32,1,6.47,1.61,2.04.58,3.62,1.53,4.53,3.53-.11.86-.22,1.77-.37,3-.85.74-1.83,1.72-2.94,2.54-2.12,1.58-4.42,2.93-6.43,4.64-2.36,2.01-5.14,3.46-7.22,5.66-1.48.14-2.86.27-4.17.4-1.08.86-2.11,1.68-3.06,2.43-6.14.42-8.33-.85-9.15-5.42.62-.66,1.34-1.43,2.06-2.19.68-.71,1.38-1.4,2.15-2.19-.57-.62-1.03-1.13-1.46-1.61.16-1.5,2.16-.92,2.35-2.86-.85-2.07-1.79-4.68-2.96-7.19-2.11-4.52-4.44-8.95-6.54-13.48-1.81-3.91-3.4-7.91-5.12-11.85-1.13-2.6-1.63-5.42-2.95-7.96-.56-1.09-.67-2.4-1.07-3.59-.31-.92-.76-1.8-1.3-3.04-.98,1.44-1.91,2.53-2.53,3.77-1.08,2.18-2.25,4.32-3.34,6.49-1.7,3.37-3.06,6.9-4.53,10.38-.54,1.28-.96,2.6-1.49,3.88-1.14,2.75-2.33,5.48-3.48,8.23-.71,1.71-1.39,3.43-2.06,5.16-.43,1.11-.83,2.23-1.19,3.36-.25.8-.42,1.62-.61,2.36,1.7,1.19,3.2,2.25,4.6,3.23.02,2.07-.42,3.84-1.2,5.55-.26.57-.21,1.28-.31,1.95-.53.94-1.08,1.93-1.71,3.05-1.14.53-2.4,1.1-3.77,1.73-.43.93-.9,1.94-1.34,2.89-.97.46-1.86.87-2.95,1.39-2.22,0-4.69,0-7.25.88-2.4-.05-4.35-1.68-6.52-2.63-.14-.75-.2-1.4-.39-2.02-.57-1.83-.04-3.03,1.59-3.9,2.66-1.41,5.27-2.9,7.9-4.37.23-.13.41-.33.44-.35.42-2.43.95-4.62,1.15-6.83.28-3.02,1.44-5.77,2.44-8.55,1.43-3.98,3.01-7.91,4.56-11.85.36-.92.89-1.78,1.28-2.69.25-.57.39-1.19.26-1.98-.27.21-.57.39-.81.63-1.96,1.97-3.9,3.97-5.87,5.94-1.26,1.26-2.46,2.6-3.85,3.68-2.02,1.57-4.08,3.18-6.67,3.75-1.78.39-3.59.62-5.26.9-5.33-2.46-7.63-7.08-6.61-12.7.36-1.97.99-3.79,1.99-5.51.25-.42.34-.93.55-1.52-.71-.12-1.22-.21-1.81-.32.19-.53.39-1.04.65-1.75h-2.07c-1.15-.79-.49-1.8-.68-2.54,1.95-3.25,4.04-6.23,6.8-8.66,1.33-1.17,2.83-2.16,4.28-3.18.75-.53,1.56-.98,2.35-1.46,1.84-1.12,3.97-1.1,5.98-1.23,5.03-.32,9.9.69,14.41,2.9,1.2.59,2.59,1.28,3.3,2.68.25.49.59,1.06,1.45,1.06,1.85-3.35,3.73-6.74,5.69-10.3-2.67-.93-5.44-1.72-7.1-4.7-.09-.34-.27-1.04-.48-1.86,1.11-1.43,2.76-2.26,4.34-3.18,1.48-.86,3.18-1.39,4.21-2.86.24-3.04,1.77-5.41,3.76-7.51,1.7-1.79,3.59-3.35,6.16-3.8.7-.12,1.36-.52,2.02-.83,2.58-1.22,5.08-1.04,7.49.44,1.55.95,1.91,1.91,1.44,3.66-.14.51-.29,1.02-.48,1.51-.19.49-.44.96-.69,1.5.41,1.43,2.1,2.46,1.36,4.7-1,.77-2.32,1.74-3.6,2.78-.93.75-1.82,1.55-2.67,2.38-.32.31-.61.76-.67,1.18-.23,1.68-.35,3.38-.51,4.97,1.38,1.25,2.65,2.4,4.01,3.64-.38,4.67,2.02,8.66,3.19,13.45-.16.76-.48,1.98-.65,3.22-.08.62,0,1.32.21,1.9,2.43,6.54,5.18,12.93,8.45,19.1.52.99.96,2.02,1.48,3.13.17,0,.42.02.78.04,1.13-3.66,2.27-7.29,3.36-10.94.12-.42.02-.9.02-1.57-1.64.62-2.74-.06-3.66-1.35-.13.27-.22.47-.34.73-.3-.02-.61-.03-1.27-.07.58-.86,1.03-1.52,1.63-2.4-.06-.37.52-1.23-.66-1.69.9-1.93-.76-3.05-1.66-4.53.27-.32.52-.61.8-.94.23.11.43.2.67.32.26-.28.53-.56.58-.61,1-.09,1.76-.3,2.46-.19.75.12,1.45.55,2.21.85-.19.88-.36,1.64-.55,2.53-.33.12-.75.26-1.29.46.17.41.32.79.51,1.24.46-.22.79-.37,1.13-.53-1.44,1.3-1.56,2.7-.27,4.28.43-.4.86-.8,1.33-1.25-.2-1.3.24-2.43.72-3.62.94-2.32,1.71-4.73,2.49-7.11,1.24-3.79,2.7-7.46,4.96-10.79,1.4-2.07,2.51-4.34,3.67-6.36-.22-1.19-.55-2.2-.57-3.23-.02-.96.29-1.93.39-2.47-.81-1.57-1.47-2.71-2-3.9-.67-1.51-.45-2.21.86-3.27.62-.5,1.26-.96,1.97-1.51-.36-2.09.83-3.77,1.55-5.58.09-.24.24-.49.43-.64,1.72-1.34,3.37-2.79,5.21-3.95,1.56-.99,3.33-1.66,5.01-2.44,1.22-.57,2.46-.98,3.84-.41.4.16.92.03,1.46.03,1.22.7,2.6,1.27,3.52,2.61,1.17,1.71,1.13,4.33-.3,5.83-1.69,1.78-3.38,3.55-5.06,5.33-.22.24-.37.54-.56.84.25,1.03.49,2.05.72,2.97-.35,1.44-.5,2.86-1.04,4.12-.89,2.06-1.97,4.05-3.09,5.99-1.69,2.92-3.39,5.84-5.27,8.64-2.01,2.99-3.48,6.25-4.95,9.51-.56,1.25-.81,2.64-1.21,3.96-.15.5-.34.99-.52,1.48-.32.87-.71,1.71-.97,2.6-.74,2.52-1.58,5.02-2.09,7.58-.82,4.19-2.49,8.15-3.14,12.41Zm-57.26-31.97c-2.21-1.65-4.29-2.69-6.73-2.32-.85.72-1.52,1.37-2.28,1.9-3.25,2.27-5.81,5.17-7.96,8.47-.32.49-.81.9-1.06,1.42-1.4,2.84-2.68,5.73-3.55,8.79-.26.94-.43,1.81.51,2.62,1.15-.2,2.2-.75,3.15-1.47,1.11-.83,2.25-1.64,3.24-2.6,3.24-3.13,6.56-6.2,9.57-9.53,1.88-2.09,3.27-4.62,5.1-7.27Z"/><path class="cls-1" d="m392.77,162.89c0,2.93-.21,5.48-1.96,7.68-.95,1.19-1.83,2.44-2.64,3.72-.41.64-.6,1.42-1.01,2.43-1.75,1.55-3.82,3.29-5.78,5.13-1.01.94-2.02,1.96-2.72,3.12-1.72,2.85-4.11,3.5-7.13,2.62-.25-.07-.52-.12-.97-.23-.38.23-.9.5-1.36.85-1.44,1.09-2.98,1.96-4.79,2.27-.72.12-1.44.25-2.14.47-2.05.64-3.72.06-5.19-1.42-.33-.33-.82-.49-1.43-.84-.31-1.47-1.43-3.08-.97-5.1.73-1.96,2.77-2.71,4.29-4,.6-.52,1.25-.99,1.87-1.49,1.99-1.62,3.92-3.33,6.01-4.82,1.16-.83,2.6-1.28,3.76-1.84,1.09.23,1.99.43,2.75.59,1.34-1.29,2.63-2.52,3.98-3.83-.68-2.15.69-3.54,2-4.96.93-1.01,1.95-1.98,2.69-3.12,1.93-2.99,3.96-5.89,6.15-8.7,2.23-2.87,4.53-5.75,6.23-8.93,1.2-2.25,3.22-3.76,4.35-6,.82-1.65,2.03-3.11,3.05-4.66,1.26-1.92,2.36-3.97,3.81-5.74,1.44-1.77,2.54-3.77,4.18-5.4,1.26-1.25,2.25-2.78,3.38-4.16.53-.65,1.16-1.22,1.68-1.87.23-.29.31-.7.48-1.13-.36-.29-.62-.63-.96-.75-2.76-.99-5.54-1.61-8.54-1.65-3.95-.05-7.89-.51-11.73-1.71-1.46-.46-2.89-.91-4.24-1.61-1.17-.6-2.33-1.22-3.44-1.8,0-.43.1-.76-.02-.93-1.09-1.59-1.44-3.43-1.82-5.26-1.56-1.33-.95-3.32-1.48-4.96-.26-.8-.31-1.67-.41-2.24,2.45-3.14,5-5.78,7.44-8.53,2.47-2.79,5.28-5.13,8.37-7.17,3.45-.11,3.52-.06,6.58,4.07,5.47-2.71,10.24-6.78,16.17-8.63.22-1.69-.31-3.35.94-4.9.59-.32,1.4-.76,2.14-1.17,2.79-.17,5.13.79,7.39,2.66.6,1.82,1.36,3.86.7,5.77-2.52,2.11-4.78,4.03-7.07,5.9-.61.49-1.3.94-2.03,1.2-4.48,1.62-8.32,4.41-12.38,6.78-2.5,1.46-4.68,3.46-7.14,5-2.71,1.69-5.03,3.82-7.44,5.86-.48.4-1.16.74-.91,1.74,2.07.6,4.22,1.12,6.48,1.27,3.84.25,7.63.89,11.33,1.89,3.01.82,5.75,2.3,7.86,4.77,2.56.28,4.66,1.74,6.52,2.55.98,1.04,1.67,1.73,2.3,2.47.29.34.56.74.71,1.16.8,2.3,1.58,4.61,2.31,6.93.25.8.35,1.65.53,2.58.55-.04.75-.54.9-1.01.87-2.64,1.69-5.29,2.57-7.92.2-.61.59-1.17.84-1.77,1.69-4.11,3.35-8.23,5.04-12.34.73-1.78,1.52-3.53,2.26-5.3.22-.52.36-1.06.55-1.63-1.24-.53-2.26-.96-3.3-1.4-.62-1.73-2.42-3.04-1.18-5.48,1.37-1.35,3.33-2.27,5.53-2.85.87-.23,1.8-.66,2.44-1.27,2.18-2.06,4.03-4.37,4.8-7.65.65-.42,1.45-.99,2.31-1.46,2.07-1.15,3.53-.64,4.88.61.78.72,1.56,1.43,2.38,2.18,1.84-.2,3.81-.4,5.78-.63,1.34-.16,2.47.46,3.61.96,1.07.48,1.17,1.67,1.58,2.6-.4,1.33-1.16,2.31-2.26,2.98-3.34,2.04-6.68,4.08-10.06,6.06-1.14.67-2.36,1.19-3.57,1.73-2.03.91-3.72,2.08-3.94,4.55-.02.24-.19.48-.3.71-1.38,2.79-2.85,5.54-4.12,8.37-.83,1.84-1.38,3.8-2.06,5.7-.25.69-.43,1.41-.77,2.04-1.59,2.94-2.3,6.19-3.35,9.32-.75,2.24-1.6,4.45-2.3,6.71-.46,1.5-.74,3.05-1.14,4.74h5.24c1.18.79,2.38,1.59,3.48,2.33.06.59.05.99.15,1.35.59,1.99-.2,3.47-1.67,4.74-1,.86-1.96,1.78-2.98,2.63-.33.28-.76.45-1.16.62-1.47.6-2.94,1.17-4.83,1.91-1.8-.35-3.88.27-5.87,1.29-1.9.97-3.81,1.41-5.87.47-.59-.27-1.27-.35-1.77-.49-.89-1.23-1.7-2.35-2.59-3.59.01-1.72,1.15-2.82,2.77-3.53,1.58-.7,3.18-1.34,4.76-2.02.3-.13.57-.31.86-.47v-3.79c-.13-.18-.4-.54-.62-.85.53-2.01,2.32-3.46,2.33-5.8-5.7,2.98-10.33,7.03-15.06,11.18h-5.93c-.67-.4-1.24-.73-1.85-1.08-2.04,1.67-2.68,4.23-4.25,6.17-1.61,1.98-2.95,4.18-4.37,6.32-1.38,2.09-2.4,4.51-4.14,6.23-1.83,1.81-2.67,4.24-4.44,5.88Z"/><path class="cls-1" d="m138.94,72.64c-.47,2.66-2.64,4.12-4.43,5.87-1.51,1.48-3.07,2.93-4.56,4.43-2,2.03-3.88,4.19-5.98,6.11-1.1,1-2.55,1.66-3.9,2.35-.49.25-1.17.24-1.74.19-2.52-.25-4.99-3.52-4.6-6.02.08-.52.21-1.04.35-1.74,1.35-1.13,2.86-2.29,4.24-3.6.96-.9,1.7-2.03,2.58-3.02.87-.98,1.78-1.91,2.87-3.07-1.23-.38-2.25-.69-3.31-1.02-.22-.59-.43-1.14-.65-1.71-.14-.1-.28-.26-.46-.32-4.1-1.58-8.29-2.04-12.69-1.53-5.67.66-10.99,2.3-16.07,4.85-2.31,1.16-4.75,2.12-6.93,3.5-3.91,2.48-7.93,4.84-11.29,8.1-1.71,1.66-3.53,3.21-5.21,4.9-3.98,4-7.5,8.37-10.51,13.14-1.42,2.25-2.5,4.69-3.14,7.24-.36,1.44-.28,3.05-.13,4.56.2,2.1.47,4.21,1.01,6.24,1.23,4.6,4.58,7.3,8.81,9,4.36,1.75,8.93,2.47,13.63,2.34,4.18-.12,8.34-.41,12.41-1.48,1.5-.39,3.05-.63,4.48-1.2,1.47-.58,2.84-1.42,4.19-2.25,3.56-2.18,7.13-4.36,10.61-6.67,1.18-.79,2.1-1.97,3.13-2.99,1.17-1.16,2.31-2.35,3.48-3.51,1.46-1.44,2.93-2.88,4.41-4.29,1.89-1.79,4-2.21,6.58-1.51,2.44.67,3.91,2.28,5.36,4.36.37,2-.45,3.77-1.91,5.35-.24.26-.38.63-.59.93-1.81,2.51-3.65,5-5.42,7.54-1.28,1.85-2.46,3.78-3.69,5.66-1.05,1.61-2.08,3.22-3.17,4.8-.49.7-1.07,1.37-1.7,1.95-1.62,1.47-3.36,2.64-5.73,1.8-.29-.1-.65-.01-.95-.01-.23-.41-.36-1.01-.69-1.16-1.45-.65-1.93-1.91-2.37-3.26-.09-.3-.29-.56-.5-.94-3.13,1.35-5.94,2.99-8.51,5.04-.79.26-1.57.58-2.38.76-.62.14-1.37.34-1.9.12-1.63-.69-3.18-1.56-4.67-2.66-.79.09-1.58.12-2.36.27-3.74.72-7.51.85-11.29.61-2.58-.16-5.17-.33-7.71-.75-4.77-.78-9.19-2.52-13.05-5.47-2.64-2.01-4.48-4.69-5.85-7.66-2.09-4.51-2.18-9.34-2.05-14.2.1-3.67,1.26-7.03,3.15-10.12,1.24-2.02,2.76-3.87,4.17-5.78.9-1.22,1.71-2.52,2.76-3.6,3.32-3.4,6.66-6.8,10.15-10.02,2.76-2.55,5.74-4.87,8.67-7.24.71-.57,1.63-.87,2.42-1.37,5.74-3.61,11.68-6.82,17.92-9.47,2.32-.99,4.79-1.43,7.25-1.98,4.25-.95,8.52-1.31,12.84-.77,3.7.46,7.29,1.36,10.58,3.23,1.62.92,2.44,2.29,2.57,4.31,1.56-1.22,2.79-2.89,5.11-2.44,1.95.38,4.03.22,5.45,2.22.25.83.55,1.82.91,3.03Z"/><path class="cls-1" d="m476.73,55.1c.45,2.85-.27,4.34-2.65,5.74-.28.17-.59.32-.82.55-2.52,2.47-5.61,3.88-8.92,4.91-3.62,1.12-7.22.88-10.72-.41-1.01-.37-1.83-1.25-2.72-1.89-.29-2.65-2.69-4.61-1.91-7.6.85-1.11,2.15-1.89,3.63-2.35,3.35-1.03,6.16-3.05,9.08-4.87,2.19-1.36,4.33-2.83,6.8-3.61,1.15-.36,2.43-.55,3.69-.12.68.23,1.4.34,2.06.5.92.95,1.86,1.87,2.74,2.84.34.37.59.84.8,1.31.9,1.96.74,3.73-1.06,5Z"/><path class="cls-1" d="m204.22,189.64c1.06-.31,1.77-.52,2.68-.79.26.15.7.4,1.22.69-.19.41-.34.75-.53,1.17.44.41.89.84,1.35,1.27-.05.11-.1.22-.15.33-.51-.12-1.02-.24-1.61-.38.05.46.11.96.18,1.6-.97.2-1.89.39-2.52.52-.57-.86-.96-1.46-1.45-2.21.27-.7.6-1.55.85-2.21Z"/></svg>