<?xml version="1.0" encoding="utf-8"?>
<!-- Generator: Adobe Illustrator 27.8.0, SVG Export Plug-In . SVG Version: 6.00 Build 0)  -->
<svg version="1.1" id="Layer_1" xmlns="http://www.w3.org/2000/svg" xmlns:xlink="http://www.w3.org/1999/xlink" x="0px" y="0px"
	 viewBox="0 0 1621.41 1132.95" style="enable-background:new 0 0 1621.41 1132.95;" xml:space="preserve">
<g id="jggY2P_00000167380012674579164060000013588822271208289414_">
	<g>
		<path d="M860.96,382.78c-7.63-1.19-14.86-2.37-22.12-3.41c-1.56-0.23-3.2-0.02-4.79,0.03c-1.15,0.04-2.49,0.58-3.4,0.16
			c-5.71-2.64-11.75-1.36-17.65-1.84c-5.55-0.46-11.06-1.52-16.61-1.92c-4.48-0.32-9,0.07-13.49-0.09
			c-5.79-0.21-11.56-0.66-17.34-0.98c-5.95-0.33-11.9-0.59-17.84-0.98c-2.96-0.2-5.89-0.75-8.84-0.93c-2.88-0.17-5.79,0-8.68-0.1
			c-7.62-0.25-15.23-0.53-22.85-0.87c-7.55-0.33-15.1-0.65-22.64-1.16c-7.05-0.48-14.09-1.25-21.14-1.8
			c-5.59-0.44-11.19-0.75-16.78-1.13c-11.04-0.75-22.09-1.41-33.11-2.35c-2.37-0.2-4.65-1.44-7.1-2.24
			c-0.41,0.58-1.13,1.13-1.1,1.63c0.51,8.24,1.54,16.47,1.59,24.7c0.06,11.11-0.64,22.22-0.97,33.34c-0.08,2.77,0.27,5.57,0.02,8.32
			c-0.24,2.71-1.22,5.36-1.45,8.08c-0.19,2.32,0.22,4.69,0.39,7.4c-3.19-0.35-4.05-1.85-4.31-4.31c-0.24-2.25-1.05-4.43-1.54-6.66
			c-1.47-6.72-2.87-13.45-4.35-20.17c-2.18-9.9-4.42-19.79-6.6-29.7c-1.84-8.36-3.82-16.69-5.36-25.11c-0.63-3.46-2.22-4.6-5.55-5
			c-7.18-0.86-14.29-2.24-21.45-3.31c-4.23-0.63-8.5-1.04-12.74-1.62c-10.77-1.45-21.53-2.93-32.29-4.42
			c-2.44-0.34-4.85-0.93-7.3-1.13c-8.68-0.72-16.56-5.95-25.61-4.49c-3.79-2.87-8.96-1.01-13.08-4.36
			c-2.14-1.74-6.98-0.18-10.6-0.09c-0.43,0.01-0.85,0.11-1.32-0.2c5.8-0.63,11.18-3.4,17.46-1.93c3.88,0.91,8.22-0.18,12.36-0.32
			c4.71-0.17,9.44-0.1,14.13-0.49c7.06-0.58,14.09-1.55,21.15-2.16c3.66-0.32,7.36-0.24,11.05-0.31c10.1-0.18,20.2-0.25,30.3-0.53
			c6.12-0.17,12.23-0.61,18.35-0.98c3.65-0.22,4.84-2.07,4.41-5.93c-0.23-2.08,0.13-4.23,0.24-6.34c0.09-1.65,0.66-3.44,0.22-4.92
			c-2-6.69-0.18-13.08,1.18-19.51c0.25-1.18,1.33-2.18,2.17-3.47c-0.53-0.26-1.57-0.78-2.62-1.29c0.37-0.23,0.73-0.46,1.1-0.69
			c0-2.37-0.04-4.74,0.01-7.11c0.09-4.76,0.14-9.53,0.38-14.28c0.17-3.29,0.71-6.56,0.93-9.85c0.41-6.26,0.63-12.54,1.09-18.79
			c0.14-1.91,0.81-3.77,1.23-5.66c0.49,0.06,0.97,0.13,1.46,0.19c0.18,2.56,0.82,5.18,0.46,7.66c-0.8,5.43,1.37,10.32,2.18,15.45
			c1.37,8.58,2.64,17.18,4.01,25.76c0.97,6.07,1.87,12.16,3.12,18.18c0.65,3.12,2.22,6.04,2.91,9.15c0.43,1.91-0.31,4.06,0.02,6.01
			c0.48,2.81,1.46,5.53,2.26,8.42c11.08-1.67,21.57-3.33,32.1-4.79c4.41-0.61,8.88-0.91,13.33-1.13c9.05-0.45,18.11-0.8,27.16-1.07
			c4.62-0.14,9.24-0.04,13.87-0.06c0.33,0,0.75,0.05,0.97-0.13c4.53-3.59,10.14-2.72,15.26-3.39c6.39-0.84,12.93-0.55,19.4-0.81
			c1.61-0.07,3.21-0.41,4.82-0.58c7.9-0.86,15.8-1.7,24.17-2.6c-0.9-1.13-1.58-2.17-2.44-3.03c-8.2-8.2-18.41-13.12-29.56-14.48
			c-5.61-0.68-11.72,2.58-17.57,4.2c-5.08,1.41-10.1,2.08-15.48,1.88c-15.71-0.58-26.22-9.41-35.58-20.68
			c-3.09-3.72-6.69-7.04-10.2-10.39c-3.79-3.63-8.18-6.72-11.47-10.73c-2.83-3.45-5.25-7.19-9.43-9.01
			c-9.42-4.1-15.66-12.14-23.4-18.32c-5.77-4.61-12.31-8.24-18.46-12.38c-2.4-1.62-4.52-3.7-7.04-5.09
			c-3.86-2.13-7.89-3.97-11.94-5.72c-4.05-1.74-8.17-3.35-12.34-4.78c-6.58-2.26-13.22-4.33-19.84-6.47
			c-0.15-0.05-0.37,0.03-0.49-0.05c-7.32-4.8-16.21-2.86-24.13-5.61c-4.24-1.47-9.43-1.02-13.97,1.6
			c-5.81,3.35-11.88,6.24-19.04,9.95c1.42-2.42,2.08-4.18,3.27-5.47c4.96-5.4,10.68-9.52,18.14-10.99
			c3.96-0.78,7.71-2.61,11.66-3.48c2.37-0.52,5.4-0.95,7.34,0.07c10.59,5.6,22.82,5.97,33.59,11.16c4.88,2.35,11.1,1.77,16.26,3.71
			c8.38,3.16,16.39,7.3,24.55,11.02c0.24-0.28,0.63-0.53,0.61-0.73c-1.1-9.28-2.42-18.51-6.25-27.16c-0.59-1.34-1.18-2.73-1.5-4.15
			c-1.36-6.23-2.7-12.48-3.9-18.74c-0.83-4.36-1.28-8.8-2.18-13.14c-1.01-4.86-1.71-9.63-1.13-14.67c0.56-4.89-3.14-7.83-8.18-8.45
			c-4.97-0.61-9.78-2.54-14.76-3.12c-4.44-0.52-9.22-2.88-12.91-2.1c-4.74,1-8.58-1.13-12.9-0.9c-4.33,0.22-8.71-0.66-13.06-1.11
			c-0.8-0.08-1.71-0.22-2.35-0.65c-7.72-5.1-16.98-4.6-25.46-6.89c-9.96-2.69-20.26-4.13-30.4-6.14c-0.7-0.14-1.35-0.51-2.02-0.77
			c0.02-0.34,0.03-0.68,0.05-1.02c2.17-0.19,4.37-0.7,6.5-0.49c3.89,0.38,7.72,1.33,11.6,1.78c2.22,0.26,4.51,0.05,6.76-0.05
			c5.56-0.23,11.12-0.6,16.68-0.78c12.11-0.39,24.23-0.66,36.34-1.04c7.89-0.25,15.77-0.72,23.67-0.89
			c7.21-0.15,14.43-0.03,21.75-0.03c0.34-1.1,0.74-1.85,0.77-2.61c0.39-9.95,0.5-19.91,1.14-29.84c0.69-10.69,1.78-21.37,2.87-32.03
			c0.9-8.83,2.05-17.63,3.13-26.44c0.07-0.6,0.43-1.16,0.95-2.52c1.03,1.21,2.08,1.88,2.22,2.71c0.54,3.08,0.71,6.22,1.15,9.32
			c1.09,7.67,2.28,15.32,3.36,22.99c0.62,4.4,1.08,8.82,1.64,13.23c1.08,8.5,2.14,16.99,3.28,25.48c0.5,3.75,0.97,7.52,1.85,11.18
			c0.31,1.28,1.64,2.98,2.8,3.26c2.14,0.5,4.58,0.47,6.75,0c12.35-2.67,24.82-4.18,37.44-4.89c7.37-0.42,14.69-1.81,22.03-2.68
			c4.1-0.49,8.36-0.27,12.29-1.32c11.36-3.03,23-1.77,34.48-2.85c13.53-1.27,27.14-1.79,40.66-3.14
			c10.31-1.03,20.53-2.91,30.81-4.31c7.01-0.96,14.05-1.79,21.08-2.57c6.22-0.69,12.45-1.25,18.68-1.86
			c0.66-0.07,1.33-0.13,1.99-0.14c5.39-0.01,10.79,0.19,16.17-0.07c5.56-0.27,11.11-0.98,17.19-1.55c0.05,0.89,0.11,2.01,0.17,3.1
			c-5.99,0.69-11.59,0.85-16.95,2.07c-6.59,1.51-12.94,4.04-19.46,5.87c-6.44,1.81-12.97,3.32-19.47,4.91
			c-2.08,0.51-4.17,1.12-6.28,1.26c-1.99,0.13-4.02-0.31-6.43-0.53c-2.77,0.67-6.11,2.24-9.38,2.12
			c-7.38-0.28-14.09,2.64-21.19,3.47c-2.95,0.35-5.95,0.3-8.87,0.76c-2.33,0.36-4.57,1.28-6.89,1.82c-1.04,0.24-2.16,0.15-3.24,0.22
			c-3.5,0.24-7.09-0.87-10.34,1.98c-1.3,1.14-4,0.73-6.08,0.89c-1.66,0.13-3.7-0.56-4.93,0.18c-3.93,2.37-8.18,2.24-12.44,2.97
			c-4.38,0.75-8.38,2.2-13,1.05c-1.97-0.49-4.38,0.74-6.59,1.2c-5.13,1.08-10.26,3-15.4,3.06c-8.25,0.1-15.98,2.59-23.97,3.72
			c-2.15,0.3-4.42-0.09-6.63-0.27c-2.27-0.19-4.74-1.18-6.73-0.56c-1.4,0.44-2.15,2.99-3.14,4.53c0.54,0.6,0.84,1.26,1.2,1.29
			c10.09,0.87,20.22,1.42,30.27,2.59c6.32,0.73,12.51,2.52,18.81,3.53c6.11,0.98,12.32,1.36,18.42,2.4
			c7.44,1.27,14.79,2.98,22.2,4.43c4.66,0.91,9.33,1.77,14.02,2.47c4.37,0.66,8.83,0.58,12.65,3.58c1.1,0.86,3.36,0.08,5.04,0.37
			c9.51,1.65,18.97,3.53,28.5,5.07c5.68,0.92,11.46,1.15,17.15,2.04c12.16,1.9,24.29,4.04,36.43,6.07c6,1,12.01,1.9,18,2.96
			c1.5,0.27,2.92,0.98,4.38,1.49c-0.07,0.38-0.13,0.76-0.2,1.14c-4.65,0-9.29,0.11-13.93-0.05c-2.08-0.07-4.14-0.74-6.22-1.01
			c-4.41-0.58-8.83-1.07-13.25-1.63c-0.98-0.12-1.95-0.61-2.9-0.54c-5.95,0.42-11.65-0.8-17.49-1.72
			c-6.26-0.99-12.8-0.22-19.26-0.37c-2.6,0-5.22,0.2-7.8-0.04c-6.23-0.57-12.44-1.36-18.67-2c-3.44-0.36-6.88-0.7-10.33-0.86
			c-3.05-0.15-6.12,0.13-9.16-0.07c-8.45-0.58-16.89-1.3-25.34-1.98c-8.78-0.7-17.54-1.56-26.33-2.06
			c-5.34-0.3-10.71-0.06-17.31-0.06c2.97,2.95,5.43,5.34,7.84,7.8c2.04,2.08,4.05,4.2,6.01,6.36c0.53,0.59,0.69,1.63,1.3,2.01
			c7.46,4.64,10.23,12.72,14.71,19.59c4.76,7.29,9.91,14.33,15.1,21.32c1.12,1.51,3.05,2.51,4.76,3.47
			c7.31,4.09,14.56,8.3,22.04,12.03c7.02,3.5,12.63,8.41,17.5,14.48c1.58,1.97,4.21,3.13,6.43,4.56c6.68,4.28,7.69,10.63,7.4,17.95
			c-0.19,4.97-0.25,10.26,3.63,14.46c2.21,2.4,3.96,5.22,6.21,7.58c1.19,1.25,2.91,2.21,4.56,2.78c5.24,1.8,10.46,4.05,15.88,4.8
			c4.78,0.66,9.89-0.05,14.71-0.9c8.56-1.51,16.99-3.74,25.53-5.37c3.87-0.74,7.9-0.65,11.82-1.18c3.39-0.46,6.72-1.34,10.1-1.88
			c4.87-0.78,9.76-1.41,14.63-2.13c1.13-0.17,2.31-0.27,3.34-0.71c8.22-3.56,16.21-2.72,24.57,0.05c6.03,2,12.55,2.54,18.86,3.66
			c2.59,0.46,5.21,0.71,7.82,1.03c10.09,1.25,18.72,5.28,24.45,13.93c2.92,4.41,6.89,7.24,11.16,9.97
			c8.92,5.68,18.06,10.86,28.43,13.52c6.81,1.74,13.37,4.42,20.71,3.75c2.48-0.23,5.12,1.47,7.71,2.16c7.43,1.95,14.9,3.74,22.3,5.8
			c2.34,0.65,4.46,2.08,6.75,2.94c14.82,5.53,28.5,13.04,40.88,22.93c13.26,10.6,26.92,20.76,38.5,33.27
			c3.58,3.88,6.44,8.42,9.64,12.66c-0.42,0.37-0.84,0.74-1.26,1.11c-2.14-2.14-4.31-4.26-6.42-6.43
			c-5.43-5.56-10.26-11.9-16.36-16.58c-14.87-11.41-28.74-24.37-45.87-32.52c-10.34-4.92-20.82-9.88-31.73-13.15
			c-12.68-3.8-25.63-6.79-38.97-8.22c-11.05-1.18-22.27-2.87-32.46-7.89c-4.53-2.23-8.52-5.12-12.04-9.19
			c-7.84-9.06-17.51-16.02-29.19-19.57c-1.9-0.58-4.1-0.09-6.15-0.23c-5.76-0.39-11.51-0.87-17.27-1.3
			c-2.56-0.19-5.3-1.03-7.65-0.42c-5.86,1.52-11.45,0.47-17.18-0.4c-2.3-0.35-4.8,0-7.12,0.45c-4.35,0.84-8.66,1.92-12.96,3.02
			c-6.52,1.67-12.94,3.82-19.54,5.1c-7.83,1.51-15.8,2.31-24.22,3.49c-0.57,0.72-1.48,1.85-2.49,3.13c-1.35-0.32-2.6-0.84-3.86-0.86
			c-6-0.1-12-0.14-18,0c-1.41,0.03-3.05,0.5-4.16,1.34c-5.07,3.78-8.12,9.08-10.35,14.87c-0.31,0.81,0.09,1.88,0.2,3.48
			c25.73-1.89,51.15-3.75,76.56-5.61c0.06,0.46,0.12,0.91,0.18,1.37c-5.99,1.53-11.98,3.05-18.92,4.82
			c-1.16,2.49,1.66,2.96,3.89,3.75c9.14,3.19,18.4,6.05,27.39,9.61c6.7,2.65,12.85,6.78,19.62,9.16c6.99,2.46,14.01,4.67,20.21,8.83
			c6.81,4.57,14.32,8.46,20.12,14.09c7.11,6.89,15.46,12,22.85,18.39c5.32,4.6,10.53,9.35,15.88,13.91
			c7.37,6.28,14.83,12.45,22.25,18.67c0.25,0.21,0.57,0.37,0.78,0.62c7.99,9.29,16.18,18.41,23.85,27.97
			c2.49,3.1,3.39,7.44,5.4,10.99c3.07,5.42,6.63,10.57,9.69,16c1.52,2.69,2.74,5.67,2.74,8.82c-0.36,0.15-0.72,0.29-1.08,0.44
			c-1.31-1.98-2.64-3.95-3.92-5.95c-5.85-9.1-11.49-18.34-17.63-27.25c-2.28-3.31-5.77-5.75-8.57-8.72
			c-10.16-10.82-20.97-20.94-32.44-30.35c-6.61-5.43-13.37-10.67-20.09-15.97c-7.59-6-14.87-12.44-22.89-17.8
			c-6.76-4.52-14.37-7.76-21.6-11.56c-0.69-0.36-1.4-0.7-2.09-1.06c-6.32-3.34-13.21-5.95-18.78-10.26
			c-4.21-3.25-8.78-5.48-13.28-7.97c-8.23-4.54-17.15-7.24-26.15-9.98c-7.84-2.38-14.97-1.16-22.37,0.39
			c-2.02,0.42-3.9,1.56-5.85,2.37c-0.01,5.29-1.16,9.55-4.79,13.39c-2.58,2.73-5.16,3.48-8.33,3.05
			c-5.85-0.81-11.66-1.92-17.48-2.92c-0.65-0.11-1.28-0.31-1.92-0.44c-6.37-1.24-11.09-4.39-12.92-10.99
			c-0.21-0.75-0.82-1.39-1.6-2.67c-6.48,0.82-13.11,1.65-19.74,2.5c-1.3,0.17-2.59,0.54-3.89,0.56c-4.23,0.08-8.48-0.26-12.67,0.1
			c-9.8,0.83-19.76,1.14-29.29,3.27c-6.7,1.5-14.07,1.46-20.08,5.75c-0.86,0.62-2.18,0.97-3.24,0.88
			c-7.25-0.61-14.01,1.85-20.99,2.98c-6.43,1.04-12.96,1.47-19.46,2.05c-2.07,0.19-4.18,0.03-6.27,0.03
			c-0.08,0.38-0.16,0.76-0.24,1.13c0.53,0.45,1,1.2,1.58,1.31c4.36,0.79,8.74,1.52,13.13,2.13c14.66,2.05,29.34,4.02,44,6.09
			c4.07,0.57,8.15,1.23,12.16,2.13c2.88,0.64,5.64,2,8.16-0.88c0.36-0.41,1.61-0.24,2.39-0.07c8.81,1.9,17.58,3.96,26.4,5.75
			c5.55,1.13,11.16,1.97,16.77,2.74c4.3,0.59,8.67,0.73,12.98,1.3c4.19,0.56,8.33,1.4,12.49,2.15c9.67,1.75,19.3,3.82,29.04,5.12
			c2.78,0.37,5.21,0.11,7.53,2.26c1.11,1.03,3.39,0.89,5.16,1.12c5.46,0.71,10.96,1.15,16.37,2.08c4.79,0.82,9.45,2.31,14.23,3.18
			C859.18,378.76,860.79,379.42,860.96,382.78z M599.69,124.29c-1.77,4.77-3.04,8.07-4.22,11.41c-0.27,0.76-0.26,1.63-0.29,2.46
			c-0.15,4.08-0.26,8.16-0.4,12.24c-0.54,16.23-1.13,32.47-1.58,48.7c-0.09,3.21,0.36,6.43,0.62,10.59
			c4.05,3.05,8.53,6.93,13.49,10.03c12.8,7.99,23.88,18.1,34.89,28.22c11.23,10.33,21.52,21.67,34.06,30.54
			c4.4,3.11,9.06,6.13,14.56,4.71c6.48-1.67,12.65-4.52,19.06-6.48c3.69-1.13,7.71-2.36,11.41-1.97c3.75,0.39,7.36,2.57,10.91,4.22
			c6.48,3.01,12.44,3.73,19.64,0.75c5.4-2.23,8.32-5.25,10.26-10.15c0.3-0.77,0.68-1.52,1.12-2.21c1.93-2.96,1.87-5.73-0.1-8.77
			c-0.87-1.33-0.8-3.33-0.95-5.05c-0.08-0.94,0.67-2.06,0.38-2.85c-2.89-7.65-2.22-16.61-9.54-22.68
			c-4.17-3.46-6.54-9.04-12.74-10.12c-1.53-0.27-2.91-1.5-4.31-2.38c-6.93-4.33-13.99-8.48-20.72-13.12
			c-5.33-3.67-11.29-6.42-14.67-12.76c-5.68-10.65-10.69-21.75-18.11-31.38c-3.16-4.1-6.78-7.84-10.25-11.69
			c-2.08-2.31-4.18-4.62-6.47-6.72c-4.15-3.8-7.49-9.71-13.84-9.15c-5.39,0.47-9.99-2.34-15.61-1.54
			c-5.83,0.83-12.11-1.83-18.23-2.71C611.74,125.55,605.38,124.95,599.69,124.29z M810.89,316.82c-0.21-0.58-0.43-1.16-0.64-1.74
			c-7.1-0.7-13.86,0.84-20.94,3.37c1.07,1.34,1.82,2.2,2.49,3.13c2.72,3.72,4.7,4.44,8.73,2.2
			C804.15,321.76,807.45,319.16,810.89,316.82z"/>
		<path d="M176.43,670.73c-0.95-2.47-1.89-4.84-2.76-7.23c-2.87-7.94-5.13-16.06-2.18-24.4c1.76-5,1.22-10.1-0.1-14.54
			c-1.17-3.94-5.11-7.1-7.98-10.47c-1.79-2.11-3.76-4.1-5.84-5.93c-3.4-2.97-6.84-5.92-10.48-8.57c-2.52-1.84-5.46-3.1-8.14-4.73
			c-9.18-5.58-27.78-2.46-33.29,9.43c-3.88,8.36-6.6,16.19-4.62,25.3c0.18,0.85-0.4,1.89-0.71,2.82c-0.26,0.78-1.01,1.58-0.91,2.28
			c0.61,4.44,0.84,9.03,2.23,13.24c3.2,9.71,7.55,18.94,13.53,27.33c3.42,4.8,6.38,9.97,10.12,14.5
			c6.88,8.33,14.25,16.25,21.29,24.45c3.01,3.5,5.58,7.37,8.58,10.87c6.16,7.18,8.86,16.67,15.74,23.34
			c4.83,4.67,9.82,9.19,14.41,14.08c3.89,4.14,8.81,7.5,10.85,13.18c0.41,1.15,0.82,2.31,1.43,4.01c-4.56-0.35-6.19-3.59-8.14-5.91
			c-4.67-5.56-9.76-10.34-16.16-13.99c-3.39-1.94-5.88-5.49-8.72-8.36c-1.71-1.73-3.38-3.51-4.97-5.35
			c-1.61-1.87-3.64-3.62-4.56-5.81c-4.86-11.52-13.43-20.13-21.91-28.86c-1.43-1.47-2.65-3.16-3.83-4.85
			c-4.75-6.76-12.28-10.39-17.93-16.01c-3.75-3.73-6.66-8.42-7.93-14.24c-1.22-5.65-4.03-11.22-7.21-16.13
			c-4.43-6.82-7.15-13.75-7.72-21.99c-0.34-4.98-2.79-9.8-1.03-15c0.13-0.38-0.8-1.02-0.88-1.59c-0.3-2.22-1.25-4.78-0.51-6.64
			c2.39-6.05,5.44-11.83,8.18-17.75c0.62-1.33,1.25-2.74,1.43-4.17c0.59-4.59,3.73-8.88,8.06-9.52c10.6-1.58,21.24-3.52,31.99-1.28
			c1.71,0.36,3.49,0.95,4.93,1.9c7.57,4.99,15.42,9.51,22.12,15.86c3.15,2.98,7.15,6.18,12.69,5.59
			c-0.67-6.72-0.76-13.39-5.32-19.22c-2.45-3.14-3.74-7.18-5.64-10.77c-0.45-0.86-1.12-1.71-1.9-2.27
			c-5.99-4.34-8.02-10.92-10.49-17.44c-2.06-5.46-4.84-10.72-7.95-15.67c-1.38-2.2-4.68-3.09-6.57-5.09
			c-7.62-8.04-14.33-16.81-20.85-25.8c-5.9-8.14-8.73-17.36-12.02-26.55c-2.6-7.25-6.76-13.37-12.26-19.14
			c-7.64-8-16.34-13.79-26.41-17.53c-4.85-1.8-10.21-3.44-15.68-1.21c-1.07,0.44-2.51,0.14-3.75-0.06
			c-3.86-0.62-7.7-1.42-11.56-2.02c-7.12-1.1-13.58,2.38-16.94,8.91c-1.05,2.05-2.26,4.03-3.5,5.98
			c-3.46,5.39-3.59,10.86-0.25,16.27c5.87,9.53,11.93,18.96,17.79,28.5c3.53,5.75,6.76,11.68,10.26,17.44
			c6.32,10.41,12.65,20.81,19.17,31.08c1.76,2.77,4.29,5.03,6.35,7.62c0.78,0.98,1.25,2.22,2.37,4.28c-1.94-0.5-3.34-0.42-3.83-1.05
			c-5.82-7.54-11.49-15.21-17.25-22.8c-1.39-1.83-2.71-4.01-4.59-5.11c-3.77-2.2-5.02-5.94-6.88-9.36
			c-3.12-5.77-5.8-11.83-9.44-17.25c-5.56-8.29-11.85-16.08-17.68-24.2c-1.22-1.7-1.88-3.83-2.67-5.82
			c-2.48-6.23-4.8-12.52-7.39-18.7c-1-2.38-0.87-4.15,0.46-6.47c1.42-2.47,1.84-5.52,2.68-8.31c0.28-0.92,0.24-2.28,0.85-2.71
			c3.8-2.72,7.66-5.38,11.69-7.75c2.24-1.32,4.79-2.53,7.32-2.86c3.83-0.49,7.77,0,11.65-0.22c4.9-0.28,9.67-0.16,14.52,0.99
			c12.33,2.94,24.69,5.57,35.59,12.66c4.75,3.09,9.98,5.46,15.11,7.92c3.11,1.48,7.79-2.14,8.15-6.56
			c0.83-10.08,0.14-19.53-7.41-27.78c-5.6-6.13-9.2-14.06-14.64-20.37c-3.16-3.67-5.72-7.21-6.86-11.84
			c-1.11-4.53-1.99-8.94,0.51-13.45c0.8-1.45,0.64-3.6,0.45-5.38c-0.43-4.04,1.62-6.83,3.98-9.74c3.99-4.91,9.72-6.34,15.24-8.26
			c0.6-0.21,1.38-0.25,1.98-0.07c9.68,2.89,20.36,3.63,27.23,12.62c0.51,0.67,1.55,1.02,2.41,1.33c5.45,1.95,9.57,5.5,12.79,10.24
			c3.97,5.84,8.24,11.48,11.96,17.47c3.35,5.39,5.45,11.67,9.31,16.6c7.88,10.08,16.58,19.51,24.94,29.22
			c2,2.33,3.71,4.97,5.99,6.97c2.09,1.84,4.6,3.64,7.22,4.35c4.47,1.2,6.75,4.72,9.08,7.83c8.14,10.88,15.66,22.22,23.8,33.1
			c2.66,3.55,6.79,5.96,9.73,9.34c3.91,4.49,7.33,9.41,10.91,14.18c0.54,0.72,0.79,1.64,0.79,2.83c-3.48-0.71-5.44-3.24-7.26-5.92
			c-0.54-0.8-0.77-1.9-1.46-2.5c-4.84-4.16-9.97-8-14.58-12.38c-3.53-3.36-6.51-7.32-9.61-11.11c-4.5-5.48-8.77-11.15-13.39-16.52
			c-2.09-2.44-4.66-4.52-7.22-6.5c-5.2-4.03-10.69-7.69-15.78-11.86c-4.55-3.72-8.67-7.96-13.04-11.9
			c-6.54-5.9-9.43-14.21-14.23-21.23c-6.08-8.9-11.04-18.65-18.83-26.33c-0.7-0.69-1.53-1.48-1.75-2.36
			c-1.48-5.92-6.47-8.7-10.86-11.77c-5.34-3.74-11.19-6.75-16.75-10.18c-2.5-1.54-4.76-2.49-7.78-1.01
			c-1.84,0.9-4.16,0.81-7.32,1.34c-1.12,3.87-2.4,8.31-3.79,13.14c2.12,5.46,4.08,11.5,6.78,17.19c2.39,5.04,5.58,9.69,8.43,14.51
			c1.55,2.62,3.47,5.08,4.61,7.87c4.04,9.9,8.59,19.75,7.84,30.85c-0.28,4.19-1.47,8.11-3.84,11.83c-1.27,1.99-1.2,5.03-1.19,7.6
			c0.01,4.34-0.84,8.9,2.24,12.77c0.48,0.6,0.77,1.51,0.79,2.29c0.24,8.9,5.69,15.63,9.64,22.95c2.65,4.91,5.59,9.68,8.68,14.32
			c2.38,3.56,4.95,7.06,7.9,10.15c2.53,2.65,6.06,3.08,9.61,2.37c2.33-8.76,6.15-11.06,16.54-9.41c7.1,1.12,13.93,3.86,21.01,5.15
			c3.9,0.71,5.37,3.76,7.24,6.03c4.27,5.16,7.54,11.14,11.53,16.54c4.23,5.72,8.59,11.39,13.35,16.67
			c5.03,5.59,10.52,10.77,15.96,15.97c1.64,1.56,3.87,2.48,5.7,3.87c4.78,3.62,10.07,6.8,14.06,11.16
			c4.71,5.14,8.57,11.16,12.23,17.15c2.6,4.25,4.77,8.92,6.25,13.68c2.57,8.24,9.08,13.72,13.69,20.49
			c4.22,6.21,10.01,11.37,15.22,16.88c6.11,6.45,12.42,12.71,18.47,19.21c1.63,1.75,2.52,4.18,3.93,6.16
			c4.22,5.96,8.52,11.86,12.8,17.79c-0.26,0.33-0.52,0.65-0.78,0.98c-0.83-0.4-1.89-0.6-2.44-1.24
			c-5.72-6.61-11.19-13.43-17.06-19.9c-4.2-4.62-8.93-8.76-13.37-13.17c-8.03-7.98-16.22-15.8-23.94-24.07
			c-6.46-6.92-12.39-14.34-18.46-21.62c-1.12-1.35-1.75-3.11-2.63-4.66c-1.66-2.96-3.32-5.92-5.01-8.86
			c-0.24-0.42-0.81-0.68-0.99-1.12c-4.96-12.3-17.17-16.56-26.45-24.1c-4.17-3.39-7.66-7.63-11.34-11.6
			c-2.57-2.78-4.94-5.76-7.38-8.67c-0.52-0.62-1.07-1.26-1.41-1.99c-3.36-7.14-8.76-12.56-14.48-17.8c-2.3-2.11-4.23-4.66-6.08-7.2
			c-4.49-6.17-11.2-7.35-17.94-7.34c-1.99,0-4.69,3.09-5.78,5.38c-1.61,3.39-3.04,7.03-1.15,11.24c2.42,5.37,3.58,11.33,6.18,16.59
			c2.67,5.4,6.51,10.21,9.66,15.4c4.33,7.13,10.96,12.67,14.11,20.6c1.67,4.21,1.22,5.88-2.6,8.81c-1.18,0.91-2.35,1.83-3.53,2.73
			c-3.77,2.87-7.31,5.2-7.3,11.3c0.01,4.62-0.07,9.27,0.24,13.92c0.25,3.7,0.04,7.47,0.67,11.09c1.44,8.32,6.26,15.17,10.93,21.85
			c4.99,7.13,10.94,13.58,16.23,20.52c4.96,6.5,9.34,13.46,14.47,19.82c3.9,4.84,8.53,9.1,12.91,13.55
			c4.28,4.35,8.99,8.33,12.86,13.01c3.3,3.99,5.46,8.9,8.5,13.13c4.29,5.98,8.98,11.66,13.41,17.55
			c7.93,10.55,15.81,21.13,23.6,31.78c0.72,0.99,0.65,2.56,0.95,3.86c-0.55,0.28-1.09,0.56-1.64,0.84
			c-4.76-5.54-9.53-11.07-14.26-16.63c-5.97-7.01-11.85-14.09-17.87-21.05c-5.11-5.91-10.19-11.85-15.57-17.51
			c-6.6-6.94-13.61-13.49-20.23-20.41c-2.75-2.87-4.89-6.32-7.44-9.4c-5.12-6.19-11.09-11.83-15.31-18.57
			c-4.66-7.46-12.67-11.47-17.22-18.82c-2.41-3.88-5.22-7.52-7.93-11.2C179.57,674.43,177.89,672.52,176.43,670.73z"/>
		<path d="M1339.67,417.13c-1.11-4.04-2.46-8.12-3.32-12.3c-1.45-7.01-6.33-11.86-10.62-16.96c-6.76-8.02-10.59-17.15-13.11-27.24
			c-2.4-9.61-6.02-18.74-13.45-26.07c-5.62-5.54-10.33-12.01-15.53-17.99c-1.28-1.47-2.76-2.86-4.39-3.92
			c-11.32-7.39-22.35-15.1-30.47-26.22c-3.11-4.26-6.27-8.49-9.64-12.54c-1.45-1.75-3.51-2.98-5.28-4.48
			c-6.91-5.84-13.51-12.08-20.8-17.4c-5.25-3.83-11.38-6.45-17.13-9.59c-3.73-2.04-7.48-4.05-11.22-6.07
			c-1.46-0.78-2.89-1.61-4.39-2.31c-9.7-4.5-19.26-9.32-29.17-13.29c-5.26-2.11-11.11-2.72-16.7-4.02
			c-3.69-0.86-7.38-1.76-11.06-2.64c0.08-0.53,0.15-1.06,0.23-1.59c1.63,0.15,3.26,0.37,4.9,0.45c4.54,0.24,9.23-0.2,13.6,0.78
			c5.88,1.32,11.55,3.61,17.24,5.69c9.82,3.58,19.78,6.88,29.32,11.11c9.05,4.02,19.52,5.1,26.73,13.2
			c2.77,3.11,7.03,4.84,10.3,7.58c4.39,3.68,8.56,7.65,12.67,11.65c6.09,5.94,12.73,11.49,17.88,18.17
			c5.83,7.56,13.48,12.82,20.92,18.08c7.34,5.19,14.26,10.64,20.52,17.02c8.1,8.26,15.03,17.26,19.22,28.23
			c3.57,9.35,7.09,18.77,11.57,27.69c2.74,5.45,7.11,10.13,11.03,14.93c4.87,5.95,8.81,12.26,9.85,20.06
			c0.55,4.13,2.8,7.89,2.18,12.36c-0.18,1.31,1.57,3.39,2.97,4.31c3.76,2.46,7.96,4.26,11.72,6.73c7.68,5.04,16.81,5.67,25.26,7.28
			c8.64,1.64,17.9,0.98,26.93-1.13c8.11-1.9,10.12-9.34,8.24-15.93c-0.92-3.22-1.11-6.91-4.9-8.51c-0.26-0.11-0.52-0.48-0.59-0.78
			c-1.98-8.55-9.47-12.13-15.35-17.23c-8.36-7.26-15.45-15.63-21.91-24.66c-3.43-4.8-4.51-10.21-5.98-15.47
			c-3.65-13.05-10.16-24.47-19.57-33.93c-10.24-10.3-21.33-19.76-32.05-29.58c-0.12-0.11-0.33-0.16-0.4-0.29
			c-5.04-8.97-14.35-13.61-21.29-20.69c-6.12-6.23-13.8-10.93-20.76-16.34c-2.71-2.11-5.35-4.32-8.39-6.78
			c0.88-0.45,1.61-1.08,1.87-0.93c4.08,2.39,8.26,4.65,12.1,7.39c5.99,4.27,11.81,8.8,17.58,13.36c2.95,2.33,5.48,5.21,8.5,7.44
			c14.73,10.88,27.27,24.57,43.98,32.98c4.72,2.37,7.89,7.85,11.75,11.92c2.12,2.24,4.05,4.68,6.31,6.75
			c2.4,2.2,3.88,4.48,4.15,7.94c0.22,2.82,1.48,5.67,2.76,8.27c3.4,6.9,6.7,13.89,10.71,20.45c5.51,9.02,12.6,16.53,20.98,23.33
			c7.18,5.83,15.04,11.73,19.32,20.59c0.36,0.74,1.18,1.64,1,2.21c-2.34,7.4,3.65,12.91,4.28,19.56c0.23,2.42-0.8,5.03-1.57,7.45
			c-0.48,1.51-1.62,2.8-2.36,4.24c-2.99,5.82-7.93,8.61-14.26,9.3c-0.33,0.04-0.69-0.07-1,0.03c-8.43,2.72-16.86,0.45-25.28-0.01
			c-1.46-0.08-3.02-0.27-4.31-0.88c-5.61-2.69-11.71-2.36-17.54-2.3c-3.47,0.04-7.07,2.3-10.28,4.13c-1.03,0.59-1.76,3.29-1.32,4.56
			c1.07,3.03,3.35,5.63,4.38,8.67c2.94,8.66,11.82,13.18,14.67,22.12c1.11,3.48,5.52,5.91,8.45,8.8c2.66,2.62,5.13,5.52,8.09,7.74
			c3.8,2.86,7.93,5.31,12.06,7.69c8.94,5.14,18.52,9.37,26.75,15.45c4.83,3.57,10.75,5.74,14.58,11.19c2.64,3.76,7.9,5.57,11.6,8.71
			c2.03,1.72,3.25,4.39,4.83,6.65c0.28,0.4,0.45,0.9,0.79,1.24c5.3,5.34,10.65,10.64,15.92,16.02c1.31,1.34,2.29,3.02,3.59,4.36
			c3.66,3.77,7.3,7.58,11.16,11.14c3.39,3.12,7.06,5.94,10.61,8.88c5.04,4.17,9.85,8.69,15.2,12.41
			c7.37,5.13,14.93,10.07,22.83,14.31c5.45,2.93,11.6,4.54,17.45,6.71c0.92,0.34,1.99,0.34,2.83,0.78
			c5.53,2.91,11.25,1.26,16.89,0.73c2.6-0.24,5.17-0.91,7.7-1.57c1-0.26,1.87-1.03,2.79-1.58c1.27-0.75,2.61-2.25,3.78-2.12
			c4.46,0.49,7.63-1.95,9.53-5.03c2.18-3.53,3.97-7.85,4.22-11.92c0.47-7.77-1.88-14.86-7.91-20.51c-6.41-6-13.12-11.51-20.14-16.83
			c-5.68-4.3-9.54-10.94-12.44-17.79c-1-2.37-2.55-4.51-3.88-6.74c-6.05-10.14-12.13-20.27-18.15-30.43
			c-0.27-0.45-0.03-1.2-0.03-2.47c1.27,0.7,2.43,0.93,2.73,1.57c5.33,11.37,14.04,20.32,21.39,30.24c1.17,1.58,2.33,3.23,3.16,5
			c4.94,10.57,12.58,18.66,22.02,25.43c5.39,3.86,11.37,7.85,14.81,13.24c5.75,9,8.47,19.24,4.24,30.18
			c-2.57,6.67-7.43,10.71-13.63,13.46c-5.26,2.33-10.53,4.78-16.01,6.45c-3.34,1.02-7.19,1.31-10.66,0.84
			c-20.21-2.73-38.45-11.37-56.61-19.92c-5.37-2.53-9.93-6.98-14.5-10.97c-7.31-6.39-14.66-12.8-21.36-19.81
			c-5.94-6.2-10.88-13.35-16.54-19.83c-3.57-4.09-7.6-7.77-11.52-11.54c-5.56-5.35-11.16-10.65-16.84-15.86
			c-1.56-1.43-3.49-2.47-5.25-3.7c-10-6.96-21.15-11.9-31.63-17.99c-7.11-4.13-13.84-8.95-20.41-13.9
			c-2.41-1.81-3.82-4.92-5.77-7.37c-1.91-2.4-3.66-5-5.92-7.03c-6.54-5.88-11.94-12.63-16.76-19.97c-4.48-6.82-10-13.03-13.92-20.14
			c-3.13-5.68-7.65-9.19-12.77-12.46c-4.54-2.9-9.1-4.78-14.8-3.35c-2.82,0.71-6.05-0.35-9.09-0.3c-4.1,0.06-8.25,0.9-12.3,0.52
			c-5.29-0.49-10.51-1.76-15.74-2.82c-4.7-0.95-7.15-4.91-10.04-8.11c-3.08-3.42-5.57-7.38-8.55-10.9
			c-3.16-3.74-6.83-7.06-9.87-10.89c-5.94-7.5-12.68-14.18-20.38-19.75c-7.33-5.3-15.2-9.84-22.67-14.95
			c-4.49-3.06-8.76-6.46-12.98-9.9c-3.33-2.72-6.73-5.47-9.55-8.68c-2.79-3.18-5.21-6.78-7.22-10.51
			c-6.35-11.76-14.54-21.85-24.26-31.12c-10.92-10.42-23.15-18.75-36.33-25.57c-9.44-4.89-19.73-8.21-29.82-11.75
			c-6.48-2.27-13.26-3.67-19.91-5.45c-0.64-0.17-1.33-0.56-1.91-0.44c-9.99,2.09-20.4,1.87-29.74,7.38
			c-5.83,3.44-11.59,6.55-15.92,11.93c-0.74,0.92-2.84,0.74-4.31,1.08c-0.17-1.35-1-3.19-0.42-3.96
			c5.71-7.58,10.57-16.16,20.12-19.74c5.51-2.07,11.15-3.81,16.81-5.42c2.17-0.61,4.6-0.79,6.85-0.55
			c7.35,0.79,14.69,1.73,21.99,2.88c3.06,0.48,6.03,1.58,9,2.52c3.26,1.04,6.46,2.29,9.72,3.34c2.48,0.8,5.21,1.05,7.5,2.19
			c8.54,4.24,17.14,8.41,25.34,13.25c8.16,4.83,16.14,10.08,23.65,15.86c4.2,3.24,7.28,7.94,10.85,11.99
			c0.44,0.5,0.8,1.08,1.28,1.52c6.01,5.54,10.36,12.36,15.28,18.79c7.07,9.25,14.33,18.58,24.01,25.53
			c8.77,6.3,17.13,13.18,26.11,19.16c10.98,7.31,20.58,16.11,29.07,26.02c2.58,3.01,4.48,6.64,7.95,8.82
			c2.15,1.35,4.59,2.25,6.73,3.63c3.59,2.32,6.89,5.13,10.6,7.2c2.25,1.25,5.03,1.62,7.62,2.16c3.67,0.76,7.36,1.68,11.07,1.87
			c6.15,0.31,12.33,0.02,18.49,0.12c1.79,0.03,3.62,0.32,5.34,0.81C1334.32,422.77,1335.69,422.32,1339.67,417.13z"/>
		<path d="M104.1,868.72c-9.69-7.8-17.07-17.55-23.87-27.87c-5.68-8.63-11.79-16.97-17.61-25.51c-1.47-2.15-2.35-4.7-3.83-6.84
			c-2.12-3.06-4.8-5.76-6.77-8.9c-4.87-7.73-9.15-15.72-6.79-25.95c5.9-5.3,12.25-11.38,20.55-13.5c6.4-1.63,13.36-1.35,20.08-1.34
			c4.58,0.01,9.15,1.02,13.72,1.57c0.99,0.12,2.06-0.06,2.97,0.25c8.35,2.88,16.68,5.83,24.99,8.82c0.7,0.25,1.32,0.85,1.87,1.4
			c6.79,6.78,13.44,13.71,20.42,20.28c2.35,2.21,5.45,3.71,8.4,5.16c3.29,1.62,5.39,3.92,7.08,7.24c1.51,2.96,4.32,5.24,6.5,7.87
			c2.2,2.67,4.06,5.67,6.54,8.03c3.3,3.14,6.92,6,10.69,8.55c1.02,0.69,3.77,0.43,4.58-0.44c3.88-4.17,9.45-3.96,14.1-6.03
			c1.75-0.78,3.6-1.45,5.48-1.83c1.68-0.34,3.54-0.56,5.19-0.21c3.8,0.8,7.44,1.51,11.49,1.28c3.35-0.2,6.89,1.84,10.26,3.11
			c8.3,3.13,13.64,9.51,18.77,16.45c3.28,4.44,7.69,8.12,11.91,11.79c7.06,6.14,15.13,10.71,23.68,14.55
			c2.94,1.32,5.23,4.02,8.02,5.77c5.29,3.32,10.87,6.2,16.04,9.68c4.92,3.31,8.27,7.87,11.04,13.36
			c3.23,6.39,8.01,12.04,12.48,17.73c3.01,3.83,6.49,7.32,10.01,10.71c4.1,3.95,8.28,7.88,12.79,11.34
			c4.14,3.18,8.89,5.55,13.15,8.6c4.94,3.54,9.7,7.34,14.39,11.2c4.91,4.04,10.06,7.91,14.36,12.54
			c5.26,5.66,9.78,12.01,14.53,18.14c0.61,0.79,0.64,2.02,1.04,3.38c-0.96-0.09-1.55,0.04-1.81-0.19
			c-11.4-10.3-22.77-20.63-34.16-30.95c-4.32-3.91-9.46-6.18-14.82-8.44c-5.32-2.25-9.86-6.32-14.71-9.65
			c-0.79-0.54-1.27-1.57-2.09-2.02c-10.16-5.49-16.62-14.35-22.47-23.92c-3.43-5.62-6.77-11.56-11.37-16.12
			c-7.79-7.73-16.01-15.11-26.76-19.04c-4.36-1.6-8.2-4.73-12.13-7.39c-6.66-4.51-13.23-9.15-19.75-13.86
			c-1.59-1.15-2.94-2.69-4.18-4.24c-4.1-5.1-7.58-10.84-12.3-15.27c-4.2-3.94-9.11-8.14-16.13-4.59c-2.05,1.04-5.1-0.13-7.55,0.39
			c-4.62,0.98-8.74,2.84-10.9,7.67c-0.76,1.69-2.52,2.92-2.9,4.4c0,4.66-0.77,9.49,0.22,13.93c0.95,4.21,3.45,8.19,5.81,11.94
			c2.67,4.25,4.84,8.36,4.05,13.66c-0.23,1.57,0.58,3.7,1.63,4.98c4.72,5.71,9.59,11.31,14.61,16.75
			c5.43,5.87,11.06,11.55,16.65,17.27c7.94,8.13,15.87,16.26,23.91,24.28c1.36,1.36,3.36,2.06,4.96,3.22
			c5.33,3.88,10.73,7.69,15.84,11.84c1.82,1.48,2.85,3.92,4.37,5.81c3.18,3.94,6.48,7.8,9.69,11.72c1.55,1.89,3.05,3.81,4.52,5.76
			c6.49,8.63,14.1,16.01,22.95,22.3c8.57,6.09,16.49,13.1,24.81,19.56c10.68,8.29,18,19.36,25.88,30.07
			c5.24,7.12,11.53,13.47,17.33,20.19c5.86,6.79,13.47,11.45,20.68,16.79c-0.9,3.33-2.51,3.28-5.12,1.84
			c-10.26-5.66-19-13.21-27.28-21.37c-11.71-11.53-23.41-23.08-33.3-36.29c-0.81-1.08-2.16-1.78-3.32-2.57
			c-1.09-0.75-2.29-1.33-3.36-2.1c-5.98-4.28-11.96-8.56-17.89-12.91c-1.69-1.24-3.22-2.71-4.84-4.04
			c-5.95-4.89-12.5-9.22-17.68-14.81c-4.93-5.32-8.94-11.68-12.42-18.09c-4.31-7.94-9.24-14.93-16.82-20.19
			c-12.54-8.71-25.68-16.72-36.31-27.93c-2.47-2.61-4.98-5.29-6.83-8.33c-2.02-3.3-4.9-2.49-7.51-2.15c-2.27,0.29-4.5,1.47-4.4,4.5
			c0.01,0.32-0.08,0.69-0.25,0.95c-5.66,8.52-1.65,16.93,0.09,25.45c1.28,6.24,4.2,11.62,7.18,17.12c1.26,2.34,0.64,5.65,1.09,8.49
			c0.3,1.91,0.36,4.53,1.59,5.52c6.49,5.24,9.18,13.2,14.37,19.33c6.77,7.99,13.06,16.39,20.02,24.21
			c4.44,4.99,9.95,9.03,14.52,13.92c4.3,4.6,7.94,9.82,12,14.66c2.95,3.52,6.08,6.88,9.18,10.27c4.42,4.83,8.79,9.69,13.35,14.39
			c2.68,2.76,5.6,5.3,8.54,7.78c1.65,1.39,3.04,2.67,2.24,4.17c13.49,11.3,26.8,22.44,40.06,33.63c0.33,0.28,0.11,1.2,0.14,1.58
			c-10.43-7.53-21.02-14.76-31.11-22.62c-7.23-5.64-13.88-12.06-20.63-18.29c-6.86-6.33-13.63-12.78-20.27-19.35
			c-4.44-4.39-8.47-9.18-12.9-13.57c-1.94-1.92-4.57-3.13-6.58-5c-5.09-4.75-10.45-9.23-13.82-15.63c-1.54-2.92-4.17-5.4-6.72-7.6
			c-4.31-3.72-9.1-6.88-13.37-10.64c-1.89-1.67-3.02-4.21-4.45-6.39c-7.05-10.72-14.12-21.42-21.08-32.19
			c-1.06-1.64-1.85-3.56-2.28-5.46c-1.05-4.62-3.29-8.47-6.37-12.04c-3.97-4.6-3.86-10.47-0.13-15.29c0.49-0.63,1.24-1.45,1.15-2.09
			c-0.68-4.7,2.64-9.64-1.27-14.26c-1.32-1.56-1.65-4.36-1.63-6.59c0.07-7.02-2.94-13.03-5.5-19.26
			c-2.06-5.01-3.22-10.44-5.69-15.21c-1.67-3.24-4.75-5.84-7.48-8.44c-2.13-2.02-4.58-3.78-7.12-5.28c-1.54-0.91-4.16-2.07-5.13-1.4
			c-2.18,1.49-3.94,0.71-6.02,0.52c-3.02-0.27-6.13-0.35-9.13,0.04c-8.8,1.15-17.56,2.53-26.33,3.9c-5.78,0.9-11.9,0.72-16.75,4.82
			c-1.81,1.53-3.57,3.12-5.21,4.82c-1.11,1.15-2.21,2.41-2.91,3.83c-1.55,3.17-2.88,6.44-4.21,9.71c-1.39,3.4-1.94,6.71,1.37,9.51
			c0.42,0.36,0.42,1.22,0.63,1.84c2.28,6.61,7.46,11.08,11.6,16.38c6.05,7.73,11.15,16.2,16.7,24.33c1.11,1.63,2.32,3.2,3.6,4.7
			c4.77,5.64,9.78,11.08,12.38,18.23c0.77,2.1,2.12,4.06,3.49,5.87c4.54,5.99,9.04,12.03,13.87,17.79
			c6.47,7.71,13.02,15.38,19.95,22.67c4.31,4.54,9.49,8.23,14.1,12.5c4.97,4.61,9.7,9.48,14.61,14.16c2.57,2.45,5.29,4.74,7.95,7.1
			c-0.23,0.48-0.45,0.97-0.68,1.45c-1-0.22-2.28-0.11-2.96-0.7c-5.83-5.02-11.42-10.33-17.34-15.24c-4.9-4.07-10.37-7.46-15.2-11.6
			c-7.15-6.13-14.4-12.24-20.77-19.14c-6.46-6.99-12.02-14.83-17.77-22.46c-5.23-6.93-10.29-14-15.18-21.18
			c-1.42-2.08-1.66-4.95-2.99-7.12c-1.69-2.74-3.79-5.26-5.97-7.65c-5.5-6.04-11.36-11.77-16.67-17.97
			c-4.8-5.6-9.21-11.56-13.54-17.55c-4.51-6.23-4.67-13.69-4.36-20.87c0.13-2.9,2.42-6.21,4.63-8.42
			c5.95-5.94,11.91-12.08,18.8-16.79c4.09-2.8,9.88-3.33,15.01-4.32c4.13-0.8,8.47-0.46,12.62-1.17c4.6-0.79,9.07-2.28,13.63-3.34
			c2.71-0.63,5.5-0.93,8.21-1.56c6.37-1.48,9.6-6.59,8.8-13.02c-1.32-10.54-5.87-19.79-11.54-28.45c-2.08-3.18-5.44-5.64-8.54-8.03
			c-8.4-6.48-17.08-12.6-25.44-19.14c-6.65-5.2-12.89-10.92-19.53-16.13c-1.54-1.21-3.99-1.26-6.01-1.87
			c-4.06-1.22-8.46-1.82-12.08-3.84c-5.53-3.08-10.83-4.64-16.97-2.33c-1.16,0.44-2.83,0.48-3.93-0.03
			c-3.41-1.57-5.69,0.05-7.93,2.22c-2.95,2.86-6.2,5.47-8.78,8.63c-3.44,4.2-2.88,6.87,0.16,11.52c2.98,4.55,5.57,9.39,7.91,14.3
			c3,6.29,7.03,11.67,12.3,16.19c0.62,0.53,1.36,1.06,1.68,1.76c2.45,5.33,4.57,10.83,7.28,16.02c2.19,4.2,4.92,8.14,7.68,12.01
			c2.61,3.66,5.64,7.02,8.32,10.63c0.94,1.26,1.41,2.87,2.09,4.32C104.99,868.34,104.54,868.53,104.1,868.72z"/>
		<path d="M233.77,251.72c-6.29,6.41-13.25,9.99-21.01,11.9c-3.49,0.86-7.32,0.35-10.79,1.26c-4.57,1.19-8.99,3.02-13.37,4.83
			c-10.31,4.25-16.83,12.05-20.63,22.37c-1.13,3.07-2.47,6.09-3.97,9c-3.71,7.22-2.68,14.85-1.57,22.27
			c1.84,12.35,6.03,24.15,10.78,35.61c2.59,6.25,7.36,11.56,10.58,17.59c3.26,6.1,8.09,10.76,12.73,15.65
			c1.46,1.54,3.1,2.91,4.51,4.48c2.95,3.27,5.75,6.66,8.71,9.92c4.58,5.05,9.27,10.02,13.85,15.07c0.98,1.08,1.72,2.39,2.53,3.55
			c-2.15,2.9-3.99,3.08-5.21,0.25c-1.95-4.53-5.38-7.2-9.53-9.51c-2.39-1.33-4.26-3.61-6.32-5.5c-3.11-2.86-6.17-5.77-9.27-8.64
			c-0.84-0.78-1.94-1.34-2.61-2.23c-4.32-5.78-8.55-11.63-12.82-17.45c-5.2-7.1-10.44-14.18-15.61-21.31
			c-3.75-5.17-7.7-10.24-11.03-15.67c-1.9-3.1-3.57-6.78-3.9-10.33c-0.83-8.87-4.62-17.41-2.36-26.71
			c1.18-4.86-0.24-10.21,2.59-14.98c0.59-0.99-0.52-3-0.7-3.87c5.08-6.13,9.83-11.86,15.01-18.11c2.98,0.76,4.84-1.53,6.77-4.48
			c3.7-5.66,7.94-10.71,15.53-11.49c4.28-0.44,8.6-2.92,12.66-2.45c4.32,0.5,7.71-0.55,11.23-2.28c1.24-0.61,2.36-1.57,3.35-2.55
			c2.81-2.78,5.42-5.79,8.34-8.44c1.14-1.04,2.91-1.94,4.4-1.96c12.73-0.14,25.52-1.02,37.81,3.79c10.99,4.31,22.5,7.58,32.27,14.41
			c6.86,4.79,14.5,7.4,22.24,9.96c3.87,1.28,7.78,2.52,11.76,3.28c1.54,0.29,3.42-0.61,5.01-1.3c2.04-0.88,3.93-2.08,6.79-3.63
			c-0.05-0.7,0.06-2.46-0.33-4.11c-0.7-3.03-1.61-6.02-2.6-8.96c-0.3-0.88-1.01-1.75-1.76-2.34c-4.23-3.36-8.66-6.48-12.75-10
			c-2.28-1.96-3.93-4.63-6.06-6.79c-5.31-5.38-10.7-10.68-16.13-15.94c-6.71-6.51-13.56-12.88-20.24-19.41
			c-8.48-8.29-17.15-16.28-28.45-20.71c-9.48-3.72-18.82-7.79-28.41-11.18c-4.43-1.57-9.27-2.35-13.99-2.69
			c-6.2-0.45-12.45-0.11-18.68-0.11c0.12,0.4,0.24,0.81,0.36,1.21c-1.97,0.95-3.93,1.92-5.9,2.85c-1.34,0.64-2.65,1.55-4.07,1.77
			c-2.68,0.41-5.46,0.77-8.14,0.51c-6.15-0.61-12.26-1.61-18.38-2.46c-0.32-0.04-0.68-0.05-0.96-0.2c-6.47-3.5-13.89-3.96-20.6-6.28
			c-5.87-2.03-10.44-0.31-15.2,1.34c-4.55,1.57-8.81,3.68-13.82,3.37c-1.11-0.07-2.28,0.99-3.78,1.7c-0.69-0.35-1.7-0.86-3.55-1.78
			c-2.29,3.71-4.62,7.5-6.97,11.27c-1.9,3.05-3.91,6.03-5.73,9.12c-0.64,1.08-1.34,2.5-1.16,3.63c1.21,7.81-3.57,14.16-4.51,21.41
			c-0.46,0.02-0.93,0.04-1.39,0.06c-0.18-1.73-0.6-3.47-0.48-5.17c0.27-3.83,0.33-7.77,1.32-11.44c1.82-6.73,3.31-13.82,6.68-19.77
			c3.72-6.56,9.1-12.31,14.39-17.79c1.67-1.73,5.38-1.53,8.18-2.1c0.93-0.19,2.14,0.37,2.87-0.04c6.44-3.66,13.65-3.79,20.66-4.1
			c4.32-0.19,8.84,0.77,13.02,2.05c4.29,1.31,8.41,2.29,12.98,2.42c4.62,0.14,8.94,0.48,13.05-2.1c1.04-0.65,2.48-0.85,3.75-0.92
			c7.38-0.41,14.8-0.15,21.95-2.74c1.91-0.69,4.35-0.55,6.41-0.13c13.19,2.73,26.54,4.97,38.76,11.13c1.74,0.88,3.66,1.57,5.57,1.88
			c8.11,1.29,13.88,6.59,19.84,11.48c9.98,8.2,19.86,16.51,29.72,24.85c2.28,1.93,4.26,4.22,6.43,6.29
			c1.52,1.46,3.04,2.94,4.72,4.21c6.26,4.73,12.83,9.07,18.79,14.15c4.04,3.44,6.98,8.14,10.9,11.75c3.35,3.08,7.13,5.91,11.17,7.97
			c12.29,6.26,25.37,9.41,39.26,8.12c2.01-0.19,3.97-1.27,5.87-2.12c1.67-0.75,3.22-1.78,5.79-3.23c2.15-5.23,0.43-10.99-3-16.2
			c-5.74-8.7-13.46-15.64-21.15-22.6c-2.96-2.68-5.19-6.17-7.68-9.34c-3.44-4.38-6.98-8.7-10.16-13.26
			c-3.66-5.24-6.72-10.91-10.52-16.04c-2.62-3.53-5.75-6.83-9.19-9.56c-7.62-6.04-15.6-11.58-25.08-14.5
			c-1.48-0.46-2.75-1.64-4.95-3c1.83-0.45,2.79-1.02,3.53-0.82c5.66,1.58,11.58,2.69,16.85,5.16c6.5,3.06,13.24,6.45,18.46,11.23
			c8.53,7.82,16.76,16.26,23.56,25.57c8.84,12.11,19.76,21.94,30.43,32.17c3.43,3.29,6.55,7.09,9.02,11.14
			c1.72,2.82,2.71,6.41,2.96,9.73c0.4,5.37,2.01,11-1.55,16.15c-0.37,0.53,0.8,2.77,1.78,3.49c6.13,4.45,12.43,8.67,18.63,13.03
			c1.44,1.01,2.7,2.28,4.06,3.43c7.32,6.19,16.03,8.53,25.34,9.83c4.12,0.57,7.97,2.94,12.01,4.3c2.15,0.72,4.46,1.55,6.65,1.44
			c6.08-0.3,12.14-1.1,18.21-1.62c1.09-0.09,2.24,0.16,3.33,0.39c0.94,0.2,2.15,1.13,2.72,0.81c4.17-2.33,6.98,0.66,10.39,2.08
			c7.44,3.08,15.04,5.91,23.35,5.42c1.15-0.07,2.32-0.15,3.43-0.43c3.5-0.88,6.98-1.85,10.76-2.87c0.93-3.46,2.08-7.72,3.17-11.73
			c-1.25-3.27-2.34-6.52-3.74-9.64c-0.73-1.62-1.86-3.1-3.02-4.48c-2.64-3.14-5.47-6.12-8.11-9.27
			c-6.35-7.59-13.44-14.3-22.26-18.95c-5.67-2.99-11.61-5.47-17.12-8.72c-4.26-2.51-8.02-5.84-12.01-8.81
			c0.17-0.32,0.34-0.65,0.51-0.97c1.1,0.37,2.41,0.48,3.25,1.16c4.9,3.97,10.89,5.04,16.67,6.93c4.6,1.5,8.75,4.48,12.99,6.99
			c2.81,1.66,5.51,3.54,8.09,5.53c2.43,1.88,4.66,4.02,6.95,6.08c1.43,1.29,2.61,3.03,4.26,3.9c6.8,3.61,11.51,9.58,17,14.66
			c1.23,1.14,1.56,3.24,2.38,4.86c1.84,3.64,3.51,7.4,5.65,10.87c3.21,5.21,3.46,10.69-0.59,15.61c-2.75,3.34-5.86,7.18-9.66,8.72
			c-9.28,3.76-18.65,3.41-28.21-0.87c-5.74-2.57-11.92-5.77-19-3.52c-1.69,0.54-4.02-1.42-6.09-1.51
			c-6.1-0.26-12.26,0.23-18.32-0.34c-4.68-0.44-9.27-1.98-13.87-3.15c-8.75-2.21-17.65-4.01-26.16-6.93
			c-6.18-2.12-11.96-5.52-17.68-8.78c-4.49-2.56-9-4.31-14.17-5.18c-3.7-0.62-7.24-2.89-10.53-4.94c-2.77-1.72-5.29-2.08-8.42-1.38
			c-2.52,0.56-5.37,0.77-7.86,0.21c-8.27-1.88-16.18-0.41-23.73,2.61c-2.47,0.99-3.98,4.24-6.11,6.26
			c-4.93,4.66-9.23,10.4-16.86,10.8c-1.7,0.09-3.64,0.17-5.11-0.5c-8.09-3.72-15.99-7.83-24.11-11.49
			c-7.46-3.37-15.19-6.14-22.65-9.53c-5.39-2.45-10.6-5.32-15.73-8.27c-5.43-3.12-11.04-4.18-17.33-3.72
			C248.25,252.13,240.83,251.72,233.77,251.72z"/>
		<path d="M458.47,593.32c1.33-1.12,1.69-1.7,2.05-1.7c11.72,0.22,23.45,0.94,35.14,0.62c9.7-0.27,19.38-1.63,29.03-2.77
			c10.3-1.21,20.56-2.7,30.84-4.1c4.23-0.57,8.51-1.91,12.68-1.63c5.32,0.36,10.37-0.23,15.49-1.29c1-0.21,2.19,0.44,3.29,0.71
			c1.96,0.48,3.91,0.97,6.27,1.56c0.54-6.82,1.01-12.88,1.52-18.94c0.29-3.43,0.64-6.86,0.99-10.29c0.32-3.11,0.84-6.21,0.98-9.33
			c0.4-8.51,0.71-17.02,0.94-25.53c0.44-16.73,0.79-33.47,1.19-50.2c0-0.15,0.14-0.3,0.59-1.23c0.66,2.45,1.43,4.29,1.62,6.18
			c0.52,5.43,0.75,10.89,1.2,16.33c0.15,1.81-0.63,3.64,1.6,5.3c1.06,0.79,0.1,4,0.48,6.04c1.04,5.58,2.43,11.09,3.45,16.67
			c0.92,5,1.52,10.06,2.31,15.08c1.16,7.43,2.23,14.87,3.59,22.26c1.22,6.58,2.78,13.1,4.22,19.76c4.94,2.17,9.51-1.03,14.31-1.61
			c8.32-1.02,16.58-2.52,24.87-3.84c7.29-1.17,14.56-2.47,21.87-3.53c7.46-1.08,14.97-1.86,22.44-2.89
			c8.15-1.12,16.29-2.28,24.41-3.59c13.47-2.17,26.92-4.5,40.39-6.73c12.88-2.13,25.77-4.22,38.66-6.31
			c5.76-0.93,11.6-2.89,17.26-2.47c6.68,0.49,13.01-0.24,19.44-1.43c6.58-1.21,13.19-2.29,19.79-3.4c2.1-0.35,4.22-0.61,5.75-0.82
			c-1.51,1.29-3.27,2.79-5.03,4.29c0.14,0.11,0.28,0.23,0.42,0.34c-6.3,2.22-12.52,4.71-18.93,6.54c-3.6,1.03-7.5,0.96-11.27,1.37
			c-0.66,0.07-1.37-0.04-1.99,0.15c-6.08,1.81-12.13,3.73-18.23,5.47c-2.23,0.64-4.57,0.91-6.97,0.92c-2.23,1.6-4.23,3.23-7.59,1.76
			c-1.22-0.53-3.3,1.04-5.03,1.54c-7.72,2.22-15.4,4.64-23.2,6.52c-6.49,1.56-13.18,2.3-19.71,3.68c-7.02,1.49-13.98,3.3-20.96,4.99
			c-0.96,0.23-1.89,0.87-2.83,0.86c-10.5-0.08-20.11,4.38-30.28,5.92c-7.65,1.16-15.34,2.08-22.99,3.24
			c-3.24,0.49-6.41,1.49-9.65,1.92c-6.26,0.83-12.56,1.4-18.84,2.13c-0.55,0.06-1.05,0.54-2.27,1.21c1.44,0.61,2.2,1.12,3.01,1.24
			c7.64,1.12,15.31,2.08,22.94,3.28c9.25,1.45,18.44,3.26,27.71,4.58c3.66,0.52,7.44,0.09,11.17,0.21
			c9.28,0.3,18.59,0.31,27.84,1.07c16.41,1.36,32.81,2.88,49.14,4.94c11.4,1.44,22.67,3.97,34.02,5.85c3.9,0.64,7.9,0.67,11.83,1.15
			c5.87,0.72,11.7,1.9,17.58,2.33c5.52,0.4,11.1,0.09,16.65,0.09c0.04,0.61,0.08,1.23,0.12,1.84c-3.41,0.36-6.81,0.8-10.22,1.05
			c-2.23,0.16-4.55-0.3-6.7,0.13c-5.62,1.12-11.05-0.37-16.56-0.67c-6.85-0.38-13.73-0.28-20.6-0.46
			c-8.72-0.23-17.45-0.58-26.17-0.81c-4.72-0.12-9.44-0.11-14.17-0.12c-9.02-0.02-18.05,0.23-27.06-0.06
			c-11.58-0.38-23.13-1.28-34.71-1.74c-3.27-0.13-6.56,0.73-9.85,0.73c-3.12,0-6.23-0.76-9.35-0.77c-2.95-0.01-5.9,0.82-8.84,0.77
			c-14.89-0.23-29.78-0.58-44.67-1.01c-2.28-0.07-4.54-0.79-6.81-1.19c-2.73-0.48-3.87,0.57-3.84,3.45c0.07,9.89,0,19.78-0.14,29.67
			c-0.01,1.04-0.79,2.08-1.28,3.1c-0.49,1.02-1.41,1.96-1.53,3c-0.5,4.51-0.72,9.04-1.13,13.56c-0.51,5.59-1.91,11.12-1.03,16.81
			c0.1,0.68-0.35,1.44-0.86,3.34c-1.94-5.24-3.59-9.32-4.97-13.49c-1.75-5.29-3.55-10.59-4.87-16c-2.07-8.47-3.74-17.03-5.64-25.54
			c-1.18-5.28-2.29-10.59-3.76-15.8c-1.55-5.53-3.21-6.21-8.71-6.92c-8.47-1.09-16.84-2.96-25.3-4.17
			c-7.82-1.13-15.71-1.79-23.55-2.75c-3.4-0.42-6.76-1.11-10.15-1.63c-3-0.46-6-0.94-9.02-1.25c-7.22-0.75-14.44-1.62-21.68-2.04
			c-7.59-0.44-15-1.13-22.37-3.49c-4.25-1.36-9.24-0.36-13.89-0.62C462.63,594.61,460.95,593.93,458.47,593.32z"/>
		<path d="M617.58,706.41c1.25,6.56,2.23,13.18,3.83,19.65c1.88,7.59,4.15,15.09,6.55,22.53c1.9,5.9,4.26,11.66,6.37,17.5
			c0.21,0.58,0.31,1.29,0.18,1.88c-1.4,6.52,2.61,11.31,5.27,16.5c1.18,2.3,2.93,2.68,5.72,2.22c7.15-1.16,14.42-1.59,21.64-2.3
			c0.66-0.07,1.44,0.16,1.98-0.11c9.78-4.8,20.79-2.65,30.98-5.61c7.98-2.32,16.6-2.37,24.7-4.4c11.85-2.96,23.89-3.82,35.95-5.01
			c7.5-0.74,14.89-2.48,22.35-3.62c3.36-0.52,6.77-0.66,10.16-1c7.21-0.74,14.41-1.54,21.62-2.24c7.43-0.72,14.87-1.26,22.28-2.12
			c1.36-0.16,2.59-1.48,3.19-1.85c3.33,0,6.1-0.04,8.87,0.01c3.61,0.07,7.22,0.21,10.87,1.05c-2.99,1.5-5.57,2.72-9.2,2.7
			c-5.37-0.03-10.76,2.24-16.12,3.58c-9.23,2.31-18.43,4.75-27.69,6.92c-3.03,0.71-6.24,0.59-9.32,1.13
			c-4.13,0.72-8.47,0.92-11.51,4.66c-0.73,0.9-2.54,0.9-3.83,1.38c-7.72,2.87-15.76,4.07-23.88,5.32
			c-9.2,1.42-18.19,4.15-27.33,6.06c-9.78,2.04-19.77,3.27-29.4,5.84c-6.39,1.71-13.33,1.14-19.29,5.22
			c-2.76,1.89-6.97,1.56-10.45,2.5c-5.38,1.45-10.71,3.09-16.03,4.75c-0.86,0.27-1.57,1.03-2.38,2.66
			c4.69,0.92,9.39,2.66,14.07,2.59c10.12-0.16,19.89,1.77,29.75,3.42c4.87,0.81,9.88,0.78,14.82,1.19
			c11.77,0.98,23.54,2.05,35.32,2.98c5.58,0.44,11.2,0.41,16.75,1.08c6.03,0.73,11.97,2.09,17.98,3.04
			c4.71,0.75,9.48,1.13,14.17,1.96c8.64,1.53,17.22,3.41,25.87,4.89c8.58,1.47,17.23,2.49,25.81,3.96
			c6.16,1.05,12.24,2.52,18.36,3.8c0.02,0.42,0.04,0.84,0.06,1.26c-1.79,0.45-3.63,1.4-5.37,1.25c-7.7-0.68-15.36-1.78-23.06-2.52
			c-3.7-0.35-7.45-0.18-11.17-0.36c-13.73-0.65-27.45-1.38-41.18-2.01c-8.61-0.39-17.23-0.57-25.84-1.01
			c-8.58-0.44-17.15-1.09-25.73-1.64c-7.14-0.45-14.29-0.76-21.41-1.36c-9.69-0.82-19.35-1.97-29.04-2.75
			c-2.41-0.19-4.9,0.77-7.34,0.71c-8.61-0.2-17.22-0.64-25.84-0.92c-3.11-0.1-6.23-0.02-9.24-0.31c-6.16,1.72-4.14,7.48-4.95,11.58
			c-1.96,9.99-2.94,20.17-4.31,30.27c-0.07,0.49,0.09,1.1-0.14,1.48c-1.02,1.68-2.4,3.19-3.17,4.97c-0.73,1.67-0.86,3.6-1.92,5.46
			c-4.26-8.97-4.55-18.73-6.21-28.2c-1.66-9.49-3.64-18.92-5.66-29.31c-2.04-0.55-4.66-1.26-7.29-1.95
			c-0.16-0.04-0.35,0.03-0.5-0.02c-8.62-2.87-17.32-5.35-26.54-5.11c-9.24-5.84-19.81-3.53-29.78-4.85
			c-7.99-1.06-16.02-2.59-24.03-2.59c-7.33,0-14.47-2.93-21.98-0.69c-3.36,1-7.27,0.17-11.49,0.17c-0.93-1.98-1.95-4.13-3.33-7.06
			c2.08-0.48,3.68-1.04,5.32-1.19c6.08-0.55,12.16-1.06,18.25-1.39c5.23-0.29,10.47-0.23,15.7-0.5c6.03-0.31,12.05-0.78,18.06-1.25
			c7.57-0.59,15.14-1.3,22.72-1.88c5.34-0.41,10.68-0.73,16.02-1.03c6.69-0.37,13.38-0.66,20.06-0.99c1.16-0.06,2.32-0.12,4.22-0.22
			c0.43-2.95,1.18-5.96,1.26-8.98c0.14-5.4-0.8-10.91-0.03-16.19c0.75-5.17,1.52-10.06,0.38-15.3c-0.74-3.4-0.24-7.08-0.25-10.63
			c0-0.99-0.26-2.26,0.24-2.94c3.57-4.86,2.67-10.44,2.73-15.85c0.06-5.65-0.08-11.31,0.1-16.96c0.05-1.43,0.98-2.83,1.51-4.24
			C616.79,706.18,617.18,706.29,617.58,706.41z"/>
		<path d="M712.88,965.67c0.03,0.15,0.15,0.85,0.24,1.38c-8.54,3.65-18.06,3.53-26.58,7.74c-4.52,2.23-10.24,1.98-15.38,3.03
			c-2.26,0.46-4.42,1.38-6.62,2.09c0.02,0.51,0.04,1.02,0.06,1.53c29.57,7.29,59,15.27,88.76,21.66
			c29.68,6.37,59.54,12.14,91.23,15.57c4.1,3.53,11.31,0.57,17.26,3.36c-6.25,0.34-12.14,2.29-18.69,1.33
			c-4.79-0.7-10.06-4.21-15.12-0.22c-0.35,0.27-1.2-0.09-1.82-0.18c-2.92-0.4-5.86-0.69-8.76-1.22c-5.27-0.96-10.51-2.05-16.52-3.24
			c-2.09,2.08-5.18,0.28-8.22-0.35c-1.73-0.36-3.38-1.1-5.12-1.36c-8.83-1.31-17.65-3.13-26.54-3.59
			c-8.1-0.43-15.77-3.91-24.26-2.21c-3.59,0.72-7.85-1.85-11.79-2.98c-1.05-0.3-2.18-1.33-3.05-1.11
			c-8.23,2.09-15.95-1.07-23.88-2.07c-8.82-1.12-17.65-2.09-26.49-3.05c-3.94-0.43-7.89-0.88-11.84-0.96
			c-2.45-0.05-4.91,0.55-7.36,0.86c-0.09,0.41-0.18,0.81-0.27,1.22c-1.62-1.14-3.23-2.27-5.29-3.72c-0.2,0.35-1.08,1.17-1.12,2.03
			c-0.27,6.7-0.47,13.4-0.53,20.11c-0.08,9.88-0.14,19.76,0.02,29.64c0.1,6.35,0.84,12.68,0.87,19.03
			c0.02,5.77-0.64,11.55-0.79,17.33c-0.11,4.2,0.18,8.4,0.19,12.6c0,1.24-0.37,2.48-1.22,3.72c-2.31-4.52-4.23-9.27-3.28-14.01
			c1.32-6.61-0.09-13-2.64-18.34c-2.72-5.69-3.17-11.68-5.06-17.39c-1.54-4.67-1.17-9.97-4.37-14.17c2.37-4.31-1.36-7.94-1.45-12.11
			c-0.11-5.25-2.91-10.44-3.09-15.7c-0.15-4.33-2.16-7.59-3.46-11.3c-1.9-5.46-4.21-7.15-9.8-7.87c-5.53-0.71-11-1.94-16.51-2.85
			c-1.4-0.23-2.86-0.12-4.29-0.2c-1.81-0.1-3.64-0.08-5.42-0.38c-4.19-0.7-8.33-1.74-12.54-2.3c-5.95-0.78-11.94-1.25-17.91-1.86
			c-0.66-0.07-1.31-0.33-1.96-0.32c-11.01,0.17-21.59-3.2-32.49-3.94c-4.15-0.28-8.33-0.09-12.49-0.11
			c-2.45-0.01-4.35-0.54-3.48-4.09c7.75-0.43,15.51-0.89,23.29-1.27c10.59-0.51,21.19-0.87,31.77-1.48
			c3.93-0.23,7.91-1.8,11.72-1.38c11.99,1.3,23.55-0.89,35.19-2.97c2.89-0.52,5.95-0.08,9.66-0.08c0.63-6.51,4.85-12.18,1.98-18.79
			c-1.33-3.07-0.8-5.69,0.72-8.5c0.98-1.81,1.77-3.95,1.89-5.98c0.4-7.2,0.53-14.41,0.64-21.62c0.09-5.91-1.11-11.94,3.04-17.24
			c1.08-1.38,1-3.65,1.47-5.58c2.65,1.89,3.4,6.83,2,12.89c4.33,2.2,4.69,6.67,5.7,10.79c2.77,11.29,5.4,22.6,8.29,33.86
			c0.68,2.65,1.92,5.26,3.41,7.56c0.61,0.95,2.59,1.54,3.88,1.44c8.22-0.61,16.43-1.44,24.64-2.25c3.93-0.39,7.85-0.87,11.77-1.34
			c6.37-0.76,12.74-1.48,19.1-2.35c4.24-0.58,8.44-1.41,12.66-2.12c13.24-2.25,26.41-5.14,39.73-6.51
			c8.22-0.85,16.17-2.12,24.16-4.17c7.99-2.04,16.32-2.74,24.41-4.43c4.24-0.89,8.26-2.74,12.43-3.98c1.7-0.51,3.56-0.46,5.32-0.81
			c8.21-1.66,16.44-3.24,24.61-5.1c6.08-1.38,12.07-3.18,18.13-4.7c1.06-0.27,2.25-0.04,3.38-0.04c0.07,0.39,0.14,0.79,0.21,1.18
			c-3.16,0.72-6.39,1.23-9.46,2.21c-4.75,1.51-9.38,3.41-14.11,5.01c-1.93,0.66-3.98,0.97-5.97,1.48c-0.55,0.14-1.18,0.3-1.57,0.67
			c-4.41,4.17-10.37,4.08-15.65,5.85c-3.22,1.08-6.21,2.8-9.41,3.95c-3.13,1.12-6.35,2.01-9.59,2.75
			c-6.59,1.5-13.28,2.61-19.81,4.32c-3.44,0.9-6.52,3.22-9.96,4.02c-5.23,1.22-10.67,1.54-15.97,2.5
			c-3.79,0.69-7.54,2.69-11.23,2.52c-6.73-0.31-11.71,4.22-17.89,5.21C723.41,963.01,718.34,964.43,712.88,965.67z"/>
	</g>
</g>
</svg>
