<?xml version="1.0" encoding="UTF-8"?><svg id="Layer_1" xmlns="http://www.w3.org/2000/svg" viewBox="0 0 1621.41 1015.34"><defs><style>.cls-1{stroke-width:0px;}</style></defs><path class="cls-1" d="m1136.95,256.04c-11.58-12.52-25.24-22.67-38.5-33.27-12.38-9.9-26.06-17.4-40.88-22.93-2.3-.86-4.41-2.28-6.75-2.94-7.4-2.06-14.87-3.85-22.3-5.8-2.6-.68-5.23-2.38-7.71-2.16-7.34.67-13.9-2.01-20.71-3.75-10.37-2.65-19.51-7.84-28.43-13.52-4.27-2.72-8.25-5.56-11.16-9.97-5.73-8.65-14.36-12.68-24.45-13.93-2.61-.32-5.24-.57-7.82-1.03-6.31-1.11-12.83-1.66-18.86-3.66-8.36-2.77-16.35-3.61-24.57-.05-1.02.44-2.21.55-3.34.71-4.88.72-9.77,1.35-14.63,2.13-3.38.54-6.71,1.42-10.1,1.88-3.92.53-7.95.44-11.82,1.18-8.54,1.63-16.97,3.86-25.53,5.37-4.83.85-9.93,1.56-14.71.9-5.41-.74-10.64-3-15.88-4.8-1.66-.57-3.37-1.53-4.56-2.78-2.25-2.36-4-5.18-6.21-7.58-3.88-4.2-3.82-9.49-3.63-14.46.29-7.32-.72-13.67-7.4-17.95-2.22-1.42-4.85-2.59-6.43-4.56-4.87-6.07-10.48-10.98-17.5-14.48-7.49-3.73-14.74-7.94-22.04-12.03-1.71-.96-3.64-1.96-4.76-3.47-5.19-6.99-10.34-14.03-15.1-21.32-4.48-6.86-7.25-14.95-14.71-19.59-.61-.38-.77-1.42-1.3-2.01-1.96-2.16-3.97-4.28-6.01-6.36-2.41-2.45-4.87-4.85-7.84-7.8.06,0,.12,0,.18,0-.17-.15-.33-.29-.5-.45-.5-.47-.86-.97-1.11-1.49-1.45-1.35-2.93-2.61-4.52-3.66-2.18-.86-4.35-1.79-6.49-2.76-.9-.18-1.84-.29-2.83-.32-.97-.03-1.79-.28-2.46-.69-3.4-.98-6.97-1.11-10.34-2.24-3.64-1.22-6.92-2.38-10.7-3.12-1.6-.31-3.2-1.09-4.81-1.27-2.05-.24-3.86.48-5.86.82,1.61.53,3.23,1,4.86,1.44,1.24.34,2.49.68,3.73,1.03,2.21-.04,4.38.49,6.12,1.78.28.21.57.38.85.57.81.34,1.62.7,2.4,1.1.47.24.92.5,1.38.77,4.16.95,7.92,3.12,12.16,3.84,3.46.59,6.01,2.9,7.54,5.83,1.65,1.65,3.19,3.51,4.85,5.03,2.29,2.1,4.38,4.41,6.47,6.72,3.47,3.85,7.1,7.59,10.25,11.69,7.42,9.64,12.43,20.73,18.11,31.38,3.38,6.34,9.34,9.1,14.67,12.76,6.73,4.63,13.79,8.78,20.72,13.12,1.4.87,2.78,2.11,4.31,2.38,6.2,1.08,8.56,6.66,12.74,10.12,7.32,6.07,6.65,15.03,9.54,22.68.3.79-.46,1.91-.38,2.85.15,1.71.08,3.71.95,5.05,1.98,3.05,2.03,5.81.1,8.77-.45.69-.82,1.44-1.12,2.21-1.94,4.9-4.86,7.91-10.26,10.15-7.2,2.98-13.16,2.26-19.64-.75-3.55-1.65-7.16-3.83-10.91-4.22-3.71-.39-7.72.84-11.41,1.97-6.42,1.96-12.58,4.8-19.06,6.48-5.5,1.42-10.16-1.6-14.56-4.71-12.54-8.87-22.83-20.21-34.06-30.54-11.01-10.12-22.09-20.23-34.89-28.22-4.28-2.67-8.2-5.93-11.79-8.73-3.27-1.15-6.54-4.13-9.01-6.99-7.65-3.54-15.2-7.37-23.07-10.34-5.16-1.94-11.39-1.36-16.26-3.71-10.76-5.19-23-5.56-33.59-11.16-1.94-1.03-4.98-.59-7.34-.07-3.95.86-7.7,2.7-11.66,3.48-7.46,1.47-13.18,5.59-18.14,10.99-1.18,1.29-1.85,3.05-3.27,5.47,7.16-3.71,13.23-6.6,19.04-9.95,4.54-2.62,9.74-3.07,13.97-1.6,7.91,2.75,16.81.81,24.13,5.61.12.08.34,0,.49.05,6.62,2.14,13.26,4.21,19.84,6.47,4.17,1.43,8.29,3.04,12.34,4.78,4.05,1.74,8.09,3.58,11.94,5.72,2.51,1.39,4.63,3.47,7.04,5.09,6.15,4.14,12.69,7.77,18.46,12.38,7.74,6.19,13.97,14.23,23.4,18.32,4.19,1.82,6.6,5.56,9.43,9.01,3.29,4.01,7.69,7.1,11.47,10.73,3.5,3.36,7.1,6.67,10.2,10.39,9.36,11.27,19.88,20.09,35.58,20.68,5.39.2,10.4-.47,15.48-1.88,5.85-1.62,11.97-4.88,17.57-4.2,11.15,1.36,21.36,6.28,29.56,14.48.75.75,1.37,1.65,2.12,2.61,5.98,3.87,12.48,8.84,14.93,15.28.03,0,.07,0,.1-.01.78,1.28,1.39,1.92,1.6,2.67,1.83,6.6,6.55,9.75,12.92,10.99.65.13,1.28.32,1.92.44,5.82,1,11.63,2.11,17.48,2.92,3.18.44,5.76-.32,8.33-3.05,3.63-3.84,4.79-8.1,4.79-13.39,1.95-.81,3.82-1.95,5.85-2.37,7.4-1.55,14.53-2.78,22.37-.39,9,2.74,17.92,5.44,26.15,9.98,4.5,2.48,9.07,4.71,13.28,7.97,5.57,4.31,12.46,6.92,18.78,10.26.69.37,1.4.7,2.09,1.06,7.23,3.8,14.84,7.04,21.6,11.56,8.01,5.36,15.3,11.8,22.89,17.8,6.71,5.3,13.47,10.55,20.09,15.97,11.47,9.41,22.28,19.53,32.44,30.35,2.79,2.97,6.29,5.42,8.57,8.72,6.13,8.91,11.78,18.15,17.63,27.25,1.28,2,2.61,3.97,3.92,5.95.36-.15.72-.29,1.08-.44,0-3.15-1.22-6.13-2.74-8.82-3.06-5.43-6.62-10.58-9.69-16-2.01-3.55-2.91-7.88-5.4-10.99-7.67-9.55-15.86-18.68-23.85-27.97-.21-.25-.53-.4-.78-.62-7.42-6.22-14.89-12.39-22.25-18.67-5.36-4.56-10.56-9.31-15.88-13.91-7.39-6.39-15.74-11.5-22.85-18.39-5.81-5.63-13.31-9.52-20.12-14.09-6.2-4.16-13.22-6.36-20.21-8.83-6.77-2.39-12.92-6.51-19.62-9.16-8.99-3.56-18.26-6.42-27.39-9.61-1.7-.59-3.73-1.01-4.1-2.27-9.95.21-18.5,7.57-28.28,9.18,0,.02.02.04.02.07-3.44,2.34-6.74,4.94-10.36,6.96-4.03,2.24-6.01,1.53-8.73-2.2-.67-.92-1.42-1.79-2.49-3.13.02,0,.03-.01.05-.02-4.1-3.5-8.04-8.2-7.34-12.94-.16.01-.32.02-.49.04-.12-1.6-.51-2.68-.2-3.48,2.22-5.79,5.28-11.09,10.35-14.87,1.11-.83,2.75-1.3,4.16-1.34,6-.14,12-.09,18,0,1.26.02,2.51.55,3.86.86,1.01-1.27,1.92-2.41,2.49-3.13,8.42-1.18,16.39-1.98,24.22-3.49,6.59-1.27,13.02-3.42,19.54-5.1,4.3-1.1,8.61-2.18,12.96-3.02,2.33-.45,4.82-.8,7.12-.45,5.73.88,11.32,1.93,17.18.4,2.36-.61,5.09.22,7.65.42,5.76.43,11.51.9,17.27,1.3,2.05.14,4.25-.35,6.15.23,11.69,3.55,21.35,10.51,29.19,19.57,3.53,4.07,7.51,6.96,12.04,9.19,10.19,5.02,21.41,6.72,32.46,7.89,13.34,1.42,26.29,4.42,38.97,8.22,10.92,3.27,21.4,8.23,31.73,13.15,17.13,8.15,31,21.11,45.87,32.53,6.1,4.68,10.93,11.01,16.36,16.58,2.12,2.17,4.28,4.29,6.42,6.43.42-.37.84-.74,1.26-1.11-3.19-4.24-6.05-8.78-9.64-12.66Z"/><path class="cls-1" d="m176.43,553.12c-.95-2.47-1.89-4.84-2.76-7.23-2.87-7.94-5.13-16.06-2.18-24.4,1.76-5,1.22-10.1-.1-14.54-1.17-3.94-5.11-7.1-7.98-10.47-1.79-2.11-3.76-4.1-5.84-5.93-3.4-2.97-6.84-5.92-10.48-8.57-2.52-1.84-5.46-3.1-8.14-4.73-9.18-5.58-27.78-2.46-33.29,9.43-3.88,8.36-6.6,16.19-4.62,25.3.18.85-.4,1.89-.71,2.82-.26.78-1.01,1.58-.91,2.28.61,4.44.84,9.03,2.23,13.24,3.2,9.71,7.55,18.94,13.53,27.33,3.42,4.8,6.38,9.97,10.12,14.5,6.88,8.33,14.25,16.25,21.29,24.45,3.01,3.5,5.58,7.37,8.58,10.87,6.16,7.18,8.86,16.67,15.74,23.34,4.83,4.67,9.82,9.19,14.41,14.08,3.89,4.14,8.81,7.5,10.85,13.18.41,1.15.82,2.31,1.43,4.01-4.56-.35-6.19-3.59-8.14-5.91-4.67-5.56-9.76-10.34-16.16-13.99-3.39-1.94-5.88-5.49-8.72-8.36-1.71-1.73-3.38-3.51-4.97-5.35-1.61-1.87-3.64-3.62-4.56-5.81-4.86-11.52-13.43-20.13-21.91-28.86-1.43-1.47-2.65-3.16-3.83-4.85-4.75-6.76-12.28-10.39-17.93-16.01-3.75-3.73-6.66-8.42-7.93-14.24-1.22-5.65-4.03-11.22-7.21-16.13-4.43-6.82-7.15-13.75-7.72-21.99-.34-4.98-2.79-9.8-1.03-15,.13-.38-.8-1.02-.88-1.59-.3-2.22-1.25-4.78-.51-6.64,2.39-6.05,5.44-11.83,8.18-17.75.62-1.33,1.25-2.74,1.43-4.17.59-4.59,3.73-8.88,8.06-9.52,10.6-1.58,21.24-3.52,31.99-1.28,1.71.36,3.49.95,4.93,1.9,7.57,4.99,15.42,9.51,22.12,15.86,3.15,2.98,7.15,6.18,12.69,5.59-.67-6.72-.76-13.39-5.32-19.22-2.45-3.14-3.74-7.18-5.64-10.77-.45-.86-1.12-1.71-1.9-2.27-5.99-4.34-8.02-10.92-10.49-17.44-2.06-5.46-4.84-10.72-7.95-15.67-1.38-2.2-4.68-3.09-6.57-5.09-7.62-8.04-14.33-16.81-20.85-25.8-5.9-8.14-8.73-17.36-12.02-26.55-2.6-7.25-6.76-13.37-12.26-19.14-7.64-8-16.34-13.79-26.41-17.53-4.85-1.8-10.21-3.44-15.68-1.21-1.07.44-2.51.14-3.75-.06-3.86-.62-7.7-1.42-11.56-2.02-7.12-1.1-13.58,2.38-16.94,8.91-1.05,2.05-2.26,4.03-3.5,5.98-3.46,5.39-3.59,10.86-.25,16.27,5.87,9.53,11.93,18.96,17.79,28.5,3.53,5.75,6.76,11.68,10.26,17.44,6.32,10.41,12.65,20.81,19.17,31.08,1.76,2.77,4.29,5.03,6.35,7.62.78.98,1.25,2.22,2.37,4.28-1.94-.5-3.34-.42-3.83-1.05-5.82-7.54-11.49-15.21-17.25-22.8-1.39-1.83-2.71-4.01-4.59-5.11-3.77-2.2-5.02-5.94-6.88-9.36-3.12-5.77-5.8-11.83-9.44-17.25-5.56-8.29-11.85-16.08-17.68-24.2-1.22-1.7-1.88-3.83-2.67-5.82-2.48-6.23-4.8-12.52-7.39-18.7-1-2.38-.87-4.15.46-6.47,1.42-2.47,1.84-5.52,2.68-8.31.28-.92.24-2.28.85-2.71,3.8-2.72,7.66-5.38,11.69-7.75,2.24-1.32,4.79-2.53,7.32-2.86,3.83-.49,7.77,0,11.65-.22,4.9-.28,9.67-.16,14.52.99,12.33,2.94,24.69,5.57,35.59,12.66,4.75,3.09,9.98,5.46,15.11,7.92,3.11,1.48,7.79-2.14,8.15-6.56.83-10.08.14-19.53-7.41-27.78-5.6-6.13-9.2-14.06-14.64-20.37-3.16-3.67-5.72-7.21-6.86-11.84-1.11-4.53-1.99-8.94.51-13.45.8-1.45.64-3.6.45-5.38-.43-4.04,1.62-6.83,3.98-9.74,3.99-4.91,9.72-6.34,15.24-8.26.6-.21,1.38-.25,1.98-.07,9.68,2.89,20.36,3.63,27.23,12.62.51.67,1.55,1.02,2.41,1.33,5.45,1.95,9.57,5.5,12.79,10.24,3.97,5.84,8.24,11.48,11.96,17.47,3.35,5.39,5.45,11.67,9.31,16.6,7.88,10.08,16.58,19.51,24.94,29.22,2,2.33,3.71,4.97,5.99,6.97,2.09,1.84,4.6,3.64,7.22,4.35,4.47,1.2,6.75,4.72,9.08,7.83,8.14,10.88,15.66,22.22,23.8,33.1,2.66,3.55,6.79,5.96,9.73,9.34,3.91,4.49,7.33,9.41,10.91,14.18.54.72.79,1.64.79,2.83-3.48-.71-5.44-3.24-7.26-5.92-.54-.8-.77-1.9-1.46-2.5-4.84-4.16-9.97-8-14.58-12.38-3.53-3.36-6.51-7.32-9.61-11.11-4.5-5.48-8.77-11.15-13.39-16.52-2.09-2.44-4.66-4.52-7.22-6.5-5.2-4.03-10.69-7.69-15.78-11.86-4.55-3.72-8.67-7.96-13.04-11.9-6.54-5.9-9.43-14.21-14.23-21.23-6.08-8.9-11.04-18.65-18.83-26.33-.7-.69-1.53-1.48-1.75-2.36-1.48-5.92-6.47-8.7-10.86-11.77-5.34-3.74-11.19-6.75-16.75-10.18-2.5-1.54-4.76-2.49-7.78-1.01-1.84.9-4.16.81-7.32,1.34-1.12,3.87-2.4,8.31-3.79,13.14,2.12,5.46,4.08,11.5,6.78,17.19,2.39,5.04,5.58,9.69,8.43,14.51,1.55,2.62,3.47,5.08,4.61,7.87,4.04,9.9,8.59,19.75,7.84,30.85-.28,4.19-1.47,8.11-3.84,11.83-1.27,1.99-1.2,5.03-1.19,7.6,0,4.34-.84,8.9,2.24,12.77.48.6.77,1.51.79,2.29.24,8.9,5.69,15.63,9.64,22.95,2.65,4.91,5.59,9.68,8.68,14.32,2.38,3.56,4.95,7.06,7.9,10.15,2.53,2.65,6.06,3.08,9.61,2.37,2.33-8.76,6.15-11.06,16.54-9.41,7.1,1.12,13.93,3.86,21.01,5.15,3.9.71,5.37,3.76,7.24,6.03,4.27,5.16,7.54,11.14,11.53,16.54,4.23,5.72,8.59,11.39,13.35,16.67,5.03,5.59,10.52,10.77,15.96,15.97,1.64,1.56,3.87,2.48,5.7,3.87,4.78,3.62,10.07,6.8,14.06,11.16,4.71,5.14,8.57,11.16,12.23,17.15,2.6,4.25,4.77,8.92,6.25,13.68,2.57,8.24,9.08,13.72,13.69,20.49,4.22,6.21,10.01,11.37,15.22,16.88,6.11,6.45,12.42,12.71,18.47,19.21,1.63,1.75,2.52,4.18,3.93,6.16,4.22,5.96,8.52,11.86,12.8,17.79-.26.33-.52.65-.78.98-.83-.4-1.89-.6-2.44-1.24-5.72-6.61-11.19-13.43-17.06-19.9-4.2-4.62-8.93-8.76-13.37-13.17-8.03-7.98-16.22-15.8-23.94-24.07-6.46-6.92-12.39-14.34-18.46-21.62-1.12-1.35-1.75-3.11-2.63-4.66-1.66-2.96-3.32-5.92-5.01-8.86-.24-.42-.81-.68-.99-1.12-4.96-12.3-17.17-16.56-26.45-24.1-4.17-3.39-7.66-7.63-11.34-11.6-2.57-2.78-4.94-5.76-7.38-8.67-.52-.62-1.07-1.26-1.41-1.99-3.36-7.14-8.76-12.56-14.48-17.8-2.3-2.11-4.23-4.66-6.08-7.2-4.49-6.17-11.2-7.35-17.94-7.34-1.99,0-4.69,3.09-5.78,5.38-1.61,3.39-3.04,7.03-1.15,11.24,2.42,5.37,3.58,11.33,6.18,16.59,2.67,5.4,6.51,10.21,9.66,15.4,4.33,7.13,10.96,12.67,14.11,20.6,1.67,4.21,1.22,5.88-2.6,8.81-1.18.91-2.35,1.83-3.53,2.73-3.77,2.87-7.31,5.2-7.3,11.3,0,4.62-.07,9.27.24,13.92.25,3.7.04,7.47.67,11.09,1.44,8.32,6.26,15.17,10.93,21.85,4.99,7.13,10.94,13.58,16.23,20.52,4.96,6.5,9.34,13.46,14.47,19.82,3.9,4.84,8.53,9.1,12.91,13.55,4.28,4.35,8.99,8.33,12.86,13.01,3.3,3.99,5.46,8.9,8.5,13.13,4.29,5.98,8.98,11.66,13.41,17.55,7.93,10.55,15.81,21.13,23.6,31.78.72.99.65,2.56.95,3.86-.55.28-1.09.56-1.64.84-4.76-5.54-9.53-11.07-14.26-16.63-5.97-7.01-11.85-14.09-17.87-21.05-5.11-5.91-10.19-11.85-15.57-17.51-6.6-6.94-13.61-13.49-20.23-20.41-2.75-2.87-4.89-6.32-7.44-9.4-5.12-6.19-11.09-11.83-15.31-18.57-4.66-7.46-12.67-11.47-17.22-18.82-2.41-3.88-5.22-7.52-7.93-11.2-1.5-2.04-3.19-3.95-4.65-5.75Z"/><path class="cls-1" d="m1339.67,299.52c-1.11-4.04-2.46-8.12-3.32-12.3-1.45-7.01-6.33-11.86-10.62-16.96-6.76-8.02-10.59-17.15-13.11-27.24-2.4-9.61-6.02-18.74-13.45-26.07-5.62-5.54-10.33-12.01-15.53-17.99-1.28-1.47-2.76-2.86-4.39-3.92-11.32-7.39-22.35-15.1-30.47-26.22-3.11-4.26-6.27-8.49-9.64-12.54-1.45-1.75-3.51-2.98-5.28-4.48-6.91-5.84-13.51-12.08-20.8-17.4-5.25-3.83-11.38-6.45-17.13-9.59-3.73-2.04-7.48-4.05-11.22-6.07-1.46-.78-2.89-1.61-4.39-2.31-9.7-4.5-19.26-9.32-29.17-13.29-5.26-2.11-11.11-2.72-16.7-4.02-3.69-.86-7.38-1.76-11.06-2.64l.23-1.59c1.63.15,3.26.37,4.9.45,4.54.24,9.23-.2,13.6.78,5.88,1.32,11.55,3.61,17.24,5.69,9.82,3.58,19.78,6.88,29.32,11.11,9.05,4.02,19.52,5.1,26.73,13.2,2.77,3.11,7.03,4.84,10.3,7.58,4.39,3.68,8.56,7.65,12.67,11.65,6.09,5.94,12.73,11.49,17.88,18.17,5.83,7.56,13.48,12.82,20.92,18.08,7.34,5.19,14.26,10.64,20.52,17.02,8.1,8.26,15.03,17.26,19.22,28.23,3.57,9.35,7.09,18.77,11.57,27.69,2.74,5.45,7.11,10.13,11.03,14.93,4.87,5.95,8.81,12.26,9.85,20.06.55,4.13,2.8,7.89,2.18,12.36-.18,1.31,1.57,3.39,2.97,4.31,3.76,2.46,7.96,4.26,11.72,6.73,7.68,5.04,16.81,5.67,25.26,7.28,8.64,1.64,17.9.98,26.93-1.13,8.11-1.9,10.12-9.34,8.24-15.93-.92-3.22-1.11-6.91-4.9-8.51-.26-.11-.52-.48-.59-.78-1.98-8.55-9.47-12.13-15.35-17.23-8.36-7.26-15.45-15.63-21.91-24.66-3.43-4.8-4.51-10.21-5.98-15.47-3.65-13.05-10.16-24.47-19.57-33.93-10.24-10.3-21.33-19.76-32.05-29.58-.12-.11-.33-.16-.4-.29-5.04-8.97-14.35-13.61-21.29-20.69-6.12-6.23-13.8-10.93-20.76-16.34-2.71-2.11-5.35-4.32-8.39-6.78.88-.45,1.61-1.08,1.87-.93,4.08,2.39,8.26,4.65,12.1,7.39,5.99,4.27,11.81,8.8,17.58,13.36,2.95,2.33,5.48,5.21,8.5,7.44,14.73,10.88,27.27,24.57,43.98,32.98,4.72,2.37,7.89,7.85,11.75,11.92,2.12,2.24,4.05,4.68,6.31,6.75,2.4,2.2,3.88,4.48,4.15,7.94.22,2.82,1.48,5.67,2.76,8.27,3.4,6.9,6.7,13.89,10.71,20.45,5.51,9.02,12.6,16.53,20.98,23.33,7.18,5.83,15.04,11.73,19.32,20.59.36.74,1.18,1.64,1,2.21-2.34,7.4,3.65,12.91,4.28,19.56.23,2.42-.8,5.03-1.57,7.45-.48,1.51-1.62,2.8-2.36,4.24-2.99,5.82-7.93,8.61-14.26,9.3-.33.04-.69-.07-1,.03-8.43,2.72-16.86.45-25.28-.01-1.46-.08-3.02-.27-4.31-.88-5.61-2.69-11.71-2.36-17.54-2.3-3.47.04-7.07,2.3-10.28,4.13-1.03.59-1.76,3.29-1.32,4.56,1.07,3.03,3.35,5.63,4.38,8.67,2.94,8.66,11.82,13.18,14.67,22.12,1.11,3.48,5.52,5.91,8.45,8.8,2.66,2.62,5.13,5.52,8.09,7.74,3.8,2.86,7.93,5.31,12.06,7.69,8.94,5.14,18.52,9.37,26.75,15.45,4.83,3.57,10.75,5.74,14.58,11.19,2.64,3.76,7.9,5.57,11.6,8.71,2.03,1.72,3.25,4.39,4.83,6.65.28.4.45.9.79,1.24,5.3,5.34,10.65,10.64,15.92,16.02,1.31,1.34,2.29,3.02,3.59,4.36,3.66,3.77,7.3,7.58,11.16,11.14,3.39,3.12,7.06,5.94,10.61,8.88,5.04,4.17,9.85,8.69,15.2,12.41,7.37,5.13,14.93,10.07,22.83,14.31,5.45,2.93,11.6,4.54,17.45,6.71.92.34,1.99.34,2.83.78,5.53,2.91,11.25,1.26,16.89.73,2.6-.24,5.17-.91,7.7-1.57,1-.26,1.87-1.03,2.79-1.58,1.27-.75,2.61-2.25,3.78-2.12,4.46.49,7.63-1.95,9.53-5.03,2.18-3.53,3.97-7.85,4.22-11.92.47-7.77-1.88-14.86-7.91-20.51-6.41-6-13.12-11.51-20.14-16.83-5.68-4.3-9.54-10.94-12.44-17.79-1-2.37-2.55-4.51-3.88-6.74-6.05-10.14-12.13-20.27-18.15-30.43-.27-.45-.03-1.2-.03-2.47,1.27.7,2.43.93,2.73,1.57,5.33,11.37,14.04,20.32,21.39,30.24,1.17,1.58,2.33,3.23,3.16,5,4.94,10.57,12.58,18.66,22.02,25.43,5.39,3.86,11.37,7.85,14.81,13.24,5.75,9,8.47,19.24,4.24,30.18-2.57,6.67-7.43,10.71-13.63,13.46-5.26,2.33-10.53,4.78-16.01,6.45-3.34,1.02-7.19,1.31-10.66.84-20.21-2.73-38.45-11.37-56.61-19.92-5.37-2.53-9.93-6.98-14.5-10.97-7.31-6.39-14.66-12.8-21.36-19.81-5.94-6.2-10.88-13.35-16.54-19.83-3.57-4.09-7.6-7.77-11.52-11.54-5.56-5.35-11.16-10.65-16.84-15.86-1.56-1.43-3.49-2.47-5.25-3.7-10-6.96-21.15-11.9-31.63-17.99-7.11-4.13-13.84-8.95-20.41-13.9-2.41-1.81-3.82-4.92-5.77-7.37-1.91-2.4-3.66-5-5.92-7.03-6.54-5.88-11.94-12.63-16.76-19.97-4.48-6.82-10-13.03-13.92-20.14-3.13-5.68-7.65-9.19-12.77-12.46-4.54-2.9-9.1-4.78-14.8-3.35-2.82.71-6.05-.35-9.09-.3-4.1.06-8.25.9-12.3.52-5.29-.49-10.51-1.76-15.74-2.82-4.7-.95-7.15-4.91-10.04-8.11-3.08-3.42-5.57-7.38-8.55-10.9-3.16-3.74-6.83-7.06-9.87-10.89-5.94-7.5-12.68-14.18-20.38-19.75-7.33-5.3-15.2-9.84-22.67-14.95-4.49-3.06-8.76-6.46-12.98-9.9-3.33-2.72-6.73-5.47-9.55-8.68-2.79-3.18-5.21-6.78-7.22-10.51-6.35-11.76-14.54-21.85-24.26-31.12-10.92-10.42-23.15-18.75-36.33-25.57-9.44-4.89-19.73-8.21-29.82-11.75-6.48-2.27-13.26-3.67-19.91-5.45-.64-.17-1.33-.56-1.91-.44-9.99,2.09-20.4,1.87-29.74,7.38-5.83,3.44-11.59,6.55-15.92,11.93-.74.92-2.84.74-4.31,1.08-.17-1.35-1-3.19-.42-3.96,5.71-7.58,10.57-16.16,20.12-19.74,5.51-2.07,11.15-3.81,16.81-5.42,2.17-.61,4.6-.79,6.85-.55,7.35.79,14.69,1.73,21.99,2.88,3.06.48,6.03,1.58,9,2.52,3.26,1.04,6.46,2.29,9.72,3.34,2.48.8,5.21,1.05,7.5,2.19,8.54,4.24,17.14,8.41,25.34,13.25,8.16,4.83,16.14,10.08,23.65,15.86,4.2,3.24,7.28,7.94,10.85,11.99.44.5.8,1.08,1.28,1.52,6.01,5.54,10.36,12.36,15.28,18.79,7.07,9.25,14.33,18.58,24.01,25.53,8.77,6.3,17.13,13.18,26.11,19.16,10.98,7.31,20.58,16.11,29.07,26.02,2.58,3.01,4.48,6.64,7.95,8.82,2.15,1.35,4.59,2.25,6.73,3.63,3.59,2.32,6.89,5.13,10.6,7.2,2.25,1.25,5.03,1.62,7.62,2.16,3.67.76,7.36,1.68,11.07,1.87,6.15.31,12.33.02,18.49.12,1.79.03,3.62.32,5.34.81,5.46,1.55,6.82,1.09,10.81-4.09Z"/><path class="cls-1" d="m104.1,751.11c-9.69-7.8-17.07-17.55-23.87-27.87-5.68-8.63-11.79-16.97-17.61-25.51-1.47-2.15-2.35-4.7-3.83-6.84-2.12-3.06-4.8-5.76-6.77-8.9-4.87-7.73-9.15-15.72-6.79-25.95,5.9-5.3,12.25-11.38,20.55-13.5,6.4-1.63,13.36-1.35,20.08-1.34,4.58,0,9.15,1.02,13.72,1.57.99.12,2.06-.06,2.97.25,8.35,2.88,16.68,5.83,24.99,8.82.7.25,1.32.85,1.87,1.4,6.79,6.78,13.44,13.71,20.42,20.28,2.35,2.21,5.45,3.71,8.4,5.16,3.29,1.62,5.39,3.92,7.08,7.24,1.51,2.96,4.32,5.24,6.5,7.87,2.2,2.67,4.06,5.67,6.54,8.03,3.3,3.14,6.92,6,10.69,8.55,1.02.69,3.77.43,4.58-.44,3.88-4.17,9.45-3.96,14.1-6.03,1.75-.78,3.6-1.45,5.48-1.83,1.68-.34,3.54-.56,5.19-.21,3.8.8,7.44,1.51,11.49,1.28,3.35-.2,6.89,1.84,10.26,3.11,8.3,3.13,13.64,9.51,18.77,16.45,3.28,4.44,7.69,8.12,11.91,11.79,7.06,6.14,15.13,10.71,23.68,14.55,2.94,1.32,5.23,4.02,8.02,5.77,5.29,3.32,10.87,6.2,16.04,9.68,4.92,3.31,8.27,7.87,11.04,13.36,3.23,6.39,8.01,12.04,12.48,17.73,3.01,3.83,6.49,7.32,10.01,10.71,4.1,3.95,8.28,7.88,12.79,11.34,4.14,3.18,8.89,5.55,13.15,8.6,4.94,3.54,9.7,7.34,14.39,11.2,4.91,4.04,10.06,7.91,14.36,12.54,5.26,5.66,9.78,12.01,14.53,18.14.61.79.64,2.02,1.04,3.38-.96-.09-1.55.04-1.81-.19-11.4-10.3-22.77-20.63-34.16-30.95-4.32-3.91-9.46-6.18-14.82-8.44-5.32-2.25-9.86-6.32-14.71-9.65-.79-.54-1.27-1.57-2.09-2.02-10.16-5.49-16.62-14.35-22.47-23.92-3.43-5.62-6.77-11.56-11.37-16.12-7.79-7.73-16.01-15.11-26.76-19.04-4.36-1.6-8.2-4.73-12.13-7.39-6.66-4.51-13.23-9.15-19.75-13.86-1.59-1.15-2.94-2.69-4.18-4.24-4.1-5.1-7.58-10.84-12.3-15.27-4.2-3.94-9.11-8.14-16.13-4.59-2.05,1.04-5.1-.13-7.55.39-4.62.98-8.74,2.84-10.9,7.67-.76,1.69-2.52,2.92-2.9,4.4,0,4.66-.77,9.49.22,13.93.95,4.21,3.45,8.19,5.81,11.94,2.67,4.25,4.84,8.36,4.05,13.66-.23,1.57.58,3.7,1.63,4.98,4.72,5.71,9.59,11.31,14.61,16.75,5.43,5.87,11.06,11.55,16.65,17.27,7.94,8.13,15.87,16.26,23.91,24.28,1.36,1.36,3.36,2.06,4.96,3.22,5.33,3.88,10.73,7.69,15.84,11.84,1.82,1.48,2.85,3.92,4.37,5.81,3.18,3.94,6.48,7.8,9.69,11.72,1.55,1.89,3.05,3.81,4.52,5.76,6.49,8.63,14.1,16.01,22.95,22.3,8.57,6.09,16.49,13.1,24.81,19.56,10.68,8.29,18,19.36,25.88,30.07,5.24,7.12,11.53,13.47,17.33,20.19,5.86,6.79,13.47,11.45,20.68,16.79-.9,3.33-2.51,3.28-5.12,1.84-10.26-5.66-19-13.21-27.28-21.37-11.71-11.53-23.41-23.08-33.3-36.29-.81-1.08-2.16-1.78-3.32-2.57-1.09-.75-2.29-1.33-3.36-2.1-5.98-4.28-11.96-8.56-17.89-12.91-1.69-1.24-3.22-2.71-4.84-4.04-5.95-4.89-12.5-9.22-17.68-14.81-4.93-5.32-8.94-11.68-12.42-18.09-4.31-7.94-9.24-14.93-16.82-20.19-12.54-8.71-25.68-16.72-36.31-27.93-2.47-2.61-4.98-5.29-6.83-8.33-2.02-3.3-4.9-2.49-7.51-2.15-2.27.29-4.5,1.47-4.4,4.5.01.32-.08.69-.25.95-5.66,8.52-1.65,16.93.09,25.45,1.28,6.24,4.2,11.62,7.18,17.12,1.26,2.34.64,5.65,1.09,8.49.3,1.91.36,4.53,1.59,5.52,6.49,5.24,9.18,13.2,14.37,19.33,6.77,7.99,13.06,16.39,20.02,24.21,4.44,4.99,9.95,9.03,14.52,13.92,4.3,4.6,7.94,9.82,12,14.66,2.95,3.52,6.08,6.88,9.18,10.27,4.42,4.83,8.79,9.69,13.35,14.39,2.68,2.76,5.6,5.3,8.54,7.78,1.65,1.39,3.04,2.67,2.24,4.17,13.49,11.3,26.8,22.44,40.06,33.63.33.28.11,1.2.14,1.58-10.43-7.53-21.02-14.76-31.11-22.62-7.23-5.64-13.88-12.06-20.63-18.29-6.86-6.33-13.63-12.78-20.27-19.35-4.44-4.39-8.47-9.18-12.9-13.57-1.94-1.92-4.57-3.13-6.58-5-5.09-4.75-10.45-9.23-13.82-15.63-1.54-2.92-4.17-5.4-6.72-7.6-4.31-3.72-9.1-6.88-13.37-10.64-1.89-1.67-3.02-4.21-4.45-6.39-7.05-10.72-14.12-21.42-21.08-32.19-1.06-1.64-1.85-3.56-2.28-5.46-1.05-4.62-3.29-8.47-6.37-12.04-3.97-4.6-3.86-10.47-.13-15.29.49-.63,1.24-1.45,1.15-2.09-.68-4.7,2.64-9.64-1.27-14.26-1.32-1.56-1.65-4.36-1.63-6.59.07-7.02-2.94-13.03-5.5-19.26-2.06-5.01-3.22-10.44-5.69-15.21-1.67-3.24-4.75-5.84-7.48-8.44-2.13-2.02-4.58-3.78-7.12-5.28-1.54-.91-4.16-2.07-5.13-1.4-2.18,1.49-3.94.71-6.02.52-3.02-.27-6.13-.35-9.13.04-8.8,1.15-17.56,2.53-26.33,3.9-5.78.9-11.9.72-16.75,4.82-1.81,1.53-3.57,3.12-5.21,4.82-1.11,1.15-2.21,2.41-2.91,3.83-1.55,3.17-2.88,6.44-4.21,9.71-1.39,3.4-1.94,6.71,1.37,9.51.42.36.42,1.22.63,1.84,2.28,6.61,7.46,11.08,11.6,16.38,6.05,7.73,11.15,16.2,16.7,24.33,1.11,1.63,2.32,3.2,3.6,4.7,4.77,5.64,9.78,11.08,12.38,18.23.77,2.1,2.12,4.06,3.49,5.87,4.54,5.99,9.04,12.03,13.87,17.79,6.47,7.71,13.02,15.38,19.95,22.67,4.31,4.54,9.49,8.23,14.1,12.5,4.97,4.61,9.7,9.48,14.61,14.16,2.57,2.45,5.29,4.74,7.95,7.1-.23.48-.45.97-.68,1.45-1-.22-2.28-.11-2.96-.7-5.83-5.02-11.42-10.33-17.34-15.24-4.9-4.07-10.37-7.46-15.2-11.6-7.15-6.13-14.4-12.24-20.77-19.14-6.46-6.99-12.02-14.83-17.77-22.46-5.23-6.93-10.29-14-15.18-21.18-1.42-2.08-1.66-4.95-2.99-7.12-1.69-2.74-3.79-5.26-5.97-7.65-5.5-6.04-11.36-11.77-16.67-17.97-4.8-5.6-9.21-11.56-13.54-17.55-4.51-6.23-4.67-13.69-4.36-20.87.13-2.9,2.42-6.21,4.63-8.42,5.95-5.94,11.91-12.08,18.8-16.79,4.09-2.8,9.88-3.33,15.01-4.32,4.13-.8,8.47-.46,12.62-1.17,4.6-.79,9.07-2.28,13.63-3.34,2.71-.63,5.5-.93,8.21-1.56,6.37-1.48,9.6-6.59,8.8-13.02-1.32-10.54-5.87-19.79-11.54-28.45-2.08-3.18-5.44-5.64-8.54-8.03-8.4-6.48-17.08-12.6-25.44-19.14-6.65-5.2-12.89-10.92-19.53-16.13-1.54-1.21-3.99-1.26-6.01-1.87-4.06-1.22-8.46-1.82-12.08-3.84-5.53-3.08-10.83-4.64-16.97-2.33-1.16.44-2.83.48-3.93-.03-3.41-1.57-5.69.05-7.93,2.22-2.95,2.86-6.2,5.47-8.78,8.63-3.44,4.2-2.88,6.87.16,11.52,2.98,4.55,5.57,9.39,7.91,14.3,3,6.29,7.03,11.67,12.3,16.19.62.53,1.36,1.06,1.68,1.76,2.45,5.33,4.57,10.83,7.28,16.02,2.19,4.2,4.92,8.14,7.68,12.01,2.61,3.66,5.64,7.02,8.32,10.63.94,1.26,1.41,2.87,2.09,4.32-.45.19-.9.37-1.35.56Z"/><path class="cls-1" d="m233.77,134.11c-6.29,6.41-13.25,9.99-21.01,11.9-3.49.86-7.32.35-10.79,1.26-4.57,1.19-8.99,3.02-13.37,4.83-10.31,4.25-16.83,12.05-20.63,22.37-1.13,3.07-2.47,6.09-3.97,9-3.71,7.22-2.68,14.85-1.57,22.27,1.84,12.35,6.03,24.15,10.78,35.61,2.59,6.25,7.36,11.56,10.58,17.59,3.26,6.1,8.09,10.76,12.73,15.65,1.46,1.54,3.1,2.91,4.51,4.48,2.95,3.27,5.75,6.66,8.71,9.92,4.58,5.05,9.27,10.02,13.85,15.07.98,1.08,1.72,2.39,2.53,3.55-2.15,2.9-3.99,3.08-5.21.25-1.95-4.53-5.38-7.2-9.53-9.51-2.39-1.33-4.26-3.61-6.32-5.5-3.11-2.86-6.17-5.77-9.27-8.64-.84-.78-1.94-1.34-2.61-2.23-4.32-5.78-8.55-11.63-12.82-17.45-5.2-7.1-10.44-14.18-15.61-21.31-3.75-5.17-7.7-10.24-11.03-15.67-1.9-3.1-3.57-6.78-3.9-10.33-.83-8.87-4.62-17.41-2.36-26.71,1.18-4.86-.24-10.21,2.59-14.98.59-.99-.52-3-.7-3.87,5.08-6.13,9.83-11.86,15.01-18.11,2.98.76,4.84-1.53,6.77-4.48,3.7-5.66,7.94-10.71,15.53-11.49,4.28-.44,8.6-2.92,12.66-2.45,4.32.5,7.71-.55,11.23-2.28,1.24-.61,2.36-1.57,3.35-2.55,2.81-2.78,5.42-5.79,8.34-8.44,1.14-1.04,2.91-1.94,4.4-1.96,12.73-.14,25.52-1.02,37.81,3.79,10.99,4.31,22.5,7.58,32.27,14.41,6.86,4.79,14.5,7.4,22.24,9.96,3.87,1.28,7.78,2.52,11.76,3.28,1.54.29,3.42-.61,5.01-1.3,2.04-.88,3.93-2.08,6.79-3.63-.05-.7.06-2.46-.33-4.11-.7-3.03-1.61-6.02-2.6-8.96-.3-.88-1.01-1.75-1.76-2.34-4.23-3.36-8.66-6.48-12.75-10-2.28-1.96-3.93-4.63-6.06-6.79-5.31-5.38-10.7-10.68-16.13-15.94-6.71-6.51-13.56-12.88-20.24-19.41-8.48-8.29-17.15-16.28-28.45-20.71-9.48-3.72-18.82-7.79-28.41-11.18-4.43-1.57-9.27-2.35-13.99-2.69-6.2-.45-12.45-.11-18.68-.11.12.4.24.81.36,1.21-1.97.95-3.93,1.92-5.9,2.85-1.34.64-2.65,1.55-4.07,1.77-2.68.41-5.46.77-8.14.51-6.15-.61-12.26-1.61-18.38-2.46-.32-.04-.68-.05-.96-.2-6.47-3.5-13.89-3.96-20.6-6.28-5.87-2.03-10.44-.31-15.2,1.34-4.55,1.57-8.81,3.68-13.82,3.37-1.11-.07-2.28.99-3.78,1.7-.69-.35-1.7-.86-3.55-1.78-2.29,3.71-4.62,7.5-6.97,11.27-1.9,3.05-3.91,6.03-5.73,9.12-.64,1.08-1.34,2.5-1.16,3.63,1.21,7.81-3.57,14.16-4.51,21.41l-1.39.06c-.18-1.73-.6-3.47-.48-5.17.27-3.83.33-7.77,1.32-11.44,1.82-6.73,3.31-13.82,6.68-19.77,3.72-6.56,9.1-12.31,14.39-17.79,1.67-1.73,5.38-1.53,8.18-2.1.93-.19,2.14.37,2.87-.04,6.44-3.66,13.65-3.79,20.66-4.1,4.32-.19,8.84.77,13.02,2.05,4.29,1.31,8.41,2.29,12.98,2.42,4.62.14,8.94.48,13.05-2.1,1.04-.65,2.48-.85,3.75-.92,7.38-.41,14.8-.15,21.95-2.74,1.91-.69,4.35-.55,6.41-.13,13.19,2.73,26.54,4.97,38.76,11.13,1.74.88,3.66,1.57,5.57,1.88,8.11,1.29,13.88,6.59,19.84,11.48,9.98,8.2,19.86,16.51,29.72,24.85,2.28,1.93,4.26,4.22,6.43,6.29,1.52,1.46,3.04,2.94,4.72,4.21,6.26,4.73,12.83,9.07,18.79,14.15,4.04,3.44,6.98,8.14,10.9,11.75,3.35,3.08,7.13,5.91,11.17,7.97,12.29,6.26,25.37,9.41,39.26,8.12,2.01-.19,3.97-1.27,5.87-2.12,1.67-.75,3.22-1.78,5.79-3.23,2.15-5.23.43-10.99-3-16.2-5.74-8.7-13.46-15.64-21.15-22.6-2.96-2.68-5.19-6.17-7.68-9.34-3.44-4.38-6.98-8.7-10.16-13.26-3.66-5.24-6.72-10.91-10.52-16.04-2.62-3.53-5.75-6.83-9.19-9.56-7.62-6.04-15.6-11.58-25.08-14.5-1.48-.46-2.75-1.64-4.95-3,1.83-.45,2.79-1.02,3.53-.82,5.66,1.58,11.58,2.69,16.85,5.16,6.5,3.06,13.24,6.45,18.46,11.23,8.53,7.82,16.76,16.26,23.56,25.57,8.84,12.11,19.76,21.94,30.43,32.17,3.43,3.29,6.55,7.09,9.02,11.14,1.72,2.82,2.71,6.41,2.96,9.73.4,5.37,2.01,11-1.55,16.15-.37.53.8,2.77,1.78,3.49,6.13,4.45,12.43,8.67,18.63,13.03,1.44,1.01,2.7,2.28,4.06,3.43,7.32,6.19,16.03,8.53,25.34,9.83,4.12.57,7.97,2.94,12.01,4.3,2.15.72,4.46,1.55,6.65,1.44,6.08-.3,12.14-1.1,18.21-1.62,1.09-.09,2.24.16,3.33.39.94.2,2.15,1.13,2.72.81,4.17-2.33,6.98.66,10.39,2.08,7.44,3.08,15.04,5.91,23.35,5.42,1.15-.07,2.32-.15,3.43-.43,3.5-.88,6.98-1.85,10.76-2.87.93-3.46,2.08-7.72,3.17-11.73-1.25-3.27-2.34-6.52-3.74-9.64-.73-1.62-1.86-3.1-3.02-4.48-2.64-3.14-5.47-6.12-8.11-9.27-6.35-7.59-13.44-14.3-22.26-18.95-5.67-2.99-11.61-5.47-17.12-8.72-4.26-2.51-8.02-5.84-12.01-8.81.17-.32.34-.65.51-.97,1.1.37,2.41.48,3.25,1.16,4.9,3.97,10.89,5.04,16.67,6.93,4.6,1.5,8.75,4.48,12.99,6.99,2.81,1.66,5.51,3.54,8.09,5.53,2.43,1.88,4.66,4.02,6.95,6.08,1.43,1.29,2.61,3.03,4.26,3.9,6.8,3.61,11.51,9.58,17,14.66,1.23,1.14,1.56,3.24,2.38,4.86,1.84,3.64,3.51,7.4,5.65,10.87,3.21,5.21,3.46,10.69-.59,15.61-2.75,3.34-5.86,7.18-9.66,8.72-9.28,3.76-18.65,3.41-28.21-.87-5.74-2.57-11.92-5.77-19-3.52-1.69.54-4.02-1.42-6.09-1.51-6.1-.26-12.26.23-18.32-.34-4.68-.44-9.27-1.98-13.87-3.15-8.75-2.21-17.65-4.01-26.16-6.93-6.18-2.12-11.96-5.52-17.68-8.78-4.49-2.56-9-4.31-14.17-5.18-3.7-.62-7.24-2.89-10.53-4.94-2.77-1.72-5.29-2.08-8.42-1.38-2.52.56-5.37.77-7.86.21-8.27-1.88-16.18-.41-23.73,2.61-2.47.99-3.98,4.24-6.11,6.26-4.93,4.66-9.23,10.4-16.86,10.8-1.7.09-3.64.17-5.11-.5-8.09-3.72-15.99-7.83-24.11-11.49-7.46-3.37-15.19-6.14-22.65-9.53-5.39-2.45-10.6-5.32-15.73-8.27-5.43-3.12-11.04-4.18-17.33-3.72-7.35.54-14.78.13-21.83.13Z"/></svg>