<?xml version="1.0" encoding="UTF-8"?><svg id="Layer_1" xmlns="http://www.w3.org/2000/svg" viewBox="0 0 900.72 527.63"><defs><style>.cls-1{fill:#0c0c0c;stroke:#fff;stroke-miterlimit:10;stroke-width:.57px;}</style></defs><path class="cls-1" d="m552.99,101.36c1.4.22,2.74.24,3.93.67.95.34,1.72,1.18,2.62,1.85,1.19-.86,2.52-1.73,3.74-2.72,1.81-1.48,3.9-2.37,6.05-3.16,3.45-1.26,6.66-1,9.84,1.7-.65-1.25-1.13-2.16-1.44-2.76,0-1.63-.01-2.93,0-4.23.03-2.14,1.66-3.9,3.77-4.15.82-.1,1.62-.4,2.43-.4,1.05,0,2.17.02,3.12.4,1.73.69,3.45,1.32,4.63,3.08,1.95,2.91,1.83,5.64.11,8.5-.16.26-.28.56-.48.78-.25.28-.57.5-.84.73.04.71.08,1.31.12,2.02,1.68.84,3.37,1.69,5.01,2.52.63,1.19,1.29,2.31,1.82,3.48.49,1.09.7,2.18.39,3.47-.4,1.66-.69,3.25-2.71,4.32-1.17.14-2.74.33-4.44.53-1.41,1.51-2.92,3.12-4.25,4.53-1.71-.21-2.97-.36-4.23-.51-1.3-1.05-1.17-2.53-1.1-3.94.08-1.53.48-3,1.17-4.38.22-.44.28-.95.5-1.73-1.28.33-2.26.58-3.36.86-2.86-1.46-4.43-4.11-5.84-6.67.07-1.54,1.47-2.72.33-4.18-1.27-.5-2.54-.15-3.71.39-2.35,1.09-4.7,2.22-6.65,3.99-2.82,2.58-5.73,5.07-8.45,7.75-1.49,1.47-2.79,3.17-3.94,4.93-.76,1.17-1.11,2.61-1.9,4.58-.64.77-2.42.18-3.88,1.01-.64,1.6-1.33,3.33-2.21,5.51,1.04-.71,1.65-1.13,2.31-1.59,3.33.93,5.5,3,6.31,6.6.72.08,1.46.25,2.2.24,3.14-.07,6.23.34,9.31.88.6.1,1.22.09,1.83.12.38.02.85-.11,1.13.07,3.13,1.97,6.23.81,9.36.04.63-.15,1.34-.05,2,.05.52.08,1,.4,1.52.47,2.13.31,3.71,1.41,5.28,2.88,1.77,1.65,2.41,3.64,2.82,5.81.19,1.02.16,2.09.23,3.06.87.92,1.69,1.8,2.32,2.46-.88,3.82-2.16,7.17-4.15,10.42.79.56,1.44,1.02,2.21,1.57.58-.46,1.25-.77,1.61-1.3.8-1.2,1.94-1.55,3.26-1.84.79-.17,1.47-.25,2.2.06,1.11.47,2.2.38,3.32-.06,1.27-.5,2.64-.74,3.87-1.31,1.57-.73,3.07-1.64,4.54-2.57.38-.24.52-.85.84-1.41-1.09-.79-2.06-1.5-3.01-2.19-.35-1.13-.69-2.21-1.04-3.32.59-1.09,1.34-1.71,2.59-2.04,2.03-.55,3.96-1.45,6.07-2.25-1.13-1.6-1.92-3.09-1.95-4.94-.01-.95-.73-1.9-.71-2.83.05-1.88.4-3.75.61-5.62.01-.12-.11-.26-.21-.47-.71.06-1.44.11-2.18.19-.95.1-1.8-.17-2.64-.59-.78-.39-1.63-.63-2.41-1.01-1.8-.88-2.9-2.41-3.85-4.23.35-.61.72-1.25,1.04-1.81,3.35-.66,6.16-2.04,8.35-4.56,2.65-3.05,5.33-6.09,7.92-9.19.93-1.11,1.64-2.41,2.35-3.71,2.54-2.04,4.9-4.71,8.89-3.55.92.81,1.95,1.72,3.11,2.74v2.97c-.46.56-.85,1.03-1.3,1.59,2.1,1.56,2.35,3.78,2.35,5.87-1.37,2.18-2.54,4.21-3.88,6.13-1.69,2.42-3.54,4.74-5.3,7.12-.68.92-1.33,1.86-1.93,2.84-.87,1.44-1.85,5.01-1.88,6.66-.01.92,0,1.83.03,2.75.04,1.08,0,2.12-.71,3.05-.2.27-.16.72-.19.85,1.11,1.58,2.1,2.97,3.19,4.53,1.25-1.15,2.59-2.34,3.88-3.59,3.5-3.4,7-6.81,10.46-10.25,1.56-1.55,3.01-3.23,4.57-4.79.74-.74,1.64-1.33,2.48-1.97.59-.46,1.24-.86,1.79-1.37,2.01-1.85,3.99-3.75,6-5.6,1.13-1.05,2.12-2.18,2.77-3.61.25-.54.7-.99,1.11-1.56.25-1.57-1.1-2.72-1.33-4.34.38-3.2.48-6.65,4.19-8.84,2.2-.29,4.46.3,6.43,2.14,2.21,2.05,2.56,4.61,2.18,7.34-.52,3.78-2.21,7.17-4.41,10.18-1.6,2.19-3.74,4.03-5.8,5.85-2.16,1.91-4.53,3.57-6.76,5.4-.87.72-1.61,1.61-2.41,2.42-2.33,2.39-4.87,4.53-6.88,7.28-2.39,3.27-5.28,6.18-7.96,9.27.52,0,1.14.13,1.69-.02,2.3-.65,4.39-.01,6.31,1.12,2.8,1.65,5.16,3.72,6.22,7.01,1.08,3.32,2.45,6.55,3.6,9.86.29.83.43,1.8.3,2.66-.29,1.95-.79,3.86-1.21,5.79.21.49.41.98.61,1.45-.31.28-.58.53-.94.85.4.57.74,1.04,1.13,1.59-.41,1.03-.49,2.07-.12,3.26.34,1.12.82,1.88,1.85,2.41.52.27,1,.69,1.4,1.13.81.88,1.73,1.5,2.94,1.6,3.74-1.63,4.5-3.65,2.68-7.17.97-3.36,3.8-6.02,4.02-10.06.4-.35,1.03-.89,1.62-1.4,1.66.23,3.25.4,4.81.69,1.69.32,3.58,2.31,3.74,3.9.04.42-.12.91-.34,1.28-.25.44-.66.78-1.17,1.34,1.26.92,2.41,1.76,3.41,2.49,1.46,0,1.21-1.39,2.2-2.08.86.11,1.97.25,3.25.42.38-.64.93-1.3,1.21-2.06.53-1.49,1.39-2.53,2.94-2.71.46-.65.85-1.21,1.22-1.74,0-.56-.19-1.2.03-1.65.97-1.99,1.06-4.09,1.23-6.24.16-2.02.07-4.06.69-6.06.67-2.17.49-4.51,1.21-6.7,1.3-3.97,2.51-7.96,3.77-11.94.32-1.01.7-2.01,1.02-3.02.39-1.22.76-2.45,1.24-3.99-.28-.58-.72-1.46-1.31-2.67v-3.37c-.75-.78-1.59-.73-2.28-.53-2.48.7-4.82-.13-7.39-.44-2.95,1-6.03,2.3-9.63,2.21-1.01,1.37-2.11,2.83-3.15,4.32-.19.27-.16.7-.22,1.06-.42,2.81-1.95,4-5.03,2.96-1.39-.47-2.42-1.3-2.87-2.72-.42-1.36-1.62-2.45-1.36-4.24,1.28-1.38,2.74-2.79,4.01-4.37,3.31-4.1,6.65-8.16,9.1-12.88,1.12-2.15,2.64-4.1,3.98-6.14.38-.57.79-1.13,1.11-1.74.65-1.27,1.63-1.82,3.07-2.02,1.66-.23,2.63.49,3.4,1.74.48.77.9,1.59,1.39,2.47.25,1.33.03,2.6-1.05,3.69-.42.42-.63,1.04-.94,1.58.23,1.05.45,2.07.67,3.05.85.53,1.69,1.04,2.75,1.7,2.53,0,5.14-.73,7.66-1.81.35-.15.7-.48,1.03-.46,2.9.21,4.71-1.95,6.97-3.13.2-.1.36-.29.55-.41,2.97-1.85,6.09-3.26,9.59-3.87,1.05-.18,2-.99,2.88-1.8.59-.04,1.19-.07,1.83-.11.3-.46.63-.88.88-1.35,1.67-2.97,4.22-4.97,7.13-6.6,1.15-.65,2.15-.78,3.41-.05,1.31.77,2.66,1.36,3.78,2.49,1.57,1.58,1.74,3.38,1.3,5.37-.31,1.4-.72,2.78-1.1,4.24,1.55,2.3.76,4.6-.08,6.92-.35.98-.52,2.02-.79,3.03-.17.66-.38,1.32-.54,1.98-.24,1.02-.87,1.52-1.91,1.64-.89.11-1.76.35-2.8.56.18,1.93,1.65,3.22,2.04,5.09-2.04,2.13-3.38,4.84-4.66,7.73.23.55.53,1.16.76,1.8.29.78.19,1.57-.46,2.1-1.22,1-2.51,1.92-3.79,2.86-.24.17-.54.25-.81.37-1.06-.34-2.07-.67-3.25-1.06-.28-1.7-1.92-2.01-3.27-2.71-.44-.88-.88-1.77-1.33-2.67-.04-1.05.4-1.83,1.19-2.56,1.16-1.09,1.88-2.49,2.39-4.26-.63,0-1.09.1-1.48-.02-.93-.28-2.03-.43-2.7-1.04-2.02-1.81-4.55-3.22-5.23-6.26-2.8-.05-5.18.86-7.6,1.72-.42,1.81.91,3.56-.17,5.19,1.05,1.62,2.1,3.15,1.88,5.12-.04.37.02.82-.17,1.1-.65,1-.8,2.11-.93,3.25-.23,1.98-1.21,3.72-1.93,5.52-1.05,2.62-1.82,5.31-2.63,8.01-.37,1.23-.92,2.42-1.21,3.67-.66,2.87-1.4,5.71-1.48,8.71-.07,2.91-.51,5.82-.92,8.71-.17,1.18-.71,2.31-1.05,3.47-.41,1.41-.43,2.83-.09,4.27.14.62.1,1.29.14,2.11,1.86.16,3.66.42,5.57-.19,2.64-.85,5.12-1.91,7.43-3.45.53-.35,1.27-.41,1.92-.57,1.26-.31,2.23-1.04,2.75-2.2.76-1.71,2.27-2.69,3.64-3.73,1.18-.9,2.61-1.23,4.07-.32,1.03.64,2.13,1.18,3.42,1.89,2.24-1.28,4.14.66,6.19,1.26.9,1.64,1.77,3.21,2.73,4.97-.23.54-.56,1.3-.8,1.87-1.13.94-2.14,1.73-3.09,2.58-1.64,1.47-3.2,3.03-4.89,4.45-.85.71-1.89,1.23-2.9,1.72-.35.17-.87-.03-1.54-.08-.23.34-.57.82-.89,1.32-.25.38-.42.83-.72,1.15-1.61,1.7-2.76,3.63-3.7,5.81-.89,2.06-2.34,3.92-3.78,5.68-1,1.21-1.84,2.39-2.12,3.95-.09.5-.46.94-.66,1.34-1.06.25-1.99.56-2.95.65-.64.06-1.35-.09-1.94-.36-.97-.43-1.87-1.03-2.63-1.46-.49-.81-.81-1.5-1.28-2.09-1.04-1.3-1.35-2.89-1.7-4.42-.14-.62.25-1.49.63-2.1,1.05-1.67,2.21-3.27,3.33-4.91-.19-.57-.36-1.07-.58-1.73-.66-.07-1.33-.1-1.99-.22-1.49-.26-3.05-.35-4.42-.9-2.13-.85-4.21-1.32-6.78-.29-.68,1.09-1.56,2.5-2.59,4.15-1.5,1.19-3.15.93-4.75-.4-.87-.73-1.75-1.45-2.57-2.23-.6-.58-.71-1.26-.77-2.17-.1-1.37-.48-3.01-2.28-3.75-1.11,1.26-2.21,2.5-3,3.4-.68,1.88-1.22,3.35-1.87,5.12.86.88,1.91,1.96,3,3.1.16.59.34,1.25.52,1.91-.82,3.29-2.99,4.93-6.3,5.34-1.47.18-2.91.65-4.37.97-.75.16-1.51.35-2.15-.55,1.27-3.82-.66-6.45-3.41-8.55h-3.83c-.1.09-.64.37-.83.8-.74,1.66-1.41,3.34-2.01,5.05-.26.76-.28,1.61-.45,2.67-1.78.67-2.34,2.71-3.47,4.49-1.49,0-2.5.79-3.37,2.13-.61.94-1.82,1.48-2.83,2.25-.58-2.8-1.18-5.35-4.01-6.78,1.64-1.7,3.3-3.41,4.85-5.01-.17-1.33-.32-2.5-.42-3.3,1.4-2.69,3.97-2.96,6.31-4.16-1.83-1.05-3.3-1.9-4.8-2.75-.04-.47.03-.89-.13-1.2-.58-1.13-.27-2.04.49-2.93,1.21-1.42,1.72-2.87.95-4.82-.77-1.95-1.08-4.09-1.57-6.15-.4-1.68-1.46-3-2.38-4.39-.66-1.01-1.34-2-1.87-2.79.19-3.23,2.75-3.15,4.81-4.01-.43-3.01-2.15-5.53-2.83-8.55-3.03,1.04-5.83,2-8.36,2.87-1.37-.11-2.48-.2-3.6-.29-2.19-.63-4.57-1.13-6.19-3.62-.23,1.08-.35,1.8-.55,2.49-.26.94-.5,1.9-.88,2.8-1.9,4.47-4.02,8.86-4.81,13.73-.34,2.08-.96,4.12-1.45,6.2-.57.36-1.12.79-1.74,1.08-1.44.67-1.89,2.03-2.09,3.34-.23,1.52-.05,3.11-.05,4.72.62.17,1.02.28,1.53.42.83.69,1.79,1.49,2.72,2.27.86-.2,1.6-.37,2.24-.52,2.7-2.22,3.83-4.95,3.02-8.25,3.36-1.61,7.33-.39,9.69,2.84-.13,2.23-.69,4.22-3.05,5.13-.55,5.24-2.01,9.81-7.79,11.45-.29-.21-.6-.44-.9-.66-.25-.18-.51-.34-.82-.56-1.49.4-3.01.8-4.17,1.11-2.13-.87-3.94-1.61-5.8-2.38-6.08,3.39-11.43,7.58-16.22,12.87-.95.31-2.1.68-3.23,1.05-2.77-.94-5.32-2.03-6.35-5.36,1.55-2.25,3.64-4.23,5.23-6.6,1.6-2.38,2.43-5.28,4.64-7.17,1.42-.28,1.3,1.16,1.9,1.53,1.68-.44,3.3-.74,4.83-1.29,2.23-.8,3.87-2.31,4.8-4.53.03-.07.01-.16.05-.22.92-1.5,1.43-3.14,1.52-5.13-.72-1.83-1.13-4.21-4.16-4.6,1.8-2.82,3.19-5.73,3.86-9.14-.77-.57-1.62-1.21-2.22-1.66v-4.06c.37-.52.81-1.12,1.31-1.82-.26-.69-.51-1.38-.84-2.26-.44.27-.8.4-1.03.65-1.82,1.95-3.55,4-5.45,5.86-1.46,1.43-3.08,2.7-4.72,3.93-1.61,1.21-3.35,1.39-5.22.16-1.15,1.7-2.32,3.3-2.04,5.57.09.76-.28,1.64-.62,2.38-.54,1.16-1.32,2.2-1.86,3.36-.6,1.3-1.39,2.4-2.78,2.87-1.32.45-2.17,1.44-2.94,2.45-1.87,2.45-4.16,4.43-6.53,6.36-2.09,1.7-4.47,2.88-6.83,4.11-1.01.53-1.85,1.39-2.87,1.86-.98.44-2.2.38-3.15.86-2.48,1.26-5.21,1.55-7.85,2.09-1.77.36-3.66.28-5.49.18-2.13-.11-4.24-.46-6.67-.74-.47-.73-1.08-1.66-1.9-2.91-.34-.22-.94-.7-1.94-.35-.79.28-1.6-.11-2.34-.59-1.15-.75-2.35-1.41-3.66-2.19-.31-.51-.68-1.18-1.09-1.82-.73-1.15-1.06-2.37-.68-3.7.52-1.82.5-3.73,1.1-5.57.56-1.72,1.33-3.21,2.41-4.61.3-.39.5-.85.88-1.51-.9-.36-1.57-.65-2.26-.89-2.83-.97-4.4-3.41-4.05-6.34.16-1.34.34-2.67.52-4,.29-2.04,2.43-4.15,4.48-4.3.65-.05,1.33.18,1.98.37.79.22,1.56.53,2.04.69,1.01.73,1.8,1.3,2.8,2.02.33.62.79,1.5,1.21,2.31-.11,1.34-.21,2.61-.3,3.86-.46.79-.9,1.56-1.34,2.32.09.1.17.19.26.29,2.04-.87,4.08-1.73,6.09-2.58,2.23-.03,4.06,1.14,6.01,1.9,1.27.5,1.8,2.48,1.25,3.99-.7,1.93-1.34,3.88-2.14,5.77-.79,1.88-1.75,3.69-2.74,5.75,2.1.72,4.21,1.44,6.06,2.07,2.41-1.09,4.56-2.07,6.75-3.06,1.78.63,3.49,1.24,5.18,1.85,6.4-3.68,11.07-8.93,14.33-15.48-.35-.72-.65-1.33-1.12-2.29.31-1.22.69-2.74,1.02-4.05-1.01-1.32-1.91-2.52-2.72-3.59v-5.63c1.59-.67,3.21-1.33,4.81-2.03.47-.21,1.04-.43,1.29-.82.77-1.22,1.46-2.5,2.09-3.8.6-1.25.15-2.53,0-3.61-.97-1.22-1.82-2.28-3.02-3.78-1.34-.78-3.16-1.8-5.35-1.98-.8-.07-1.56-.51-2.36-.73-3.93-1.09-7.95-1.75-11.99-2.32-.74-.11-1.47-.27-2.43-.45,0,1.07-.02,2.03,0,2.99.1,3.49-1.4,6-4.5,7.6-2.33,1.2-4.77,2.01-7.38,2.31-1.82.21-3.23-.61-4.43-1.86-1.4-1.45-2.43-3.09-2.61-5.18-.03-.34-.34-.65-.64-1.19,1.53-2.03,3.09-4.08,4.7-6.21-1-1.76-1.52-3.71-1.23-6.05.63-.54,1.38-1.18,1.88-1.61.46-3.28.71-6.25,1.31-9.13.88-4.24,2.01-8.4,4.99-11.83.96-1.1,1.39-2.66,1.97-3.83-.59-1.31-1.06-2.35-1.49-3.3.06-1.33.62-2.21,1.63-2.96,1.03-.77,2.09-1.62,2.78-2.68,1.01-1.56,2.41-2.52,3.92-3.43.46-.27.9-.57,1.48-.94Z"/><path class="cls-1" d="m76.92,135.4c.44-1.04.79-2.12,1.32-3.11.98-1.8,1.93-3.64,3.14-5.29,2.2-3.01,4.57-5.9,6.92-8.89-.36-.71-.69-1.38-1.1-2.22.78-1.22-.14-2.64.17-4.01.94-1.49,2.2-2.28,4.01-2.23.65.02,1.3-.33,1.92-.51,1.5-3.68,2.97-7.26,4.47-10.94.61-.27,1.3-.57,1.89-.83,2.57.51,3.22,2.68,4.04,4.49.9,2,.14,4-1.04,5.62.3,1.01,1.02.87,1.59.89,3.79.08,7.58.27,11.32-.58.65-.15,1.4-.46,1.95-.26,1.59.59,2.96-.2,4.18-.33,2.07.39,3.92.75,5.78,1.08,1.71.31,3.43.59,5.14.88.15.03.31.1.45.08,1.98-.29,3.72.41,5.48,1.46,2.29-4.96,4.96-9.52,8.56-13.72.65.29,1.33.39,1.67.78,1.35,1.53,2.61,3.15,3.87,4.76.98,1.26.95,2.81.99,4.73-.78,1.5-1.74,3.36-2.84,5.47.79,1.26,1.35,3.04,2.96,3.79.97,2.6.9,4.93-.69,7.19-2.73.43-4.85,2.3-7.22,3.63-3.1,1.74-5.34,1.74-8.26-.54-1.37.49-2.81.97-4.24,1.5-1.99.75-3.92,1.71-5.97,2.24-1.41.37-2.89,1-4.45.44-.49-.18-1.06-.15-1.87-.24-.74-.75-1.69-1.62-2.52-2.59-.81-.95-.54-2.52-1.95-3.48-.13.5-.32.83-.28,1.13.53,3.21-.39,6.32-.67,9.47-.23,2.65-.44,5.31-.84,7.93-.27,1.77.07,3.48.09,5.21.04,4.13-.53,8.21-1.92,12.12-.46,1.3-.68,2.59-.5,4.15-.4.39-.89.87-1.21,1.19-2.7.74-4.18-1.18-6.16-2.17-.89.97-2.13,1.7-2.14,3.58.83-.27,1.44-.53,2.08-.64.59-.1,1.21-.02,1.88-.02,1.35,1.03,2.78,2.04,4.1,3.17.48.41.76,1.08,1.02,1.69.16.39.12.87.19,1.54,2.87-.81,5.71.06,8.47-.74.52-.15,1.17.15,2.1.29,1.04-.65,2.35-1.42,3.59-2.29,3.06-2.15,6.04-4.41,9.14-6.5,1.57-1.06,3.25-2.13,5.3-1.83,1.34.19,2.64.59,3.81.86.84,1.41,1.56,2.57,2.23,3.75,1.3,2.32,1.43,4.74.66,7.26-.39,1.29-.63,2.62-.95,3.95,3.9-.02,6.75,1.72,9.16,4.19-.03,2.22-2.08,3.49-2.26,5.82,2.38-2.15,3.53-4.69,4.7-7.39-1.78-2.51-.68-5.45-1.07-8.21-.06-.4.22-.87.43-1.27.32-.6.71-1.16,1.1-1.8-.51-.89-1-1.75-1.54-2.7-.03-2.39.51-4.68,1.67-6.91,1.94-3.72,3.53-7.63,5.65-11.24,1.42-2.41,2.35-5.13,4.29-7.24.4-.44.58-1.06.88-1.6,1.02-1.87,2.06-3.73,3.07-5.61.31-.58.84-1.13.4-2.05-1.56-.23-3.23-.11-4.87.06-3.74.39-8.44-1.75-10.38-4.94-.37-.61-.42-1.43-.53-2.17-.14-.88-.19-1.77-.39-2.64.03-.79.44-1.2,1.26-1.52,1.48-.56,2.86-1.4,4.3-2.09,2.49-1.2,5.06-1.21,7.68-.54.3.08.6.12.93.19,1.05-.8,2.07-1.72,3.23-2.42,1.89-1.14,2.48-3,3.04-4.92.48-1.68.96-3.35,1.47-5.15,1.39-.27,2.71-.52,4-.77,1.09,1.08,2.21,1.92,2.99,3,1.26,1.75,1.87,3.7,1.33,5.95-.31,1.3-.26,2.69-.4,4.41.97,1.79,1.52,4.05,1.13,6.36-.91,1.19-1.76,2.32-2.64,3.47,1.11,1.81,1.89,3.51,3.55,4.81,2.71,2.12,4.85,4.83,6.69,7.77.64,1.03,1.47,1.94,2.39,3.13.34,1.16.85,2.58,1.14,4.05.29,1.46.34,2.97.51,4.64.58-.28,1.07-.43,1.47-.72.86-.62,1.66-1.32,2.51-1.95,1.67-1.24,2.44-1.3,4.04-.04,1.12.88,2.1,1.95,3.26,3.04.63.09,1.43.2,2.49.36.1-1.6.19-3.13.28-4.66.12-1.89.09-3.8.38-5.67.59-3.74,2.2-7.03,4.91-10.02-2.41-.33-4.72-.7-6.42-3.09-.13-1.66-.77-3.69-.2-5.77.17-.64.41-1.41.89-1.8,2.31-1.9,3.59-4.46,4.82-7.08.26-.55.61-1.04.88-1.59.59-1.22,1.15-2.44,1.96-4.2,1.12-.9,2.76-2.06,4.91-2.39,1.03-.16,1.99-.77,3-1.11.93-.31,1.88-.54,2.96-.84.92.87,1.79,1.69,2.6,2.45-.12,1.35-.22,2.53-.32,3.71,1.89.85,2.84,2.63,4.13,4.06.31.34.49.78.81,1.1,1.94,1.95,2.35,6.11.98,8.43-2.42,4.12-5.46,7.7-8.86,11.08-.83,2.47-.99,4.28-.54,5.99-.34.88-.64,1.67-.93,2.42-1.89,1.13-3.83.92-5.8.28-1.09,1.35-.96,2.94-1.13,4.37-.25,2.12.24,4.3-.48,6.42-.2.58.26,1.35.17,2-.3,2.29.4,4.65-.59,6.91-.26.59.12,1.46.09,2.17-.11,1.12-.23,2.24-.34,3.36-.21,1.95-.41,3.9-.64,5.97,1.48,1.24,1.5,3.26,2.07,5,.29.88.49,1.71,1.14,2.39.71.74,1.24,1.51.8,2.62-.1.25,0,.61.08.89.64,2.17,1.29,4.33,2.07,6.92-.27,1.52-2.23,2.25-3.27,3.7-.17.23-.55.32-.71.55-1.8,2.64-3.9,5.14-5.26,7.99-1.54,3.26-5.66,3.87-7.85,1.38-.9-1.03-1.82-2.04-2.59-2.91-.28-2.73,1.31-4.72,1.72-7.11-.14-.25-.32-.58-.47-.87-.23-.03-.41-.1-.51-.05-3.14,1.67-6.58.13-7.39-3.27-.24-1-.63-1.97-1.06-3.29.16-.58.37-1.54.7-2.46.29-.82.7-1.6,1.07-2.42-2.14-.68-3.81-1.59-4.84-3.47-1.2-2.19-1.08-4.27-.05-6.5.88-1.9,1.44-3.95,1.74-6.14-1.54-.58-2.95-1.11-4.66-1.76-.17,0-.69.04-1.17.06-.61-.46-1.1-1-1.7-1.27-1.84-.84-3.14-2.07-3.61-4.11-.65-2.85-.99-5.69.41-8.42.87-1.69,1.82-3.35,2.69-4.95-2.73-3.89-5.29-7.73-9.41-10.38-1,1.11-1.52,2.71-2.36,4.09-1.65,2.72-3.24,5.49-4.81,8.26-.83,1.46-1.57,2.97-2.37,4.44-2.03,3.75-4.08,7.5-6.11,11.25-.25.46-.43.96-.66,1.5,1.54,1.4,3.04,2.76,4.56,4.14-.29,1.37-.57,2.6-.8,3.84-.17.89-.24,1.81-.45,2.69-.3,1.26-.69,2.49-1.09,3.94-.72.35-1.51.79-2.35,1.11-1.03.4-1.56,1.22-1.9,2.17-.1.27.17.66.31,1.18.99-.6,1.71-1.17,2.34-1.96.61-.76,1.44-1.36,2.35-2.19,5.21-1.78,10.11,1.28,10.53,6.35-.4.84-.81,1.72-1.32,2.8-2.75.43-4.36,2.88-6.57,4.33-2.83.76-5.14-.4-7.59-1.77-.36-.55-.8-1.24-1.39-2.14-3.35,3.33-7.13,5.25-11.87,4.09-1.43,1.43-2.76,2.78-3.57,3.58-2.7.81-4.83,1.1-6.48-.46-1.44-1.37-3.08-2.82-2.55-5.38-.5.71-1,1.41-1.27,1.78.34,1.78.61,3.17.9,4.67-1.28,1.23-2.46,2.39-3.66,3.52-.15.14-.41.22-.62.21-1.14-.02-1.77.74-2.36,1.53-.96,1.28-1.9,2.57-2.79,3.77-.93.22-1.74.42-2.54.61-3.68-1.41-6.96-3.18-7.44-8.03,1.54-2.91,3.21-6.07,4.88-9.23.25-.47.52-.94.7-1.44.6-1.66,1.27-3.26,2.67-4.44.28-.24.46-.61.75-1.01-1-1.05-2.36-1.39-3.66-1.49-1.82-.15-3.68-.1-5.5.08-2.71.26-5.41.71-8.35,1.12-.04.33-.27.86-.15,1.3.55,1.95-.27,3.6-1.1,5.21-.29.57-.92,1.04-1.5,1.37-1.11.64-1.76,1.61-2.36,2.68-.48.84-1.06,1.63-1.56,2.39-1.11.07-2.01.12-3.06.18-1.08-1.26-2.18-2.54-3.27-3.81-.06.08-.13.15-.19.23-.29-.92-.51-1.87-.88-2.76-.58-1.37-.57-2.58.25-3.9.67-1.08,1.21-2.3,1.5-3.54.37-1.55,1.1-2.6,2.58-3.22.75-.32,1.39-.89,2.2-1.43-.58-1.37-1.17-2.75-1.86-4.36-2.29,2.35-4.29,4.61-4.35,8.2-.61.47-1.33,1.01-2.1,1.59-.77-.11-1.52-.24-2.27-.33-1.27-.16-2.5-.57-3.83-.21-.6.16-1.33-.12-2-.22-.74-.12-1.47-.27-2.29-.43-1.28,2.34-2.51,4.6-3.76,6.85-.92,1.66-1.95,3.27-2.81,4.96-.51,1-1.51,1.83-1.21,3.2.07.31-.33.85-.66,1.11-.59.46-1.29.79-1.81,1.11-2.05-.17-3.64-.96-4.82-2.02-.61-1.87-1.14-3.5-1.74-5.37,2.78-3.06,5.39-6.46,7.56-10.61-2.27.45-4.21-.19-6.17.56-1.23.47-2.56.02-3.6-.63-.59-1.35-1.12-2.58-1.84-4.23,0-.65-.12-1.79.04-2.88.15-1.03.59-2.01.92-3.07,1.17-.2,2.33-.36,3.47-.61,1.08-.24,2.12-.57,3.23-.72,1.03-.14,2-.71,3-1.09.85-.32,1.72-.6,2.54-.99.68-.32,1.56-.62,1.89-1.19.87-1.49,2.09-2.18,3.66-2.8,2.62-1.02,5.08-2.44,7.6-3.7.34-.17.68-.35.94-.49,2.12-.52,2.43,1.96,4.12,2.32,1.76-1.34,3.64-2.58,5.17-4.29,1.12-1.25,2.39-2.36,3.53-3.59,1.06-1.13,2.41-1.54,3.9-1.61.92-1.52,1.46-3.06,1.37-4.81-.07-1.3.05-2.54.67-3.78.45-.9.56-1.93.35-3.07-.27-1.46-.37-3,.2-4.52.3-.8.17-1.76.26-2.64.1-1.02.14-2.07.38-3.06.6-2.47.54-4.97.54-7.48,0-.9,0-1.79,0-2.91-.26.06-.74.08-1.15.26-2.1.9-4.13,2.01-6.29,2.71-2.66.86-5.4.95-8.01-.53-.34.24-.73.38-.93.66-3.27,4.5-6.81,8.83-8.95,14.05-.55,1.35-.78,1.46-2.92,2.43-2.93-1.05-3.45-3.68-3.81-6.44Z"/><path class="cls-1" d="m806.94,134.63c-2.64,4.33-4.41,8.89-6.28,13.48.84.75,1.69,1.51,2.51,2.24.16.93.32,1.81.46,2.6-.62,1.49-1.23,2.96-1.82,4.44-.14.35-.19.73-.24,1.1-.21,1.73-.4,3.46-.61,5.18-.13,1.05-.3,2.09-.42,3.14-.15,1.32.1,2.49.79,3.7.81,1.43,1.24,3.07,1.95,4.91.68.18,1.62.42,2.72.71,1.23.84,2.61,1.77,3.48,3.27.41.7.46,1.34.27,2.16-.57,2.51-.99,5.06-1.5,7.58-.15.73-.37,1.45-.6,2.16-.83,2.6-1.69,5.19-2.5,7.8-.42,1.37-.75,2.77-1.16,4.29.82.71,1.54,1.36,2.3,1.98,1.2.99,2.2,2.08,2.64,3.65.7,2.49,0,4.73-2.13,6.26-1.8,1.3-4.31,1.33-6.21-.13-2.18-1.68-4.24-3.51-6.35-5.28-.34-.29-.66-.62-.86-.81-1.95.59-3.74,1.14-5.71,1.74-1.82-1.02-3.68-2.07-5.65-3.17-3.01-.06-6.05-.47-8.42-2.92-.45-1.31-.09-2.49.46-3.72.52-1.16.99-2.42,1.11-3.67.36-3.63.8-7.27.4-11.03-1.55-.92-3.13-1.81-4.66-2.8-.68-.44-1.22-1.09-2.09-1.89-1.3-.1-2.83-.75-4.18-1.72-.58-.41-.95-1.13-1.38-1.67.26-1.02.48-1.89.7-2.76,1.07-1.27,2.96-1.95,2.92-3.96.84-.78,1.67-1.55,2.61-2.42-.2-.67-.39-1.3-.57-1.95-.82-2.98-1.64-5.96-2.44-8.95-.27-1.02-.43-2.06-.7-3.08-.64-2.42-1.11-4.86-1.42-7.34-.08-.67.02-1.37.05-2.06.12-2.51.27-5.02.34-7.54.02-.57-.24-1.14-.37-1.73-1.4-.1-2.61-.19-3.71-.27q-3.72-3.24-4.7-7.03c-1.25,2.79-2.44,5.29-3.5,7.85-.27.66-.25,1.53-.11,2.25.25,1.25.06,2.39-.32,3.57-.43,1.37-.8,2.78-1.06,4.2-.39,2.15-.66,4.33-1.01,6.63.64.43,1.2,1.06,1.88,1.23,1.77.45,2.64,1.63,3.14,3.61-.99,1.21-2.15,2.62-3.3,4.03-.19.24-.38.48-.57.72-2.24,2.96-4.54,5.87-6.69,8.9-1.13,1.6-2.18,3.26-2.39,5.36-.11,1.08-.88,2.08-1.31,3.13-.25.62-.43,1.26-.64,1.89,1.06,1.28,2.39,2.23,2.36,3.97.04,2-1.61,4.04.25,6.26,1.79.82,3.78,1.74,5.77,2.64.93.42,1.73.91,1.98,2.04.16.73.56,1.4.78,2.12.38,1.25-.15,2.69-1.26,3.38-.58.36-1.21.66-1.84.93-3.29,1.42-6.56,2.86-9.88,4.22-1.4.57-2.88.95-4.38,1.43-.79-.34-1.54-.71-2.33-.99-.64-.23-1.32-.49-1.97-.48-1.91.03-3.4-.68-4.6-2.37.1-.78.08-1.72.37-2.57.79-2.29,1.22-4.7,1.98-6.97,1.21-3.6,2.11-7.3,3.45-10.86,1.34-3.54,2.57-7.11,3.98-10.62.65-1.62,1.59-3.11,2.41-4.66.36-.67.79-1.31,1.11-2,.69-1.45,1.54-2.72,2.75-3.85,1.31-1.22,2.25-2.83,3.45-4.39-1.34-1.86-1.32-4.11-1.71-6.25-.14-.77.18-1.61.25-2.43.15-1.97.17-3.96.45-5.91.2-1.4-.58-2.49-.85-3.44,1-2.84,1.85-5.42,2.83-7.96.96-2.46,2.06-4.86,3.29-7.75-.7.33-1,.37-1.14.55-.84.99-1.59,2.05-2.48,3-.83.89-1.78,1.65-2.68,2.47-1.14.17-2.26.35-3.77.58-1.25-.64-2.79-1.44-4.24-2.18-.23-.96-.4-1.7-.57-2.43.58-1.59,1.56-2.77,3.07-3.55.6-.31,1.11-.8,1.61-1.27,3.3-3.08,6.14-6.56,8.82-10.18.41-.55.82-1.1,1.27-1.62,1.53-1.77,2.57-3.77,2.89-6.25,2.54-2.56,5.65-3.18,9.15-2.3.59.15,1.14.44,1.72.63,1.07.34,2.09.67,3.3.32,1.31-.37,2.52.11,3.52,1.14.9.93,1.92,1.75,2.5,2.27.81,2.31-.43,3.57-1.46,4.26-2.27,1.52-2.9,3.84-3.75,6.09-.48,1.27-.73,2.63-1.11,4.05,1.03,1.26,2.04,2.48,3.04,3.71.19.24.47.43.59.7,1.41,3.13,2.81,6.26,4.16,9.41.23.54.23,1.19.26,1.79.03.61-.14,1.24-.03,1.83.25,1.33.62,2.63.91,3.81-.38,1.26-.94,2.4-1.03,3.57-.12,1.58-.36,3.17.15,4.81.63,2,.88,4.12,1.33,6.17.34,1.54.73,3.06,1.11,4.64,1.39.08,1.99-1.05,2.92-1.59.89-.52,2-.67,2.97-.97.88.59,1.7,1.13,2.23,1.49-.24,1.41-.45,2.5-.6,3.59-.12.83-.25,1.67-.22,2.49.06,2.28.13,4.57.34,6.84.1,1.05,1.14,1.67,2.23,1.49.58-.1,1.13-.41,1.8-.67.38,1.33-.21,3.2,1.96,3.76,1.23-.16,1.79-1.01,1.79-2.34,0-1.06,0-2.11,0-3.36.82-.26,1.85-.73,1.97-1.97,0-1.05,0-2.1,0-3.14,0-.84.03-1.69,0-2.53-.08-2.4-1.34-3.17-3.44-2.1-.34.17-.65.43-1.01.54-.56.17-1.15.26-1.87.41.1-.78.23-1.36.23-1.93,0-.52-.14-1.04-.2-1.45.95-5.1,3.08-9.74,4.71-14.55,1.65-4.89,3.98-9.5,6.03-14.11-1.33-1.27-2.6-2.35-3.71-3.57-1.39-1.54-2.05-2.8-.07-4.96.76-.83,1.29-1.88,1.83-2.89,2.13-4,4.87-7.53,8.13-10.69,1.92.32,3.77.62,5.78.95.85-.68,1.83-1.52,2.86-2.29,1.43-1.07,2.97-1.82,4.86-1.64.74.07,1.51-.17,2.27-.13,1.73.08,3.23.92,4.61,1.84,1.41.94,2.07,3.47,1.19,5.21-1.58,3.12-2.49,6.57-4.84,9.31-1.33,1.56-2.28,3.43-3.52,5.07-1.2,1.58-2.41,3.19-3.87,4.5-1.71,1.53-3.79,2.45-6.34,2.03Z"/><path class="cls-1" d="m271.92,182.67c-1.11,0-2.14.19-3.07-.04-2.46-.61-4.34-2.1-5.48-4.37-.89-1.76-1.6-3.61-2.42-5.46.97-1.96-.1-3.89,0-5.78-.82-1.33-1.64-2.5-3.43-2.13-.2,1.23-.28,2.44-.61,3.57-.29,1.01-.66,2.1-1.32,2.88-1.54,1.83-2.63,3.91-3.83,5.94-1.49,2.53-2.73,5.09-2.65,8.12.01.42-.27.85-.42,1.27-.36.99-.72,1.98-1.06,2.92.69.76,1.39.54,1.98.25,2.24-1.11,4.18-.53,6.26.61,1.32.72,2.36,1.6,3.41,2.61.84.81,1.12,1.76,1.29,2.62-.48.96-.87,1.74-1.43,2.87-.81.4-1.96.98-3.19,1.59-1.05-.44-2.12-.39-3.24-.04-1.8.57-3.66.97-5.47,1.53-.63.2-1.31.55-1.75,1.03-1.49,1.64-3.36,2.6-5.53,3.34-1.15-.49-2.39-1.03-3.78-1.62-1.66,1.77-3.61,2.98-6.38,1.92-.84-1.37-1.75-2.86-2.78-4.53.04-.17.12-.53.22-1-.17-.28-.4-.66-.65-1.08.19-.56.38-1.13.6-1.77,1.13-.55,1.67-1.58,2.23-2.71,1.12-2.25,2.51-4.37,3.72-6.57,1.06-1.93,2.09-3.88,3-5.89.43-.95.52-2.04.77-3.09-.66-1.26-1.33-2.53-2.11-4.02.3-.55.49-1.42,1.03-1.79,2.05-1.44,3.4-3.52,4.96-5.36,1.47-1.74,2.97-3.03,5.61-2.76-.57-1.15-1-1.99-1.41-2.84-.2-.41-.55-.83-.53-1.23.09-1.66-.78-2.89-1.56-4.21-.7-1.18-1.26-2.44-1.95-3.79.44-1.16.92-2.43,1.43-3.75.52-.33,1.09-.69,1.72-1.09-.1-.35-.13-.65-.25-.91-.86-1.87-1.51-3.76-1.1-5.88.14-.7.13-1.43.21-2.35,3.25-6.07,6.62-12.37,9.94-18.59-1.45-1.58-2.82-2.88-3.96-4.37-.86-1.13-1.6-2.43-2.06-3.76-.51-1.49-.27-3.04,1-4.4.58-.28,1.32-.63,2.2-1.05,1.18.28,2.48.63,3.8.91,2.39.51,3.77,2.47,5.58,3.81.3,1.22,1.44,1.49,2.29,1.99,1.66,2.31,2.98,4.61,1.05,7.13.64,1.88.98,3.66,1.83,5.14.93,1.61-.03,3.38.95,4.9-1.38.76-2.42.3-3.36-.57-1.11-1.03-2.19-2.11-3.49-3.35-.48.76-.9,1.36-1.24,2-1.88,3.49-3.77,6.97-5.59,10.49-.51.98-1.29,1.96-.7,3.44.44.32,1.05.76,1.76,1.29.42-.27.84-.57,1.3-.81.92-.49,1.79-.98,2.96-.93,1.18.05,2.37-.42,3.57-.56.59-.07,1.3-.1,1.79.16,1.11.6,2.11.33,3.05-.2,1.13-.63,2.19-1.38,3.25-2.12,1.37-.96,2.74-1.93,4.06-2.95.84-.65,1.59-1.41,2.38-2.13,1.69-1.55,3.41-3.07,5.04-4.67.81-.79,1.47-1.74,1.88-2.75.23-1.16.46-2.31.71-3.6-.3-.88-.67-1.92-.91-2.64,1.96-3.64,3.75-6.92,5.5-10.22.35-.66.56-1.4.86-2.09.83-1.92,1.84-2.31,3.98-2.01,2.12.3,4,1,5.32,2.67.83,1.05,1.31,2.37,1.92,3.51-1.6,2.67-3.11,5.21-4.63,7.75.34.6.64,1.12.79,1.38-.36,1.83-.66,3.38-.96,4.93l.25.08c-.31.42-.73.79-.9,1.25-.8,2.13-2.11,3.81-4.03,5.04-.44.28-.86.66-1.16,1.08-1.82,2.58-4.18,4.61-6.53,6.69-2.61,2.3-5.3,4.46-8.22,6.35-1.14.73-2.06,1.75-3.26,2.47-.73.44-1.41.78-2.21.98-1.83.47-3.65.96-5.57,1.48-.55-.24-1.18-.5-1.83-.78-1.73.56-3.45,1.13-4.59,2.82.36,1.03,1.14,1.49,2.13,1.82,2.35.79,4.13,2.43,5.86,4.12,1.64,1.61,3.17,3.29,3.83,5.53,1.52.73,2.96,1.43,4.48,2.17,2.52-.71,5.13-.81,7.76-.2.71.16,1.68-.27,2.19.07,1.95,1.3,4.08,2.45,5.42,4.43.61.9.74,2.12,1.1,3.25-.47,2.74-3.43,3.72-4.51,6.11.43,1.53,1.52,2.54,2.72,3.5,1.27,1.01,2.57,1.09,4.06.52,2.54-.97,4.72-2.51,6.77-4.23,1.57-1.31,3.29-1.87,5.37-1.44.84.67,1.77,1.34,2.62,2.1.49.44,1.08.94,1.25,1.53.34,1.12.49,2.32.56,3.5.03.47-.26,1.06-.59,1.43-.55.62-1.21,1.17-1.91,1.62-1.71,1.08-3.19,2.31-3.87,4.33-.5,1.49-1.75,2.35-2.93,3.37-2,1.74-4.27,3.33-4.71,6.44-.38,2.65-3.19,3.73-5.68,2.65-1.38-.6-2.51-1.48-3.39-2.64-.44-.58-.7-1.33-.9-2.05-.27-1.02-.4-2.07-.6-3.12-.92-.52-1.78-1-2.61-1.47-.61-.81-1.24-1.63-1.86-2.45-.1.06-.19.11-.29.17-.89-3.05-1.77-6.11-2.68-9.25-.84-1.1-1.75-2.3-2.74-3.6-.42.38-.74.67-1.22,1.1-.15-.44-.27-.8-.49-1.42Z"/><path class="cls-1" d="m333.18,392.96c-.49.43-.93.84-1.39,1.24-1.38,1.18-2.82,2.31-4.15,3.55-1.88,1.74-1.9,1.8-5.24,2.56-.76-.23-1.56-.47-2.42-.73-3.71,2.65-8.28,3.16-12.37,4.91-2.89.11-5.81.41-8.55-.86-1.1-.51-2.06-1.25-2.68-2.33-.45-.79-.87-1.6-1.35-2.5.14-.59.29-1.24.46-1.96-.11-.14-.21-.36-.38-.48-2.62-1.81-3.64-4.44-4.28-7.46-.4-1.88.17-3.58.16-5.37,0-.14.04-.27.03-.41,0-.04-.11-.07-.3-.17-.98,2.74-1.96,5.45-2.92,8.13-1.73.81-3.31,1.52-4.87,2.28-.46.23-.92.53-1.27.91-1.35,1.44-2.65,2.93-3.94,4.37h-4.62c-2.08,1.44-3.84,2.77-5.71,3.9-.95.57-2.1.82-3.19,1.12-2.65.73-5.4.7-8.09,1.04-3.51.45-6.59-.36-9.67-1.65-2.03-.85-4.02-1.82-6.04-2.75-.4-1.05-.77-2.02-1.09-2.87,2.06-2.32,3.72-2.67,6.26-1.59,1.31.56,2.67,1,4.17,1.56.25-.55.67-1.03.62-1.46-.14-1.33.34-2.54.5-3.8.29-2.31,1.56-3.7,4.01-4.45.82-3.15,1.62-6.49,2.55-9.8.92-3.28,1.97-6.53,3.03-10.05-2.22.33-4.3.23-5.91,2.02-1.06,1.17-2.4,2.09-3.47,3q-3.83,0-6.8-1.53c-.37-.54-.76-1.1-1.21-1.74v-2.08s-.01-.05.03-.11c1.41-1.64,1.21-3.81,1.89-5.67.55-1.49,1.82-2.76,2.92-4,1.32-1.48,2.81-2.82,3.5-4.78,2.22-.59,4.44-1.05,6.56-1.8,1.58-.56,2.83-.1,4.11.61.66.37,1.26.86,1.86,1.28,3.88-.84,7.64-.84,11.55-.15,3.73.66,6.93,2.21,10.07,4.07,2.35,1.39,4.16,3.34,5.4,5.76.43.84,1.31,1.42,1.22,2.6-.07.99.39,2,.46,3.02.07.98.05,1.99-.13,2.95-.64,3.48-1.38,6.94-2.05,10.41-.04.23.15.5.39,1.19.53-1.6.92-2.77,1.31-3.94.64-1.89,1.71-3.49,2.85-5.14,1.83-2.68,4.42-4.64,6.26-7.27.13-.18.33-.31.52-.44,3.08-2.22,6.07-4.59,9.29-6.59,1.9-1.19,4.14-1.86,6.28-2.63.89-.32,1.37.21,1.95,1.66h1.6c-.66-1.51-1.25-2.85-1.86-4.25.15-.57.32-1.2.48-1.76.93-.45,1.92-.75,2.68-1.34,2.01-1.56,4.08-2.28,6.43-1.09.68.93,1.35,1.84,2.24,3.05.16.99-.14,2.13-1.29,3.04-.65.51-1.13,1.23-1.72,1.81-1.15,1.14-2.59,1.79-4.21,2.13.28.4.5.71.75,1.07-.32.39-.64.78-1.09,1.35-.84-.55-1.58-1.04-2.42-1.58-7.81,3.33-14.63,8.02-20.09,15.09,2.86.11,4.84-1.58,7.19-2.07,2.42-.5,4.76-1.59,7.01-2.68,2.18-1.05,4.21-2.43,6.32-3.67.7.15,1.45.3,2.67.56,1.62,1.18,3.75,2.56,4.56,5.3-.65,1.24-1.38,2.46-2.53,3.55-1.47,1.39-3.13,2.66-4.16,4.52-.47.85-1.28,1.51-1.87,2.18-.99.05-1.75.08-2.47.12-1-.8-1.94-1.55-2.91-2.33-1.17-.12-2.17.32-3.26.73-3.89,1.46-7.61,3.45-11.82,3.98-.29.04-.57.2-.83.29-.82-.24-1.61-.48-2.52-.75-.4,1.55-.65,2.96.22,4.41.36.61.37,1.43.55,2.23,2.86,1.33,5.75.65,8.63-.09,1.25-.32,2.5-.63,3.72-1.04.71-.23,1.42-.56,2.02-1,1.31-.96,2.79-1.23,4.35-.75.79.24,1.62.36,2.52.55,1.87-1.38,3.85-2.77,5.75-4.26,1.04-.81,2.2-.73,3.29-.56,2.3.37,4.04,1.75,5.34,3.64.84,1.22.49,2.64.56,4.02Zm-49.57-24.56c-.01-.27.02-.65-.06-1.01-.55-2.59-2.31-4.21-4.46-5.51-2-1.2-4.26-1.55-6.48-2.06-.55-.13-1.12-.14-1.89-.23.97,1.89.36,3.37-.74,4.45-1.03,1.01-1.55,2.2-1.99,3.43-1.04,2.84-1.83,5.77-2.91,8.6-1.16,3.05-1.84,6.22-2.71,9.34-.77,2.76-1.41,5.56-2.06,8.35-.27,1.14-.5,2.31.03,3.58,3.02-1.53,6.1-2.68,8.14-5.65-.41-.64-.86-1.32-1.33-2.06.32-.75.67-1.58,1.06-2.5,2.53-.56,3.4-3.03,5.18-4.51,0-.35.03-.66,0-.96-.19-1.92.44-3.36,2.15-4.44,1.01-.64,1.85-1.6,2.66-2.51,1.82-2.04,3.57-4.14,5.43-6.31Z"/><path class="cls-1" d="m479.83,385.01c-.33-.13-.69-.41-.98-.35-.73.16-1.43.41-2.4-.09.88-.34,1.57-.6,2.25-.86-.36-1.23-1.4-1.24-2.45-1.24.38-.63.69-1.14,1.01-1.66.4.41.1,1.58,1.42,1.07-.55-.75-.82-1.48-1.88-1.89-2.08-.8-2.92-3.86-1.6-5.88,1.16-1.77,2.08-3.71,3.68-5.19.58-.53.81-1.44,1.01-1.82,1.67-1.33,3.09-2.45,4.48-3.59.87-.71,1.64-1.54,2.77-1.92.55-.18,1-.67,1.49-1.03,3.85-2.83,7.92-5.18,12.8-5.57,1.48-.12,2.86-.37,4.23-1.3,1.28.84,2.76.95,4.29.79,1.57-.16,3.04.13,4.76,1.34.47.78,1.2,2,2.02,3.35-.73,1.29-1.43,2.52-2.2,3.88,5.88,5.84,10.34,12.41,10.11,21.35,1.64-.73,2.92-1.43,3.07-3.51.18-2.38,1.52-4.41,2.68-6.41-1.01-1.59-1.97-3.12-2.94-4.64.44-.82.76-1.5,1.17-2.13.24-.38.55-.83.93-.98,2.69-1.06,5.07-3.01,8.16-2.98,1.05,0,1.92-.36,2.64-1.13,2.57-2.73,5.82-4.38,9.21-5.82,1.69-.72,3.28-.47,4.87.16.63.25,1.22.6,1.85.92.43-.3.8-.56,1.17-.83,2.12-1.56,4.43-1.38,6.76-.68,1.27.38,2.93,2.89,2.79,4.16-.05.42-.25.91-.54,1.22-1.05,1.11-2.07,2.29-3.29,3.18-1.69,1.24-3.56,2.05-5.77,1.21-.54-.21-1.21-.11-1.81-.14-1.08-.06-2.11-.27-2.89-.94-.64-1.11.27-1.79.54-2.6-.33-.8-.65-1.56-1.04-2.49-3.74,1.38-6.73,3.82-9.73,6.1.05.91.14,1.71.13,2.51-.01,1.42-.73,2.38-1.97,3.09-1.77,1.03-3.52,2.12-5.2,3.3-.59.42-1.07,1.11-1.39,1.79-.49,1.07-.8,2.23-1.2,3.38,1.18.35,2.19.04,3.15-.45,3.61-1.82,7.47-2.99,11.28-4.28,3.08-1.05,6.17-2.1,9.43-3.22.78.42,1.76,1.01,2.79,1.5.89.42,1.35,1.05,1.13,1.99-.25,1.08.23,1.95.7,2.79,1.05,1.86.99,3.25-.36,4.73-.98,1.07-1.97,2.14-2.99,3.17-2.48,2.5-6.35,2.03-8.14-1-.65-1.11-1.2-2.27-1.86-3.52-3.54,1.38-7.19,2.82-10.86,4.23-1.13.44-2.32.75-3.43,1.23-.73.32-1.37.83-2.04,1.25.38,1.87.54,3.54,1.85,4.8.26.25.41.64.59.97,1.56,2.85,4.35,4,7.47,3.07.65-.2,1.31-.44,1.91-.75,3.79-1.96,7.57-3.95,11.34-5.94.54-.28,1.07-.61,1.52-1,1.45-1.25,3.16-1.45,4.95-1.26,2.13.23,3.5,2.33,3.3,5.04-.68.68-1.02,1.56-1.34,2.62-1.14,3.84-3.67,6.42-7.81,7.03-.63.09-1.37-.09-1.97-.34-.83-.35-1.59-.88-2.55-1.43-1.77.93-3.65,1.92-5.43,2.85-.85,1.24-1.65,2.41-2.5,3.66-1.63.94-3.49,1.45-5.4,1.28-1.48-.13-2.97-.58-4.36-1.13-1.16-.46-2.12-1.47-3.29-1.87-1.3-.45-1.99-1.45-2.9-2.3-.79-.74-1.08-1.62-1.09-2.78,1.08-1.5,3.09-1.6,4.73-2.62-2.02-2.67-3.08-5.79-3.87-9.16-.71-.23-1.48-.48-2.36-.76-1.38,2.74-3.63,4.31-6.5,5.03-1.13,1.48-3.02,1.53-4.49,2.36-.84.48-1.56,1.2-2.27,1.88-2.09,2-4.06,4.13-6.59,5.65-3.33,2-6.72,3.85-10.46,5-3.21.99-6.46,1.83-9.85,1.65-3.76-.19-7.15-1.4-9.71-4.33-.59-.68-1-1.51-1.43-2.18-.91-.64-1.76-1.24-2.52-1.79.23-.99.4-1.71.61-2.62.43-.39.99-.89,1.6-1.43,0-.52-.04-1.06,0-1.59.1-1.14.24-2.34,1.16-3.12,1.97-1.68,3.03-3.98,4.36-6.1.61-.31,1.21-.62,1.81-.93-.04-.29-.07-.51-.1-.73,1.76.41,3.51.82,5.41,1.26.55.43,1.23.95,2.21,1.72.8-5.75,2.27-11.01,2.57-17.03-1.75,2.31-3.19,4.14-4.57,6.03-.97,1.33-2.11,2.32-3.77,2.68-.59.13-1.13.48-1.88.81,1.38.97,2.5,1.77,3.73,2.64-.71.06-1.36.11-2.02.16v1.1c-.63-.41-1.07-.7-1.63-1.07-.13.59-.23,1.03-.33,1.46Zm19.04-20.67c-.66,2.78-1.68,5.16-1.75,7.78-.03,1.33-.41,2.65-.65,3.97-.36,2.01-.83,4-1.09,6.02-.38,2.92-1.17,5.75-1.76,8.62-.53,2.58-1.18,5.14-1.09,7.81.06,1.6-.14,3.17-1.2,4.58,3.62-1.39,7.11-2.82,10.36-4.77,1.49-.9,2.91-1.95,4.22-3.1.64-.56,1.32-1.49,1.34-2.27.07-2.2.89-4.1,1.87-6.06.94-.35,1.93-.71,2.62-.97,1.39.08,2.5.15,3.49.21.49-1.35.94-2.47,1.3-3.62.2-.64.56-1.44.34-1.96-.8-1.96-1.11-4.13-2.39-5.9-.76-1.05-1.52-2.1-2.23-3.17-1.75-2.63-3.94-4.42-7.34-4.03-.08,0-.15,0-.23,0-1.99-.05-3.76-.55-4.89-2.39-.14-.23-.44-.37-.92-.75Zm-12.95,30.62c-.98.64-1.16.73-1.33,1.41-.44,1.82-1.65,3.03-3.05,4.14-.58.46-1.29.87-1.3,1.73,2.03,2.47,4.47,2.94,8.16,1.49-.9-.14-1.63-.25-2.43-.38-.84-.93-1.91-2-1.17-3.33.9-1.62.74-3.33,1.1-5.06Z"/><path class="cls-1" d="m656.48,405.22c.67-.34,1.31-.67,2.01-1.02.54.34,1.11.71,1.83,1.16-.26.28-.48.53-.8.88.13.36.29.81.55,1.54-.68-.15-1.14-.25-1.68-.36-.06.21-.12.45-.26.93-.81-.56-1.56-1.07-2.5-1.72-.9.85-2.09,1.82-3.08,2.95-1.56,1.79-3.52,2.94-5.66,3.79-.81.32-1.77.28-2.67.32-6.68.31-11.91-2.5-16.12-7.51-.54-.64-1.19-1.19-1.7-1.86-1.1-1.46-1.92-3.06-2.56-4.79-.52-1.41-.87-2.74-.33-4.2.1-.27.01-.61.01-1.03-1.39-1.54-3.1-3.08-2.33-5.95.38-.7,1.17-1.39,2.3-1.88,1.83-.79,2.81-2.52,3.8-4.12.91-1.47,1.88-2.97,1.53-4.66.87-1.1,1.77-2.02,2.42-3.09,2.75-4.52,5.7-8.88,9.72-12.4.68-.6,1.43-1.12,2.2-1.6,1.81-1.12,3.65-2.19,5.36-3.21.29-.87.52-1.57.72-2.17,3.92-1.23,7.38-1.03,10.38,1.96-.24-.72-.58-1.42-.7-2.15-.12-.74-.03-1.52-.03-2.44,1.26-.74,2.5-1.45,3.73-2.17,1.51-.89,2.93-2.08,4.57-2.58,1.59-.49,3.19-.96,4.73-1.59,2.92-1.21,5.99-.19,7.56,2.54.19.33.38.66.55.97-.13.79-.26,1.54-.42,2.47-.7.48-1.51,1.04-2.32,1.6-.83,1.36-.2,2.51.59,3.57.5.66,1.19,1.17,1.77,1.78.62.66,1.35,1.28,1.77,2.05,1.35,2.5,2.93,4.82,5.08,6.68,1.55,1.33,1.81,2.91,1.36,4.76-.14.57-.27,1.13-.44,1.88.4-.11.67-.1.76-.22,1.27-1.69,2.72-3.26,3.47-5.32.27-.74.79-1.46,1.37-1.98,1.12-1.01,2.36-1.88,3.75-2.96-.73-.42-1.21-.7-1.83-1.06-.26-.65-.58-1.42-.84-2.05.26-.63.59-1.11.65-1.61.32-2.78,2.36-4.3,4.25-5.94.52-.45,1.06-.87,1.72-1.41.62-.16,1.42-.4,2.23-.57,1.2-.24,2.39-.04,3.13.94.77,1.01,1.74,1.68,2.78,2.28.93.53,1.46,1.3,1.88,2.21.35.76.72,1.5,1.09,2.26-.74,2.05-2.66,2.41-4.4,3.21-.55,2-2.12,3.15-3.85,4.18-2.18,1.3-4.22,2.77-5.05,5.37-.07.21-.17.46-.34.58-1.74,1.2-2.87,2.92-4.06,4.6-.7.99-1.46,1.93-2.21,2.92,1.59,1.42,2.71,2.91,2.38,5.2-1.78,1.64-3.82,1.7-6.04.52-1.31,1.92-2.32,3.78-3.15,5.82-.81,2-2.11,3.8-3.2,5.71.99.94,1.92,1.13,3.03.65.98-.42,2.02-.68,2.98-1.13,2.35-1.1,4.25-.19,6.08,1.21.49.37.96.77,1.3,1.04v6.53c-.49.34-1.12.78-1.83,1.27,1.55,2,2.05,4.05,1.85,6.24-1.17,1.08-2.29,2.1-3.39,3.15-.73.7-1.43,1.31-2.56,1.31-1.11,0-1.72.85-2.25,1.73-1.42,2.39-3.25,3.23-5.98,2.84-2.37-1.39-4.25-3.09-4.99-6.02.96-1.45,2.01-3.02,3.12-4.68-.08-1.23-1.66-2.23-.85-3.8.57-.6,1.18-1.25,1.73-1.83-.29-1.22-1.25-1.38-1.99-1.58-1.51-.41-2.65-1.35-3.41-2.54-.88-1.38-2.02-2.43-3.3-3.58.92-1.83,1.66-3.76,2.78-5.44,1.16-1.74,1.11-3.08-.41-4.25-.24-1.04.05-1.76.56-2.5.65-.93,1.23-1.92,1.69-2.96.32-.73.39-1.56.59-2.43-.67-.3-1.17-.47-1.61-.74-.84-.51-1.68-1.03-2.46-1.62-1.09-.84-1.51-1.89-.78-3.21.14-.26.17-.58.27-.95.5-.37,1.05-.77,1.64-1.2-.18-1.39-1.25-2.27-1.75-3.41-.51-1.15-.59-2.49-.87-3.79.18-.76.38-1.57.59-2.43-.55-1.97-2.23-3.17-3.27-4.79-2.09.35-4.09.69-6.29,1.06.39.64.76,1.24,1.11,1.8.77.31,1.48.59,2.15.85.63,1.02,1.23,2,1.78,2.89.14,1.86-1.35,2.77-2.13,4.01-.72,1.14-1.87,1.99-2.82,2.99-2.66,2.78-7.93,1.52-9.44-1.15-.47-.83-.77-1.63-.78-2.58-.03-2.04.36-3.91,1.79-5.47.18-.19.17-.56.29-1.02-1.07-.44-2.1-.87-3.13-1.29-6.72,3.69-11.79,8.89-15.48,15.48.41.62.72,1.13,1.07,1.62.98,1.38.99,1.38.16,2.7-.24.39-.46.79-.71,1.22-.62.23-1.23.57-1.89.69-.65.12-1.34.03-1.92.03-.63.88-.05,1.24.39,1.64.72.64,1.45,1.28,2.05,1.82-.26,2.2-1.07,3.91-1.94,5.6-1.29,2.53-1.68,2.96-4.27,4.35-.09,1.13-.61,2.35.66,3.57,1.31-.18,2.8-.31,4.27-.6,2.76-.54,5.46-.68,7.9.89,2.82-1.65,5.07-3.75,6.85-6.41,1.6-2.4,4.08-3.89,6.38-5.51,1.75-1.23,4.42-.85,6.17.52,1.92,1.49,2.74,3.63,3.33,5.85.23.86.05,1.79-.6,2.58-1.11,1.34-1.98,2.89-3.63,3.71-.26.13-.51.39-.62.65-.43,1.03-1.15,1.75-2.08,2.36-.62.41-1.19,1-.56,2.07Z"/><path class="cls-1" d="m575.64,274.6c-1.48,1.04-2.13,2.62-3.06,4.1,0,.84.1,1.77-.03,2.66-.09.64-.34,1.37-.77,1.84-1.54,1.68-3.19,3.28-4.8,4.9-.32.32-.7.59-1.03.91-1.48,1.44-3.17,1.82-5.18,1.27-1.29-.35-2.81.22-3.87-1.17-2.5,1.6-5.17,2.08-7.91,1.34-1.26-.34-2.68-.87-2.98-2.71.43-.46.94-1,1.6-1.72,1.04.11,2.15.22,3.57.37,3.48-1.45,6.45-4.06,9.06-7.08.83-.95,1.28-2.25,1.79-3.44.27-.64.26-1.35-.5-1.81-.23-.14-.37-.43-.53-.63,1.96-2.49,3.33-2.73,6.59-1.23,1.85-1.45,2.37-3.28,1.62-5.41-1.25-3.57-5.03-5.09-7.74-5-1.35.05-2.7.06-3.94.72-.26.14-.61.23-.89.19-2.01-.3-3.73.68-5.48,1.32-1.71.63-3.22.69-4.78-.27-.32-.2-.7-.29-1.19-.48-.82,1.12-1.67,2.26-2.64,3.57.57.48.95,1.01,1.46,1.18,1.28.45,2.01,1.3,2.4,2.85-.62.79-1.35,1.71-2.14,2.71.16.19.34.43.55.63.89.88.97,1.86.36,2.91-.99,1.72-1.19,3.66-1.11,5.52.09,2.01-.12,3.98-.61,5.85-.41,1.59-.19,2.82.7,4.11-.13.5-.27,1-.38,1.4.99,2.06,2.3,3.68,4.11,4.93,1.23.85,2.06,2.03,2.19,3.77-.27.36-.62.83-.98,1.3.07.26.11.49.2.68.45.91,1.32,1.24,2.2,1.51,1.71.53,2.93,1.59,3.68,3.43-.21.65-.46,1.44-.72,2.28-.83.34-1.6.65-2.5,1.01-.31.43-.65,1.05-1.12,1.52-.98.97-2.13,1.44-3.53.86-1.81-.75-3.87-.96-5.38-2.59-1.14.81-2.23,1.6-3.34,2.37-.37.26-.76.59-1.18.67-2.08.4-4.22.54-6.24,1.12-1.65.48-2.99.02-4.41-.54-.97-.38-1.7-.99-1.92-2.15.63-.7,1.28-1.42,2-2.22.73-.08,1.55-.17,2.55-.28-.51-2.47.7-4.36,1.63-6.38,1.58-3.45,3.01-6.97,4.45-10.48.22-.53.19-1.18.17-1.77-.02-.52-.33-1.06-.27-1.56.27-2.4.63-4.79.94-7.19.05-.42,0-.86,0-1.59-1.65,1.09-3.15.88-4.52.16-2.13-1.13-4.49-2.08-5.22-4.9.31-.63.53-1.4,1-1.97,1.84-2.23,2.56-5,3.77-7.53,1.48-3.1,3.19-6.07,5.39-8.73.24-.29.49-.59.71-.9,1.89-2.62,3.73-3.3,6.87-2.5.95.24,1.86.6,2.77.89.21.45.39.85.61,1.35.55-.05,1.09-.02,1.58-.16,2.2-.59,4.38-1.25,6.67-1.33,2.29-.07,4.64-.33,6.88.04,6.47,1.08,11.56,4.22,14.13,10.58.25.61.3,1.33.29,2,0,.65-.21,1.3-.38,2.25,1.11-.63,1.67-1.28,2.02-2.17-.26-.79-.51-1.58-.71-2.17.19-1.24.35-2.28.55-3.55,2.04-1.67,3.7-4.12,6.05-5.76,3.07.96,5.08,2.74,6.15,5.58.34.91.78,1.79,1.16,2.64.49.07.8.21,1.07.15,1.98-.47,3.96-.99,5.93-1.49.44-.11.88-.25,1.32-.27,3.58-.15,7.16-.31,10.74-.4,1.15-.03,2.27-.05,3.36-.53.55-.24,1.17-.37,1.77-.43,2.56-.23,4.79-1.46,7.04-2.5.91-.42,1.57-1.42,2.28-2.21.71-.79,1.34-1.66,1.96-2.43,1.35-.41,2.39-.15,3.11.96,1.77,2.7,3.12,5.64,3.29,8.85.14,2.62-.82,5.08-2.9,6.93-.85.76-1.7,1.53-2.56,2.29-.22.19-.47.37-.73.5-1.08.53-2.17,1.05-3.66,1.76-1.13.09-2.71.13-4.21-.67-.7-.37-1.25-.76-1.64-1.49-.61-1.13-1.36-2.19-2.12-3.37-2.98.9-5.96.5-8.91.62-.59.02-1.17.24-1.69.35-.74,1.56-.78,2.95-.43,4.54.33,1.51.44,3.18-.16,4.74-.11.28-.17.58-.19.88-.2,3.32-1.95,5.77-4.4,8.04-.3.83-.66,1.83-1.1,3.07.12.88-.07,1.91-.61,3.01-.89,1.81-1.02,3.78-.28,5.91,2.76.16,5.43-.17,7.96-.79,2.74.98,3.63,3.24,4.34,5.62-.23,1.91-1.15,3.27-3.02,3.95-.41.15-.7.59-1.09.82-.45.27-.92.57-1.42.65-3.71.55-9.44,1.98-12.51,3.23-2.32.94-4.75.63-6.22-1.74-.28-.45-.62-.87-.99-1.39-.05-1.58-.29-3.26.65-4.9,1.57-1.15,3.21-2.39,4.88-3.57.89-.63,1.27-1.47,1.36-2.51.32-3.54.64-7.08,1.33-10.58.73-3.72,2.15-7.08,4.63-10,.66-.78,1.01-1.86,1.35-2.85.27-.78.31-1.64.43-2.37-.41-2.27-2.13-3.31-3.83-4.44-.68.22-1.4.45-2.34.76-.71-.4-1.56-.88-2.37-1.34-1.38.43-2.72,1-4.11,1.23-1.77.29-2.63,1.35-3.12,2.92-.04.14-.1.29-.14.43-.61,1.95-1.7,2.82-3.74,2.98-1.39.11-2.86-.84-3.6-2.33-.41-.82-.79-1.65-1.21-2.54Z"/><path class="cls-1" d="m450.41,310c-.43-1.03-.86-2.06-1.31-3.15,1.25-.8,2.26-1.96,3.87-2.21.39-.06.72-.53,1.05-.85,1.82-1.7,4.12-2.88,5.57-5,.21-.31.57-.53.75-.86.83-1.56,1.8-2.93,3.39-3.9.78-.47,1.28-1.49,1.77-2.34,2.6-4.58,4.53-9.44,6-14.49.61-2.11,1.37-4.17,2.01-6.11-.68-1.5-1.67-1.09-2.61-.83-.48-.26-.95-.51-1.54-.82-.76-1.31-1.59-2.73-2.52-4.32,1.15-.89,2.16-1.67,3.22-2.49-.84-1.61-1.69-3.23-2.56-4.9,1.03-.56,1.96-1.06,2.88-1.55.27-.14.54-.38.82-.38,2.51-.06,5-.26,7.51.34,2.75.65,4.58,2.59,6.61,4.24.78.64,1.29,1.66,1.77,2.58,1.6,3.08,3.53,6.02,4.11,9.55.13.79.68,1.52,1.1,2.4,1.16.38,2.38.77,3.8,1.24.74-.54,1.61-1.03,2.28-1.71,1.06-1.07,1.98-2.28,2.99-3.42.99-1.12,2.08-2.17,3-3.34.79-1,1.44-2.04,1.67-3.42.44-2.56,3.51-5.86,6.75-5.35,1.16.18,2.26.78,3.75,1.32.76-.29,1.9-.72,3.14-1.19.77.25,1.65.5,2.5.82.85.33,1.67.74,2.54,1.12.53,1.38,1.04,2.71,1.54,4.01-1.07,1.23-2.34,1.76-3.61,2.26-2.02.79-3.44,2.22-4.41,4.08-1.48,2.83-2.94,5.69-4.27,8.6-.46,1.01-.76,2.22-.69,3.31.1,1.47-.4,2.67-.98,3.91-.35.74-.68,1.49-1.05,2.3,1.23.79,2.24,1.57,3.36,2.13,1.72.86,2.81,2.08,3.32,3.99.28,1.06,1.02,2.03,1.67,2.96.76,1.08,1.3,2.2,1.3,3.66,1.57.94,2.15,2.69,2.98,4.29-.45,2.12-2.27,2.56-3.94,2.94-2.99.68-5.79,1.85-8.54,3.12-1.73.8-3.39,1.3-5.27,1.13-.53-.05-1.07,0-1.83,0-.72,1.02-1.5,2.13-2.31,3.28-2.48.68-5.35-.55-6.64-2.98-.45-.86-.75-1.79-1.16-2.67-.37-.83-.79-1.64-1.13-2.35.48-2.22,2.8-2.13,3.77-3.32,0-1.99-.06-3.8.02-5.61.05-1.07.51-2.02,1.09-2.95.8-1.28,1.53-2.63,2.12-4.03,1-2.38,1.95-4.8,2.76-7.25.53-1.63.78-3.35,1.19-5.19.37-.58.85-1.32,1.33-2.07-.08-.1-.15-.19-.23-.29-.36.15-.8.21-1.07.46-1.46,1.32-2.92,2.66-4.3,4.06-1.76,1.77-4.01,2.47-6.35,2.86-.84.14-1.82-.08-2.65-.39-2.16-.81-2.6-1.77-2.06-3.97-2.84-2.19-5.66-4.36-8.62-6.64-.68.49-1.27,1.27-1.57,2.2-.87,2.66-1.5,5.42-2.59,7.99-.69,1.63-1.05,3.39-2.15,4.89-1.28,1.75-2.21,3.77-3.24,5.59,1.57,1.05,3.01,2.02,4.16,2.79.69,1.25,1.2,2.18,1.83,3.31v3c-.1.07-.34.28-.62.4-2.57,1.11-4.45,3.12-6.53,4.87-2.09,1.76-4.38,2.73-7.15,3.17-2.25.35-4.17.21-6.12-.79-.19-.1-.44-.16-.66-.14-1.8.11-3.29-.48-4.49-1.84-.12-.13-.43-.09-.65-.12l.08.08Z"/><path class="cls-1" d="m590.39,363.05c-.34.38-.59.66-.9,1.01,1.37,2.74,2.72,5.45,4.11,8.24,1.39-.03,2.18.86,2.9,1.89.57.81,1.18,1.59,1.84,2.33.29.33.69.62,1.1.76,1.28.44,2.63.7,3.88,1.21,1.01.42,1.92,1.11,3.01,1.75.92-.75,1.31-1.94,1.58-3.07.84-3.47,2.03-6.8,3.43-10.07.12-.27.22-.55.37-.95-.73-.18-1.37-.35-2.02-.49q-2.03-.44-2.94-2.48c-.51-.15-1.08-.33-1.73-.53-.87-1.52-2.09-2.97-1.58-5.26,1.43-1.15,2.93-2.57,4.63-3.68,1.73-1.13,2.74-2.83,4.05-4.3.61-.68,1.22-1.37,1.86-2.02.84-.87,1.88-1.08,2.94-.58,1.3.62,2.52,1.38,3.91,2.16.21,1.22.42,2.39.62,3.53.89.64,1.92,1.17,2.7,1.96,2.11,2.13,2.16,2.8.76,5.5,2.21,1.25,4.01,2.89,4.34,5.85-.94.54-1.92,1.09-2.88,1.68-.77.47-1.64.87-2.23,1.52-2.69,2.95-4.8,6.22-5.67,10.22-.31,1.44-1.15,2.77-1.69,4.17-.24.63-.37,1.3-.48,1.97-.16.97-.25,1.96-.36,2.93-.03.3-.12.63-.05.91.57,2.19.09,4.36-.2,6.43.89,1.59,2.67,1.66,4.01,2.88.23.76.54,1.77.85,2.78-.36.6-.69,1.1-.98,1.63-.39.72-.96,1.14-1.79,1.25-.67.09-1.32.32-1.99.41-1.24.17-1.9.95-2.67,1.88-1.63,1.94-3.22,4.03-5.89,4.73-2.58.67-4.01.04-5.15-2.33-.19-.41-.37-.82-.58-1.31.48-.69.94-1.36,1.5-2.16-.48-.35-.84-.77-1.29-.93-1.52-.54-2.46-1.62-3.32-2.96-.89-1.39-1.95-2.74-3.16-3.86-1.29-1.2-2.1-2.57-2.5-4.24-.14-.59-.24-1.24-.57-1.73-1.13-1.67-1.26-3.49-1.21-5.43.06-2.56-.73-4.88-2.35-6.94-1.02-1.29-1.86-2.72-3.09-4.53.1,3.04-1.23,5.08-2.26,7.24-.52,1.09-1.03,2.22-1.27,3.39-.55,2.72-1.89,5.12-2.86,7.66-.75,1.96-1.34,3.98-2.07,6.16,2.75.31,4.19,1.99,5.29,4.28-.13.29-.37.68-.46,1.1-.07.35.06.74.07.86-.68,1.3-1.5,2.38-1.82,3.59-.43,1.59-1.44,2.61-2.47,3.6-2.79.64-5.03-.19-6.88-2.27-.79.45-1.51.85-1.98,1.12-.22,1.45-.41,2.7-.59,3.95-2.24-.46-2.84-1.63-2.06-4.27-.42-.34-.9-.72-1.36-1.08v-2.07c1.33-.99,1.85-3.04,3.86-3.4.2-.92.37-1.72.54-2.48.89-.35,1.65-.65,2.59-1.02-.43-3.5.83-6.69,1.73-9.96-.27-1.08-.55-2.18-.83-3.26,1.81-2.13,2.42-4.74,3.04-7.31.74-3.09,1.36-6.23,1.88-9.37.26-1.57.19-3.19.29-5.12-1.34-2.04-1-4.42-.07-6.87.28-.75.25-1.63.28-2.45.07-1.66.09-1.83.96-3.43,1.67-.71,3.35-.86,5.08-.07,1.79,1.8,5.64,7.76,6.24,9.74Z"/><path class="cls-1" d="m375.08,280.66c1.88-3.83,3.78-7.7,5.75-11.7-.86-.63-1.88-1.38-3.07-2.27-1.95,2.15-4.37,3.59-7.84,3.58-.37-.31-1.09-.85-1.75-1.44-.96-.86-1.94-1.23-3.32-.93-1.92.42-3.91.53-5.86.77-.45.06-.92.04-1.34.19-1.57.55-3.19.33-4.79.44-1.68.12-3.31.31-5.01-.23-1.98,1-4.03,1.98-6.02,3.05-2.13,1.15-3.73,2.85-4.8,5.04-1.33.65-2.52-.16-3.75-.44-.32-.07-.67-.41-.82-.72-.69-1.42-1.5-2.82-.97-4.53.15-.49.22-1.04.18-1.55-.07-1.16-.37-2.32-.3-3.46.05-.78.44-1.6.89-2.27,2.16-3.22,4.38-6.4,6.7-9.76,1.25-.31,2.57-1.66,4.26-.61,1.37.86,2.57,1.87,2.67,3.68.91.09,1.1-.74,1.53-1.19,1.71-1.78,2.38-1.88,4.53-.58.39.24.77.49,1.06.69.16.66.32,1.21.4,1.76.08.56.09,1.12.14,1.86.39.08.91.34,1.37.26,2.99-.48,6.01-.66,9.01-.97,2.88-.3,5.6-1.3,8.18-2.62.64.34,1.24.66,1.94,1.04,2.63-.94,4.17-3.51,6.88-4.73,1.07.56,2.26,1.19,3.48,1.82,1.64,2.12,2.28,4.43,1.09,7.14,1.01.38,1.98.74,2.99,1.11.57-.3,1.13-.54,1.63-.87,1.93-1.26,3.99-1.28,6.11-.67.8.23,1.57.47,2.44.23,3.38-.92,6.63-2.15,9.73-3.74.12-.92.22-1.73.33-2.61-.19-.12-.48-.32-.83-.56.58-2.02,2.56-1.13,3.6-2.06,1.05.36,2.05.7,3.06,1.05.22-.1.46-.22.74-.36.1.42.18.78.27,1.19.88.14,1.76.29,2.96.48.9-.61,2.02-1.36,3.29-2.22,1.24-.3,2.52.1,3.77.94,1.51-1.55,2.96-3.05,4.5-4.63,1.51,1.09,3.02,2.18,4.54,3.28,1.14.82.85,2.21,1.29,3.14-.38,2.06-2.18,3.52-1.76,5.44-.77,1.55-1.63,2.85-2.09,4.27-1.07,3.31-3.38,5.33-6.33,6.72-1.44-.11-2.81-.22-3.99-.31-1.4-1.14-2.56-2.22-3.86-3.1-.99-.66-1.4-1.54-1.66-2.61-.14-.56-.39-1.08-.58-1.62-1.72.1-2.65,1.14-3.55,1.95-2.73.21-4.62,2.35-7.08,2.57-.49.99-.13,1.46.76,1.65,0,.77.01,1.45,0,2.13-.06,2.65-.46,5.23-1.39,7.73-.42,1.13-.7,2.32-1.01,3.49-1.16,4.43-2.32,8.85-2.79,13.44-.26,2.54-1.03,5.02-1.6,7.69,1.05,2.17.86,4.29-.95,6.27-.64.7-1,1.66-1.66,2.79-.89.13-2.08.31-3.13.47-2.61-1.16-3.93-3.07-4.33-5.9,1.17-1.73,2.08-3.85,3.62-5.69.99-1.19,1.33-3.02,1.68-4.63,1.07-4.94,1.64-9.98,2.87-14.89.42-1.68.9-3.36,1.26-5.05.15-.71-.02-1.49.14-2.19.15-.64.7-1.19.81-1.82.21-1.28.25-2.58.37-4.05-2.48.58-4.74,1.28-7.05,1.58-1.57.21-3.25.72-4.7-.21-1.46,3.48-2.87,6.83-4.27,10.18-.38.91-.69,1.85-1.12,2.74-.78,1.59-1.6,1.97-3.31,1.6-.52-.11-1.02-.31-1.7-.53-.77-1.6-1.6-3.31-2.49-5.15Z"/><path class="cls-1" d="m208.96,266.31c.51.6.89,1.17,1.39,1.6,2.77,2.43,5.07,5.22,7.15,8.28,2.12,3.13,4.66,5.97,7.07,8.9,1.45,1.76,2.99,3.44,4.5,5.15.24.28.56.49,1.02.88.13-2.76,1.22-4.95,2.44-7.13.58-1.04.84-2.25,1.41-3.87,1.52-1.65,3.99-5.92,4.05-7.6-2.86-.58-4.73-2.49-7.02-5.69.32-3.42,2.23-6.04,4.32-8.56,1.41-1.7,2.88-3.34,4.35-5.04,1-.45,2.04-.91,3.13-1.4.88.04,1.82.09,3.05.15.95,1.52,2.06,3.33,3.19,5.11,1.08,1.71,2.2,3.4,3.2,4.95.18,1.97-.23,3.64-.81,5.31-.54,1.57-.78,3.25-1.44,4.76-.72,1.65-1.7,3.21-2.71,4.71-1.5,2.23-2.77,4.56-3.2,7.21-.23,1.4-.68,2.64-1.47,3.77-1.8,2.56-2.74,5.45-3.04,8.51-.1,1.06.45,2.19.7,3.3-.45.62-.93,1.3-1.47,2.05-.27.11-.61.34-.97.39-3.64.48-6.71,2.39-9.91,3.97-.48.24-.95.52-1.33.88-1.91,1.82-4.2,3-6.92,4.1-1.44-.68-3.11-1.4-4.7-2.26-.56-.3-1.03-.91-1.34-1.49-.54-1-.91-2.08-1.41-3.24,1.99-2.68,3.96-5.37,5.2-8.56-.18-.51-.38-1.07-.59-1.63,2.03-.51,2.55-2.27,3.31-3.75.17-.34-.1-1.09-.41-1.45-1.53-1.78-2.78-3.78-4.65-5.33-1.41-1.17-2.59-2.72-3.56-4.3-1.37-2.23-3.3-3.96-4.91-5.97-.94-1.17-2.29-2.15-3.94-2.16-1.12,2.05-1.01,4.12-1.14,6.14-.02.29.38.6.65.99-.23.31-.72.67-.7,1,.11,2.25-.85,4.38-.39,6.73.42,2.11.23,4.4-.02,6.56-.28,2.4-.95,4.76-1.43,7.14-.2,1,.11,2.03-.42,3.05-.48.93-.88,1.74-2,1.95-.29.06-.58.2-.83.36-2.69,1.61-5.38,1.24-8.07,0-.48-.22-.96-.45-1.61-.76-.73-1.43-1.76-2.79-3.07-4-.91-.84-1.4-2.13-1.95-3.01.29-2.75,1.78-4.21,4.07-5.01.71-.25,1.38-.65,2.05-1.02,1.47-.8,2.97-1.18,4.6-.48.25.11.59.02.94.02.48-1.39.64-2.78.68-4.22.06-2.36-.17-4.71.27-7.08.28-1.49-.03-3.08-.08-4.81-2.84-4.29-2.1-2.79-1.23-7.81.36-2.07.8-4.15.08-6.19q2.46-1.86,6.6-.68c.3-.59.6-1.19.93-1.84,1.87-.41,3.37-1.44,4.42-2.96.67-.96,1.52-1.46,2.52-1.81,2.72.34,5.24,1.06,7.06,3.28.76.93,1.17,1.95.95,3.09-1.77,2.66-4.05,4.73-6.57,6.79Z"/><path class="cls-1" d="m197.36,388.16c1.32-1.54,3.35-2.7,5.71-3.73,1.23.4,2.59.85,4,1.32,0,1.88,1.32,2.7,2.44,3.65.24-.14.47-.21.47-.28-.05-1.79.92-3.31,1.31-4.99.67-2.92,2.79-4.91,4.51-7.2,1.84-2.46,4.37-4.01,6.83-5.59,1.47-.95,3.39-1.36,5.16-1.61,1.95-.28,3.57,1.16,4.56,3.51.85.18,1.73.44,2.63.55,3.7.44,6.72,2.25,8.89,5.11,2.08,2.74,2.28,5.94.1,8.93-.88,1.21-1.65,2.51-2.44,3.78-1.84,2.94-4.02,5.64-6.86,7.58-2.42,1.65-5.02,2.99-8.14,3.32-2.47.26-4.83.22-7.2-.31-2.02-.45-3.88-1.37-5.55-2.59-.74-.54-1.39-1.19-2.13-1.83-.47-1.35-.96-2.74-1.53-4.37-.55.73-.94,1.26-1.35,1.77-1.97,2.45-4.08,4.74-7.17,5.82-.34.12-.71.33-.9.61-1.15,1.65-2.84,2.39-4.86,2.93-.71-.22-1.62-.38-2.42-.78-1.51-.77-2.92-.48-4.4.06-4.88,1.79-9.9,2.96-15.14,2.67-2.98-.17-5.86-.78-8.3-2.75-2.6-2.09-4.63-4.55-5.58-7.81-.34-1.16-.8-2.28-1.23-3.48.07-.53.27-1.14.21-1.72-.42-4.36,1.62-7.97,3.55-11.58,1.29-2.42,2.73-4.78,4.31-7.02,1.43-2.02,3.13-3.85,4.91-5.59,2.58-2.52,5.55-4.52,8.63-6.32,2.14-1.25,4.57-1.99,7.05-2.52,1.99-.43,4.06-.85,5.84-1.76,2.76-1.4,5.76-1.8,8.64-2.68.55-.17,1.22-.06,1.82,0,.9.1,1.8.28,2.7.43,1.42.24,2.72.54,3.72,1.87.85,1.13,2.13,1.94,3.19,2.85.29.76.57,1.47.93,2.42-1.33,3.24-2.78,6.59-5.84,8.86-4.35-.46-7.02-2.79-8.24-6.94-1.32.48-2.48,1.14-3.7,1.29-1.24.15-2.53-.21-3.68-.33-.46-.52-.82-.91-1.23-1.38-.71.07-1.43.01-2.04.24-1.5.54-2.91,1.32-4.42,1.82-4.44,1.48-7.76,4.45-10.82,7.82-2.53,2.79-4.47,5.99-6.22,9.29-.84,1.58-1.11,3.45-1.81,5.12-1.69,4.05-.21,7.61,1.73,11.03,1.02,1.8,2.85,2.41,5.05,2.39.03-2.55,1.93-3.54,3.88-4.03,2.31-.59,4.39-1.66,6.54-2.57,2.66-1.12,5.22-2.51,7.9-3.58,1.74-.7,3.62-1.03,6-1.69Zm23.01-8.4c-1.31,1.08-1.77,2.46-2.43,3.74-1.43,2.74-2.24,5.5-1.59,8.66.26,1.25.74,2.12,1.75,2.76,4.04,2.59,6.78,2.25,10.85-.05,3.37-1.9,5.6-5.09,7.71-8.26.37-.56.65-1.21.86-1.86.56-1.7.16-2.86-1.36-3.92-.55-.38-1.17-.7-1.8-.9-2.78-.88-5.71-.7-8.56-.93-1.82-.15-3.71.5-5.41.76Z"/><path class="cls-1" d="m300.71,270.65c-1-1.25-2.18-2.73-3.35-4.18.77-1.79,2.62-2.3,3.57-3.74-.64-1.81-2.54-3.01-2.72-5.15,1.11-1.56,2.88-1.49,4.48-1.83.51-.11,1.03-.19,1.54-.29.96-.19,1.92-.4,2.88-.58.67-.13,1.35-.22,2.02-.36,1.55-.32,3.09-.85,4.65-.94,1.59-.1,3.17.28,4.24,1.73.5.67,1.01,1.39,1.67,1.85,1.61,1.11,2.79,2.58,3.75,4.03.18,1.05.59,1.99.43,2.81-.29,1.52-.5,3.06-1.66,4.39-1.43,1.63-2.48,3.6-3.71,5.43.3.89,1.17.93,1.86,1.12,1.8.48,3.12,1.53,4.03,3.12.87,1.52,1.81,3.01,2.51,4.6,1.33,3.02,1.43,3.17,4.74,3.56.45.59.95,1.25,1.5,1.97.07.77.14,1.59.23,2.55-.47.45-.99.95-1.59,1.52,1.17.32,2.23.62,3.34.93.32,1.61,1.28,2.86,1.07,4.6-.11.9.79,1.92,1.23,2.88-.97,2.1-1.91,4.15-2.84,6.17.22.3.36.47.57.76.52-.21,1.04-.43,1.67-.69v1.57c-.79-.04-1.49-.08-2.36-.12.15.31.2.67.39.76,2.15,1.09,2.92,2.79,2.27,5.32-1.19,2.05-3.49,2.94-5.68,3.96-1.49.7-2.72-.32-3.78-1.02-2.65-1.74-3.94-4.27-2.94-7.46.13-.43.13-.9.22-1.58-.83-.33-1.63-.85-2.48-.96-2.49-.3-3.97-2.06-5.53-3.4-.8-2.07-.64-3.9.26-5.62.49-.94.3-1.74-.05-2.68,1.77-1.6,3.57-3.2,5.22-5.24-1.19-.71-1.67-1.8-2.81-2.4-.95-.5-1.59-1.6-2.44-2.52-.08-.53-.19-1.2-.31-1.99-3.62-1.11-6.28-3.26-7.29-7.35-4.14,4.17-8.13,8.2-12.37,12.48.81.07,1.29.14,1.77.14,2.76,0,5.51.06,8.27-.03,1.61-.05,3.04.19,4.28,1.54.11.42.26,1,.4,1.57-.42,1.4-1.46,2.09-2.8,2.42-2.11.52-4.25.81-6.41.95-1.44.09-2.86.31-4.3.44-2.27.2-4.54.37-6.81.56-.38.03-.75.1-1.1.15-4.05,4.01-8.08,7.97-12.05,11.98-.94.95-1.84,2.01-2.49,3.18-.79,1.43-2.29,1.67-3.57,2.62-.9-.44-1.84-.9-2.72-1.33-.26-2.2,1.12-3.56,2.21-4.92,2-2.5,4.23-4.81,6.36-7.21,1.51-1.7,3.02-3.41,4.65-5.26-.51-.65-1.01-1.29-1.56-2.01-.23-1.62,1.26-1.88,2.28-2.31,1.08-.46,2.32-.52,3.44-.75,6.47-6.81,12.95-13.62,19.6-20.62-2.06.13-3.66,1.71-5.89.87Z"/><path class="cls-1" d="m349.42,369.2c-.4.32-.79.64-1.32,1.07-1.24-.51-2.48-1.03-3.67-1.51-1.02.47-1.95.9-2.82,1.3-1.44-.44-2.97-.43-4.11-1.74-.28-1.71.77-3.07,1.62-4.47.35-.58.91-1.03,1.35-1.55,1.05-1.22,1.73-2.48,1.98-4.22.36-2.54.78-5.06.9-7.63.03-.73.34-1.45.5-2.09,1.5-1.29,3.18-.56,4.75-.8,1.36.9,2.23,2.08,2.45,3.86,1.4-.9,2.75-1.72,4.06-2.6,3.39-2.29,7.17-3.85,11.09-4.68,4.87-1.02,9.54,0,13.59,3.13,1.17,1.9,3.43,3.06,3.63,5.63.05.6.63,1.14.93,1.74.6,1.22,1.18,2.45,1.71,3.58-.08.98-.15,1.81-.22,2.73-.25.21-.5.51-.82.69-.89.5-1.17,1.26-1.32,2.24-.32,2.16-.79,4.29-1.23,6.59.2.27.51.69.77,1.03.32,1.51-.38,2.6-1.13,3.66-.48.68-1.05,1.3-1.51,1.98-1.49,2.19-3.77,3.3-6.12,4.13-1.31.47-2.86.37-4.3.38-2.66.03-5.31,0-7.92-.8-1.26-.39-2.7-.21-4.18-.3-.23.29-.56.7-.96,1.18.49.63.98,1.25,1.57,2-2,1.13-3.55,2.42-2.78,5.15.57.72,1.33,1.65,2.11,2.63-.61,1.2-1.19,2.33-1.82,3.56.51.37,1.05.76,1.7,1.22.07,2.66.07,5.28-2.29,7.16-1.17-.23-2.27-.62-3.37-.62-.86,0-1.85.28-2.55.77-2.17,1.55-4.74,1.99-7.19,2.71-1.16.34-2.33.53-3.39,1.18-.63.39-1.41.55-2.05.79-1.11-.22-2.13-.43-3.19-.64-.59-.78-1.2-1.6-1.98-2.65.88-1.08,1.87-2.3,3-3.7.05-.42.14-1.08.24-1.85,1.29-.76,2.59-1.53,3.97-2.35-.24-2.02.8-3.48,1.85-5,.94-1.38,1.72-2.87,2.51-4.35,1.5-2.81,2.96-5.64,4.41-8.48.31-.6.49-1.27.77-2.03-1.23-1.67-.67-3.34.18-5.05.43-.85.65-1.81.96-2.73-.13-.1-.26-.19-.38-.29Zm11.43,5.19c.23-.17.37-.25.46-.36,1.52-2.02,2.89-2.5,5.09-1.58,1.22.51,2.34.55,3.5-.06.47-.25.98-.43,1.45-.68,2.78-1.51,4.28-3.98,5.02-6.96.23-.94.31-1.92.45-2.83-1.29-1.16-2.4-2.69-3.89-3.35-1.94-.85-2-2.66-2.89-3.75.19-2.28,1.38-3.34,3.35-3.67.56-.09,1.07-.41,1.83-.7-.38-.36-.59-.67-.89-.82-2.25-1.12-4.48-.35-6.6.34-2.15.7-4.21,1.73-6.25,2.73-2.8,1.37-5.43,2.99-7.74,5.34,5.3.07,6.37.73,7.18,4.29-2.27,3.36-3.43,7.18-4.86,10.86,1.37,2.07,3.31.73,4.78,1.19Z"/><path class="cls-1" d="m160.16,278.82c.58.72,1.24,1.55,1.96,2.45.59-.34,1.02-.6,1.45-.85-.51-1.12-.97-2.13-1.38-3.04.2-.78.36-1.42.53-2.1-1.89-.41-2.86-1.83-4-3.03-.22-1.33-.37-2.66-.67-3.95-.31-1.33-.77-2.62-1.19-4.03.13-.34.31-.8.49-1.26l-.37-.25c-.74.72-1.47,1.46-2.23,2.16-3.22,2.92-6.46,5.82-9.69,8.73-.06.05-.12.1-.17.15-2.46,2.61-4.84,5.29-7.39,7.81-1.89,1.86-3.26,4.13-5.25,5.93-2.13,1.93-3.88,4.3-5.74,6.52-2,2.4-4.06,4.73-5.73,7.41-.7,1.12-1.93,1.9-2.92,2.83-1.28-.52-2.48-1-3.72-1.51-.2-.86-.39-1.73-.64-2.81.5-.66,1.11-1.43,1.68-2.22,1.2-1.67,2.36-3.37,3.56-5.04.57-.8,1.15-1.61,1.8-2.36,5.18-6.02,10.61-11.81,16.21-17.42,3.5-3.5,7.32-6.69,10.99-10.02.62-.57,1.23-1.15,1.85-1.72,2.02-1.85,4.05-3.69,6.05-5.56.66-.62,1.4-1.25,1.83-2.03,1.19-2.14,3.17-2.66,5.47-3,.57.69,1.15,1.4,2.05,2.5.12.56.34,1.67.57,2.8.98.44,2.01.91,2.8,1.27,1.04,1.46,1.46,2.73.84,4.29-.29.72-.14,1.59.29,2.42.55,1.07.82,2.29,1.25,3.42.72,1.87.36,3.44-1.23,4.7-.42.33-.8.71-1.27,1.12v1.61c.86.23,1.65.59,2.45.62,1.79.05,3.19.91,4.56,1.88.86.61,1.7,1.26,2.5,1.86.26.96.51,1.89.82,3.05-.07.53-.17,1.34-.28,2.27,2.02,1.61,4.51,2.8,4.87,6.03.02-.03-.19.21-.26.49-.42,1.58-1.03,3.02-2.7,3.68-1.12,1.79-2.58,3.48-1.47,5.84.22.47.32,1,.49,1.54-.19.4-.34.84-.58,1.22-.81,1.28-.88,2.54-.13,3.89.44.79.7,1.69.99,2.43-.27,1.64-1.05,2.8-2.44,3.62-2.17.14-4.2-.49-5.82-1.94-1.17-1.04-2.11-2.36-3-3.66-.33-.48-.16-1.27-.31-1.91-.53-2.28-1.09-4.55-1.63-6.78-.58-.34-1.05-.59-1.49-.89-1.63-1.09-3.51-1.87-4.39-3.86-.26-.59-.9-1.01-1.39-1.54.12-.38.23-.73.31-1.01-1.25-1.67-2.48-3.3-3.78-5.04-.17-.02-.49-.14-.76-.07-2.78.73-5.75.75-8.33,2.21-1.5.85-2.95.26-4.39-.13-.66-.17-1.27-.51-1.97-.8-.39-.48-.83-1.01-1.24-1.51-.09-.87-.18-1.68-.28-2.55.99-1.06,2.05-2.01,3.55-2.33,3.11-.67,6.16-1.68,9.38-1.84,1.14-.05,2.31-.14,3.38-.47,1.59-.49,3.15-.36,5.27-.25Z"/><path class="cls-1" d="m465.45,394.19c1.22,1.09,1.91,2.56,1.34,4.21-.46,1.34-1.29,2.57-1.98,3.83-.25.47-.69.86-.85,1.35-.88,2.69-2.96,4.17-5.36,5.3-.47.22-1.01.38-1.52.39-1.44.03-2.88-.04-4.15-.07-.88-.9-1.57-1.61-2.28-2.34-.03-2.13-.09-4.3,1.22-6.31-.66-1.04-1.31-2.05-1.97-3.09.63-1.48,1.25-2.94,1.85-4.35-1.58-2.25-3.23-4.34-4.59-6.61-.75-1.25-1.35-2.78-1.39-4.2-.03-1.19-.32-2.25-.64-3.3-.51-1.66-1.23-3.26-1.9-4.87-.17-.4-.49-.72-.81-1.17-2.42,4.92-3.86,10.01-5.49,15.05-1,3.09-1.8,6.29-3.46,9.16-.67,1.15-1.05,2.47-1.53,3.65.72,1.02,1.5-.03,2.26.17,1.25.98,2.49,1.95,3.66,2.87-.29,3.73-1.41,5.02-4.98,5.85-1.69.39-3.39.81-5.11,1.07-.96.15-2,.17-2.94-.05-1.75-.4-2.44-1.41-3.01-3.87.21-1.34,1.13-2.09,1.95-2.46.48-1.44.82-2.59,1.25-3.7,1.07-2.76,2.19-5.5,3.26-8.26.99-2.53,1.98-5.07,2.91-7.62.23-.62.21-1.34.39-1.98.6-2.11,1.22-4.22,1.89-6.31.16-.49.54-.91.78-1.38.6-1.14,1.17-2.29,1.78-3.48-1.29-1.52-1.63-3.29-1.85-5.11-.08-.67-.39-1.31-.53-1.98-.24-1.15-.84-2.21-.53-3.52.17-.7-.38-1.58-.54-2.15.23-1.41.42-2.63.65-4.09,1.88-2.88,4.75-3,8.18-1.82.57.74,1.3,1.7,2.05,2.66,3.95.53,4.94,1.7,4.27,5.03.23.55.46,1.11.67,1.62-.35.92-.68,1.77-.98,2.63-.37,1.05-.39,2.1.08,3.12,1.14,2.49,1.74,5.15,2.46,7.78.06.22.09.45.19.65,1.33,2.67,2.48,5.44,3.99,8.02.73,1.24,1.4,1.43,2.9,1.07.73-.18,1.47-.27,2.41-.43.18-.44.44-1.05.7-1.65-.42-.68-.77-1.26-1.14-1.86.72-3.14,3.12-5.6,3.51-8.93,1.96-.72,2.54-2.51,3.08-4.34-1.9-1.94-4.27-3.4-5-6.48.4-.47.89-1.24,1.55-1.81,1.44-1.24,2.91-2.44,4.46-3.53,1.05-.73,2.2-1.37,3.4-1.82,1.19-.45,2.49-.6,3.64-.85,1.02.25,1.99.39,2.88.72.92.34,1.78.85,2.21,1.06.84,1.22,1.36,2.05,1.95,2.82,1.3,1.7,1.32,3.35-.13,4.92-.92.99-1.92,1.96-3.03,2.72-1.91,1.3-3.02,2.96-2.94,5.41-.52.42-.99.97-1.59,1.24-1.35.59-2.07,1.51-1.98,2.66-.57.66-1.09,1.06-1.33,1.58-.75,1.66-1.54,3.33-2.03,5.08-.92,3.25-1.18,6.64-1.69,9.97-.1.67-.3,1.32-.48,2.12Z"/><path class="cls-1" d="m675.87,289.34c.65-1.02,1.1-1.72,1.52-2.38-.13-.27-.22-.47-.32-.68.53-.51,1.06-1.03,1.69-1.64-.53-.62-.96-1.13-1.46-1.71,1.31-3.48,3.3-6.56,6.24-9.22-.5-.37-.85-.61-1.19-.88-.3-.23-.58-.49-1.01-.86-.92.34-1.9.71-2.97,1.11-1.51-.22-3.01-.55-3.77-2.3-.67-1.55-.51-2.81.76-3.87,1.76-1.45,3.54-2.88,5.28-4.36.51-.44.91-1.02,1.13-1.26,1.5-.43,2.7-.79,3.91-1.11,1.02-.27,2.04-.53,3.07-.74.58-.12,1.19-.13,2.02-.21,1.63.77,3.43,1.77,5.62,1.63.71-.05,1.45.39,2.16.6,1.61,1.69,2.59,3.47,1.39,5.6,1.37,3.75,2.68,7.36,3.99,10.93-.2,1.31-.39,2.57-.61,3.96.74,1.46,1.17,3.05-.06,4.63.81,1.11,2.4,1.62,2.22,3.29,1.05.69,2.08,1.21,3.35,1.39,1.02.14,2.1.55,2.96,1.13,1.7,1.15,3.45,2.17,5.34,3,1.78.78,3.27,1.98,4.25,4.21,0,.11.06.65-.01,1.17-.1.74-.56,1.25-1.3,1.41-1.03.22-2.06.41-3.3.65.58,1.93,1.17,3.84.11,5.71.25.32.4.58.61.79,1.77,1.7,1.71,3.76,1.13,5.89-.22.8-.51,1.61-.94,2.3-.63,1.02-1.63,1.59-2.85,1.65-.84.04-1.68,0-2.67,0-.79-.74-1.57-1.56-2.45-2.27-1.38-1.11-2.98-1.94-4.75-1.82-1.85.13-3.05-.6-4.04-2.01-.21-.31-.52-.55-.76-.81,0-1.89.49-3.54,1.32-5.22.93-1.88,1.42-3.97,2.13-6.07-1.32-.72-2.57-1.41-3.72-2.04-1.62-1.69-1.41-3.8-1.53-5.93-1.39.12-2.65.33-3.91.32-1.28-.01-2.6-.5-3.83-.31-3.04.46-6.09.38-9.14.53-1.05.05-2.08.33-3.08.49-3.16,4.72-6.77,8.95-10.66,12.92-1.33,1.36-2.91,2.46-4.3,3.75-.95.88-1.72,1.95-2.68,2.83-.89.82-1.87,1.57-2.89,2.2-.82.5-1.62.32-2.09-.66-.08-1.01.5-1.72,1.14-2.39,2.9-3.03,5.81-6.04,8.69-9.09,1.36-1.44,2.67-2.93,3.96-4.43.85-.98,1.66-1.99,2.44-3.02.21-.28.26-.67.49-1.28-.82-.05-1.47-.13-2.12-.12-2.37.03-4.74.17-7.1.09-1.16-.04-2.3-.51-3.6-.81-.12-.65-.24-1.29-.39-2.14.83-.26,1.51-.58,2.23-.69,2.33-.37,4.67-.69,7.01-.97,1.58-.19,3.18-.26,4.76-.43.89-.1,1.77-.3,2.6-.44Zm24.06-2.42c-.79-.44-1.64-.65-2.05-1.2-.96-1.26-1.78-2.64-2.51-4.05-1.07-2.06-2.37-3.9-4.33-5.21-.82-.55-1.63-.83-2.56.1.73,1.15.57,2.36-.29,3.32-2.19,2.46-3.22,5.44-4.2,8.55,1.04.66,2.19.53,3.13.3,3.69-.9,7.4.21,11.08-.29.34-.05.72.22,1.09.29.12.02.27-.1.56-.22.03-.5.06-1.08.09-1.58Z"/><path class="cls-1" d="m450.33,309.91c.22,4.12-1.59,7.22-4.53,9.55-3.11,0-5.39-1.15-7.25-3.46-.42-1.62-1-3.42-.02-5.65-1.15.36-1.91.6-2.67.85-3.85,1.25-7.71,2.23-11.85,2.12-1.87-.05-3.75-.01-5.57-.35-3.18-.6-5.91-2.01-7.45-5.09-.14-.27-.33-.51-.5-.77-.32-3.24-.26-3.64,1.26-7.34-.92-.7-1.87-1.42-3.06-2.33-.72-2.17-1.07-4.49.18-6.97.88-1.74,1.33-3.69,1.98-5.55.98-.54,1.91-1.06,2.84-1.57,2.29-.22,4.42,0,5.84,2.22,1.74-1.07,2.9-2.57,4.13-4,.74-.87,1.47-1.74,2.21-2.62,1.77-2.1,3.62-4.11,5.66-5.96,1.96-1.78,3.84-3.66,5.78-5.46.61-.56,1.3-1.03,2.05-1.61-.17-.48-.27-1.02-.54-1.44-.8-1.23-.44-2.45.25-3.44,1.78-2.52,4.26-4.11,7.27-4.83.66-.16,1.33-.25,2.01-.34,1.95-.26,3.62.39,5.04,1.69,1.23,1.12,2.41,2.3,3.65,3.41.26.24.67.32,1.08.51.05.53-.03,1.11.17,1.56.96,2.17-.19,3.81-1.29,5.46-.21.32-.54.56-.7.9-.96,2.03-2.41,3.5-4.61,4.05-3.76.92-6.22-.89-8.19-4.12-1.87.75-2.97,2.51-4.5,3.67-1.57,1.19-2.94,2.67-4.34,4.07-1.35,1.35-2.68,2.73-3.94,4.16-1.29,1.46-2.5,3-3.61,4.63,1.83-.47,2.54-2.52,4.41-2.94.45.09,1.04.39,1.47.24,1.49-.52,2.81.05,4.13.5.82.28,1.52.29,2.06-.38,1.4-1.75,3.08-2.37,5.24-1.53.3.11.72-.11,1.15-.19.95.84,1.92,1.69,2.86,2.53.16,1,.32,1.96.51,3.09-.96,1.34-2.01,2.8-3.32,4.63-.6.41-1.52,1.08-2.83,1.23-.91.1-2,.64-2.57,1.34-.8.98-1.83,1.28-2.96,1.74-1.02-.53-2.08-.65-3.14.15-2.48,1.85-5.08,1.76-7.4.52-1.87.32-3.43.56-4.98.85-1.55.29-2.92,1-3.66,2.43-.67,1.27-1.18,2.64-1.61,4.02-.42,1.33-.02,2.02,1.38,2.36,2.35.58,4.69.85,7.17.39,2.91-.54,5.86-.82,8.65-1.91,2.25-.88,4.49-1.79,6.73-2.7.27-.11.53-.32.74-.54,1.1-1.22,2.41-2.04,4.43-2.14.7.34,1.72.84,2.59,1.26,1.14,2.12,1.12,3.95-.44,5.69.89,1.18,1.5,2.56,2.73,3.47l-.08-.08Z"/><path class="cls-1" d="m433.82,193.93c.03-2.6,1.11-4.02,3.34-4.59,1.01-.26,1.98-.66,3.02-1.02-.77-1.58-1.4-2.94-2.09-4.28-1.06-2.06-.9-3.41.94-4.79.86-.64,1.4-1.34,1.74-2.59-.59-.6-1.27-1.3-2.06-2.11-.18-.56-.41-1.28-.72-2.23,2.21-3.02,4.34-6.25,7.75-8.92.33-2.75.69-5.82,1.05-8.86-1-.83-1.94-1-3.08-.89-2.23.22-4.3-.91-5.56-2.83v-2.58c1.6-1.82,3.91-1.65,6.06-1.28,1.11.19,2.12.21,3.1-.09,4.37-1.34,8.58-.71,12.62,1.11,4.03,1.82,7.97,3.83,11.94,5.78,1.22.6,2.5,1.18,3.57,2,2.12,1.62,3.48,3.85,4.21,6.4.17.59-.22,1.32-.27,1.99-.16,2.42-.62,4.78-1.57,7.03,1.02.67,1.95,1.29,3.07,2.03,1.41-.34,2.61.71,3.79,1.2,1.32,1.54,1.12,3.15.91,4.78-1.69,1.87-4.06,2.53-6.26,3.52-2.63,1.19-5.23,2.46-7.83,3.73-.4.19-.82.51-1.02.88-.4.76-1.05,1.14-1.78,1.29-1.25.27-1.9,1.19-2.62,2.09-.75.95-1.52,1.89-2.31,2.81-1.78,2.05-4.26,2.51-6.75,2.93-1.12.19-2.22.47-3.34.6-2.27.27-4.55.47-6.83.68-.37.03-.75-.05-1.13-.08-1.52-.1-3.05-.34-4.57-.27-3.11.14-5.39-1.23-7.33-3.43Zm26.34-13.48c.33-.21.79-.74,1.17-.68.74.11,1.13-.23,1.59-.65,3.4-3.14,6.13-6.78,8.09-10.96.48-1.02.8-2.15.99-3.27.31-1.85-.1-3.55-1.8-4.61-1.41-.88-2.89-1.65-4.39-2.36-1.79-.84-3.63-1.6-5.47-2.32-1.69-.66-3.4-1.28-5.14-1.8-.4-.12-.93.24-1.5.41.25,1.8-.36,3.25-.84,4.77-.54,1.72-.79,3.53-1.08,5.32-.06.39.23.85.42,1.26.52,1.16,1.07,2.32,1.61,3.48-.58,1.03-1.05,1.89-1.54,2.74-.6,1.05-.88,2.1-.21,3.24.23.39.39.81.54,1.12-1.87,4.65-3.28,9.21-1.89,14.27,1.84-.47,3.55-.81,5.19-1.35,1.94-.63,3.3-2.02,3.81-3.97.35-1.35.29-2.81.45-4.62Z"/><path class="cls-1" d="m429.16,147.25c2.58.56,4.29,1.63,4.58,4.56-.7,1.09-1.63,2.47-2.48,3.9-.85,1.41-.85,3.05-1.07,4.61-.4,2.77-.76,5.55-.91,8.33-.27,5.01-1.99,9.7-2.94,14.56-.2,1.01-.89,1.92-1.42,3,.53,1.24.13,2.66,0,4.07-.05.59-.14,1.21,0,1.76.29,1.21.08,2.24-.7,3.2-.38.47-.69,1-1.03,1.5-2.16.5-4.11-.38-6.1-.9-.32-.68-.63-1.35-.99-2.14-3.2,1.69-5.99,1.24-8.42-1.27-.11-.81-.22-1.63-.35-2.59,1.08-1.15,2.16-2.43,3.37-3.58,1.22-1.15,1.83-2.42,1.24-4.56-.46-.58-1.23-1.51-1.96-2.48-.64-.84-1.17-1.71-1.62-2.69-1.93-4.13-3.37-8.53-6.2-12.21-.26-.34-.55-.66-1.01-1.2-.5,1.19-.98,2.11-1.28,3.09-.58,1.89-1.09,3.8-1.55,5.72-.76,3.16-1.46,6.33-2.17,9.49-.27,1.21-.5,2.44-.79,3.91.68.48,1.77.96,2.44,1.79.7.86.99,2.04,1.39,2.92-.2,1.96-.39,3.74-.61,5.83-1.79,1.82-4.07,3.16-7.07,1.97-2.85-1.14-3.14-3.47-2.56-6.16-.82-.64-1.59-1.23-2.23-1.73.25-1.03.54-1.94.69-2.86.16-1.01-.15-2.32.38-2.99.7-.89.67-1.85.92-2.75,1.17-4.14,2.28-8.3,3.21-12.5.8-3.64,1.92-7.16,3.15-10.66.24-.7.2-1.49.35-2.78.82-.71,1.98-1.69,3.07-2.63-1.01-1.36-1.89-2.56-2.89-3.9.62-.97,1.16-1.84,1.49-2.37,3.34-1.63,5.88-1.45,7.8,2.36.44,1.35-.96,2.46-2.26,3.7.72.4,1.31.72,2.04,1.12,1.56,3.94,4.25,7.39,6.45,11.13,1.26,2.15,2.19,4.5,3.32,6.74,1.03,2.04,2.13,4.04,3.23,6.04.13.24.45.39.66.56.75-.14,1.09-.59,1.25-1.23.67-2.62,1.34-5.23,1.51-7.97.17-2.72.78-5.4,1.15-8.11.09-.66.01-1.35.01-2.12-1.13-.76-2.26-1.51-3.39-2.26-.15-.56-.29-1.07-.49-1.78.47-.7.9-1.64,1.61-2.28.63-.57,1.64-.69,2.33-1.22.71-.54,1.11-1.58,1.86-1.96,1.69-.84,3.51-1.41,5.01-1.98Z"/><path class="cls-1" d="m382.84,392.6c-.82.14-1.64.28-2.63.44-3.53-1.11-4.03-1.39-5.73-3.28-.01-1.69.77-3.11,1.99-4.33.37-.37.91-.58,1.28-.95.75-.75,1.34-1.7,2.18-2.31.83-.61,1.89-.92,2.89-1.37.29.09.65.2,1.04.33.12-.29.24-.48.29-.69.86-3.48,2.01-6.87,3.77-10,.62-1.11,1.58-2.04,2.44-3.01,1.36-1.54,2.65-3.17,4.18-4.53,1.98-1.76,3.74-3.79,6.09-5.13,1.45-.83,2.83-1.79,4.3-2.57,1.78-.94,3.6-1.49,5.7-.85.95.29,2.12.07,3.14-.14,2.13-.45,4.4.86,4.87,2.97.13.58.22,1.16.38,2.02-1.66,1.46-3.37,3.24-5.35,4.61-1.83,1.27-4.04,1.39-6.09.36-.93-.47-1.69-1.27-2.54-1.93v-1.87c-1.02.78-1.79,1.35-2.53,1.95-3.14,2.53-5.86,5.48-8.52,8.49-1.88,2.12-2.59,4.79-3.41,7.4-.27.87-.49,1.75-.78,2.8.45-.04.87-.01,1.25-.13,3.55-1.09,7.1-2.19,10.63-3.33.64-.21,1.29-.5,1.83-.9,3.35-2.49,7.01-3.49,11.13-2.45.22.05.44.1.67.15.47.51.93,1.02,1.46,1.6v3.1c-1,1.37-2.26,2.22-3.86,2.75-2.45.82-4.78,2-7.24,2.81-4.25,1.39-8.55,2.6-12.83,3.9-.57.17-1.14.38-1.75.59.09,1.95,1.55,2.74,2.81,3.38,3.06,1.56,6.29,1.9,9.66.84,2.08-.66,4.26-1,6.36-1.59.78-.22,1.61-.59,2.19-1.13,1.18-1.1,2.42-1.81,4.09-1.67.42.04.87-.21,1.35-.34,1.74,1.15,3.88,1.88,4.64,4.55-.62,1.18-1.39,2.56-2.09,3.98-.37.74-.87,1.54-.87,2.31,0,1.12-.43,1.89-1.16,2.6-2.09.7-4.21,1.14-6.45,1.17-2.12.02-4.23.45-6.34.42-2.58-.04-4.49-1.55-6.3-3.48-3.07-.57-6.38-1.01-9.23-2.99-1.92-1.34-3.45-2.94-4.29-5.15-.08-.2-.28-.35-.45-.56-.76.41-1.5.81-2.24,1.21l.07-.07Z"/><path class="cls-1" d="m352.71,170.15c2.57-2.87,5.18-5.66,7.64-8.58,1.45-1.72,3-3.4,3.41-5.8.16-.9,1.07-1.33,2.06-1.58.9-.23,2.04-.14,2.64-1.31.02-2.03-1.98-3.79-.86-6.76.57-1.15,2.52-1.45,4.13-2.34.89.34,1.8.69,2.7,1.03.64.86,1.27,1.71,2.02,2.72-.11,1.6-.38,3.35-.31,5.08.12,3.23.46,6.46.66,9.68.09,1.35.33,2.69.09,4.05-.19,1.09.05,2.1.69,3.04,1.63,2.39,3.19,4.82,4.85,7.19.62.89,1.17,1.72,1.31,2.85.09.72.56,1.39.74,1.8-.07,1.23-.13,2.19-.18,3.15-.01.21.1.49,0,.63-.9,1.23-.47,2.14.71,2.8.1,1.62-.31,2.9-1.35,4.05-.71.77-1.24,1.71-1.85,2.57-.75,1.05-1.49,2.11-2.23,3.16-1.02,1.44-2.35,2.35-4.02,2.45-1.04-.32-1.98-.61-2.92-.9-.07.09-.14.19-.21.28-.69-.7-1.38-1.41-2.03-2.07.37-1.13.67-2.05,1.01-3.1-.71-.48-1.39-.94-2.02-1.37-.83-3.37,1.24-5.38,3.31-7.14.82-1.94.28-3.46-.79-4.83-1.88-2.39-2.58-5.32-3.77-8.03-.27-.62-.46-1.33-.46-2-.01-2.06-1.1-3.74-1.67-5.63-1.66.94-3.38,2.92-5.75,6.56.47.43.96.87,1.42,1.28-.16,2.17-.5,2.87-2.02,4.28-1.45-.08-2.81-.16-4.22-.25-1.75,2.14-3.46,4.25-4.75,6.71-1.69,3.22-3.47,6.44-7.01,8.52-1,.12-2.31.44-3.38-.94-.54-2.08.5-3.88,1.5-5.67,1.04-1.86,2.14-3.69,3.23-5.53.61-1.03,1.27-2.03,2.01-3.22-1.33-.34-2.62-.59-3.86-1-1.29-.43-2.61-.87-3.65-2.12.06-.72.13-1.55.19-2.39,1.67-1.18,3.33-1.59,5.38-1.35,2.45.28,4.97.96,7.62,0Z"/><path class="cls-1" d="m724.02,275.26c-.48,1.96-.87,3.56-1.28,5.21-1.32,1.07-2.78,1.3-4.45.76-.7-.23-1.5-.14-2.26-.16-2.96-.07-5.02-2.16-5.15-5.38,2.58-2.15,3.91-5.24,5.41-8.21,1.31-2.58,2.56-5.19,3.94-7.99,1.01-.16,2.19-.34,3.36-.52,1.15.96,2.19,1.83,3.23,2.69.07.92.13,1.75.2,2.62.58.19,1.18.29,1.7.58,1.48.82,3.08,1.03,4.73,1.06,1.91.03,3.75.3,5.53,1.08.64.28,1.49.19,2.22.09.58-.08,1.21-.33,1.68-.68,1.97-1.47,4.2-1.59,6.53-1.49,1.04.04,2.12.23,3.12-.4.32-.2.89.03,1.33-.03.67-.09,1.4-.11,1.96-.42,2.32-1.28,4.86-2.18,6.81-4.11.55-.54,1.5-.67,2.31-1,.8.28,1.57.66,2.38.82,2.23.45,3.11,1.95,3.38,4.02.15,1.16.3,2.32,1.12,3.28,1.44,1.68,1.56,3.56.75,5.56-.08.21-.09.44-.13.66-.66.56-1.31,1.08-1.93,1.64-1.42,1.28-2.94,1.74-4.71.68-.38-.22-.84-.31-1.16-.42-.85.64-1.59,1.27-2.4,1.79-.36.22-.99.43-1.28.27-1.52-.88-3.59-.85-4.51-2.77-.67-1.41-1.99-1.89-3.44-1.75-1.65.15-3.27.6-4.92.74-3.14.25-6.05,1.36-9.03,2.2-2.48.7-4.96,1.4-7.46,2.03-1.37.34-2.74.16-4.01-.5-1.13-.58-2.23-1.21-3.55-1.93Z"/><path class="cls-1" d="m361.09,289.67c-.64-.31-1.1-.54-1.65-.81-1.06,4.36-2.7,8.48-2.77,12.81,1.41,1.88,2.76,3.67,3.82,5.07v3.3c-.57.54-1.45,1.38-2.33,2.21-.05-.1-.1-.21-.15-.31-.97.26-2,.41-2.91.8-1.69.72-3.27.56-4.84-.24-3.3-1.67-4.13-4.8-2.23-7.99.41-.69.48-1.57.77-2.34.49-1.35,1.21-2.65,1.48-4.04.23-1.21.75-2.28,1.09-3.43.39-1.31.77-2.62,1.12-3.93.33-1.23.42-2.56.97-3.67.83-1.72.58-3.63,1.35-5.37.73-1.64,1.04-3.46,1.54-5.2.39-1.35.86-2.6.53-4.14-.22-1.05.49-2.19,1.68-2.71,2.17.02,3.53,1.19,4.39,3.01.12.91.24,1.81.35,2.68-1.29,3.5-1.99,7.18-2.99,10.56.66,1.09,1.2,1.97,1.8,2.95-.35.27-.64.5-1,.77Z"/><path class="cls-1" d="m753.12,313.83c-1.06,1.07-2.36,1.42-3.73,1.62-3.47.51-6.87,1.37-10.05,2.83-2.33,1.07-4.39,1.02-6.42-.53-.48-.37-1.04-.64-1.61-.98-.21-.79-.43-1.58-.72-2.67.47-.6,1.06-1.34,1.81-2.31-.49-2.67,1.59-4.56,3.17-6.51,2.64-3.25,3.67-6.94,3.94-10.97.14-2.12.26-4.25.48-6.36.24-2.35.57-4.7.91-7.05.16-1.1.43-2.18.7-3.55.4-.32,1.04-.82,1.73-1.38.55.47,1,.86,1.39,1.2.2,1.13.38,2.15.59,3.34-.65,4.61-1.68,9.35-1.88,14.24-.16,3.78-.74,7.54-2.65,11.09.86,1.06,1.7,2.11,2.64,3.28,1.9-.86,3.84-1.36,5.8-.89,1.15.28,2.19.99,3.01,1.38,1.14,1.46.89,2.84.89,4.2Z"/><path class="cls-1" d="m382.77,392.67c.38.03.75.06,1.23.1.6.61,1.22,1.25,1.01,2.43-.49.03-.99.06-1.78.12.31-.49.48-.76.73-1.16h-1.49c.15,1.12.29,2.14.43,3.19-.73.48-1.4.91-2.16,1.4-.32-.73-.55-1.27-.82-1.88-.39.03-.76.05-1.12.07-.02-.1-.04-.2-.07-.3.53-.16,1.06-.31,1.87-.55.66-1.02,1.45-2.26,2.25-3.49l-.07.07Z"/><path class="cls-1" d="m159.08,135.37c.41.84.71,1.45,1.08,2.2.35-.25.68-.47,1.03-.72.14.16.29.32.4.45-.6,1.39-2.16,1.16-3.3,1.92.04-.38.07-.76.11-1.21-.22-.17-.49-.39-.88-.7.24-.36.48-.72.78-1.16-.08-.33-.18-.74-.32-1.27.5-.27.95-.51,1.5-.8.56.3,1.13.62,1.69.92-.48,1.12-1.18.51-2.09.37Z"/><path class="cls-1" d="m693.73,101.45c.77,1.11,1.43,2.15.95,3.44-.52.16-1.19.18-1.56.53-.42.4-.71.75-1.5.38.77-.73,1.5-1.42,2.41-2.29-.8-.15-1.47-.27-2.13-.39.17-1.29,1.31-.19,1.83-.85v-.82Z"/></svg>