<?xml version="1.0" encoding="UTF-8"?><svg id="Layer_1" xmlns="http://www.w3.org/2000/svg" viewBox="0 0 518.78 146.28"><defs><style>.cls-1{stroke-width:0px;}</style></defs><path class="cls-1" d="m156.82,47.8c.99-.27,1.99-.51,2.98-.8,2.59-.75,5.2-1.32,7.88-1.68,2.75-.37,5.48-.39,8.13.14,1.79.36,3.51,1.3,5.1,2.26,1.26.76,2.49,1.78,3.36,2.95,2.33,3.13,2.6,7.73.06,11.04-.2.27-.38.55-.59.84.16.28.29.53.43.78.91,1.57.32,3.13-1.45,3.74-2.26.79-4.56,1.48-6.8,2.32-1.82.68-3.58,1.53-5.54,2.38.4.35.61.61.88.76,2.69,1.54,5.17,3.33,7.5,5.39,1.45,1.29,2.97,2.49,4.21,4,.91,1.1,1.46,2.27.72,3.73-.66,1.3-1.65,1.89-3.13,1.76-.43-.04-.86,0-1.32,0-.18-.22-.35-.51-.58-.74-.89-.86-1.66-1.71-2.22-2.92-.56-1.21-1.83-2.14-2.92-3.03-1-.82-2.15-1.48-3.28-2.14-2.03-1.18-4.09-2.31-6.25-3.52-.27.69-.53,1.21-.66,1.75-.36,1.6-.52,3.25-1.01,4.8-.94,3.02-.73,6.11-.9,9.19-.16,2.83-.48,5.66-.85,8.47-.31,2.37-3.38,3.93-5.44,2.82-.83-.45-1.44-.29-2.06.37-.73.78-1.51,1.33-2.7,1.5-1.8.25-3.43-1.49-3.92-2.98-.38-1.14-.8-2.28-1.37-3.33-1.19-2.17-2.42-4.29-1.96-7.06,2.46-1.91,5.13-3.8,8.1-5.23.47-.22,1.13-.16,1.68-.07,1.01.17,1,.22,1.87-.2.83-3.72,1.62-7.33,2.44-10.94.26-1.12.26-1.34-.84-1.78-2.35-.96-4.76-1.78-7.09-2.77-.91-.39-1.78-.99-2.51-1.67-.61-.57-.8-1.38-.31-2.25.24-.42.47-.6.94-.75,1.95-.62,3.8-.16,5.65.37.87.25,1.72.56,2.59.83.18.06.38.08.58.09.77.02,3.28-1.61,3.46-2.35.27-1.11.43-2.25.62-3.38.04-.24-.06-.53.04-.72.49-.94.49-1.87.27-2.9-.42-1.98,1.48-3.63,3.33-3.32.24.04.49.04.71.13.91.35,2.06.21,2.61,1.28.66,1.3.85,2.65.55,4.08-.22,1.03-.43,2.07-.68,3.3,2.12.11,3.97,1.64,6.24.6,1.21-.56,2.58-.75,3.85-1.19,1.99-.69,3.6-2.97,3.6-5.06,0-.92.15-1.91-.12-2.76-.43-1.36-1.37-2.39-2.68-3.09-2.58-1.38-5.32-1.28-8.08-.93-1.57.2-3.16.35-4.69.74-2.51.62-4.95,1.5-7.47,2.11-2.62.64-4.64,2.26-6.75,3.77-.16.11-.31.25-.42.41-1.12,1.5-2.24,3.01-3.34,4.49-1.84-.54-2.82-2.09-2.08-3.8.78-1.8,1.97-3.24,3.24-4.66.37-.41.43-.72.24-1.28-.58-1.76-1.06-3.55-1.5-5.35-.26-1.03-1.7-1.66-2.54-.99-.42.33-.82.71-1.14,1.14-.41.56-.84,1-1.5,1.28-.35.15-.61.59-.82.96-1.23,2.23-2.39,4.51-3.67,6.72-.92,1.58-1.92,3.11-3.01,4.57-.53.71-1.34,1.2-2.29,2.01-.34-5.57,1.58-10.18,3.87-14.91-1.19-.29-2.27-.62-3.37-.8-1.19-.2-2.4-.33-3.6-.34-1.06,0-2.12.14-3.17.3-2.24.35-4.47.75-6.7,1.15-.38.07-.74.24-1.32.44,1.51.94,1.59,2.51,2.17,3.83.34.79.24,1.66-.1,2.37-.61,1.27-1.26,2.55-2.47,3.42-.9.65-1.76,1.36-2.64,2.04-.19.15-.39.44-.56.42-1.24-.15-1.37.84-1.71,1.61-1.39,3.19-2.87,6.35-4.13,9.59-1.13,2.9-2.02,5.9-3.03,8.85-.37,1.09-.79,2.17-1.16,3.26-.79,2.3-1.56,4.61-2.35,6.92-.42,1.23-1.18,2.24-2.22,2.99-.33.24-.76.39-1.16.47-1.41.26-2.5-.21-3-1.62-.23-.65-.69-.73-1.26-.71-2.42.12-4.4-1.92-4.4-4.54,0-2.22.32-4.33,1.31-6.31.98-1.96.59-3.79-.34-5.64-.39-.77-.59-1.64-.84-2.48-.44-1.47-.84-2.96-1.3-4.43-.07-.21-.38-.34-.64-.56-1.6,2.59-3.14,5.06-4.09,7.89-.92,2.74-2.22,5.36-3.23,8.08-1.26,3.37-2.98,6.51-4.61,9.69-.54,1.05-.64,2.32-1.63,3.15-.47.39-.81.94-1.26,1.37-.65.64-1.41,1.08-2.35.68-.45-.19-.88-1.95-.73-2.6.75-3.4,2.37-6.48,3.65-9.68,1.17-2.94,2.41-5.85,3.55-8.81.67-1.75,1.05-3.62,1.83-5.31.87-1.87,2-3.62,3.09-5.39,1.44-2.34,2.96-4.63,4.4-6.97.21-.34.34-.85.26-1.24-.28-1.37-.69-2.7-.99-4.06-.17-.78-.48-1.58.18-2.35.19-.22.07-.69.09-1.14.86-.37,1.76-.85,2.72-1.13,1.15-.34,2.16.18,3.14.76.86.52.97,1.39.99,2.19.02.99.25,1.61,1.3,1.9.67.18,1.4,2.24,1.23,2.95-.18.75-.29,1.51-.42,2.27-.17.92-.51,1.75-1.32,2.3-.32.22-.65.42-1.09.71.42,1.43.83,2.85,1.24,4.28.68,2.31,1.38,4.62,2.02,6.94.16.58.44.83,1.01.8.29-.01.59-.03.88,0,2.32.27,2.26.25,3.16-1.81,2.34-5.35,4.72-10.67,7.12-15.99.39-.87.39-1.51-.13-2.37-1.84-2.99-3.6-6.04-5.31-9.12-.52-.93-.73-1.95-.62-3.14.12-1.36.79-1.96,1.84-2.23,1.2-.31,1.88-1.09,2.52-2.01.42-.6.82-1.21,1.27-1.78.82-1.04,1.51-1.27,2.76-.77.85.34,1.56.3,2.31-.21.72-.49,1.46-.99,2.26-1.3.6-.23,1.31-.16,1.97-.26,1.89-.27,3.21.78,4,2.2.97,1.75,1.99,2.54,4.1,1.96,1.47-.4,3.09-.38,4.64-.33,1.59.05,3.17.33,4.75.56,1,.14,1.98.45,2.98.55.54.05,1.25-.02,1.64-.33,2.04-1.63,4.31-1.58,6.63-1.02,1.47.36,2.8.44,3.84-.83.95-1.15,2.4-.65,3.44.16.57.45,1.04.86,1.9.82,1.42-.06,3.22,1.95,3.25,3.38.02.9.08,1.8.07,2.7-.01,1.11-.49,2.03-1.17,2.88-.25.32-.36.75-.53,1.13.06.09.13.19.19.28Z"/><path class="cls-1" d="m232.14,45.82c-.32.32-.67.62-.96.97-1.16,1.41-2.53,1.92-4.43,1.61-1.36-.23-2.57-.58-3.56-1.45-1.57-1.38-2.87-2.89-2.81-5.23.05-1.77.15-3.42,1.15-5,1.47-2.32,3.3-3.84,6.21-3.67.69.04,1.28.2,1.91.53.92.47,1.97.75,3,.93.85.15,1.75.06,2.63.03,4.09-.14,7.97.74,11.66,2.46,2.13.99,4.34,1.88,6.3,3.14,3.7,2.38,5.7,5.9,6.2,10.28.06.5.22,1.11.56,1.42.44.41.45.83.6,1.33.85,2.81.52,5.68.56,8.53.02,1.77-.08,3.56-.31,5.32-.18,1.36-.81,2.59-1.67,3.71-.99,1.29-2.13,2.56-2.78,4.02-.7,1.56-1.93,2.64-2.82,4.01-1.26,1.95-2.51,3.88-3.54,5.96-1.21,2.45-2.83,4.61-4.61,6.71-1.61,1.9-3.48,3.31-5.54,4.52-1.33.78-2.67,1.66-4.32,1.85-1.08.12-2.11.61-3.19.8-1.64.3-3.29.51-4.95.71-1.09.13-2.19.17-3.3.26-.26,1.13-.53,2.26-.76,3.4-.29,1.44-1.38,2.11-2.56,2.69-.12.06-.26.09-.4.09-1.34.07-3.62-1.44-4.13-2.7-.14-.35-.35-.68-.51-1.03-.35-.76-.72-1.42-.44-2.42.26-.9.04-2.05-.29-2.97-.64-1.81-.6-3.66-.46-5.48.13-1.68,1.32-2.58,3.08-2.79-.14-1.68,1.06-2.58,2.32-3.06,1.52-.57,2.38.93,3.33,1.74.41-1.04.91-2.01,1.16-3.03.31-1.25.53-2.55.56-3.83.04-2.06.11-4.09.6-6.11.49-2.01.79-4.06,1.22-6.08.2-.93.43-1.87.77-2.76,1.4-3.63,1.97-7.47,2.95-11.21.56-2.12.87-4.31,1.32-6.46.1-.5.32-.97.49-1.46-.09-.09-.19-.18-.28-.27Zm5.76-2.55c.16.7.18,1.15.37,1.52.41.8.33,1.55.03,2.35-.71,1.87-1.43,3.74-2.05,5.64-.71,2.21-1.38,4.43-1.94,6.68-.84,3.38-1.55,6.8-2.35,10.19-.77,3.22-1.77,6.39-1.93,9.74-.09,1.74-.32,3.47-.43,5.21-.03.53.1,1.08.18,1.75,2.21-.86,4.42-1.27,6.38-2.48,1.6-.99,3.19-1.96,4.76-3.01,3.26-2.17,5-5.4,6.86-8.6.14-.23.12-.64.02-.91-.49-1.34-1.04-2.67-1.54-4.01-.11-.29-.14-.64-.08-.94.4-2.11,1.39-3.93,2.73-5.6,1.32-1.64,2.54-3.37,3.76-5.09.3-.42.46-.94.61-1.44.29-1,.42-2.07.81-3.03.74-1.79-.12-2.61-1.28-3.29-3.49-2.07-7.37-3.15-11.22-4.24-1.08-.31-2.27-.27-3.66-.42Z"/><path class="cls-1" d="m291.24,85.85c-1.28-.21-1.43.65-1.83,1.21-1.01,1.4-1.92,2.88-3.08,4.14-1.11,1.22-2.59,1.72-4.31,1.36-.41-.09-.99.03-1.34.28-2.13,1.54-4.32,1.02-6.45.14-1.6-.66-2.74-1.97-3.86-3.26-2.82-3.28-3.97-7.27-4.78-11.38-.51-2.59-.24-5.19-.11-7.81.11-2.31.79-4.45,1.34-6.61.79-3.09,1.93-6.1,2.94-9.14.26-.76.16-1.07-.67-1.17-2.46-.29-3.8-1.86-4.6-4.01-.28-.76.05-1.47.72-1.87.78-.46,1.66-.77,2.47-1.19.4-.21.92-.47,1.08-.84.52-1.17,1.44-1.52,2.59-1.5,2.09.04,3.43-1.29,4.77-2.6,1.31-1.29,2.44-2.89,3.98-3.78,2.19-1.27,4.64-1.3,7.07-.12,1.52.74,2.13,1.81,2.17,3.4.02.63-.13,1.12-.63,1.53-1.3,1.08-2.57,2.2-3.89,3.26-.77.62-1.18,1.27-1.07,2.34.14,1.31-.23,2.51-1.6,2.98-.73.1-1.48.14-2.19.32-.82.21-1.25.69-1.24,1.67.01.68-.34,1.39-.61,2.06-.67,1.65-1.45,3.26-2.08,4.93-.48,1.25-.79,2.57-1.21,3.85-.6,1.82-1.33,3.61-1.81,5.46-.74,2.87-1.28,5.84-.91,8.77.33,2.62,1,5.27,2.79,7.61,2.24-2.33,4.66-1.66,7.11-.45,1.55-1.59,2.86-3.36,3.81-5.37.3-.63.44-1.34.58-2.03.08-.42-.01-.88.03-1.31.14-1.41.9-2,2.3-2.1,1.69-.12,2.97.66,4.34,1.72.61-1.4.81-2.83.98-4.27.3-2.48.8-4.95.93-7.44.11-2.14,1.09-4.08,1.14-6.22.02-.79.43-1.56.54-2.36.2-1.42.31-2.86.43-4.03-.69-1.03-1.34-1.85-1.83-2.75-.67-1.23-.41-1.89.84-2.58.25-.14.49-.28.66-.37-.6-1.05-1.21-2.04-1.72-3.07-.31-.61.04-1.62.72-2.08.86-.58,1.78-1.04,2.76-1.44,2.14-.87,4.22-1.94,6.17-3.17,1.08-.68,2.18-.92,3.35-1.13.55-.1,1.11-.16,1.67-.22.19-.02.41-.02.57.06.98.51,1.99.99,2.91,1.59,1.88,1.22,2.41,4.3.56,5.97-.56.51-1.01,1.07-1.91,1.18-.7.09-1.33.68-2.05,1.09.5,1.12,1.04,2.14.38,3.24-.24.4-.48.83-.83,1.11-.45.36-.98.65-1.52.84-1.74.61-2.29,2.07-2.64,3.64-.79,3.54-1.64,7.08-2.27,10.65-.4,2.22-.43,4.51-.67,6.76-.21,1.9-.5,3.8-.75,5.69-.04.29-.1.57-.12.86-.1,2.03-.12,4.07-.33,6.08-.11,1.1-.32,2.17.01,3.26.07.22-.02.48-.03.72-.02.39.84,3.13.86,3.52.03.72-.07,1.47-.27,2.17-.42,1.46-1.67,2.03-2.96,2.53-.58.22-1.1.59-1.69.77-.54.16-1.13.27-1.68.21-1.89-.19-3.49-1.28-4.48-2.66-.82-1.14-1.37-2.76-.7-4.44.52-1.31.75-2.73,1.14-4.21Z"/><path class="cls-1" d="m455.32,50.29c.71.1,1.74.05,2.58.42.89.4,1.6,1.2,2.37,1.86.21.18.28.56.5.68,1.04.58,1.17,1.38.79,2.44-.51,1.41-.93,2.85-1.44,4.45.6.33,1.19.72,1.83.98,2.08.83,2.8,2.22,2.23,4.39-.13.51-.35,1.05-.29,1.55.05.4.4.9.76,1.07.23.11.8-.21,1.04-.49.27-.3.39-.77.49-1.19.52-2.09.98-4.2,1.51-6.28.22-.84.64-1.62.86-2.45.57-2.19,1.43-4.26,2.35-6.32.04-.09.06-.19.1-.27.96-1.86,1-1.91-.74-3.2-2.17-1.62-3.07-3.65-2.36-6.32.12-.46.08-.97.1-1.45.04-.86.6-1.32,1.34-1.47,1.97-.41,3.95-.82,5.95-1.09.89-.12,1.85.25,2.75.15,1.59-.16,3.09.25,4.53.7,1.04.33,2.16.85,2.72,2.02.22.46.74.77,1.05,1.2.61.86,1.44,1.69,1.66,2.65.19.83-.12,1.95-.58,2.72-1.94,3.22-3.09,6.77-4.62,10.16-.89,1.97-1.76,3.96-2.79,5.86-.92,1.7-2.33,2.71-4.44,2.27-.71-.15-1.06.38-1.18,1.01-.59,2.91-1.18,5.82-1.73,8.74-.17.89.06,1.67.78,2.33,1.31,1.21,1.54,2.7.65,4.25-.22.38-.64.69-1.04.93-.92.54-1.9.99-2.81,1.54-.35.21-.68.56-.85.92-.56,1.19-1.71,1.73-2.77,1.82-1.39.13-2.81-.13-4-1.24-1.57-1.47-2.14-3.07-1.46-5.12.12-.35.06-.78.03-1.16-.08-.94.06-1.83.6-2.63.39-.57.38-1.03-.19-1.51-1.06-.9-2.06-1.89-3.13-2.79-.47-.39-.97-.61-1.7-.52-2.67.34-5.21-2.01-5.26-4.71-.01-.81-.08-1.61-.13-2.41-.11-.02-.22-.03-.33-.05-.63,1.53-1.25,3.06-1.89,4.58-1.46,3.45-2.83,6.94-4.43,10.33-1.3,2.73-2.86,5.35-4.89,7.63-.59.67-1.39,1.22-2.2,1.61-1.01.49-1.85-.23-2.66-.74-.68-.43-.64-1.13-.49-1.81.08-.37.16-.77.35-1.09.94-1.63,1.98-3.2,2.86-4.85,1.06-1.99,2.03-4.04,3-6.09.87-1.83,1.7-3.68,2.49-5.55,1.09-2.57,2.11-5.18,3.18-7.76.46-1.11,1.02-2.17,1.46-3.28.17-.43.33-1.04.15-1.4-.42-.87-.15-1.77-.3-2.62-.13-.73-.34-1.51-.74-2.13-.58-.88-1.3-1.68-2.07-2.4-.61-.57-1.03-1.13-1.32-1.96-.34-.99-.79-1.83-.06-2.83.16-.21-.02-.71-.13-1.06-.08-.26-.28-.49-.44-.73-.38-.57-.85-1.09-.48-1.88.48-1.05,1.29-1.61,2.4-1.75,1.5-.19,2.81.37,3.8,1.42,1.18,1.26,2.29,2.62,3.25,4.06,1.19,1.8,2.18,3.72,3.42,5.87Z"/><path class="cls-1" d="m361.71,83.49c1.25.63,2.39,1.26,2.96,2.51.77,1.7-.04,3.03-1.89,3.29-1.11.16-2.27.27-3.28.7-1.18.49-2.37.34-3.56.48-1.14.13-2.27.08-3.43.26-1.25.2-2.81-.17-3.63-1.6-.24-.42-.52-.82-.78-1.22.44-1.74,2.24-3.12,4.37-3,1.19.07,2.1-.52,3.19-.97-1.24-2.36.12-4.4.64-6.52.41-1.65.99-3.25,1.55-4.86.45-1.29.98-2.56,1.51-3.82,1.83-4.38,3.78-8.73,5.47-13.16.6-1.57,1.24-3.18,1.42-4.94.13-1.19.81-2.32,1.23-3.48.19-.53.35-1.07.62-1.93-3.98.8-7.73.9-11.57.6,0,0-.09.04-.14.12-1.62,2.46-2.94,1.93-4.92.59-.93-.63-1.81-1.2-2.92-1.51-1.83-.51-3.01-1.84-3.4-3.68-.18-.87.01-1.82.49-2.67.46-.81,1.2-.87,1.99-.92,1.08-.07,1.26-.28,1.55-1.64.18-.84.33-1.68.58-2.5.45-1.46,1.82-1.92,3.03-1.02.87.64,1.69,1.05,2.69.17.53-.47,1.16-.96,1.82-1.13.85-.22,1.92-.45,2.63-.11,1.17.56,2.48,1.1,3.18,2.4.47.86,1.35.65,2.1.59,1.72-.15,3.44-.43,5.16-.55,3.05-.21,6.11-.41,9.16-.49,1.99-.05,3.99.1,5.98.19.93.04,1.66-.06,2.12-1.06.85-1.83,2.6-1.75,4.16-1.5,1.15.18,2.29.77,3.29,1.41.54.34,1,1.11,1.09,1.75.16,1.08.56,2.1.18,3.34-.73,2.39-1.85,4.49-3.42,6.39-.19.23-.34.6-.32.89.16,1.94-.47,3.73-1.96,4.5-1.22.62-2.39.47-3.49-.02-1.09-.48-2.02-1.3-3.1-1.8-1.37-.64-1.43-1.79-1.54-3.02-.07-.78.41-1.65-.35-2.37-1.25.32-2.5.64-3.75.96-1.23.32-2.47.65-3.82,1,.34.89.63,1.63.83,2.13-.59,1.62-1.11,3.06-1.63,4.49-.48,1.3-.96,2.6-1.46,3.89-1.17,3.05-2.32,6.11-3.55,9.13-1.12,2.75-2.4,5.44-3.47,8.21-.95,2.46-1.71,4.99-2.55,7.49-.08.23-.14.48-.11.71.13,1.21-.15,2.3-.97,3.27Z"/><path class="cls-1" d="m338.14,56.94c-2.42.29-4.59,1.2-6.65,2.37-2.8,1.59-5.66,3.1-8.36,4.84-1.81,1.16-3.53,2.44-5.17,3.89-2.27,2-4.08,4.24-5.37,6.94-.18.39-.23.84-.33,1.26.12.06.23.11.35.17.19-.27.42-.52.58-.81.86-1.63,1.77-1.64,2.81-.22.36.48.5,1.12.79,1.66.28.52.61,1.01,1.09,1.79,1.26-.24,2.78-.41,4.23-.82,1.61-.46,3.15-1.13,4.72-1.71.18-.07.36-.16.55-.16,2.35,0,4.46-.77,6.33-2.09.76-.53,1.73-.78,2.61-1.15,1.09-.45,2.15-1,3.28-1.3.72-.19,1.62-.17,2.31.09.94.37,1.75,1.06,2.62,1.62,1.47.95,1.29,2.66,1.85,3.98-.53.58-1,1.18-1.56,1.69-2.06,1.91-4.01,3.96-6.26,5.61-1.4,1.03-2.47,2.6-4.29,3.04-1.06.26-2.12.55-3.19.75-1.55.29-3.14.43-4.67.79-3.46.82-6.93,1.59-10.44,2.19-2.14.37-3.92-.51-5.82-1-.42-.11-.73-.74-1.05-1.15-.87-1.11-1.69-2.26-1.63-3.75.02-.54.2-1.08.38-1.6.09-.26.33-.48.49-.71.81-1.18,1.02-2.18,0-3.56-1.38-1.87-1.47-4.14-.85-6.44,1.06-3.96,3.54-6.89,6.64-9.39,1.17-.94,2.27-1.98,3.49-2.84,2.17-1.53,4.4-2.98,6.64-4.4,2.85-1.81,5.97-3.09,9.12-4.25.89-.33,1.92-.41,2.88-.41.89,0,1.37-.35,1.64-1.13.06-.18.15-.36.23-.53.68-1.41,1.51-2.6,3.33-2.48.99-1.13,2.34.17,3.42-.48.11-.07.43.14.63.27.89.58,1.78,1.14,2.64,1.76,1.5,1.08,1.85,4,.64,5.41-.95,1.1-1.88,2.24-2.96,3.21-.88.79-1.91,1.47-2.99,1.95-1.15.51-2.16-.24-3.01-.95-.62-.52-1.09-1.23-1.7-1.94Z"/><path class="cls-1" d="m412.93,51.19c-.52-.48-.97-.89-1.5-1.38.08-.49.16-1.1.3-1.7.45-1.96,1.95-3.05,3.57-3.9,1.65-.87,3.38-1.64,5.16-2.17,1.55-.46,3.22-.55,4.85-.76.87-.12,1.74-.22,2.61-.22.91,0,1.9-.05,2.72.27,2.01.78,4.18,1.35,5.74,2.97,1.71,1.76,2.82,3.85,3.14,6.33.11.86.23,1.66.03,2.55-.11.48.18,1.16.48,1.61.77,1.11.65,2.24.48,3.49-.22,1.56-.73,2.99-1.23,4.47-.47,1.39-.78,2.88-.9,4.35-.11,1.23.1,2.5.26,3.74.23,1.69-.52,2.71-2.02,3.36-.92.4-1.82.86-2.7,1.35-.54.3-1.1.65-1.51,1.1-.99,1.09-2.22,1.68-3.59,2.09-.33.1-.67.31-.89.57-2.05,2.44-4.58,4.31-7.59,5.14-3.35.93-6.85.96-9.94-1.06-1.78-1.17-3.48-2.61-4.26-4.63-.73-1.89-1.67-3.8-1.54-5.95.04-.73,0-1.46-.01-2.19-.05-4.56.85-8.91,3.28-12.8,1.25-2,2.8-3.8,4.23-5.69.23-.3.52-.56.85-.92Zm11.77-4c.38.6.59.86.72,1.16.4.91.57,1.87-.07,2.72-.63.83-1.5.87-2.76.39-.47-.18-1.07-.31-1.52-.17-.91.28-1.77.74-2.62,1.16-2.61,1.29-4.35,3.47-5.95,5.81-2.46,3.6-3.92,7.47-3.59,11.9.12,1.68,0,3.4.69,4.99.34.77.73,1.59,1.3,2.19,1.43,1.51,3.05,2.51,5.35,2.04,1.04-.22,2.06-.32,3.04-.79,1.55-.74,2.8-1.86,4.12-2.9.86-.68.89-1.4.78-2.3-.06-.45-.04-.92-.03-1.37,0-.34.1-.68.08-1.01-.08-1.1-.27-2.21-.25-3.31.01-.58.26-1.23.61-1.7.89-1.2,1.92-2.29,2.84-3.47,1.16-1.49,2.34-2.97,3.35-4.55,1-1.58,2-3.22,1.68-5.26-.11-.66.12-1.18.58-1.71.26-.3.39-.98.22-1.31-.31-.63-.78-1.29-1.36-1.65-2.16-1.32-4.55-.91-7.19-.86Z"/><path class="cls-1" d="m199.64,86.93c-1.72-.83-3.6-1.49-5.2-2.58-1.88-1.27-3.25-3.21-4.08-5.27-.7-1.73-.71-3.75-1.01-5.64-.44-2.75-.04-5.49.65-8.11.84-3.22,2.07-6.32,4.26-8.99,1.51-1.85,3.01-3.69,4.84-5.22,1.17-.98,2.36-1.99,3.93-2.33.32-.07.65-.21.97-.21.89,0,1.55.04,1.96-1.15.5-1.44,2.86-2.15,4.43-1.91,1.38.21,2.4.89,3.38,1.79,1.23,1.12,2.6,2.1,3.79,3.27.86.84,1.63,1.82,2.23,2.85,1.2,2.07,2.57,4.12,3.3,6.36.69,2.13,1.49,4.34,1.23,6.71-.05.48.09,1.09.38,1.47.82,1.06.9,2.24.73,3.45-.28,1.98-1.24,3.72-2.16,5.45-.09.18-.37.32-.58.37-2.24.45-3.73,1.95-5.18,3.57-2.35,2.63-4.58,5.39-7.18,7.75-1.75,1.58-4.04,2.57-6.1,3.81-.17.1-.5.11-.68.01-1.14-.59-2.34-1.1-2.77-2.51-.31-.99-.73-1.95-1.12-2.96Zm19.84-24.23c-1.36-2.38-2.59-4.59-3.88-6.78-.94-1.6-4.6-4.87-5.63-5.12-.02.09-.08.21-.04.27.62,1-.1,1.68-.65,2.29-.53.6-1.24.54-1.97.11-.99-.59-2-.47-2.96.17-.28.19-.61.32-.85.55-1.52,1.49-3.09,2.93-4.5,4.52-2.99,3.39-4.18,7.49-4.39,11.91-.11,2.27.21,4.48.84,6.69.83,2.92,3.96,4.27,6.71,3.79,1.63-.28,2.99-1.02,3.87-2.51.83-1.4,1.94-2.69,2.5-4.19.47-1.28,1.04-2.02,2.38-2.16.47-.05.94-.16,1.4-.24.87-4.16,3.41-7.05,7.15-9.33Z"/><path class="cls-1" d="m54.75,50.36c1.77.4,2.42,1.93,3,3.31.31.74.1,1.87-.21,2.69-.85,2.22-1.36,4.48-1.69,6.83-.15,1.09-.63,2.13-.95,3.19-.64,2.08-1.17,4.2-1.95,6.23-1.02,2.65-2.21,5.23-3.37,7.82-.34.77-.35,1.56.2,2.22.44.52.93.45,1.57.28.87-.24,1.8-.24,2.71-.33.53-.05,1.15.11,1.59-.1.93-.43,1.67-.14,2.46.29.57.31,1.09.73,1.85.17.28-.21,1.11-.01,1.47.27.74.59,1.41,1.3,1.96,2.07.47.66.75,1.47,1.05,2.23.15.39.25.84.24,1.25-.05,1.2-.17,2.4-.25,3.61-.1,1.35-.25,2.7-.27,4.05-.01,1.02-.31,1.72-1.27,2.23-1.43.77-2.81,1.29-4.38.42-.2-.11-.48-.14-.71-.1-1.17.23-1.93-.35-2.61-1.19-.64-.78-1.33-1.47-1.34-2.62,0-1.05-.28-2.1-.47-3.4-.76.4-1.59.6-2.03,1.13-1.01,1.2-2.03.62-3.09.29-.18-.06-.35-.14-.77-.31-.21.75-.41,1.43-.61,2.14-2.78.35-3.65-.1-4.62-2.46-.65-.2-.84.15-.95.72-.51,2.64-1.73,3.63-4.36,3.24-1.11-.16-1.81.19-2.52.88-1.28,1.24-1.29,1.15-3.04.47-2.17-.85-3.36-2.4-3.95-4.59-.42-1.56-1.24-3.04-1.5-4.62-.31-1.84-.73-3.72-.24-5.65.44-1.72,1.67-2.39,3.21-1.5,1.71.98,3.37,2.05,5,3.15.78.52,1.43.59,2.27.14,2.3-1.24,4.72-2.16,7.38-2.3.47-.03.93-.24,1.45-.38-.21-1.33-.06-2.48.95-3.62.7-.78.83-2.08,1.15-3.17.64-2.15,1.23-4.3,1.84-6.46.08-.27.17-.55.22-.83.46-2.6,1.29-5.1,2.2-7.57.1-.27.09-.57.13-.86.36-2.71.87-5.39,2.1-7.87.26-.53.79-.92,1.2-1.38l-.04-.03Z"/><path class="cls-1" d="m54.8,50.39c-.45-.09-1.03-.4-1.33-.23-.91.52-1.87.4-2.82.54-.69.11-1.35.51-1.99.85-1.22.64-2.38,1.1-3.86.64-.7-.22-1.75.1-2.43.52-1.24.77-2.41.58-3.62.15-.38-.14-.8-.42-1-.75-.87-1.44-2.28-1.68-3.75-1.83-.27-.03-.58.06-.84.17-.99.42-1.87.23-2.56-.58-.35-.4-.71-.82-1.13-1.14-1.53-1.18-1.86-3.46-.92-4.87.1-.15.24-.3.27-.47.36-2.43,1.96-3.44,4.27-2.68.18.06.38.24.54.2,1.43-.29,2.79.04,4.16.35.57.13.89-.2,1.1-.71.31-.74.66-1.46,1.01-2.21,1.46,0,2.81.06,4.15-.02,1.2-.07,2.4-.23,3.57-.48,1.55-.34,3.37.53,3.94,2.02.63,1.65.74,1.82,2.53,1.69,2.75-.2,5.49-.59,8.25-.83,1.94-.17,3.88-.25,5.83-.32.71-.02,1.26-.14,1.83-.65.67-.6,1.5-1.02,2.31-1.43.62-.32,1.25-.24,1.97-.05,1.08.28,2.23.23,3.35.37,1.27.16,2.26.66,2.69,2.03.33,1.04,1.08,1.96.82,3.16-.2.93-.33,1.87-.63,2.77-.12.34-.59.6-.96.81-.59.33-1.22.59-1.61.77-.35,1.02-.57,1.85-.92,2.62-.6,1.31-2.08,1.95-3.48,1.41-.78-.3-1.19-.13-1.55.51-.42.73-.98,1.2-1.83,1.51-1.67.62-2.69.35-3.76-1.13-.57-.79-.94-1.52-.82-2.56.13-1.16-.15-1.33-1.31-1.37-1.41-.05-2.78.13-4.17.45-1.22.28-2.52.21-3.78.35-.52.06-1.03.25-1.54.38,0,0,.04.03.04.03Z"/><path class="cls-1" d="m391.7,82.57c1.42,1.06,2.14,2.44,2.59,3.97.06.22-.09.56-.23.78-.18.28-.45.51-.7.74-.83.78-1.76,1.31-2.34,2.49-.86,1.73-3.98,2.19-5.71,1.15-.92-.56-1.88-.71-2.91-.74-1.94-.06-3.86-.66-5.11-2-1.94-2.06-2.79-3.87-1.33-6.51,2.56-.82,5.09-1.44,7.74-.98.54-1.93,1.07-3.67,1.51-5.43,1.04-4.1,2.74-7.95,4.27-11.88.97-2.49,1.94-4.98,2.84-7.49.3-.84.36-1.75.58-2.62.32-1.26.82-1.61,2.15-1.66,2.04-.08,3.49.72,4.75,2.4,1.34,1.78,1.2,3.4.41,5.23-1.88,4.34-3.87,8.65-5.57,13.06-1.12,2.89-2.32,5.79-2.68,8.92-.02.18-.14.35-.24.57Z"/><path class="cls-1" d="m133.35,66.27c-.2,2.79-.69,5.53-1.57,8.19-.43,1.32-.99,2.59-1.51,3.88-.86,2.11-.81,4.3-.39,6.46.09.48.81.91,1.33,1.22,2.15,1.32,3.07,3.38,2.4,5.67-.09.31-.38.65-.67.8-1.27.66-2.6,1.13-4.07,1.2-.64.03-1.32.28-1.9.59-1.09.58-2.06.72-3.24.12-.87-.44-1.92-.55-2.9-.75-2.57-.54-4.06-2.3-5-4.57-.44-1.06.33-1.94.82-2.83.39-.69.98-.88,1.72-.78.57.08,1.15.12,1.72.23,1.44.29,1.93.12,2.64-1.16.81-1.47,1.71-2.92,2.25-4.49.56-1.62,1.13-3.25,1.56-4.92.43-1.72,1.08-3.39,1.51-5.11.54-2.14.97-4.31,1.45-6.46.24-1.08.88-1.41,1.88-.98,1.66.7,2.07,2.05,1.97,3.69Z"/><path class="cls-1" d="m403.85,42.78c-1.41.1-2.45-.67-3.29-1.59-.79-.85-1.34-1.93-1.98-2.92-.09-.15-.14-.36-.12-.54.07-.87.24-1.75.24-2.62,0-1.35.83-2.22,1.6-3.15.8-.96,1.75-1.73,2.8-2.43,1.3-.87,2.62-1.14,4.1-.57.9.34,1.85.54,2.72.93,1.15.5,1.99,1.37,2.53,2.52.3.64.9,1.31.83,1.91-.16,1.48-.6,2.94-1.57,4.13-.72.89-1.44,1.81-2.32,2.53-.73.6-1.63,1.08-2.54,1.36-.95.3-1.99.3-3,.44Z"/></svg>